<svg id="_01" xmlns="http://www.w3.org/2000/svg" width="25.143" height="27.311" viewBox="0 0 25.143 27.311">
  <g id="Group_67644" data-name="Group 67644">
    <path id="Path_1150" data-name="Path 1150" d="M21.87,29.311H7.664A5.685,5.685,0,0,1,2.2,23.459v-.2L2.746,7.657A5.629,5.629,0,0,1,8.21,2H21.323a5.629,5.629,0,0,1,5.464,5.657l.546,15.606a5.881,5.881,0,0,1-1.457,4.194,5.043,5.043,0,0,1-3.825,1.853H21.87ZM8.21,3.951A3.74,3.74,0,0,0,4.568,7.657l-.546,15.8a3.79,3.79,0,0,0,3.643,3.9H22.052a3.3,3.3,0,0,0,2.55-1.268,4.427,4.427,0,0,0,1-2.829L25.057,7.657a3.675,3.675,0,0,0-3.643-3.706Z" transform="translate(-2.2 -2)" fill="#060055"/>
  </g>
  <g id="Group_67645" data-name="Group 67645" transform="translate(6.192 3.902)">
    <path id="Path_1151" data-name="Path 1151" d="M15.374,13.8A6.572,6.572,0,0,1,9,6.975a.913.913,0,1,1,1.821,0,4.677,4.677,0,0,0,4.553,4.877,4.677,4.677,0,0,0,4.553-4.877.913.913,0,1,1,1.821,0A6.572,6.572,0,0,1,15.374,13.8Z" transform="translate(-9 -6)" fill="#060055"/>
  </g>
</svg>
