<svg xmlns="http://www.w3.org/2000/svg" width="723.812" height="733.738" viewBox="0 0 723.812 733.738">
  <g id="Two_factor_authentication-bro" data-name="Two factor authentication-bro" transform="translate(-28.616 -27.99)">
    <g id="freepik--background-simple--inject-112" transform="translate(28.873 27.99)">
      <path id="Path_1709" data-name="Path 1709" d="M741.032,405.824C723.82,470.049,682.941,541.7,618.265,567.941,520.55,607.613,516.3,689.839,335.425,699.58a365.339,365.339,0,0,1-79.006-3.977,302.588,302.588,0,0,1-37.788-8.678C109.291,654.321,45.4,565.768,31.444,468.085,13.074,339.537,97.264,269.371,152.36,227.735S264.662,39.7,442.4,28.731a353.538,353.538,0,0,1,81.212,4.106c61.183,10.417,125.167,40.252,165.386,89.1q4.524,5.506,8.727,11.27C752.5,208.607,764.507,318.252,741.032,405.824Z" transform="translate(-28.873 -27.99)" fill="#ffc727"/>
      <path id="Path_1710" data-name="Path 1710" d="M741.032,405.824C723.82,470.049,682.941,541.7,618.265,567.941,520.55,607.613,516.3,689.839,335.425,699.58a365.339,365.339,0,0,1-79.006-3.977,302.588,302.588,0,0,1-37.788-8.678C109.291,654.321,45.4,565.768,31.444,468.085,13.074,339.537,97.264,269.371,152.36,227.735S264.662,39.7,442.4,28.731a353.538,353.538,0,0,1,81.212,4.106c61.183,10.417,125.167,40.252,165.386,89.1q4.524,5.506,8.727,11.27C752.5,208.607,764.507,318.252,741.032,405.824Z" transform="translate(-28.873 -27.99)" fill="#fff" opacity="0.7"/>
    </g>
    <g id="freepik--Graphics--inject-112" transform="translate(55.341 66.052)">
      <path id="Path_1711" data-name="Path 1711" d="M107.906,123.427V114.3c0-18-11.979-24.376-24.151-24.376A23.555,23.555,0,0,0,59.8,114.3v9.129H56.32v50.524h54.742V123.427ZM85.3,151.233v9.161H80.117v-9.161a6.907,6.907,0,1,1,5.184,0Zm15.022-27.758H67.075v-9.129a16.648,16.648,0,0,1,16.6-16.68c9.177,0,16.648,6.279,16.648,16.632Z" transform="translate(-38.596 -28.272)" fill="none" stroke="#000" stroke-width="1" opacity="0.3"/>
      <rect id="Rectangle_19167" data-name="Rectangle 19167" width="198.521" height="43.391" rx="13.48" transform="translate(85.588)" fill="none" stroke="#000" stroke-width="1" opacity="0.3"/>
      <g id="Group_76408" data-name="Group 76408" transform="translate(118.208 11.689)" opacity="0.3">
        <path id="Path_1712" data-name="Path 1712" d="M127.392,66.876l4.524,4.991-2.174,1.61-3.381-5.941-3.333,6.022-2.174-1.61,4.492-4.991-6.617-1.449.805-2.608,6.231,2.737-.773-6.746h2.737l-.725,6.746,6.231-2.689.805,2.608Z" transform="translate(-118.73 -58.89)"/>
        <path id="Path_1713" data-name="Path 1713" d="M137.868,66.876l4.524,4.991-2.238,1.691-3.365-5.941L133.5,73.558l-2.174-1.61,4.476-4.991-6.617-1.449.821-2.608,6.231,2.737-.773-6.746h2.737l-.725,6.746,6.231-2.689.805,2.608Z" transform="translate(-112.349 -58.89)"/>
        <path id="Path_1714" data-name="Path 1714" d="M148.258,66.876l4.524,4.991-2.174,1.61-3.365-5.941-3.268,6.022-2.157-1.61,4.476-4.991-6.633-1.449.821-2.608,6.231,2.737-.773-6.746h2.737l-.725,6.746,6.231-2.689.805,2.608Z" transform="translate(-105.961 -58.89)"/>
        <path id="Path_1715" data-name="Path 1715" d="M158.792,66.876l4.524,4.991-2.125,1.691-3.381-5.941-3.365,5.941-2.174-1.61,4.476-4.991-6.617-1.449.805-2.608,6.231,2.737-.805-6.746h2.721l-.725,6.746,6.231-2.689.821,2.608Z" transform="translate(-99.574 -58.89)"/>
        <path id="Path_1716" data-name="Path 1716" d="M169.294,66.876l4.524,4.991-2.174,1.61-3.381-5.941-3.349,6.022-2.19-1.61,4.492-4.991L160.6,65.507l.805-2.608,6.231,2.737-.773-6.746H169.6l-.725,6.746,6.231-2.689.805,2.608Z" transform="translate(-93.187 -58.89)"/>
        <path id="Path_1717" data-name="Path 1717" d="M179.738,66.876l4.524,4.991-2.19,1.61-3.365-5.941-3.333,6.022-2.174-1.61,4.476-4.991-6.617-1.449.821-2.608,6.231,2.737L177.4,58.89h2.737l-.725,6.746,6.231-2.689.805,2.608Z" transform="translate(-86.805 -58.89)"/>
        <path id="Path_1718" data-name="Path 1718" d="M190.192,66.876l4.524,4.991-2.174,1.61-3.365-5.941-3.333,6.022-2.174-1.61,4.476-4.991-6.617-1.449.821-2.608,6.231,2.737-.773-6.746h2.737l-.725,6.746,6.231-2.689.805,2.608Z" transform="translate(-80.418 -58.89)"/>
        <path id="Path_1719" data-name="Path 1719" d="M200.662,66.876l4.524,4.991-2.174,1.61-3.381-5.941-3.317,6.022-2.174-1.61,4.476-4.991L192,65.507l.805-2.608,6.231,2.737-.757-6.746H201l-.725,6.746,6.215-2.689.821,2.608Z" transform="translate(-74.031 -58.89)"/>
      </g>
      <path id="Path_1720" data-name="Path 1720" d="M98.882,248.526a6.762,6.762,0,0,0-5.539-3.929H89.689v-3.22a19.836,19.836,0,0,0,4.3-12.51c0-8.211-4.943-14.877-11.045-14.877s-10.965,6.666-10.965,14.877a20.093,20.093,0,0,0,3.977,12.156V244.6h-4.83a6.891,6.891,0,0,0-5.667,3.88L58.84,259.619h46.483Z" transform="translate(-37.059 47.42)" fill="none" stroke="#000" stroke-width="1" opacity="0.3"/>
      <circle id="Ellipse_156" data-name="Ellipse 156" cx="34.649" cy="34.649" r="34.649" transform="translate(0 306.22) rotate(-67.5)" fill="none" stroke="#000" stroke-width="1" opacity="0.3"/>
    </g>
    <g id="freepik--Arrows--inject-112" transform="translate(236.035 103.277)">
      <g id="Group_76409" data-name="Group 76409" opacity="0.2">
        <path id="Path_1721" data-name="Path 1721" d="M281.177,475.656a195.752,195.752,0,0,1,134.5-362.844l-4.991,16.745,55.644-13.251L427.049,74.75l-4.83,15.988a218.084,218.084,0,0,0-45.935-4.83c-120.61,0-218.743,98.117-218.743,218.727A218.969,218.969,0,0,0,276.009,499l-13.8-22.943Z" transform="translate(-157.54 -74.75)"/>
        <path id="Path_1722" data-name="Path 1722" d="M414.712,91.24l17.179,18.178L410.8,114.441a195.784,195.784,0,0,1-133.49,367.5l6.794-12.317-57.173,1.111,29.545,48.962,9.532-17.26A217.874,217.874,0,0,0,334,513.27c120.61,0,218.743-98.117,218.743-218.743A219.1,219.1,0,0,0,414.712,91.24Z" transform="translate(-115.208 -64.69)"/>
      </g>
    </g>
    <g id="freepik--device-2--inject-112" transform="translate(548.547 71.801)">
      <path id="Path_1723" data-name="Path 1723" d="M513.981,75.734,477.111,68.7v.129c-1.835,3.719-4.83,5.78-7.616,5.249l-1.61-.306c-2.785-.515-4.83-3.558-5.152-7.7v-.129l-36.87-7.036a18.9,18.9,0,0,0-22.138,15.038L355.873,316.6a10.868,10.868,0,0,0,8.646,12.7l104.026,19.852a10.852,10.852,0,0,0,12.7-8.63L529.068,97.9a18.918,18.918,0,0,0-15.086-22.171Z" transform="translate(-349.173 -53.146)" fill="#ffc727" stroke="#263238" stroke-linecap="round" stroke-linejoin="round" stroke-width="1"/>
      <path id="Path_1724" data-name="Path 1724" d="M510.23,103.282l1.03-5.41a18.918,18.918,0,0,0-15.086-22.138L459.3,68.7v.129c-1.835,3.719-4.83,5.78-7.616,5.249l-1.61-.306c-2.785-.515-4.83-3.558-5.152-7.7v-.129l-36.87-7.036a18.9,18.9,0,0,0-22.138,15.038l-1.046,5.426Z" transform="translate(-331.366 -53.146)" fill="#fff" stroke="#263238" stroke-linecap="round" stroke-linejoin="round" stroke-width="1"/>
      <path id="Path_1725" data-name="Path 1725" d="M522.42,183.039l4.492-23.507-2.125-.4L538.2,96.739A18.95,18.95,0,0,0,523.145,74.6L423.321,55.538a18.934,18.934,0,0,0-22.138,15.054l-49.2,249.7a18.9,18.9,0,0,0,15.038,22.138L466.841,361.5a18.934,18.934,0,0,0,22.235-15.038l27.371-143.746,2.125.419,2.657-13.927-2.125-.4,1.175-6.167ZM485.727,332.066A18.951,18.951,0,0,1,463.572,347.1l-88.183-16.825a18.934,18.934,0,0,1-15.038-22.138L406.174,76a18.9,18.9,0,0,1,22.138-15.038L465.182,68v.129c.354,4.138,2.367,7.181,5.152,7.7l1.61.306c2.769.531,5.78-1.61,7.616-5.249v-.129l36.887,7.036a18.918,18.918,0,0,1,15.086,22.171Z" transform="translate(-351.639 -55.201)" fill="#707070" stroke="#263238" stroke-linecap="round" stroke-linejoin="round" stroke-width="1"/>
      <path id="Path_1726" data-name="Path 1726" d="M518.321,75.379,424.938,57.556A20.061,20.061,0,0,0,401.479,73.5L353.757,315.826a20.045,20.045,0,0,0,15.94,23.459l93.384,17.807a20.045,20.045,0,0,0,23.459-15.94L534.261,98.822a20.045,20.045,0,0,0-15.94-23.443ZM484.655,330.848A18.95,18.95,0,0,1,462.5,345.886l-88.183-16.825a18.934,18.934,0,0,1-15.038-22.138L405.1,74.783A18.9,18.9,0,0,1,427.24,59.745l36.87,7.036v.129c.354,4.138,2.367,7.181,5.152,7.7l1.61.306c2.769.531,5.78-1.61,7.616-5.249v-.129l36.887,7.036a18.918,18.918,0,0,1,15.086,22.171Z" transform="translate(-350.567 -53.982)" fill="#263238" stroke="#263238" stroke-linecap="round" stroke-linejoin="round" stroke-width="1"/>
      <path id="Path_1727" data-name="Path 1727" d="M428.71,65.519a1.755,1.755,0,1,0-.744,1.136A1.771,1.771,0,0,0,428.71,65.519Z" transform="translate(-306.762 -50.192)" fill="#707070"/>
      <path id="Path_1728" data-name="Path 1728" d="M395.048,63.294c-.338,1.771-2.447,2.029-2.7,3.365v.1l1.916.37-.113.6-2.576-.564.1-.5c.354-1.884,2.415-1.884,2.721-3.526.113-.6,0-.966-.5-1.047s-.757.209-.853.725l-.1.515-.612-.113v-.483c.177-.886.692-1.4,1.61-1.24a1.3,1.3,0,0,1,1.111,1.8Z" transform="translate(-327.278 -51.381)" fill="#263238"/>
      <path id="Path_1729" data-name="Path 1729" d="M396.946,63.67v.145a1.207,1.207,0,0,1-.95,1.063,1.192,1.192,0,0,1,.483,1.352l-.081.451c-.177.9-.708,1.4-1.61,1.24s-1.208-.837-1.03-1.739v-.4l.612.113-.1.451c-.1.531,0,.886.531.966s.741-.177.853-.773l.1-.451c.1-.564,0-.886-.58-1h-.354l.113-.58h.386a.724.724,0,0,0,.853-.676v-.274c.113-.6,0-.95-.515-1.03s-.757.193-.853.725v.29l-.612-.113v-.274a1.3,1.3,0,0,1,1.61-1.224A1.329,1.329,0,0,1,396.946,63.67Z" transform="translate(-325.973 -51.113)" fill="#263238"/>
      <path id="Path_1730" data-name="Path 1730" d="M396.991,63.443l-.161.821-.628-.129.161-.805Zm-.612,3.22-.161.821-.628-.129.161-.805Z" transform="translate(-324.826 -50.241)" fill="#263238"/>
      <path id="Path_1731" data-name="Path 1731" d="M397.645,64.823a.918.918,0,0,1,.95-.322c.757.145.982.757.821,1.61l-.209,1.143c-.177.9-.708,1.4-1.61,1.224s-1.191-.821-1.03-1.723l.081-.4.612.129-.081.435c-.113.515,0,.886.515.966s.757-.177.853-.708l.209-1.143c.113-.515,0-.886-.515-.966a.644.644,0,0,0-.789.5v.129l-.612-.113.773-3.22,2.318.435-.113.58-1.723-.322Z" transform="translate(-324.256 -50.833)" fill="#263238"/>
      <path id="Path_1732" data-name="Path 1732" d="M401.83,64.536V64.7l-.612-.113v-.145c.1-.531,0-.886-.547-.966s-.773.177-.885.805l-.258,1.3a.966.966,0,0,1,1.079-.435c.741.145.982.741.821,1.61l-.177.886a1.3,1.3,0,0,1-1.61,1.224,1.32,1.32,0,0,1-1.063-1.739l.58-2.979c.177-.934.708-1.433,1.61-1.256a1.288,1.288,0,0,1,1.063,1.642ZM399.4,66.307l-.177.869c-.1.531,0,.886.531.982s.757-.177.869-.708l.161-.886c.1-.515,0-.886-.531-.966S399.5,65.808,399.4,66.307Z" transform="translate(-323.048 -50.529)" fill="#263238"/>
      <rect id="Rectangle_19168" data-name="Rectangle 19168" width="1.691" height="4.202" transform="translate(141.021 26.165) rotate(10.81)" fill="#263238"/>
      <rect id="Rectangle_19169" data-name="Rectangle 19169" width="1.691" height="5.056" transform="translate(143.407 25.728) rotate(10.8)" fill="#263238"/>
      <rect id="Rectangle_19170" data-name="Rectangle 19170" width="1.691" height="5.651" transform="translate(145.718 25.542) rotate(10.8)" fill="#263238"/>
      <rect id="Rectangle_19171" data-name="Rectangle 19171" width="1.691" height="6.698" transform="translate(148.143 24.957) rotate(10.8)" fill="#263238"/>
      <path id="Path_1733" data-name="Path 1733" d="M460.368,80.354,450.45,78.47l1.143-6.07,9.934,1.9Zm-9.274-2.335,8.823,1.61.95-4.975-8.823-1.61Z" transform="translate(-291.358 -44.708)" fill="#263238"/>
      <rect id="Rectangle_19172" data-name="Rectangle 19172" width="5.329" height="3.832" transform="translate(161.42 29.066) rotate(10.8)" fill="#263238"/>
      <rect id="Rectangle_19173" data-name="Rectangle 19173" width="1.27" height="1.447" transform="matrix(0.982, 0.19, -0.19, 0.982, 167.38, 33.491)" fill="#263238"/>
      <path id="Path_1734" data-name="Path 1734" d="M449.911,75.606a.387.387,0,0,1-.177-.1,2.963,2.963,0,0,0-3.4-.692.376.376,0,1,1-.386-.644,3.655,3.655,0,0,1,4.283.773.37.37,0,0,1,0,.531.386.386,0,0,1-.322.129Z" transform="translate(-294.216 -43.857)" fill="#263238"/>
      <path id="Path_1735" data-name="Path 1735" d="M451.113,75.03a.354.354,0,0,1-.177,0,4.251,4.251,0,0,0-4.83-.982.376.376,0,1,1-.387-.644,5.023,5.023,0,0,1,5.78,1.063.37.37,0,0,1,0,.531.354.354,0,0,1-.386.032Z" transform="translate(-294.355 -44.391)" fill="#263238"/>
      <path id="Path_1736" data-name="Path 1736" d="M452.206,74.4a.547.547,0,0,1-.193-.1,5.362,5.362,0,0,0-6.247-1.224.386.386,0,0,1-.515-.145.37.37,0,0,1,.129-.515,6.2,6.2,0,0,1,7.133,1.32.37.37,0,0,1,0,.531.354.354,0,0,1-.306.129Z" transform="translate(-294.563 -45.062)" fill="#263238"/>
      <path id="Path_1737" data-name="Path 1737" d="M448.278,75.6a.934.934,0,0,1-1.095.757.951.951,0,1,1,.354-1.868.934.934,0,0,1,.741,1.111Z" transform="translate(-293.823 -43.445)" fill="#263238"/>
      <rect id="Rectangle_19174" data-name="Rectangle 19174" width="106.135" height="91.854" rx="5.34" transform="translate(50.464 98.816) rotate(10.8)" fill="#fff" stroke="#263238" stroke-width="1"/>
      <path id="Path_1738" data-name="Path 1738" d="M398.667,114.048l-1.127-8.6,1.465.274.773,6.569L403,106.48l1.336.242-4.283,7.664-.853,4.524-1.4-.258Z" transform="translate(-323.636 -24.545)" fill="#263238"/>
      <path id="Path_1739" data-name="Path 1739" d="M402.281,109.248a2.963,2.963,0,1,1,5.78,1.111l-1.24,6.44a2.962,2.962,0,1,1-5.78-1.111Zm.129,6.859c-.225,1.159.145,1.916,1.143,2.109s1.61-.386,1.852-1.61l1.272-6.666c.209-1.143-.129-1.916-1.143-2.109s-1.61.4-1.852,1.61Z" transform="translate(-321.583 -23.9)" fill="#263238"/>
      <path id="Path_1740" data-name="Path 1740" d="M406.786,117.092c-.209,1.143.1,1.9,1.127,2.109s1.61-.419,1.819-1.61l1.835-9.66,1.32.258-1.836,9.564c-.37,1.916-1.5,3.027-3.429,2.641s-2.576-1.8-2.206-3.719l1.819-9.564,1.385.258Z" transform="translate(-318.891 -23.533)" fill="#263238"/>
      <path id="Path_1741" data-name="Path 1741" d="M414.619,108.515a2.544,2.544,0,0,1,2.254,3.429l-.193,1.03c-.274,1.385-.918,2.157-2.061,2.286a2.415,2.415,0,0,1,1.079,2.93l-.37,1.964a3.22,3.22,0,0,0,0,1.61l-1.417-.258a3.366,3.366,0,0,1,0-1.61l.37-1.98c.274-1.433-.306-2.013-1.481-2.238l-.982-.177-1.03,5.378-1.417-.258L411.785,108Zm-1.5,5.925c1.111.209,1.852,0,2.109-1.4l.225-1.208c.225-1.127,0-1.8-1.127-2.013l-1.369-.258-.885,4.669Z" transform="translate(-316.419 -22.99)" fill="#263238"/>
      <path id="Path_1742" data-name="Path 1742" d="M422.775,113.1l-.209,1.127-1.336-.258.225-1.208c.225-1.127-.1-1.9-1.127-2.093s-1.61.4-1.819,1.61l-1.272,6.666c-.225,1.143.113,1.916,1.127,2.109s1.61-.4,1.819-1.61l.322-1.61,1.336.242-.306,1.61c-.37,1.9-1.5,2.995-3.446,2.624s-2.592-1.8-2.222-3.719l1.24-6.44c.354-1.9,1.5-2.995,3.429-2.624a2.785,2.785,0,0,1,2.238,3.574Z" transform="translate(-312.516 -22.102)" fill="#263238"/>
      <path id="Path_1743" data-name="Path 1743" d="M421.353,112.86a2.963,2.963,0,1,1,5.8,1.111l-1.256,6.44a2.946,2.946,0,1,1-5.78-1.095Zm.129,6.875c-.209,1.143.145,1.9,1.159,2.093s1.61-.37,1.836-1.61l1.272-6.666c.225-1.143-.113-1.916-1.143-2.109s-1.61.4-1.852,1.61Z" transform="translate(-309.919 -21.651)" fill="#263238"/>
      <path id="Path_1744" data-name="Path 1744" d="M429.5,111.349a2.737,2.737,0,0,1,2.27,3.671l-1.208,6.44c-.37,1.916-1.5,2.946-3.462,2.56l-2.963-.564,2.415-12.607Zm-2.174,11.27c1.014.193,1.61-.354,1.836-1.513l1.24-6.44c.209-1.159-.145-1.884-1.175-2.077l-1.514-.29L425.8,122.362Z" transform="translate(-307.409 -21.251)" fill="#263238"/>
      <path id="Path_1745" data-name="Path 1745" d="M434.408,118.106l-.242,1.256-3.091-.6-.853,4.492,3.784.725-.241,1.272-5.184-.982,2.4-12.623,5.2,1-.258,1.272-3.784-.725-.821,4.315Z" transform="translate(-304.7 -20.763)" fill="#263238"/>
      <path id="Path_1746" data-name="Path 1746" d="M393.93,146.367a3.9,3.9,0,0,1,3.912-1.288c3.059.58,3.993,3.091,3.333,6.44l-.886,4.653c-.692,3.639-2.882,5.684-6.521,4.991s-4.83-3.4-4.186-7.036l.306-1.61,2.48.467-.338,1.771c-.4,2.141.225,3.607,2.125,3.961s3.043-.757,3.446-2.9l.885-4.621c.419-2.141-.225-3.607-2.125-3.961a2.592,2.592,0,0,0-3.22,2.029l-.113.547-2.48-.467,3.22-13.106,9.387,1.787-.451,2.383-7-1.336Z" transform="translate(-328.592 -5.761)" fill="#263238"/>
      <path id="Path_1747" data-name="Path 1747" d="M410.871,145.309v.451l-2.48-.483.113-.612c.419-2.141-.225-3.558-2.174-3.929s-3.22.741-3.623,3.22l-1.014,5.345a3.88,3.88,0,0,1,4.331-1.819c3.059.58,3.993,3.043,3.333,6.44l-.676,3.607c-.692,3.639-2.963,5.667-6.585,4.975s-5.023-3.429-4.331-7.068l2.318-12.14c.708-3.768,2.866-5.8,6.633-5.072S411.563,141.671,410.871,145.309Zm-9.886,7.358-.676,3.558c-.419,2.141.225,3.607,2.157,3.977s3.075-.757,3.478-2.9l.676-3.574c.419-2.141-.258-3.607-2.157-3.961s-2.995.757-3.478,2.9Z" transform="translate(-323.604 -4.639)" fill="#263238"/>
      <path id="Path_1748" data-name="Path 1748" d="M419.128,146.812l-.081.451-2.5-.483.129-.612c.4-2.141-.241-3.558-2.174-3.929s-3.14.741-3.623,3.22l-1.03,5.329a3.912,3.912,0,0,1,4.331-1.8c3.059.58,4.009,3.043,3.349,6.44l-.692,3.59c-.692,3.639-2.946,5.684-6.585,4.991s-5.023-3.429-4.331-7.068l2.319-11.963c.725-3.768,2.866-5.8,6.65-5.072S419.82,143.174,419.128,146.812Zm-9.9,7.342-.676,3.574c-.4,2.141.225,3.607,2.174,3.977s3.059-.757,3.478-2.9l.676-3.574c.4-2.141-.258-3.607-2.174-3.977S409.645,152.013,409.226,154.154Z" transform="translate(-318.626 -3.614)" fill="#263238"/>
      <path id="Path_1749" data-name="Path 1749" d="M427.358,148.435l-2.319,12.14c-.725,3.768-2.866,5.828-6.682,5.1s-4.927-3.381-4.234-7l.1-.451,2.48.467-.129.628c-.4,2.141.274,3.574,2.174,3.929s3.22-.725,3.655-3.22l1.014-5.329a3.864,3.864,0,0,1-4.315,1.771c-3.059-.58-4.009-3.011-3.349-6.44l.692-3.639c.692-3.639,2.914-5.651,6.585-4.959S428.05,144.8,427.358,148.435Zm-8.276-1.723-.676,3.574c-.4,2.141.258,3.607,2.174,3.977s3.059-.757,3.462-2.9l.692-3.574c.419-2.174-.225-3.607-2.174-3.977s-3.059.725-3.478,2.9Z" transform="translate(-313.637 -2.677)" fill="#263238"/>
      <path id="Path_1750" data-name="Path 1750" d="M435.854,149.972l-.145.757c-.451,2.415-1.61,4.009-3.655,4.379,1.836,1.143,2.222,3.22,1.771,5.539l-.338,1.771c-.708,3.671-3.043,5.587-6.746,4.83s-5.184-3.349-4.476-7.02l.338-1.771c.451-2.415,1.61-4.073,3.719-4.508-1.8-1.111-2.286-2.995-1.819-5.41l.129-.757c.708-3.671,3.059-5.506,6.746-4.83S436.562,146.334,435.854,149.972Zm-8.614-1.61-.209,1.143c-.451,2.319.483,3.558,2.351,3.912s3.22-.451,3.623-2.769l.209-1.095c.467-2.447-.435-3.784-2.318-4.138s-3.188.531-3.655,2.995Zm-1.964,10.288-.386,2.013c-.467,2.447.4,3.816,2.3,4.17s3.22-.58,3.687-3.027l.386-2.013c.435-2.3-.37-3.623-2.335-3.993s-3.2.6-3.655,2.9Z" transform="translate(-308.657 -1.751)" fill="#263238"/>
      <line id="Line_245" data-name="Line 245" x2="82.21" y2="15.682" transform="translate(41.429 211.417)" fill="none" stroke="#263238" stroke-width="1"/>
      <line id="Line_246" data-name="Line 246" x2="82.194" y2="15.682" transform="translate(38.37 227.453)" fill="none" stroke="#263238" stroke-width="1"/>
      <line id="Line_247" data-name="Line 247" y1="3.059" x2="19.884" transform="translate(174.726 147.932)" fill="none" stroke="#263238" stroke-width="1"/>
      <line id="Line_248" data-name="Line 248" x2="10.707" y2="3.059" transform="translate(171.667 173.934)" fill="none" stroke="#263238" stroke-width="1"/>
      <line id="Line_249" data-name="Line 249" x2="19.884" y2="13.766" transform="translate(165.548 193.819)" fill="none" stroke="#263238" stroke-width="1"/>
    </g>
    <g id="freepik--device-1--inject-112" transform="translate(161.666 192.877)">
      <path id="Path_1751" data-name="Path 1751" d="M482.341,198.506a3.9,3.9,0,0,0,3.9-3.9v-32.2a3.9,3.9,0,0,0-3.9-3.9h-.161V145.921A15.537,15.537,0,0,0,466.611,130.4H126.887a15.537,15.537,0,0,0-15.537,15.537v234.7a15.537,15.537,0,0,0,15.537,15.521H466.611a15.537,15.537,0,0,0,15.537-15.521V296.43h.161a3.9,3.9,0,0,0,3.9-3.9v-32.2a3.9,3.9,0,0,0-3.9-3.9h-.161v-4.073h.161a3.9,3.9,0,0,0,3.9-3.9v-32.2a3.9,3.9,0,0,0-3.9-3.9h-.161V198.506Z" transform="translate(-111.35 -130.4)" fill="#263238"/>
      <rect id="Rectangle_19175" data-name="Rectangle 19175" width="343.089" height="245.052" transform="translate(13.895 10.353)" fill="#ffc727" stroke="#263238" stroke-width="1"/>
      <rect id="Rectangle_19176" data-name="Rectangle 19176" width="191.871" height="154.099" transform="translate(90.067 41.862)" fill="#e3e3e3" stroke="#263238" stroke-width="1"/>
      <path id="Path_1752" data-name="Path 1752" d="M213.429,227.219v.966h-2.351v3.429h2.882v.966H210v-9.66h3.961v.966h-2.882v3.3Z" transform="translate(-51.167 -73.957)" fill="#b2b2b2"/>
      <path id="Path_1753" data-name="Path 1753" d="M214.036,232.58h-.966v-9.66h1.352l2.238,6.955V222.92h.95v9.66H216.5l-2.463-7.793Z" transform="translate(-49.294 -73.957)" fill="#b2b2b2"/>
      <path id="Path_1754" data-name="Path 1754" d="M218.117,232.568v-8.662H216.33v-.966h4.621v.966H219.18v8.662Z" transform="translate(-47.305 -73.945)" fill="#b2b2b2"/>
      <path id="Path_1755" data-name="Path 1755" d="M223.079,227.219v.966h-2.351v3.429h2.882v.966H219.65v-9.66h3.961v.966h-2.882v3.3Z" transform="translate(-45.28 -73.957)" fill="#b2b2b2"/>
      <path id="Path_1756" data-name="Path 1756" d="M224.871,222.952c1.513,0,2.157.757,2.157,2.19v.789c0,1.063-.37,1.723-1.208,1.98.886.274,1.224.982,1.224,2.013v1.5a2.238,2.238,0,0,0,.193,1.159h-1.095a2.415,2.415,0,0,1-.177-1.159v-1.513c0-1.095-.515-1.433-1.4-1.433h-.757v4.106H222.73v-9.66Zm-.274,4.54c.853,0,1.369-.274,1.369-1.32v-.934c0-.853-.322-1.32-1.111-1.32h-1.047v3.574Z" transform="translate(-43.401 -73.957)" fill="#b2b2b2"/>
      <path id="Path_1757" data-name="Path 1757" d="M231.717,225.3v.869h-1.03v-.918c0-.869-.338-1.4-1.127-1.4s-1.127.531-1.127,1.4v5.088c0,.869.354,1.4,1.127,1.4s1.127-.531,1.127-1.4v-1.256h1.03v1.208c0,1.449-.692,2.415-2.19,2.415s-2.157-.966-2.157-2.415V225.3c0-1.465.692-2.415,2.157-2.415S231.717,223.83,231.717,225.3Z" transform="translate(-40.57 -73.981)" fill="#b2b2b2"/>
      <path id="Path_1758" data-name="Path 1758" d="M230.62,225.3c0-1.465.725-2.415,2.206-2.415a2.109,2.109,0,0,1,2.222,2.415v4.991a2.125,2.125,0,0,1-2.206,2.447c-1.481,0-2.206-.966-2.206-2.415Zm1.063,5.04c0,.886.37,1.4,1.143,1.4s1.143-.515,1.143-1.4v-5.088c0-.869-.354-1.4-1.143-1.4s-1.143.531-1.143,1.4Z" transform="translate(-38.588 -73.983)" fill="#b2b2b2"/>
      <path id="Path_1759" data-name="Path 1759" d="M236.254,222.964c1.5,0,2.19.9,2.19,2.383v4.83c0,1.481-.692,2.383-2.19,2.383H234V222.9Zm0,8.662c.773,0,1.143-.483,1.143-1.369V225.3c0-.886-.37-1.369-1.159-1.369h-1.143v7.7Z" transform="translate(-36.526 -73.969)" fill="#b2b2b2"/>
      <path id="Path_1760" data-name="Path 1760" d="M240.809,227.219v.966h-2.351v3.429h2.9v.966H237.38v-9.66h3.977v.966h-2.9v3.3Z" transform="translate(-34.464 -73.957)" fill="#b2b2b2"/>
      <rect id="Rectangle_19177" data-name="Rectangle 19177" width="161.908" height="18.274" transform="translate(104.88 92.756)" fill="#fff" stroke="#263238" stroke-width="1"/>
      <rect id="Rectangle_19178" data-name="Rectangle 19178" width="161.908" height="18.274" transform="translate(104.88 121.737)" fill="#fff" stroke="#263238" stroke-width="1"/>
      <rect id="Rectangle_19179" data-name="Rectangle 19179" width="15.28" height="18.274" transform="translate(193.433 162.955)" fill="#fff" stroke="#263238" stroke-width="1"/>
      <rect id="Rectangle_19180" data-name="Rectangle 19180" width="15.28" height="18.274" transform="translate(173.967 162.955)" fill="#fff" stroke="#263238" stroke-width="1"/>
      <rect id="Rectangle_19181" data-name="Rectangle 19181" width="15.28" height="18.274" transform="translate(154.518 162.955)" fill="#fff" stroke="#263238" stroke-width="1"/>
      <rect id="Rectangle_19182" data-name="Rectangle 19182" width="14.587" height="18.274" transform="translate(135.761 162.955)" fill="#fff" stroke="#263238" stroke-width="1"/>
      <rect id="Rectangle_19183" data-name="Rectangle 19183" width="15.843" height="18.274" transform="translate(212.883 162.955)" fill="#fff" stroke="#263238" stroke-width="1"/>
      <path id="Path_1761" data-name="Path 1761" d="M239.57,174.482v-3.51a10.337,10.337,0,0,0-20.657,0v3.51h-.193V193.9h21.044V174.482Zm-9.66,10.675v3.51h-2.045v-3.542a2.657,2.657,0,1,1,2,0Zm5.78-10.675h-12.8v-3.51a6.44,6.44,0,0,1,12.8,0Z" transform="translate(-45.847 -111.706)" fill="#263238"/>
      <path id="Path_1762" data-name="Path 1762" d="M211.6,197.882c0,.869.338,1.385,1.127,1.385s1.111-.515,1.111-1.385v-7.374h1.014v7.261c0,1.465-.676,2.447-2.174,2.447s-2.141-.982-2.141-2.447v-7.31H211.6Z" transform="translate(-50.838 -93.759)" fill="#b2b2b2"/>
      <path id="Path_1763" data-name="Path 1763" d="M218.117,192.845v.258h-1.03v-.322c0-.853-.322-1.369-1.095-1.369s-1.095.515-1.095,1.369c0,2.157,3.22,2.367,3.22,5.072,0,1.465-.708,2.415-2.19,2.415s-2.157-.95-2.157-2.415V197.3h1.014v.612c0,.853.354,1.369,1.127,1.369s1.127-.515,1.127-1.369c0-2.157-3.22-2.367-3.22-5.072,0-1.5.676-2.415,2.125-2.415S218.117,191.348,218.117,192.845Z" transform="translate(-48.867 -93.778)" fill="#b2b2b2"/>
      <path id="Path_1764" data-name="Path 1764" d="M220.489,194.763v.966h-2.367v3.429h2.9v.982H217.06v-9.66h3.961v.982h-2.9v3.22Z" transform="translate(-46.86 -93.747)" fill="#b2b2b2"/>
      <path id="Path_1765" data-name="Path 1765" d="M222.287,190.5c1.513,0,2.141.773,2.141,2.206v.789c0,1.063-.37,1.723-1.191,1.98.886.258,1.208.982,1.208,2.013v1.5a2.479,2.479,0,0,0,.193,1.159h-1.079a2.447,2.447,0,0,1-.193-1.175v-1.514c0-1.095-.5-1.433-1.4-1.433h-.757v4.122H220.13v-9.66Zm-.274,4.54c.853,0,1.352-.274,1.352-1.32V192.8c0-.869-.306-1.32-1.111-1.32h-1.047v3.558Z" transform="translate(-44.987 -93.747)" fill="#b2b2b2"/>
      <path id="Path_1766" data-name="Path 1766" d="M225.786,200.14h-.966v-9.66h1.369l2.222,6.972V190.48h.95v9.66h-1.03l-2.463-7.793Z" transform="translate(-42.126 -93.747)" fill="#b2b2b2"/>
      <path id="Path_1767" data-name="Path 1767" d="M229.519,198.192l-.37,1.948h-1L230,190.48h1.61l1.835,9.66h-1.063L232,198.192Zm.145-.918H231.8l-1.079-5.571Z" transform="translate(-40.094 -93.747)" fill="#b2b2b2"/>
      <path id="Path_1768" data-name="Path 1768" d="M235.494,200.124h-1.03l-1.61-7.664v7.68h-.934v-9.66h1.5l1.61,7.7,1.53-7.7h1.5v9.66H237.04V192.38Z" transform="translate(-37.795 -93.747)" fill="#b2b2b2"/>
      <path id="Path_1769" data-name="Path 1769" d="M239.823,194.763v.966h-2.351v3.429h2.9v.982H236.41v-9.66h3.961v.982h-2.9v3.22Z" transform="translate(-35.055 -93.747)" fill="#b2b2b2"/>
      <path id="Path_1770" data-name="Path 1770" d="M213.165,212.1l1.465,1.61-.708.515-1.079-1.916-1.079,1.916-.692-.515,1.433-1.61-2.125-.451.258-.837,2.013.886-.242-2.174h.869l-.225,2.174,2.013-.869.258.837Z" transform="translate(-50.935 -82.132)" fill="#b2b2b2"/>
      <path id="Path_1771" data-name="Path 1771" d="M216.545,212.1l1.465,1.61-.708.515-1.079-1.916-1.079,1.916-.708-.515,1.449-1.61-2.125-.451.258-.837,2.013.886-.258-2.174h.886l-.242,2.174,2.013-.869.274.837Z" transform="translate(-48.873 -82.132)" fill="#b2b2b2"/>
      <path id="Path_1772" data-name="Path 1772" d="M219.932,212.1l1.465,1.61-.708.515-1.095-1.916-1.063,1.916-.708-.515,1.449-1.61-2.141-.451.274-.837,2,.886-.241-2.174h.886l-.241,2.174,2.013-.869.258.837Z" transform="translate(-46.817 -82.132)" fill="#b2b2b2"/>
      <path id="Path_1773" data-name="Path 1773" d="M223.312,212.1l1.449,1.61-.692.515-1.095-1.916-1.079,1.916-.692-.515,1.449-1.61-2.141-.451.258-.837,2.013.886-.241-2.174h.869l-.225,2.174,2.013-.869.258.837Z" transform="translate(-44.755 -82.132)" fill="#b2b2b2"/>
      <path id="Path_1774" data-name="Path 1774" d="M226.675,212.1l1.465,1.61-.708.515-1.079-1.916-1.079,1.916-.692-.515,1.433-1.61-2.125-.451.258-.837,2.013.886-.258-2.174h.886l-.225,2.174,2.013-.869.258.837Z" transform="translate(-42.693 -82.132)" fill="#b2b2b2"/>
      <path id="Path_1775" data-name="Path 1775" d="M230.061,212.1l1.465,1.61-.708.515-1.079-1.916-1.079,1.916-.708-.515,1.449-1.61-2.141-.451.274-.837,2.013.886-.258-2.174h.886l-.242,2.174,2.013-.869.274.837Z" transform="translate(-40.637 -82.132)" fill="#b2b2b2"/>
      <path id="Path_1776" data-name="Path 1776" d="M233.441,212.1l1.465,1.61-.708.515-1.095-1.916-1.063,1.916-.708-.515,1.449-1.61-2.141-.451.258-.837,2.013.886-.241-2.174h.886l-.242,2.174,2.013-.869.258.837Z" transform="translate(-38.575 -82.132)" fill="#b2b2b2"/>
      <path id="Path_1777" data-name="Path 1777" d="M236.821,212.1l1.449,1.61-.692.515-1.095-1.916-1.079,1.916-.692-.515,1.449-1.61-2.141-.451.258-.837,2.013.886-.241-2.174h.869l-.225,2.174,2.013-.869.258.837Z" transform="translate(-36.513 -82.132)" fill="#b2b2b2"/>
    </g>
    <g id="freepik--Mug--inject-112" transform="translate(258.737 563.127)">
      <ellipse id="Ellipse_157" data-name="Ellipse 157" cx="102.996" cy="96.781" rx="102.996" ry="96.781" transform="translate(2.174 5.04)" fill="#263238"/>
      <ellipse id="Ellipse_158" data-name="Ellipse 158" cx="102.996" cy="96.781" rx="102.996" ry="96.781" fill="#fff" stroke="#263238" stroke-width="1"/>
      <ellipse id="Ellipse_159" data-name="Ellipse 159" cx="88.892" cy="83.546" rx="88.892" ry="83.546" transform="translate(14.104 13.235)" fill="#fff" stroke="#263238" stroke-width="1"/>
      <path id="Path_1778" data-name="Path 1778" d="M275.392,385.54c-35.679,0-64.612,36.339-64.612,81.18,0,28.981,12.059,54.291,30.173,68.669,2.995.258,6.022.4,9.081.4,37.514,0,70.215-19.192,87.684-47.69a100.818,100.818,0,0,0,2.222-21.317C339.939,421.879,311.071,385.54,275.392,385.54Z" transform="translate(-147.762 -344.999)" fill="#263238"/>
      <rect id="Rectangle_19184" data-name="Rectangle 19184" width="42.071" height="10.063" transform="translate(21.704 85.108)" fill="#fff" stroke="#263238" stroke-width="1"/>
      <ellipse id="Ellipse_160" data-name="Ellipse 160" cx="64.177" cy="60.297" rx="64.177" ry="60.297" transform="translate(53.663 29.303)" fill="#fff" stroke="#263238" stroke-width="1"/>
      <ellipse id="Ellipse_161" data-name="Ellipse 161" cx="53.567" cy="50.347" rx="53.567" ry="50.347" transform="translate(64.274 39.253)" fill="#263238" stroke="#263238" stroke-width="1"/>
      <path id="Path_1779" data-name="Path 1779" d="M232.838,400.7a20.185,20.185,0,0,0-1.191-2.447c-5.474-9.516-4.83-21.607-.692-32.845" transform="translate(-137.442 -357.279)" fill="none" stroke="#263238" stroke-width="1"/>
      <path id="Path_1780" data-name="Path 1780" d="M231.743,407.343s2.866-10.884-.853-20.013" transform="translate(-135.494 -343.907)" fill="none" stroke="#fff" stroke-width="1"/>
      <path id="Path_1781" data-name="Path 1781" d="M244.784,398.255c-5.458-9.515-4.83-21.607-.676-32.845" transform="translate(-129.423 -357.279)" fill="none" stroke="#263238" stroke-width="1"/>
      <path id="Path_1782" data-name="Path 1782" d="M245.335,408.27s3.413-12.961-2.045-22.46" transform="translate(-127.929 -344.834)" fill="none" stroke="#fff" stroke-width="1"/>
      <path id="Path_1783" data-name="Path 1783" d="M258.611,399.527c-.209-.435-.435-.853-.676-1.272-5.458-9.515-4.83-21.607-.692-32.845" transform="translate(-121.401 -357.279)" fill="none" stroke="#263238" stroke-width="1"/>
      <path id="Path_1784" data-name="Path 1784" d="M258.229,407.788s3.123-11.834-1.369-21.188" transform="translate(-119.65 -344.352)" fill="none" stroke="#fff" stroke-width="1"/>
    </g>
    <g id="freepik--right-hand--inject-112" transform="translate(380.73 359.914)">
      <path id="Path_1785" data-name="Path 1785" d="M467.252,432.258s-1.61.1-4.685.419c-2.834-9.66-11.367-38.223-16.97-52.987-6.794-17.936-16.1-43.295-22.251-53.808s-5.571-16.7-17.324-26.582-22.267-5.571-22.267-5.571-1.852-7.422-13.605-11.126-27.822,3.7-27.822,3.7-2.48-4.331-14.233-3.091a20.464,20.464,0,0,0-16.1,11.754s-24.151-48.3-33.393-51.957-18.564,5.571-14.845,14.233S295.3,314.144,299,325.269s11.753,29.69,11.753,29.69-26.6-19.176-34.632-21.027-19.788-3.091-26.6,4.331,9.274,9.274,22.267,21.027,34.021,38.947,43.906,56.272,30.929,20.416,40.252,30.3c6.521,6.971,15.811,16.68,20.738,21.832a54.068,54.068,0,0,0-4.653,5.378l20.4,50.089s4.331-6.794,21.655-20.4,71.117-30.3,71.117-30.3Z" transform="translate(-247.107 -229.239)" fill="#263238" stroke="#263238" stroke-width="1"/>
      <path id="Path_1786" data-name="Path 1786" d="M379.6,463.184s-14.845-15.457-24.151-25.342-30.3-12.993-40.252-30.318-30.929-44.518-43.906-56.272-29.062-13.605-22.267-21.027,18.661-6.15,26.711-4.331,34.632,21.027,34.632,21.027-8.05-18.548-11.753-29.673-31.573-59.379-35.277-68.041,5.555-17.936,14.829-14.217,33.409,51.941,33.409,51.941a20.383,20.383,0,0,1,16.1-11.737c11.753-1.24,14.233,3.091,14.233,3.091s16.1-7.422,27.822-3.719,13.605,11.142,13.605,11.142,10.514-4.331,22.267,5.555,11.126,16.1,17.308,26.6,15.473,35.872,22.267,53.808,17.936,56.272,17.936,56.272L383.3,471.234Z" transform="translate(-247.409 -234.146)" fill="#fff" stroke="#263238" stroke-width="1"/>
      <line id="Line_250" data-name="Line 250" x2="21.639" y2="32.169" transform="translate(64.162 52.784)" fill="none" stroke="#263238" stroke-width="1"/>
      <line id="Line_251" data-name="Line 251" x2="19.788" y2="30.913" transform="translate(94.464 44.138)" fill="none" stroke="#263238" stroke-width="1"/>
      <line id="Line_252" data-name="Line 252" x2="13.605" y2="24.119" transform="translate(135.891 51.561)" fill="none" stroke="#263238" stroke-width="1"/>
      <line id="Line_253" data-name="Line 253" x2="2.834" y2="8.211" transform="translate(72.454 140.436)" fill="none" stroke="#263238" stroke-width="1"/>
      <line id="Line_254" data-name="Line 254" x2="7.567" y2="21.961" transform="translate(62.923 112.775)" fill="none" stroke="#263238" stroke-width="1"/>
      <line id="Line_255" data-name="Line 255" x2="4.943" y2="6.794" transform="translate(97.555 92.376)" fill="none" stroke="#263238" stroke-width="1"/>
      <line id="Line_256" data-name="Line 256" x2="5.571" y2="7.422" transform="translate(120.434 85.565)" fill="none" stroke="#263238" stroke-width="1"/>
      <line id="Line_257" data-name="Line 257" x2="3.703" y2="11.753" transform="translate(150.736 81.862)" fill="none" stroke="#263238" stroke-width="1"/>
      <path id="Path_1787" data-name="Path 1787" d="M324.51,393.025s14.233-19.788,43.295-29.69a214.145,214.145,0,0,1,51.957-11.125L437.7,392.462s-53.808,16.632-71.133,30.253-21.639,20.416-21.639,20.416Z" transform="translate(-200.373 -162.119)" fill="#fff" stroke="#263238" stroke-width="1"/>
      <path id="Path_1788" data-name="Path 1788" d="M366.879,511.968s-23.507-58.751-29.69-71.117,3.719-18.548,3.719-18.548,14.217-19.176,51.329-34.021,40.252-15.457,49.461-4.943,70.134,128.805,70.134,128.805" transform="translate(-193.876 -147.491)" fill="#fff" stroke="#263238" stroke-width="1"/>
    </g>
    <g id="freepik--left-hand--inject-112" transform="translate(29.078 411.04)">
      <path id="Path_1789" data-name="Path 1789" d="M141.24,514.738a67.172,67.172,0,0,1,28.434-28.24c20.013-10.208,33.022-14.6,52.182-33.505S272.589,417.216,285.6,414.9s17.34-7.938,11.737-14.314-20.931-6.746-34.536-2.141-26.228,10.24-26.228,10.24c6.907-13.589,11.5-29.963,18.29-43.6,4.83-9.66,12.736-25.664,17.437-35.421,3.059-6.36,12.172-16.954,8.05-23.909s-13.83-2.335-18.773,4.3c-7.857,10.562-46.289,68.508-46.289,68.508l21.913-46.37c11.093-23.491,16.374-34.7,14.813-31.364,3.22-6.859,9.532-16.1,5.684-23.942a11.351,11.351,0,0,0-19.852-1.191c-5.345,8.694-46.193,85.993-46.193,85.993s25.568-66.335,28.836-73.966c3.993-9.306,1.61-17.437-4.251-17.389-8.566,0-12.607,9.548-15.956,15.988l1.868-2.721c-8.05,10.675-13.38,24.682-20.077,36.259q-11.673,20.319-24.215,40.107c1.61-13.669,7.133-26.486,13.927-38.352,4.106-7.149,21.188-24.714,18.258-33.344-2.512-7.438-21.237,6.537-32.2,21.784-5.925,8.308-21.494,30.978-25.761,46.917S97.816,427.215,89.814,442.3,72.2,484.163,72.2,484.163Z" transform="translate(-2.645 -263.197)" fill="#263238" stroke="#263238" stroke-width="1"/>
      <path id="Path_1790" data-name="Path 1790" d="M172.09,426.278s-15.424-18.87-45.082-26.952a214.715,214.715,0,0,0-52.536-7.905L59.08,432.605s54.742,13.363,72.855,25.874S154.8,477.51,154.8,477.51Z" transform="translate(-10.649 -189.325)" fill="#263238" stroke="#263238" stroke-width="1"/>
      <path id="Path_1791" data-name="Path 1791" d="M140.016,510.292a67.2,67.2,0,0,1,28.418-28.224c20.013-10.224,33.039-14.619,52.182-33.505s50.733-35.776,63.759-38.11,17.34-7.922,11.721-14.313-20.931-6.73-34.536-2.125-26.26,10.224-26.26,10.224c6.907-13.589,11.5-29.947,18.29-43.6,4.83-9.66,12.752-25.648,17.437-35.421,3.059-6.36,12.172-16.954,8.05-23.893s-13.814-2.351-18.757,4.3c-7.857,10.562-46.289,68.492-46.289,68.492q10.932-23.185,21.9-46.354c11.093-23.491,16.39-34.7,14.813-31.38,3.22-6.843,9.548-16.02,5.7-23.926a11.367,11.367,0,0,0-19.868-1.208c-5.345,8.71-46.193,86.01-46.193,86.01s25.568-66.351,28.836-73.966c3.993-9.322,1.61-17.437-4.251-17.389-8.566,0-12.607,9.532-15.956,15.988l1.868-2.721c-8.05,10.659-13.38,24.682-20.077,36.259q-11.721,20.287-24.28,40.091c1.61-13.669,7.133-26.469,13.927-38.336,4.106-7.149,21.188-24.714,18.274-33.361-2.512-7.422-21.253,6.537-32.2,21.8-5.941,8.308-21.494,30.961-25.761,46.917S96.5,422.769,88.494,437.871,70.88,479.733,70.88,479.733Z" transform="translate(-3.451 -265.9)" fill="#fff" stroke="#263238" stroke-width="1"/>
      <line id="Line_258" data-name="Line 258" x1="7.39" y2="14.925" transform="translate(179.635 91.371)" fill="none" stroke="#263238" stroke-width="1"/>
      <line id="Line_259" data-name="Line 259" x1="5.764" y2="7.471" transform="translate(204.913 108.229)" fill="none" stroke="#263238" stroke-width="1"/>
      <line id="Line_260" data-name="Line 260" x1="7.406" y2="10.787" transform="translate(224.475 138.337)" fill="none" stroke="#263238" stroke-width="1"/>
      <line id="Line_261" data-name="Line 261" x1="0.596" y2="6.424" transform="translate(192.998 131.253)" fill="none" stroke="#263238" stroke-width="1"/>
      <line id="Line_262" data-name="Line 262" x2="0.032" y2="6.199" transform="translate(175.143 119.547)" fill="none" stroke="#263238" stroke-width="1"/>
      <line id="Line_263" data-name="Line 263" x2="1.497" y2="10.546" transform="translate(147.997 106.618)" fill="none" stroke="#263238" stroke-width="1"/>
      <path id="Path_1792" data-name="Path 1792" d="M170.814,421.842s-15.424-18.87-45.082-26.952A214.814,214.814,0,0,0,73.244,387L57.82,428.218s54.742,13.347,72.855,25.858,22.863,19.047,22.863,19.047Z" transform="translate(-11.418 -192.021)" fill="#fff" stroke="#263238" stroke-width="1"/>
      <path id="Path_1793" data-name="Path 1793" d="M163.859,496.02s3.848-12.88,9.258-25.616-4.83-18.29-4.83-18.29-15.392-18.258-53.341-30.784-41.073-12.961-49.687-1.9S29,497.019,29,497.019" transform="translate(-29 -177.067)" fill="#fff" stroke="#263238" stroke-width="1"/>
    </g>
  </g>
</svg>
