<svg xmlns="http://www.w3.org/2000/svg" width="623.25" height="773.279" viewBox="0 0 623.25 773.279">
  <path id="corporate-finance" d="M18.414,29.057,601.7,1.035a21.7,21.7,0,0,1,8.374,1.221,20.335,20.335,0,0,1,6.851,4.1,19.242,19.242,0,0,1,6.324,14.335V752.584a19.228,19.228,0,0,1-6.324,14.33,20.32,20.32,0,0,1-6.851,4.1,21.7,21.7,0,0,1-8.374,1.215L18.414,743.806a18.4,18.4,0,0,1-7.179-1.852,19.71,19.71,0,0,1-5.852-4.376,20.446,20.446,0,0,1-3.94-6.255A20.177,20.177,0,0,1,0,723.827V49.022a20.169,20.169,0,0,1,1.444-7.494,20.427,20.427,0,0,1,3.94-6.253A19.693,19.693,0,0,1,11.236,30.9,18.394,18.394,0,0,1,18.414,29.057Z" fill="rgba(0,0,0,0.22)"/>
</svg>
