<svg id="Group_2" data-name="Group 2" xmlns="http://www.w3.org/2000/svg" xmlns:xlink="http://www.w3.org/1999/xlink" width="86.506" height="139.383" viewBox="0 0 86.506 139.383">
  <defs>
    <linearGradient id="linear-gradient" y1="0.5" x2="1" y2="0.5" gradientUnits="objectBoundingBox">
      <stop offset="0.02" stop-color="#f6c80e"/>
      <stop offset="1" stop-color="#f5811a"/>
    </linearGradient>
    <linearGradient id="linear-gradient-2" y1="0.5" x2="1" y2="0.5" xlink:href="#linear-gradient"/>
    <linearGradient id="linear-gradient-6" y1="0.499" x2="1" y2="0.499" xlink:href="#linear-gradient"/>
    <linearGradient id="linear-gradient-12" y1="0.5" x2="1" y2="0.5" xlink:href="#linear-gradient"/>
    <linearGradient id="linear-gradient-13" x1="-0.001" y1="0.5" x2="1" y2="0.5" xlink:href="#linear-gradient"/>
    <linearGradient id="linear-gradient-14" y1="0.501" x2="1" y2="0.501" xlink:href="#linear-gradient"/>
    <linearGradient id="linear-gradient-15" x1="-0.001" y1="0.501" x2="1" y2="0.501" xlink:href="#linear-gradient"/>
    <linearGradient id="linear-gradient-16" x1="-0.001" y1="0.501" x2="0.999" y2="0.501" xlink:href="#linear-gradient"/>
    <linearGradient id="linear-gradient-17" x1="0.002" y1="0.499" x2="1.001" y2="0.499" xlink:href="#linear-gradient"/>
    <linearGradient id="linear-gradient-18" x1="0.002" y1="0.5" x2="1.001" y2="0.5" xlink:href="#linear-gradient"/>
    <linearGradient id="linear-gradient-19" x1="0.001" y1="0.499" x2="1.002" y2="0.499" xlink:href="#linear-gradient"/>
    <linearGradient id="linear-gradient-20" x1="0.003" y1="0.499" x2="1.002" y2="0.499" xlink:href="#linear-gradient"/>
  </defs>
  <path id="Path_50" data-name="Path 50" d="M82.243,165.172,80.3,168.71c-1.328-.744-2.585-1.449-4-2.238-.562.926-1.1,1.808-1.747,2.877-1.334-.755-2.634-1.488-4.095-2.309.661-1.2,1.257-2.293,1.962-3.582,1.334.75,2.6,1.455,4,2.249l1.731-2.927Z" transform="translate(-31.627 -73.067)" fill="#001b47"/>
  <path id="Path_51" data-name="Path 51" d="M74.761,152.7c1.444.86,2.7,1.6,4.111,2.447-.656,1.174-1.262,2.249-1.973,3.516-1.383-.8-2.673-1.543-4.089-2.364.661-1.218,1.251-2.309,1.951-3.6Z" transform="translate(-32.682 -68.542)" fill="#001b47"/>
  <path id="Path_52" data-name="Path 52" d="M35.463,156.142l-1.946,3.538c-1.328-.744-2.585-1.449-4-2.238-.562.926-1.1,1.808-1.747,2.877-1.334-.755-2.634-1.488-4.095-2.309.661-1.2,1.257-2.293,1.962-3.582,1.334.75,2.6,1.455,4,2.249.568-.959,1.091-1.846,1.731-2.926l4.089,2.392Z" transform="translate(-10.629 -69.013)" fill="#001b47"/>
  <path id="Path_53" data-name="Path 53" d="M72.782,213.465c-.524,1.339-.964,2.464-1.472,3.764-1.411-.562-2.756-1.1-4.249-1.7-.435.987-.854,1.934-1.361,3.081-1.422-.573-2.805-1.13-4.359-1.758.5-1.279.948-2.436,1.483-3.808,1.422.568,2.761,1.108,4.26,1.709.435-1.02.843-1.973,1.334-3.125,1.433.606,2.811,1.185,4.365,1.841Z" transform="translate(-27.533 -94.994)" fill="#001b47"/>
  <path id="Path_54" data-name="Path 54" d="M132.621,134.87c1.444.86,2.7,1.6,4.111,2.447-.656,1.174-1.262,2.249-1.973,3.516-1.383-.8-2.673-1.543-4.089-2.364C131.331,137.251,131.921,136.16,132.621,134.87Z" transform="translate(-58.653 -60.539)" fill="#001b47"/>
  <path id="Path_55" data-name="Path 55" d="M147.911,196.93c1.444.86,2.7,1.6,4.111,2.447-.656,1.174-1.262,2.249-1.973,3.516-1.383-.8-2.673-1.543-4.089-2.364C146.621,199.311,147.211,198.22,147.911,196.93Z" transform="translate(-65.517 -88.395)" fill="#001b47"/>
  <path id="Path_56" data-name="Path 56" d="M21.731,191.662A10.519,10.519,0,0,1,4.012,190.2h0A32.023,32.023,0,0,1,0,176.065a25.023,25.023,0,0,1,1.356-7.925l2.37.369a27.212,27.212,0,0,0-.987,3.224h0a28.582,28.582,0,0,0-.783,7.3,18.2,18.2,0,0,0,.711,4.607c.006.028.017.055.022.083a9.287,9.287,0,0,0,6.321,6.713c.1.033.2.066.3.094a11.942,11.942,0,0,0,1.714.342,10.463,10.463,0,0,0,10.483-4.4,13.187,13.187,0,0,0,2.326-7.121,3.535,3.535,0,0,0-.358-1.13,5.02,5.02,0,0,0-1.025.369c-2.679,1.681-5.28.557-5.77-2.579a8.337,8.337,0,0,1,.072-2.888,3.413,3.413,0,0,1,5.357-2.331,7.5,7.5,0,0,1,3.731,5.732,19.637,19.637,0,0,1-4.106,15.151Z" transform="translate(0 -75.472)" fill="#001b47"/>
  <path id="Path_57" data-name="Path 57" d="M61.664,146.123a26.205,26.205,0,0,1-.259,6.84l-.066-.033a9.83,9.83,0,0,1-.81,2.138,10.027,10.027,0,0,1-.628,1.08c-.821,1.185-1.819,2.028-3.445,1.472q-.091.273-.182.529c-1.262,3.505-2.6,4.448-5.186,3.786-.121.259-.243.535-.358.81a3.78,3.78,0,0,1-7.253-.237,13.215,13.215,0,0,1-.4-2.2c-.055-.424-.1-.854-.171-1.273-.044-.27-.1-.54-.22-1.157a20.568,20.568,0,0,0-2.491,1.8,9.522,9.522,0,0,0-.683.733,18.942,18.942,0,0,0-3.141,5.759,21.044,21.044,0,0,1-3.935,6.807,16.99,16.99,0,0,1-11.3,5.352l-.16.017a16.121,16.121,0,0,1-7.881-1.554,15.642,15.642,0,0,1-5.478-4.365,38.06,38.06,0,0,0,4.5,2.188,14.848,14.848,0,0,0,10.356,0,.093.093,0,0,0,.028-.011c6.178-2.326,10.3-6.834,13.382-12.5.535-.987,1.1-1.951,1.7-2.91.579-.942,1.179-1.874,1.786-2.805.331-.507.661-1.009,1-1.516A8.8,8.8,0,0,1,42.3,153c.9-.711,1.334-.5,1.488.645.132,1,.182,2.006.331,3,.039.27.083.546.143.816a4.025,4.025,0,0,0,.634,1.5,2.452,2.452,0,0,0,3.593.4,4.706,4.706,0,0,0,.518-.4,7.258,7.258,0,0,0,2.166-3.092,5.956,5.956,0,0,0,.209-.733,3.712,3.712,0,0,1,.182-.6,4.563,4.563,0,0,1,.43-.54c.1.452.193.849.27,1.224.1.463.2.887.3,1.328a1.6,1.6,0,0,0,.766-.05.744.744,0,0,0,.193-.077,2.144,2.144,0,0,0,.953-1.08c.309-.672.562-1.372.81-2.078.154-.441.3-.882.463-1.323.149-.408.309-.816.5-1.334,1.141.777.479,1.885.838,2.971,2.607-1.764,1.824-7.192,1.824-7.192V115.369q1.438-.785,2.756-1.609v32.357Z" transform="translate(-3.414 -51.063)" fill="#001b47"/>
  <path id="Path_58" data-name="Path 58" d="M99.662,16.192V52.33a21.284,21.284,0,0,1-2.833,3.3l.072-36.59-4.426,4.431V59.026c-.865.557-1.786,1.086-2.756,1.6V5.3L78.278,16.743V63.5L76.25,13.933,89.72,0l2.756,2.552V18.32l4.437-4.591v-.088Z" transform="translate(-34.226)" fill="url(#linear-gradient)"/>
  <path id="Path_59" data-name="Path 59" d="M116.4,103.436v27.237c-.006,1.852-.006,3.709-.022,5.561a13.229,13.229,0,0,1-2.656,7.639c-.039-.535-.11-1.064-.11-1.6q.025-3.985.072-7.975l-.028.033V119.286c-.028-1.488-.061-2.976-.11-4.459l.017-8.791a31.646,31.646,0,0,0,2.844-2.607Z" transform="translate(-50.969 -46.426)" fill="#001b47"/>
  <path id="Path_60" data-name="Path 60" d="M44.868,34.19c4.354-.077,8,1.042,11.006,5.07a4.974,4.974,0,0,0-2.827-5.4c-5.451-3.1-11.078-2.987-16.567-.066a4.225,4.225,0,0,0-2.4,5.032c2.767-3.693,6.514-4.569,10.8-4.641Z" transform="translate(-15.228 -14.173)" fill="url(#linear-gradient-2)"/>
  <path id="Path_61" data-name="Path 61" d="M44.868,42.29c4.354-.077,8,1.042,11.006,5.07a4.974,4.974,0,0,0-2.827-5.4c-5.451-3.1-11.078-2.987-16.567-.066a4.225,4.225,0,0,0-2.4,5.032c2.767-3.693,6.514-4.569,10.8-4.641Z" transform="translate(-15.228 -17.809)" fill="url(#linear-gradient-2)"/>
  <path id="Path_62" data-name="Path 62" d="M44.868,50.38c4.354-.077,8,1.042,11.006,5.07a4.974,4.974,0,0,0-2.827-5.4c-5.451-3.1-11.078-2.987-16.567-.066a4.225,4.225,0,0,0-2.4,5.032c2.767-3.693,6.514-4.569,10.8-4.641Z" transform="translate(-15.228 -21.44)" fill="url(#linear-gradient-2)"/>
  <path id="Path_63" data-name="Path 63" d="M44.868,58.48c4.354-.077,8,1.042,11.006,5.07a4.974,4.974,0,0,0-2.827-5.4c-5.451-3.1-11.078-2.987-16.567-.066a4.225,4.225,0,0,0-2.4,5.032c2.767-3.693,6.514-4.569,10.8-4.641Z" transform="translate(-15.228 -25.076)" fill="url(#linear-gradient-2)"/>
  <path id="Path_64" data-name="Path 64" d="M44.868,66.58c4.354-.077,8,1.042,11.006,5.07a4.974,4.974,0,0,0-2.827-5.4c-5.451-3.1-11.078-2.987-16.567-.066a4.225,4.225,0,0,0-2.4,5.032c2.767-3.693,6.514-4.569,10.8-4.641Z" transform="translate(-15.228 -28.712)" fill="url(#linear-gradient-6)"/>
  <path id="Path_65" data-name="Path 65" d="M44.868,74.67c4.354-.077,8,1.042,11.006,5.07a4.974,4.974,0,0,0-2.827-5.4c-5.451-3.1-11.078-2.987-16.567-.066a4.225,4.225,0,0,0-2.4,5.032c2.767-3.693,6.514-4.569,10.8-4.641Z" transform="translate(-15.228 -32.343)" fill="url(#linear-gradient-2)"/>
  <path id="Path_66" data-name="Path 66" d="M44.868,83.01c4.354-.077,8,1.042,11.006,5.07a4.974,4.974,0,0,0-2.827-5.4c-5.451-3.1-11.078-2.987-16.567-.066a4.225,4.225,0,0,0-2.4,5.032c2.767-3.693,6.514-4.569,10.8-4.641Z" transform="translate(-15.228 -36.087)" fill="url(#linear-gradient-2)"/>
  <path id="Path_67" data-name="Path 67" d="M44.868,91.35c4.354-.077,8,1.042,11.006,5.07a4.974,4.974,0,0,0-2.827-5.4c-5.451-3.1-11.078-2.987-16.567-.066a4.225,4.225,0,0,0-2.4,5.032c2.767-3.693,6.514-4.569,10.8-4.641Z" transform="translate(-15.228 -39.83)" fill="url(#linear-gradient-6)"/>
  <path id="Path_68" data-name="Path 68" d="M44.868,99.68c4.354-.077,8,1.042,11.006,5.07a4.974,4.974,0,0,0-2.827-5.4c-5.451-3.1-11.078-2.987-16.567-.066a4.225,4.225,0,0,0-2.4,5.032c2.767-3.693,6.514-4.569,10.8-4.641Z" transform="translate(-15.228 -43.569)" fill="url(#linear-gradient-2)"/>
  <path id="Path_69" data-name="Path 69" d="M44.868,108.02c4.354-.077,8,1.042,11.006,5.07a4.974,4.974,0,0,0-2.827-5.4c-5.451-3.1-11.078-2.987-16.567-.066a4.225,4.225,0,0,0-2.4,5.032c2.767-3.693,6.514-4.569,10.8-4.641Z" transform="translate(-15.228 -47.313)" fill="url(#linear-gradient-2)"/>
  <path id="Path_70" data-name="Path 70" d="M54.779,116.922c-.887.22-1.742.435-2.568.645a13.4,13.4,0,0,0-7.347-1.675c-4.282.072-8.03.948-10.8,4.646a4.24,4.24,0,0,1,2.4-5.037c5.489-2.915,11.116-3.031,16.567.066a6.659,6.659,0,0,1,1.736,1.356Z" transform="translate(-15.224 -50.847)" fill="url(#linear-gradient-12)"/>
  <path id="Path_71" data-name="Path 71" d="M48.967,122.185c-3.175.876-5.825,1.7-7.991,2.425a12.235,12.235,0,0,0-3.384,1.19h-.006c-.1.039-.2.072-.3.11-1.135.435-2.249.92-3.329,1.46a4.311,4.311,0,0,1,2.541-3.533,16.509,16.509,0,0,1,12.472-1.653Z" transform="translate(-15.244 -54.589)" fill="url(#linear-gradient-13)"/>
  <path id="Path_72" data-name="Path 72" d="M61.913,86.667c-5.478,4.4-14.12,8.719-27.507,12.329-19.328,4.773-28.791,15.228-31.663,24.735h0a19.384,19.384,0,0,0-.055,11.982,10.4,10.4,0,0,0,6.321,6.713c.1.033.2.066.3.094a9.168,9.168,0,0,0,1.714.342l-7.01-.661h0A26.4,26.4,0,0,1,.009,128.062a25.022,25.022,0,0,1,1.356-7.925,30.407,30.407,0,0,1,5.34-9.419,37.3,37.3,0,0,1,15.619-11.2A168.814,168.814,0,0,1,43.78,93.336c.705-.16,1.405-.336,2.1-.546,32.484-9.876,22-31.034,21.72-31.569V61.21s9.728,13.062-5.677,25.451Z" transform="translate(-0.004 -27.475)" fill="#001b47"/>
  <path id="Path_73" data-name="Path 73" d="M110.082,150.666a2.348,2.348,0,0,0-.446-.143.55.55,0,0,0-.165-.033h-.017c-1.686.2-3.891,2.32-4.916,3.412a.241.241,0,0,1-.044.039c-.1.116-.2.226-.3.331a.047.047,0,0,0-.017.028,1.254,1.254,0,0,1-.121.127,1.216,1.216,0,0,0-.083.1l-.011.011c-4.111,4.635-5.2,10.168-4.883,16.424,3.169-1.213,5.616-3.219,8.84-4.111a10.433,10.433,0,0,1-3.345,4.778c-1.56,1.168-3.23,2.227-4.883,3.257-4.255,2.662-5.6,6.5-3.759,11.2a1.881,1.881,0,0,1-.821,2.69c-.452.276-.838.661-1.284.959a7.03,7.03,0,0,1-3.053,1.086,6.516,6.516,0,0,1-3.858-.739,10.168,10.168,0,0,1-.964-.92c-.336-.358-.645-.744-.959-1.13s-.645-.755-.981-1.119c-.171-.182-.347-.358-.524-.529a3.065,3.065,0,0,0-.59-.468,2.159,2.159,0,0,0-1.477-.276,3.526,3.526,0,0,0-1.389.584,8.023,8.023,0,0,0-1.168.942,6.91,6.91,0,0,0-.948,1.174c-.281.408-.551.827-.8,1.262a22.761,22.761,0,0,0-1.317,2.678A55.358,55.358,0,0,0,74,197.948a19.086,19.086,0,0,1-1.036,2.756l-.3.683a3.1,3.1,0,0,1-.32.634,2.062,2.062,0,0,1-1.135.772,3.553,3.553,0,0,1-1.422.143,3.1,3.1,0,0,1-1.339-.485,5.56,5.56,0,0,1-1.819-2.238c-.292-.727-.54-1.449-.75-2.166a28.749,28.749,0,0,1-1.1-8.625,23.973,23.973,0,0,1,.32-3.61,27.307,27.307,0,0,0-.661,2.932,25.487,25.487,0,0,0,.557,11.2l.011.033a15.911,15.911,0,0,0,2.69,5.043,8.625,8.625,0,0,0,1.031,1.025,4.193,4.193,0,0,0,1.3.716,3.134,3.134,0,0,0,1.5.132,2.824,2.824,0,0,0,1.361-.65,4.146,4.146,0,0,0,.92-1.163,13.9,13.9,0,0,0,.612-1.3c.369-.882.683-1.786.976-2.69.606-1.808.97-3.676,1.6-5.44a13.267,13.267,0,0,1,1.229-2.513,8.208,8.208,0,0,1,1.8-2.122,5.889,5.889,0,0,1,.479-.347,2.055,2.055,0,0,1,1.9.039,2.312,2.312,0,0,1,.8.744c.044.055.083.116.127.171a.012.012,0,0,1,.011.011c.033.055.072.116.1.171a15.119,15.119,0,0,0,1.08,1.455,8.464,8.464,0,0,0,2.717,2.21c2.061.992,4.37.672,7.032-1.1a11.724,11.724,0,0,0,1.863-1.516c2.315-2.337,4.5-4.828,7.562-6.029a22.955,22.955,0,0,0-.022-5c-1.615.485-2.954.948-4.337,1.262-.953.215-2.227,1.009-2.756-.507-.485-1.378.849-1.813,1.72-2.331,1.83-1.108,3.792-2,5.577-3.175a11.975,11.975,0,0,0,5.544-9.309c.143-1.51.22-3.031.281-4.547a16.855,16.855,0,0,0-.226-2.089c-2.805,1.367-5.307,2.579-7.815,3.8,1.119-3.092,2.425-5.892,4.883-7.909a4.815,4.815,0,0,1,2.315-1.212c.59-.061,1.268.661,2.2,1.218.094-1.163.248-2.188.3-3.18v-.033c-.061-2.05-.75-2.822-1.279-3.125Z" transform="translate(-28.768 -67.55)" fill="#001b47"/>
  <path id="Path_74" data-name="Path 74" d="M56.44,167.479a2.789,2.789,0,0,0-.127-.722c-.4-.893-.8-1.786-1.268-2.651a5.313,5.313,0,0,1-.86-2.26,3.656,3.656,0,0,1,.342-1.813,1.021,1.021,0,0,1,1.378-.557,1.955,1.955,0,0,1,1.075.9,3.011,3.011,0,0,1,.391,1.438,2.436,2.436,0,0,1-.165.645c-.281-.237-.468-.408-.667-.557a3.242,3.242,0,0,0-.766-.507c-.457-.165-.766.132-.667.606a2.444,2.444,0,0,0,.22.529c.287.579.6,1.152.865,1.736a10.369,10.369,0,0,1,1.075,4.574,5.894,5.894,0,0,1-.138.92c-.05.287-.209.54-.507.507-.16-.017-.353-.237-.43-.413a9.2,9.2,0,0,1-.336-1.02,2.952,2.952,0,0,0-1.521-1.863,1.887,1.887,0,0,1-1.141.187,1.52,1.52,0,0,1-.937-2.221.889.889,0,0,1,1.025-.325,3.233,3.233,0,0,1,1.438.783,5.9,5.9,0,0,1,1.317,1.609c.088.165.187.325.281.491l.121-.033Z" transform="translate(-23.372 -71.549)" fill="url(#linear-gradient-14)"/>
  <path id="Path_75" data-name="Path 75" d="M113.68,190.006c.336-.2.265-.485.265-.739.006-1.031-.011-2.067.011-3.1a2.123,2.123,0,0,1,.584-1.5.921.921,0,0,1,.981-.281.944.944,0,0,1,.739.794,2.858,2.858,0,0,1,.072.568c-.017.254-.077.507-.132.849-.248-.176-.413-.3-.584-.419-.59-.408-.909-.281-1.058.424a3.431,3.431,0,0,0-.055.716c-.011.722,0,1.444-.011,2.16a2.917,2.917,0,0,1-.441,1.571.642.642,0,0,1-.931.248,2.533,2.533,0,0,1-1.058-3.345,1.54,1.54,0,0,1,.215-.237c.441.81.628,1.747,1.416,2.287Z" transform="translate(-50.178 -82.744)" fill="url(#linear-gradient-15)"/>
  <path id="Path_76" data-name="Path 76" d="M70.594,133.832c.011.209.011.419.033.628a1.08,1.08,0,0,0,.705,1.08,1.488,1.488,0,0,0,1.411-.755,4.135,4.135,0,0,0,.242-1.13,8.7,8.7,0,0,1,.138-1.494c.044.209.077.424.132.628.11.375.209.81.672.854a1.173,1.173,0,0,0,1.174-.573,2.69,2.69,0,0,0,.276-1c.044-.4.011-.81.066-1.218a4.1,4.1,0,0,1,.143,3.742,1.408,1.408,0,0,1-1.3.942.945.945,0,0,0-.97.65,3.655,3.655,0,0,1-.325.546,1.421,1.421,0,0,1-1.35.689,1.228,1.228,0,0,1-1.069-1.042,7.459,7.459,0,0,1-.143-1.576c-.011-.314.033-.634.05-.948C70.517,133.848,70.555,133.837,70.594,133.832Z" transform="translate(-31.612 -58.734)" fill="url(#linear-gradient-16)"/>
  <path id="Path_77" data-name="Path 77" d="M16.188,187.138a2.589,2.589,0,0,1-.612,2.171.7.7,0,0,1-1.146-.193,3.047,3.047,0,0,1-.27-1.885,10.464,10.464,0,0,1,.931-3.147,8.487,8.487,0,0,1,.75-1.3c.132.325-.061.573-.143.838-.276.915-.584,1.819-.832,2.739a3.143,3.143,0,0,0-.055,1.135.773.773,0,0,0,.391.529c.121.055.4-.116.535-.248a4.067,4.067,0,0,0,.446-.645Z" transform="translate(-6.339 -82.048)" fill="url(#linear-gradient-17)"/>
  <path id="Path_78" data-name="Path 78" d="M48.578,142.658a2.589,2.589,0,0,1-.612,2.171.7.7,0,0,1-1.146-.193,3.047,3.047,0,0,1-.27-1.885,10.464,10.464,0,0,1,.931-3.147,8.486,8.486,0,0,1,.75-1.3c.132.325-.061.573-.143.838-.276.915-.584,1.819-.832,2.739a3.143,3.143,0,0,0-.055,1.135.773.773,0,0,0,.391.529c.121.055.4-.116.535-.248a4.068,4.068,0,0,0,.446-.645Z" transform="translate(-20.878 -62.083)" fill="url(#linear-gradient-18)"/>
  <path id="Path_79" data-name="Path 79" d="M54.063,232.084c-.05.248-.083.5-.143.75-.116.491-.259.97-.364,1.46A1.042,1.042,0,0,0,54,235.418c.617-.116.6-.788.992-1.113.055.1.138.187.138.265a3.75,3.75,0,0,1-.5,1.99c-.507.744-1.207.7-1.62-.1a2.2,2.2,0,0,1-.226-1.257,8.8,8.8,0,0,1,.849-2.805,1.716,1.716,0,0,1,.309-.358.917.917,0,0,0,.11.044Z" transform="translate(-23.69 -104.155)" fill="url(#linear-gradient-19)"/>
  <path id="Path_80" data-name="Path 80" d="M104.793,202.684c-.05.248-.083.5-.143.75-.116.491-.259.97-.364,1.46a1.042,1.042,0,0,0,.446,1.124c.617-.116.6-.788.992-1.113.055.1.138.187.138.265a3.75,3.75,0,0,1-.5,1.99c-.507.744-1.207.7-1.62-.1a2.2,2.2,0,0,1-.226-1.257,8.8,8.8,0,0,1,.849-2.805,1.717,1.717,0,0,1,.309-.358.916.916,0,0,0,.11.044Z" transform="translate(-46.461 -90.958)" fill="url(#linear-gradient-20)"/>
</svg>
