<svg xmlns="http://www.w3.org/2000/svg" width="753.97" height="844.644" viewBox="0 0 753.97 844.644">
  <g id="Forgot_password-cuate" data-name="Forgot password-cuate" transform="translate(-46.98)">
    <g id="freepik--background-complete--inject-96" transform="translate(50.657)">
      <rect id="Rectangle_19149" data-name="Rectangle 19149" width="49.172" height="20.779" transform="translate(27.427 636.798)" fill="#ebebeb"/>
      <rect id="Rectangle_19150" data-name="Rectangle 19150" width="49.172" height="20.779" transform="translate(0 662.999)" fill="#ebebeb"/>
      <rect id="Rectangle_19151" data-name="Rectangle 19151" width="49.172" height="20.779" transform="translate(54.854 662.999)" fill="#ebebeb"/>
      <rect id="Rectangle_19152" data-name="Rectangle 19152" width="49.172" height="20.779" transform="translate(670.037 81.408)" fill="#ebebeb"/>
      <rect id="Rectangle_19153" data-name="Rectangle 19153" width="49.172" height="20.779" transform="translate(697.464 107.609)" fill="#ebebeb"/>
      <rect id="Rectangle_19154" data-name="Rectangle 19154" width="49.172" height="20.779" transform="translate(0 81.445)" fill="#ebebeb"/>
      <rect id="Rectangle_19155" data-name="Rectangle 19155" width="49.172" height="20.779" transform="translate(746.654 657.41) rotate(180)" fill="#ebebeb"/>
      <rect id="Rectangle_19156" data-name="Rectangle 19156" width="49.172" height="20.779" transform="translate(629.24 417.995) rotate(180)" fill="#ebebeb"/>
      <rect id="Rectangle_19157" data-name="Rectangle 19157" width="49.172" height="20.779" transform="translate(656.667 391.794) rotate(180)" fill="#ebebeb"/>
      <rect id="Rectangle_19158" data-name="Rectangle 19158" width="1.857" height="198.71" transform="translate(80.257)" fill="#c7c7c7"/>
      <path id="Path_1491" data-name="Path 1491" d="M193.527,160.089l-5.552,12.2H61.054l-5.534-12.2,54.037-37.4H139.49Z" transform="translate(-43.339 105.137)" fill="#ebebeb"/>
      <path id="Path_1492" data-name="Path 1492" d="M120.036,103.29l-3.751,36.024H86.351L82.6,103.29Z" transform="translate(-20.133 88.512)" fill="#dbdbdb"/>
      <path id="Path_1493" data-name="Path 1493" d="M193.509,142.84l-5.552,12.2H61.035l-5.515-12.2Z" transform="translate(-43.339 122.404)" fill="#dbdbdb"/>
      <rect id="Rectangle_19159" data-name="Rectangle 19159" width="1.857" height="159.362" transform="translate(212.322)" fill="#c7c7c7"/>
      <path id="Path_1494" data-name="Path 1494" d="M264.647,138.9l-5.552,12.2H132.174l-5.534-12.2,54.037-37.4H210.61Z" transform="translate(17.606 86.979)" fill="#ebebeb"/>
      <path id="Path_1495" data-name="Path 1495" d="M191.156,82.09,187.4,118.133H157.471L153.72,82.09Z" transform="translate(40.812 70.346)" fill="#dbdbdb"/>
      <path id="Path_1496" data-name="Path 1496" d="M264.647,121.64l-5.552,12.2H132.174l-5.534-12.2Z" transform="translate(17.606 104.237)" fill="#dbdbdb"/>
    </g>
    <g id="freepik--Shadow--inject-96" transform="translate(55.726 756.328)">
      <path id="Path_1497" data-name="Path 1497" d="M788.186,451.458c0,24.4-164.858,44.158-368.248,44.158S51.69,475.858,51.69,451.458,216.548,407.3,419.938,407.3,788.186,427.058,788.186,451.458Z" transform="translate(-51.69 -407.3)" fill="#ebebeb"/>
    </g>
    <g id="freepik--Plant--inject-96" transform="translate(633.896 511.502)">
      <path id="Path_1498" data-name="Path 1498" d="M437.522,316.818a72.976,72.976,0,0,1-1.43,28.151,77,77,0,0,1-4.308,12.441c-2.247,5.162-4.587,10.176-4.011,15.821.539.353-1.318.3-1.393-.241-15.06-8.579-34.372-10.157-45.959-24.14a48.28,48.28,0,0,1-9.563-23.472c-1.43-9.173-1.857-19.312.539-28.337,1.987-7.576,6.462-15,13.723-18.718s17.121-3.528,24.92-1.114C426.77,282.39,435.145,300.607,437.522,316.818Z" transform="translate(-357.354 -275.455)" fill="#febf09"/>
      <path id="Path_1499" data-name="Path 1499" d="M439.391,420.657q-3.064-10.269-6.221-20.519c-4.122-13.388-8.412-26.721-13.184-39.906q-4.271-11.829-9.006-23.453a143.59,143.59,0,0,1,1.857-14.558c1.263-5.831,3.083-11.476,4.791-17.177.111-.353-.464-.539-.613-.2-3.38,7.873-7.8,17.938-7.892,27.26q-5.571-13.147-11.847-25.9a110.489,110.489,0,0,1,.557-21.578.26.26,0,0,0-.5-.093,76.652,76.652,0,0,0-1.485,19.034q-4.847-9.582-10.269-18.922c-.334-.557-1.1,0-.817.576,5.664,10.9,10.9,22.023,15.84,33.295a72.273,72.273,0,0,0-23.62-13.667c-.371-.148-.65.409-.279.557a85.92,85.92,0,0,1,25.551,16.917q5.292,12.367,10.12,24.957c-9.433-9.285-22.283-15.32-34.8-18.569-.427-.111-.539.539-.13.65,14.447,4.345,25.644,12.534,36.637,22.283,1.263,3.4,2.525,6.8,3.714,10.195q6.964,19.349,13.277,39,3.045,9.285,5.979,18.792c2.1,6.759,3.714,13.89,6.5,20.426.26.613,1.374.483,1.226-.279a193.1,193.1,0,0,0-5.385-19.108Z" transform="translate(-351.498 -267.823)" fill="#263238"/>
      <path id="Path_1500" data-name="Path 1500" d="M399.432,290.717a37.714,37.714,0,0,0-5.422,13.518c0,.13.167.2.223,0a115.531,115.531,0,0,1,5.868-13.259C400.342,290.606,399.692,290.327,399.432,290.717Z" transform="translate(-336.515 -262.539)" fill="#263238"/>
      <path id="Path_1501" data-name="Path 1501" d="M388.748,309.629a39.516,39.516,0,0,0-13.5-4.549c-.13,0-.2.167,0,.223,2.173.891,4.457,1.523,6.648,2.377s4.364,1.857,6.592,2.655a.39.39,0,0,0,.26-.706Z" transform="translate(-352.701 -250.069)" fill="#263238"/>
      <path id="Path_1502" data-name="Path 1502" d="M380.544,288.459a26.386,26.386,0,0,0-4.345-2.693.241.241,0,0,0-.26.39,27.27,27.27,0,0,0,4.289,2.767C380.507,289.091,380.823,288.626,380.544,288.459Z" transform="translate(-352.055 -266.632)" fill="#263238"/>
      <path id="Path_1503" data-name="Path 1503" d="M455.1,363.219c-10.844,3.212-21.745,6.184-32.589,9.377-.947.279-19.275-34.855-12.646-52.96a58.976,58.976,0,0,1,36.86-34.929c7.743-2.637,17.251-4.846,25.44-3.045,7.279,1.616,12.4,7.558,14.855,14.41,3.212,9.285,2.135,20.426.39,29.878a52.163,52.163,0,0,1-10.677,24.382C470.9,357.128,463.549,360.712,455.1,363.219Z" transform="translate(-324.164 -270.698)" fill="#febf09"/>
      <path id="Path_1504" data-name="Path 1504" d="M471.581,319.877a142.641,142.641,0,0,1-21.28,8.375,89.574,89.574,0,0,0-14.187,5.144c4.587-10.213,9.6-20.2,14.948-30.119,7-2.024,14.373-5.181,19.646-10.139a.3.3,0,1,0-.39-.464c-5.775,4.085-12.163,6.536-18.569,9.285,1.448-2.674,2.9-5.329,4.382-7.985.409-.743-.594-1.467-1.1-.761A228.69,228.69,0,0,0,439.623,319.1a117.623,117.623,0,0,1-1.114-23.713c0-.2-.279-.223-.316,0a79.16,79.16,0,0,0,.26,26c-3.714,7.595-7.261,15.375-10.38,23.249-1.226-4.735-2.841-9.4-3.918-14.168a65.271,65.271,0,0,1-1.56-20.872c0-.2-.278-.223-.316,0a73.7,73.7,0,0,0,4.735,38.364c-1.857,4.735-3.547,9.489-5.125,14.261a284.112,284.112,0,0,0-14.41,75.243.464.464,0,1,0,.928,0,372.934,372.934,0,0,1,16.155-74.277c3.138-9.452,6.759-18.569,10.733-27.65,6.406-1.857,12.794-4.457,19.089-6.629a60.107,60.107,0,0,0,17.585-8.635.276.276,0,0,0-.39-.39Z" transform="translate(-324.972 -260.762)" fill="#263238"/>
      <path id="Path_1505" data-name="Path 1505" d="M456.561,301.808c-6.629,2.358-13,5.664-19.535,8.059-.316.111-.13.594.167.539,7.019-1.448,13.964-3.621,19.628-8.226C457.025,302.012,456.8,301.715,456.561,301.808Z" transform="translate(-299.794 -252.888)" fill="#263238"/>
      <path id="Path_1506" data-name="Path 1506" d="M419.545,294.267c.093-.353-.427-.557-.539-.186-1.857,6.109-3.064,12.609-1.3,18.848,0,.241.464.26.464,0C418.487,306.6,418.134,300.469,419.545,294.267Z" transform="translate(-316.946 -259.663)" fill="#263238"/>
      <path id="Path_1507" data-name="Path 1507" d="M434.405,286.576a16.3,16.3,0,0,0-2.878,10.4c0,.223.39.353.446.093.817-3.51,2.173-6.685,3.25-10.083a.464.464,0,0,0-.817-.409Z" transform="translate(-304.397 -266.085)" fill="#263238"/>
      <path id="Path_1508" data-name="Path 1508" d="M364.983,343.676c3.175,10.1,10.733,24.047,22.692,24.14,7.762,0,15.561-.854,23.342-.966,8.319-.13,16.712-.111,24.976.39.687,0-1-24.939-21-37.139-5.571-3.417-12.46-4.494-18.829-5.868a87.089,87.089,0,0,0-22.283-2.321c-4.605.186-8.43,1.151-10.065,5.868S363.442,338.811,364.983,343.676Z" transform="translate(-363.048 -235.668)" fill="#febf09"/>
      <path id="Path_1509" data-name="Path 1509" d="M369.008,329.021c4.865,1.244,9.767,2.693,14.651,4.234a53.859,53.859,0,0,0-4.029-3.937c-2.1-1.727-4.4-3.12-6.648-4.661-.186-.111,0-.483.167-.39a27.353,27.353,0,0,1,11.791,9.4c6.091,1.95,12.107,4.122,17.9,6.5a68.711,68.711,0,0,1,11.476,6.035,46.26,46.26,0,0,0-4.159-7.2c-2.655-3.454-6.239-5.367-9.712-7.8a.316.316,0,0,1,.316-.538,28.485,28.485,0,0,1,15.6,16.917,67.258,67.258,0,0,1,11.346,10.306c13.24,15.041,23.676,35.059,23.713,55.467,0,.483-.78.631-.873.111a113.274,113.274,0,0,0-25.254-54.223,42.786,42.786,0,0,0-2.915-3.175,89.45,89.45,0,0,0-10.937-.817c-4.252,0-8.486.631-12.72.966-6.982.576-14.707.65-21.02-2.86-.279-.149,0-.631.223-.52,14.057,5.107,28.782-1.374,42.858,1.671a65.736,65.736,0,0,0-20.761-13.388l-1.3-.52c-9.006,1.077-18.569,3.435-27.3.5a.212.212,0,0,1,.111-.409c8.486,2.117,16.62-.557,24.994-.984-9.118-3.547-18.421-6.369-27.557-9.9C368.191,329.5,368.173,328.8,369.008,329.021Z" transform="translate(-358.475 -233.64)" fill="#263238"/>
      <path id="Path_1510" data-name="Path 1510" d="M366.681,331.6a124.164,124.164,0,0,0,13.128,1,.084.084,0,1,1,0,.167,27.148,27.148,0,0,1-13.24-.836C366.366,331.88,366.477,331.564,366.681,331.6Z" transform="translate(-360.122 -227.345)" fill="#263238"/>
      <path id="Path_1511" data-name="Path 1511" d="M382.762,326.945a21.411,21.411,0,0,1,6.5,4.512.272.272,0,0,1-.334.427c-1.1-.8-2.228-1.56-3.38-2.284a36.393,36.393,0,0,1-3.157-2.005.39.39,0,0,1,.371-.65Z" transform="translate(-346.566 -231.341)" fill="#263238"/>
      <path id="Path_1512" data-name="Path 1512" d="M420.6,359.247c-.149.316.334.631.52.279h0a.483.483,0,0,0,.316.2A202.646,202.646,0,0,0,445.876,364c6.611.594,14.243.947,20.036-2.878,7.855-5.218,13-19.126,8.765-27.965-5.014-10.492-20.148-4.791-27.743-1.058A55.708,55.708,0,0,0,420.6,359.247Z" transform="translate(-313.751 -231.147)" fill="#febf09"/>
      <path id="Path_1513" data-name="Path 1513" d="M428.73,361.284a77.531,77.531,0,0,1,14.6-11.142,50.137,50.137,0,0,1,14.855-15.1c.3-.2.539.26.279.464a67.24,67.24,0,0,0-12.479,13.11A136.808,136.808,0,0,1,464.29,340.3a24.419,24.419,0,0,1,9.842-9.86s.186,0,.111.13a40.313,40.313,0,0,0-8.895,9.285c3.714-1.374,7.428-2.674,11.235-3.918.334-.111.464.409.148.52-6.685,2.618-13.518,5.367-20.148,8.542a77.38,77.38,0,0,0,24.4,0c.223,0,.316.278,0,.334a48.057,48.057,0,0,1-25.886.39,121.552,121.552,0,0,0-12.274,6.871,30.508,30.508,0,0,1,9.916.817,75.629,75.629,0,0,0,17.437,1.968.2.2,0,0,1,0,.408c-10.12,1.727-19.683-2.86-29.711-1.671a76.712,76.712,0,0,0-10.436,8.542A77.993,77.993,0,0,0,414.8,384.143c-4.234,8.6-6.518,17.7-9.935,26.573a.318.318,0,1,1-.613-.167C407.263,393.056,415.972,373.762,428.73,361.284Z" transform="translate(-327.746 -228.337)" fill="#263238"/>
      <path id="Path_1514" data-name="Path 1514" d="M433.875,336.6a11.736,11.736,0,0,1,2.6-3.138,9.769,9.769,0,0,1,2.99-2.228c.093,0,.148,0,.093.167-.836.928-1.987,1.634-2.878,2.525s-1.653,1.968-2.563,2.86a.152.152,0,0,1-.241-.186Z" transform="translate(-302.381 -227.66)" fill="#263238"/>
      <path id="Path_1515" data-name="Path 1515" d="M442.934,337.978c1.5-.371,3.082-.353,4.605-.668a41.347,41.347,0,0,0,4.475-1.337.186.186,0,0,1,.149.334,14.855,14.855,0,0,1-9.285,2.135C442.693,338.405,442.711,338.034,442.934,337.978Z" transform="translate(-294.747 -223.601)" fill="#263238"/>
      <path id="Path_1516" data-name="Path 1516" d="M394.98,361.97l1.318,15.078,4.512,50.917H440.7l5.626-50.917,1.653-15.078Z" transform="translate(-335.684 -201.318)" fill="#455a64"/>
      <path id="Path_1517" data-name="Path 1517" d="M394.98,361.97l1.318,15.078h50.026l1.653-15.078Z" transform="translate(-335.684 -201.318)" fill="#263238"/>
      <rect id="Rectangle_19160" data-name="Rectangle 19160" width="60.907" height="12.237" transform="translate(116.267 168.767) rotate(180)" fill="#455a64"/>
    </g>
    <g id="freepik--Floor--inject-96" transform="translate(46.98 737.109)">
      <path id="Path_1518" data-name="Path 1518" d="M46.98,397.86l94.258-.446,94.239-.167,188.5-.3,188.5.3,94.239.167,94.239.446-94.239.464-94.239.167-188.5.3-188.5-.3-94.239-.167Z" transform="translate(-46.98 -396.95)" fill="#263238"/>
    </g>
    <g id="freepik--Screen--inject-96" transform="translate(336.41 101.202)">
      <path id="Path_1519" data-name="Path 1519" d="M541.106,91.07V692.827c0,17.01-12.739,30.769-28.448,30.769H231.815c-15.747,0-28.485-13.76-28.485-30.769V91.07c0-34.65,12.739-36.34,28.485-36.34h56.321c3.268,0,5.942,3.714,5.942,8.319v1.987c0,10.789,5.9,10.826,13.147,10.826h130.1c7.316,0,13.184,0,13.184-10.826V63.049c0-4.605,2.637-8.319,5.961-8.319h56.246C528.367,54.73,541.106,59.335,541.106,91.07Z" transform="translate(-202.428 -54.302)" fill="#fff"/>
      <path id="Path_1520" data-name="Path 1520" d="M541.106,91.07V692.827c0,17.01-12.739,30.769-28.448,30.769H231.815c-15.747,0-28.485-13.76-28.485-30.769V91.07c0-34.65,12.739-36.34,28.485-36.34h56.321c3.268,0,5.942,3.714,5.942,8.319v1.987c0,10.789,5.9,10.826,13.147,10.826h130.1c7.316,0,13.184,0,13.184-10.826V63.049c0-4.605,2.637-8.319,5.961-8.319h56.246C528.367,54.73,541.106,59.335,541.106,91.07Z" transform="translate(-202.428 -54.302)" fill="#fff"/>
      <path id="Path_1521" data-name="Path 1521" d="M541.522,91.268l.464,498.772V691.372a43.234,43.234,0,0,1-.576,7.873,32.682,32.682,0,0,1-6.481,14.3,32.076,32.076,0,0,1-5.7,5.571,30.51,30.51,0,0,1-7,3.714,26.611,26.611,0,0,1-7.781,1.578c-2.655.167-5.218,0-7.818.093H413.189l-124.674.13H233.958a33.942,33.942,0,0,1-7.948-.706,28.225,28.225,0,0,1-13.8-7.8,32.163,32.163,0,0,1-8.041-13.667,34.464,34.464,0,0,1-1.263-7.892c-.149-2.674,0-5.218,0-7.836V671.15l.464-498.772V94.424a128.954,128.954,0,0,1,.706-15.6l.594-3.881.891-3.825c.371-1.244.836-2.488,1.263-3.714a36.613,36.613,0,0,1,1.857-3.51,18.569,18.569,0,0,1,5.4-5.738,21.707,21.707,0,0,1,7.428-2.841,88.112,88.112,0,0,1,15.617-.743h50.49a6.777,6.777,0,0,1,2.005.149,5.292,5.292,0,0,1,1.857.891,9.415,9.415,0,0,1,3.212,7.242,25.516,25.516,0,0,0,.687,7.651,6.871,6.871,0,0,0,1.857,3.175,7.428,7.428,0,0,0,3.305,1.69,34.279,34.279,0,0,0,7.706.5H440.728a11.364,11.364,0,0,0,7.242-2.1,7.113,7.113,0,0,0,2.135-3.194,14.6,14.6,0,0,0,.65-3.714c0-1.281,0-2.581,0-3.881a10.936,10.936,0,0,1,.8-3.844,7.613,7.613,0,0,1,2.3-3.157,5.236,5.236,0,0,1,1.745-.91,7.056,7.056,0,0,1,1.968-.149h54.557a57.362,57.362,0,0,1,7.78.427,21.745,21.745,0,0,1,13.76,6.425,28.932,28.932,0,0,1,6.5,14.076,85.052,85.052,0,0,1,1.356,15.413Zm0,0a85.086,85.086,0,0,0-1.393-15.505,28.968,28.968,0,0,0-6.462-13.946,21.745,21.745,0,0,0-13.778-6.388,57.043,57.043,0,0,0-7.762-.39H457.533a7.28,7.28,0,0,0-1.857.167,5.422,5.422,0,0,0-1.69.873,7.428,7.428,0,0,0-2.228,3.064c-1.077,2.4-.668,5.051-.836,7.651a15.318,15.318,0,0,1-.668,3.862A7.428,7.428,0,0,1,448.248,74a11.513,11.513,0,0,1-7.428,2.173H308.31a35.654,35.654,0,0,1-7.818-.52,8.041,8.041,0,0,1-3.565-1.857,7.427,7.427,0,0,1-2.061-3.4,27.108,27.108,0,0,1-.743-7.539,8.858,8.858,0,0,0-3.008-6.666,5.441,5.441,0,0,0-1.653-.8,7.558,7.558,0,0,0-1.857-.13H236.967a89.54,89.54,0,0,0-15.487.761,21.448,21.448,0,0,0-7.094,2.748,17.938,17.938,0,0,0-5.181,5.571c-.668,1.077-1.151,2.284-1.727,3.417a19.759,19.759,0,0,0-1.207,3.714l-.891,3.714-.557,3.825a123.488,123.488,0,0,0-.687,15.505v77.935l.464,498.772v23.323a32.939,32.939,0,0,0,1.188,7.428,30.286,30.286,0,0,0,7.558,13,26.61,26.61,0,0,0,13,7.428,32.576,32.576,0,0,0,7.539.687h54.668l124.674.13H514.5a25.536,25.536,0,0,0,7.428-1.5,28.057,28.057,0,0,0,6.722-3.547,30.8,30.8,0,0,0,5.478-5.292,31.567,31.567,0,0,0,6.295-13.779,43.889,43.889,0,0,0,.557-7.669v-101.3Z" transform="translate(-202.844 -54.5)" fill="#263238"/>
      <path id="Path_1522" data-name="Path 1522" d="M541.106,91.07v72.142H203.33V91.07c0-34.65,12.739-36.34,28.485-36.34h56.321c3.268,0,5.942,3.714,5.942,8.319v1.987c0,10.789,5.9,10.826,13.147,10.826h130.1c7.316,0,13.184,0,13.184-10.826V63.049c0-4.605,2.637-8.319,5.961-8.319h56.246C528.367,54.73,541.106,59.335,541.106,91.07Z" transform="translate(-202.428 -54.302)" fill="#febf09"/>
      <g id="freepik--u5Zjqx--inject-96" transform="translate(63.777 11.458)">
        <path id="Path_1523" data-name="Path 1523" d="M249.353,63.14l-.557.539-.3.316a7.428,7.428,0,0,0-10.492,0l-.279-.316-.538-.539h0c.223-.2.446-.409.687-.594a8.43,8.43,0,0,1,3.714-1.727,2.615,2.615,0,0,0,1.058-.149h1.634a8.617,8.617,0,0,1,1.857.464,8.3,8.3,0,0,1,1.3.613,10.138,10.138,0,0,1,1.263.873l.576.52Z" transform="translate(-237.19 -60.67)" fill="#fff"/>
        <path id="Path_1524" data-name="Path 1524" d="M238.954,64.624l-.854-.854a6.165,6.165,0,0,1,8.746,0l-.854.854a4.977,4.977,0,0,0-7.038,0Z" transform="translate(-236.41 -59.573)" fill="#fff"/>
        <path id="Path_1525" data-name="Path 1525" d="M244.392,64.393l-.854.854a2.693,2.693,0,0,0-3.714,0l-.854-.854a3.714,3.714,0,0,1,5.422,0Z" transform="translate(-235.665 -58.487)" fill="#fff"/>
        <path id="Path_1526" data-name="Path 1526" d="M241.637,65.094a.761.761,0,0,1-.761.761.78.78,0,1,1,0-1.541.761.761,0,0,1,.761.78Z" transform="translate(-234.803 -57.555)" fill="#fff"/>
      </g>
      <path id="Path_1527" data-name="Path 1527" d="M215.19,63.927a2.247,2.247,0,1,1,2.247,2.247A2.247,2.247,0,0,1,215.19,63.927Z" transform="translate(-192.265 -48.346)" fill="#fff"/>
      <path id="Path_1528" data-name="Path 1528" d="M219,63.927a2.228,2.228,0,1,1,.646,1.588A2.247,2.247,0,0,1,219,63.927Z" transform="translate(-189 -48.346)" fill="#fff"/>
      <path id="Path_1529" data-name="Path 1529" d="M222.79,63.927a2.228,2.228,0,1,1,.653,1.594A2.247,2.247,0,0,1,222.79,63.927Z" transform="translate(-185.753 -48.346)" fill="#fff"/>
      <path id="Path_1530" data-name="Path 1530" d="M226.58,63.927a2.247,2.247,0,1,1,2.247,2.247A2.247,2.247,0,0,1,226.58,63.927Z" transform="translate(-182.505 -48.346)" fill="#fff"/>
      <path id="Path_1531" data-name="Path 1531" d="M230.38,63.927a2.247,2.247,0,1,1,2.247,2.247A2.247,2.247,0,0,1,230.38,63.927Z" transform="translate(-179.248 -48.346)" fill="#fff"/>
      <path id="Path_1532" data-name="Path 1532" d="M380.005,69.393H361.77V61h18.235ZM362.7,68.465h16.378V61.891H362.7Z" transform="translate(-66.656 -48.929)" fill="#fff"/>
      <rect id="Rectangle_19161" data-name="Rectangle 19161" width="11.754" height="5.571" transform="translate(296.637 13.464)" fill="#fff"/>
      <rect id="Rectangle_19162" data-name="Rectangle 19162" width="1.616" height="4.512" transform="translate(313.349 14.002)" fill="#fff"/>
      <path id="Path_1533" data-name="Path 1533" d="M224.512,111.091l-9.972-9.34,9.972-9.34,1.541,1.634-8.208,7.706,8.208,7.706Z" transform="translate(-192.822 -22.013)" fill="#fff"/>
      <path id="Path_1534" data-name="Path 1534" d="M272.414,101.592H270.26V105.4a.984.984,0,0,1-1.95,0V95.056a.966.966,0,0,1,.966-.966h3.138a3.714,3.714,0,0,1,0,7.428Zm-2.154-1.857h2.154a1.857,1.857,0,1,0,0-3.6H270.26Z" transform="translate(-146.745 -20.573)" fill="#fff"/>
      <path id="Path_1535" data-name="Path 1535" d="M279.745,103.438h-4.252l-.854,2.284a1.021,1.021,0,0,1-.91.613.892.892,0,0,1-.334,0,.984.984,0,0,1-.576-1.263l3.862-10.325a1,1,0,0,1,1.857,0l3.955,10.287a.984.984,0,0,1-.576,1.263.891.891,0,0,1-.334,0,.984.984,0,0,1-.891-.613Zm-.724-1.857-1.411-3.714-1.43,3.714Z" transform="translate(-142.934 -20.544)" fill="#fff"/>
      <path id="Path_1536" data-name="Path 1536" d="M278.968,103.455a.929.929,0,0,1,1.281-.111,5.571,5.571,0,0,0,3.342,1.337,3.918,3.918,0,0,0,2.191-.631,1.6,1.6,0,0,0,.743-1.263,1.152,1.152,0,0,0-.148-.576,1.858,1.858,0,0,0-.539-.52,6.722,6.722,0,0,0-2.4-.817h0a9.952,9.952,0,0,1-2.247-.687,3.713,3.713,0,0,1-1.634-1.356,2.749,2.749,0,0,1-.409-1.448,3.212,3.212,0,0,1,1.411-2.544,5.181,5.181,0,0,1,3.027-.928,6.87,6.87,0,0,1,3.714,1.393.91.91,0,0,1,.26,1.244.891.891,0,0,1-1.244.26,5.106,5.106,0,0,0-2.823-1.114,3.342,3.342,0,0,0-1.968.594,1.411,1.411,0,0,0-.669,1.1.836.836,0,0,0,.13.5,1.633,1.633,0,0,0,.483.446,6.035,6.035,0,0,0,2.173.78h0a9.694,9.694,0,0,1,2.414.724,4.159,4.159,0,0,1,1.764,1.467,2.786,2.786,0,0,1,.409,1.486,3.4,3.4,0,0,1-1.5,2.711,5.441,5.441,0,0,1-3.231,1,7.539,7.539,0,0,1-4.494-1.857.947.947,0,0,1-.037-1.188Z" transform="translate(-137.776 -20.728)" fill="#fff"/>
      <path id="Path_1537" data-name="Path 1537" d="M285.153,103.455a.91.91,0,0,1,1.263-.111,5.756,5.756,0,0,0,3.361,1.337,3.806,3.806,0,0,0,2.173-.631,1.579,1.579,0,0,0,.761-1.263,1,1,0,0,0-.167-.576,1.708,1.708,0,0,0-.52-.52,6.722,6.722,0,0,0-2.4-.817h0a9.657,9.657,0,0,1-2.247-.687,3.714,3.714,0,0,1-1.634-1.356,2.749,2.749,0,0,1-.409-1.448,3.213,3.213,0,0,1,1.411-2.544,5.144,5.144,0,0,1,3.027-.929,6.871,6.871,0,0,1,3.807,1.393.91.91,0,0,1-1,1.5,5.051,5.051,0,0,0-2.8-1.114,3.342,3.342,0,0,0-1.968.594,1.411,1.411,0,0,0-.668,1.1.836.836,0,0,0,.13.5,1.857,1.857,0,0,0,.464.446,6.277,6.277,0,0,0,2.191.78h0a9.953,9.953,0,0,1,2.414.724,3.992,3.992,0,0,1,1.746,1.467,2.637,2.637,0,0,1,.427,1.486,3.4,3.4,0,0,1-1.5,2.711,5.441,5.441,0,0,1-3.231,1,7.539,7.539,0,0,1-4.494-1.857.929.929,0,0,1-.13-1.188Z" transform="translate(-132.447 -20.728)" fill="#fff"/>
      <path id="Path_1538" data-name="Path 1538" d="M307.746,95.513l-4.289,10.195a.464.464,0,0,1,0,.167h0l-.093.111h-.13a.315.315,0,0,1-.148.111H302.4a.447.447,0,0,1-.149-.111h-.13v-.111h0a.463.463,0,0,1,0-.167l-2.284-5.422-2.3,5.422v.167l-.093.111h-.111l-.13.111h-.706a.446.446,0,0,1-.148-.111h-.13l-.093-.111h0a1.184,1.184,0,0,0,0-.167l-5.088-10.195a1,1,0,1,1,1.857-.743l3.435,8.115,2.265-5.385a.947.947,0,0,1,.91-.594,1.021,1.021,0,0,1,.817.687l2.247,5.385,3.417-8.115a.966.966,0,0,1,1.281-.5A.929.929,0,0,1,307.746,95.513Z" transform="translate(-127.334 -20.529)" fill="#fff"/>
      <path id="Path_1539" data-name="Path 1539" d="M311.323,95.767a6.462,6.462,0,0,1,0,8.876,5.775,5.775,0,0,1-4.178,1.857,5.9,5.9,0,0,1-4.289-1.857,6.518,6.518,0,0,1,0-8.876,5.812,5.812,0,0,1,4.29-1.857,5.682,5.682,0,0,1,4.178,1.857Zm-.223,4.438a4.624,4.624,0,0,0-1.189-3.064,3.714,3.714,0,0,0-5.571,0,4.438,4.438,0,0,0-1.188,3.064,4.327,4.327,0,0,0,1.188,3.045,3.714,3.714,0,0,0,5.571,0A4.494,4.494,0,0,0,311.1,100.205Z" transform="translate(-118.637 -20.727)" fill="#fff"/>
      <path id="Path_1540" data-name="Path 1540" d="M317.638,104.9a.966.966,0,0,1-.613,1.226,1.467,1.467,0,0,1-.39,0h0a1.412,1.412,0,0,1-.687-.186,1.968,1.968,0,0,1-.557-.613,4.866,4.866,0,0,1-.353-2.1,1.43,1.43,0,0,0-.223-.761,1.5,1.5,0,0,0-.52-.5,3.026,3.026,0,0,0-.984-.427H311.25v3.807a.984.984,0,0,1-.984.966.966.966,0,0,1-.966-.966V95.056a.966.966,0,0,1,.966-.966H313.4a3.714,3.714,0,0,1,2.377,6.648,2.561,2.561,0,0,1,.613.65,3.268,3.268,0,0,1,.576,1.857,4.049,4.049,0,0,0,0,1.021.966.966,0,0,1,.668.631Zm-2.451-7.038A1.857,1.857,0,0,0,313.329,96h-2.154v3.6h2.154A1.857,1.857,0,0,0,315.186,97.86Z" transform="translate(-111.619 -20.574)" fill="#fff"/>
      <path id="Path_1541" data-name="Path 1541" d="M315.32,105.4V95.056a.966.966,0,0,1,.966-.966h2.154a6.146,6.146,0,0,1,0,12.274h-2.061a.966.966,0,0,1-1.058-.966Zm1.95-.984h1.17a4.2,4.2,0,0,0,0-8.375h-1.077Z" transform="translate(-106.461 -20.573)" fill="#fff"/>
      <path id="Path_1542" data-name="Path 1542" d="M228.71,274.873V267.2a.706.706,0,0,1,.724-.724h4.252a.724.724,0,0,1,.706.724.743.743,0,0,1-.706.724h-3.528v2.377h3.027a.724.724,0,1,1,0,1.448h-3.027v2.4h3.528a.724.724,0,0,1,0,1.43h-4.252a.706.706,0,0,1-.724-.706Z" transform="translate(-180.68 127.153)" fill="#263238"/>
      <path id="Path_1543" data-name="Path 1543" d="M238.205,270.613v3.12a.687.687,0,0,1-.706.687.706.706,0,0,1-.687-.687v-3.12a1.356,1.356,0,0,0-1.356-1.3,1.318,1.318,0,0,0-1.3,1.337v3.083a.8.8,0,0,1,0,.093h0v.093h0a.724.724,0,0,1-.65.408h-.13a.706.706,0,0,1-.557-.687v-3.082h0v-1.931a.687.687,0,0,1,.687-.706.631.631,0,0,1,.613.39,2.859,2.859,0,0,1,1.393-.39,2.618,2.618,0,0,1,2.043.91,2.636,2.636,0,0,1,2.043-.91,2.711,2.711,0,0,1,2.711,2.73v3.082a.687.687,0,0,1-.687.687.706.706,0,0,1-.706-.687V270.65a1.337,1.337,0,0,0-2.655,0Z" transform="translate(-177.158 128.387)" fill="#263238"/>
      <path id="Path_1544" data-name="Path 1544" d="M245.272,271.188v2.544a.687.687,0,0,1-.687.687.706.706,0,0,1-.687-.557,3.008,3.008,0,0,1-3.937-.39,3.372,3.372,0,0,1,0-4.568,3.008,3.008,0,0,1,2.21-.984,2.971,2.971,0,0,1,1.727.576.724.724,0,0,1,.687-.576.706.706,0,0,1,.687.706Zm-1.393,0a1.857,1.857,0,0,0-.5-1.337,1.6,1.6,0,0,0-1.207-.539,1.56,1.56,0,0,0-1.207.539,2.033,2.033,0,0,0,0,2.674,1.615,1.615,0,0,0,1.207.52,1.634,1.634,0,0,0,1.207-.52A1.857,1.857,0,0,0,243.88,271.188Z" transform="translate(-171.802 128.387)" fill="#263238"/>
      <path id="Path_1545" data-name="Path 1545" d="M245.191,267.5a.687.687,0,0,1-.706.706.706.706,0,0,1-.706-.706v-.279a.706.706,0,0,1,.706-.706.687.687,0,0,1,.706.706Zm0,2.34v5.088a.706.706,0,0,1-1.411,0v-5.088a.706.706,0,1,1,1.411,0Z" transform="translate(-167.766 127.187)" fill="#263238"/>
      <path id="Path_1546" data-name="Path 1546" d="M246.326,266.52a.724.724,0,0,1,.724.724v7.595a.724.724,0,0,1-1.43,0V267.17a.724.724,0,0,1,.706-.65Z" transform="translate(-166.189 127.188)" fill="#263238"/>
      <rect id="Rectangle_19163" data-name="Rectangle 19163" width="246.192" height="21.8" transform="translate(46.694 412.073)" fill="#ebebeb"/>
      <path id="Path_1547" data-name="Path 1547" d="M231.416,284.34a3.231,3.231,0,0,1,3.175-3.25,3.12,3.12,0,0,1,3.138,3.027h0a.315.315,0,0,1,0,.13.631.631,0,0,1-.669.52H232.92a1.6,1.6,0,0,0,.446.854,1.95,1.95,0,0,0,1.244.576,2.21,2.21,0,0,0,1.356-.316.687.687,0,0,1,.966,0,.594.594,0,0,1,0,.836,3.287,3.287,0,0,1-5.571-2.4Zm1.411-.631h3.714a2.135,2.135,0,0,0-1.857-1.374A1.857,1.857,0,0,0,232.827,283.708Z" transform="translate(-178.409 139.673)" fill="#c7c7c7"/>
      <path id="Path_1548" data-name="Path 1548" d="M241.315,283.911v3.12a.687.687,0,0,1-.687.687.706.706,0,0,1-.706-.687v-3.12a1.356,1.356,0,0,0-1.337-1.3,1.318,1.318,0,0,0-1.318,1.337v3.083h0a.724.724,0,0,1-.65.408h-.13a.706.706,0,0,1-.557-.687V283.67h0v-2.024a.694.694,0,0,1,1.318-.316,2.749,2.749,0,0,1,1.393-.39,2.674,2.674,0,0,1,2.043.91,2.618,2.618,0,0,1,2.043-.91,2.711,2.711,0,0,1,2.693,2.73v3.082a.687.687,0,0,1-.687.687.706.706,0,0,1-.706-.687V283.67a1.318,1.318,0,0,0-1.3-1.337,1.356,1.356,0,0,0-1.411,1.578Z" transform="translate(-174.493 139.544)" fill="#c7c7c7"/>
      <path id="Path_1549" data-name="Path 1549" d="M248.374,284.358V286.9a.687.687,0,0,1-.687.687.724.724,0,0,1-.687-.557,2.915,2.915,0,0,1-1.727.557,2.99,2.99,0,0,1-2.21-.947,3.306,3.306,0,0,1-.873-2.284,3.268,3.268,0,0,1,.873-2.284,3.027,3.027,0,0,1,2.21-.984,2.915,2.915,0,0,1,1.727.576.743.743,0,0,1,.687-.576.706.706,0,0,1,.687.706Zm-1.374,0a1.857,1.857,0,0,0-.52-1.337,1.616,1.616,0,0,0-2.414,0,2.033,2.033,0,0,0,0,2.674,1.653,1.653,0,0,0,2.414,0,1.857,1.857,0,0,0,.52-1.337Z" transform="translate(-169.128 139.673)" fill="#c7c7c7"/>
      <path id="Path_1550" data-name="Path 1550" d="M248.3,280.727a.706.706,0,1,1-1.393,0v-.279a.706.706,0,1,1,1.393,0Zm0,2.34v5.088a.706.706,0,0,1-1.393,0v-5.088a.706.706,0,1,1,1.393,0Z" transform="translate(-165.096 138.421)" fill="#c7c7c7"/>
      <path id="Path_1551" data-name="Path 1551" d="M249.466,279.69a.743.743,0,0,1,.743.724v7.669a.724.724,0,0,1-.743.706.706.706,0,0,1-.706-.706v-7.669a.724.724,0,0,1,.706-.724Z" transform="translate(-163.498 138.473)" fill="#c7c7c7"/>
      <path id="Path_1552" data-name="Path 1552" d="M256.264,284.358V286.9a.669.669,0,0,1-.687.687.687.687,0,0,1-.669-.557,3.008,3.008,0,0,1-3.937-.39,3.372,3.372,0,0,1,0-4.568,3.008,3.008,0,0,1,2.21-.984,2.971,2.971,0,0,1,1.727.576.706.706,0,0,1,.669-.576.687.687,0,0,1,.687.706Zm-1.374,0a1.857,1.857,0,0,0-.5-1.337,1.615,1.615,0,0,0-1.207-.538,1.56,1.56,0,0,0-1.207.539,2.033,2.033,0,0,0,0,2.674,1.615,1.615,0,0,0,1.207.52,1.671,1.671,0,0,0,1.207-.52,1.857,1.857,0,0,0,.5-1.337Z" transform="translate(-162.367 139.673)" fill="#c7c7c7"/>
      <path id="Path_1553" data-name="Path 1553" d="M260.956,288.057a.706.706,0,0,1-.706.687.687.687,0,0,1-.687-.557,3.064,3.064,0,0,1-1.764.557,3.25,3.25,0,1,1,0-6.5,2.952,2.952,0,0,1,1.727.557v-2.451a.724.724,0,0,1,1.43,0v5.144h0Zm-3.157-4.382a1.653,1.653,0,0,0-1.226.52,1.857,1.857,0,0,0-.52,1.318,1.745,1.745,0,0,0,.52,1.281,1.634,1.634,0,0,0,2.433,0,1.745,1.745,0,0,0,.52-1.281,1.857,1.857,0,0,0-.52-1.318,1.634,1.634,0,0,0-1.281-.52Z" transform="translate(-158.536 138.518)" fill="#c7c7c7"/>
      <path id="Path_1554" data-name="Path 1554" d="M263.4,281.769a.706.706,0,0,1-.687.706,1.263,1.263,0,0,0-.78.241,1.859,1.859,0,0,0-.594.613,4.342,4.342,0,0,0-.539,1.1v2.47a.687.687,0,0,1-.706.687.669.669,0,0,1-.687-.687v-5.125a.669.669,0,0,1,.687-.668.687.687,0,0,1,.706.669v.093a1.862,1.862,0,0,1,.279-.26,2.841,2.841,0,0,1,1.634-.5.668.668,0,0,1,.687.668Z" transform="translate(-154.372 139.681)" fill="#c7c7c7"/>
      <path id="Path_1555" data-name="Path 1555" d="M261.88,284.34a3.231,3.231,0,0,1,3.175-3.25,3.12,3.12,0,0,1,3.138,3.027h0a.315.315,0,0,1,0,.13.631.631,0,0,1-.668.52h-4.141a1.727,1.727,0,0,0,.446.854,2,2,0,0,0,1.244.576,2.21,2.21,0,0,0,1.356-.316.724.724,0,0,1,.984,0,.594.594,0,0,1,0,.836,3.287,3.287,0,0,1-2.34.854,3.212,3.212,0,0,1-3.194-3.231Zm1.43-.631h3.714a2.135,2.135,0,0,0-1.857-1.374A1.857,1.857,0,0,0,263.31,283.708Z" transform="translate(-152.255 139.673)" fill="#c7c7c7"/>
      <path id="Path_1556" data-name="Path 1556" d="M266.314,285.69a.687.687,0,0,1,.984,0,2.526,2.526,0,0,0,1.43.576,1.671,1.671,0,0,0,.873-.26.52.52,0,0,0,.241-.39.261.261,0,0,0,0-.13.446.446,0,0,0-.167-.148,3.1,3.1,0,0,0-1.04-.372h0a5.052,5.052,0,0,1-1.133-.334,2.079,2.079,0,0,1-.891-.761,1.5,1.5,0,0,1-.223-.817,1.857,1.857,0,0,1,.761-1.43,2.786,2.786,0,0,1,1.6-.483,3.213,3.213,0,0,1,1.95.724.724.724,0,0,1,.223.966.706.706,0,0,1-.966.167,2.34,2.34,0,0,0-1.207-.464,1.337,1.337,0,0,0-.78.223.39.39,0,0,0-.2.3v.111c0,.111,0,0,.13.13a3.232,3.232,0,0,0,.947.316h0a5.111,5.111,0,0,1,1.207.39,1.857,1.857,0,0,1,.928.761,1.745,1.745,0,0,1,.242.854,1.857,1.857,0,0,1-.817,1.5,2.9,2.9,0,0,1-1.69.52,3.714,3.714,0,0,1-2.321-.891.706.706,0,0,1-.074-1.058Z" transform="translate(-148.63 139.716)" fill="#c7c7c7"/>
      <path id="Path_1557" data-name="Path 1557" d="M269.7,285.69a.669.669,0,0,1,.966,0,2.525,2.525,0,0,0,1.43.576,1.746,1.746,0,0,0,.891-.26.483.483,0,0,0,.223-.39.149.149,0,0,0,0-.13s0-.093-.167-.148a3.1,3.1,0,0,0-1.04-.371h0a5.048,5.048,0,0,1-1.133-.334,2.227,2.227,0,0,1-.91-.761,1.671,1.671,0,0,1-.223-.817,1.857,1.857,0,0,1,.78-1.43,2.749,2.749,0,0,1,1.6-.483,3.268,3.268,0,0,1,1.95.724A.683.683,0,1,1,273.3,283a2.284,2.284,0,0,0-1.188-.464,1.3,1.3,0,0,0-.78.223.39.39,0,0,0-.2.3.206.206,0,0,0,0,.111.578.578,0,0,0,.149.13,3.048,3.048,0,0,0,.947.316h0a5.108,5.108,0,0,1,1.207.39,1.857,1.857,0,0,1,.928.761,1.56,1.56,0,0,1,.242.854,1.857,1.857,0,0,1-.817,1.5,2.86,2.86,0,0,1-1.69.52,3.714,3.714,0,0,1-2.3-.891.687.687,0,0,1-.093-1.058Z" transform="translate(-145.735 139.716)" fill="#c7c7c7"/>
      <path id="Path_1558" data-name="Path 1558" d="M282.045,284.191a4.365,4.365,0,0,1-.5,2.08h0a2.787,2.787,0,0,1-.316.464,2.08,2.08,0,0,1-1.021.613,1.024,1.024,0,0,1-.334,0,1.114,1.114,0,0,1-.984-.483,1.057,1.057,0,0,1-.223-.39,2.488,2.488,0,0,1-1.17.3,2.414,2.414,0,0,1-1.857-.78,2.73,2.73,0,0,1-.724-1.857,2.674,2.674,0,0,1,.724-1.857,2.433,2.433,0,0,1,1.857-.8,2.507,2.507,0,0,1,1.857.8,2.655,2.655,0,0,1,.706,1.857v1.69h0a.987.987,0,0,0,.167-.2,3.157,3.157,0,0,0,.334-1.411,3.1,3.1,0,1,0-3.12,3.1,3.481,3.481,0,0,0,.78,0,.706.706,0,0,1,.873.5.743.743,0,0,1-.52.891,4.55,4.55,0,1,1,3.417-4.419Zm-3.473,0a1.262,1.262,0,0,0-.316-.873,1.058,1.058,0,0,0-1.5,0,1.356,1.356,0,0,0,0,1.746,1.04,1.04,0,0,0,.743.316,1.058,1.058,0,0,0,.761-.316,1.262,1.262,0,0,0,.409-.873Z" transform="translate(-142.82 138.522)" fill="#c7c7c7"/>
      <path id="Path_1559" data-name="Path 1559" d="M285.485,283.911v3.12a.687.687,0,0,1-.687.687.706.706,0,0,1-.706-.687v-3.12a1.356,1.356,0,0,0-1.337-1.3,1.319,1.319,0,0,0-1.318,1.337v3.083h0a.724.724,0,0,1-.65.408h-.13a.706.706,0,0,1-.557-.687V283.67h0v-2.024a.694.694,0,0,1,1.318-.316,2.748,2.748,0,0,1,1.393-.39,2.674,2.674,0,0,1,2.043.91,2.581,2.581,0,0,1,2.024-.91,2.711,2.711,0,0,1,2.711,2.73v3.082a.687.687,0,0,1-.687.687.706.706,0,0,1-.706-.687V283.67a1.318,1.318,0,0,0-1.318-1.337,1.356,1.356,0,0,0-1.393,1.578Z" transform="translate(-136.642 139.544)" fill="#c7c7c7"/>
      <path id="Path_1560" data-name="Path 1560" d="M292.552,284.358V286.9a.687.687,0,0,1-.687.687.724.724,0,0,1-.687-.557,2.915,2.915,0,0,1-1.727.557,2.989,2.989,0,0,1-2.21-.947,3.372,3.372,0,0,1,0-4.568,3.026,3.026,0,0,1,2.21-.984,2.915,2.915,0,0,1,1.727.576.743.743,0,0,1,.687-.576.706.706,0,0,1,.687.706Zm-1.374,0a1.857,1.857,0,0,0-.52-1.337,1.616,1.616,0,0,0-2.414,0,2.033,2.033,0,0,0,0,2.674,1.652,1.652,0,0,0,2.414,0,1.857,1.857,0,0,0,.613-1.337Z" transform="translate(-131.286 139.673)" fill="#c7c7c7"/>
      <path id="Path_1561" data-name="Path 1561" d="M292.467,280.727a.706.706,0,1,1-1.393,0v-.279a.706.706,0,1,1,1.393,0Zm0,2.34v5.088a.706.706,0,0,1-1.393,0v-5.088a.706.706,0,1,1,1.393,0Z" transform="translate(-127.245 138.421)" fill="#c7c7c7"/>
      <path id="Path_1562" data-name="Path 1562" d="M293.636,279.69a.743.743,0,0,1,.743.724v7.669a.724.724,0,0,1-.743.706.706.706,0,0,1-.706-.706v-7.669a.724.724,0,0,1,.706-.724Z" transform="translate(-125.647 138.473)" fill="#c7c7c7"/>
      <path id="Path_1563" data-name="Path 1563" d="M295.463,283.6a.826.826,0,1,1-.873.984A.984.984,0,0,1,295.463,283.6Z" transform="translate(-124.225 141.824)" fill="#c7c7c7"/>
      <path id="Path_1564" data-name="Path 1564" d="M295.85,284.358a3.324,3.324,0,0,1,3.305-3.268,3.416,3.416,0,0,1,2.061.724.689.689,0,0,1-.836,1.1,1.968,1.968,0,0,0-1.226-.427,1.857,1.857,0,1,0,0,3.714,2.117,2.117,0,0,0,1.226-.408.689.689,0,0,1,.836,1.1,3.51,3.51,0,0,1-2.061.687,3.287,3.287,0,0,1-3.305-3.212Z" transform="translate(-123.145 139.673)" fill="#c7c7c7"/>
      <path id="Path_1565" data-name="Path 1565" d="M300.73,286.642a3.156,3.156,0,0,1-.91-2.284,3.306,3.306,0,0,1,.91-2.284,3.064,3.064,0,0,1,2.228-.984,2.952,2.952,0,0,1,2.173.984,3.231,3.231,0,0,1,.91,2.284,3.083,3.083,0,0,1-.91,2.284,2.9,2.9,0,0,1-2.173,1,3.027,3.027,0,0,1-2.228-1Zm.52-2.284a2.079,2.079,0,0,0,.464,1.374,1.708,1.708,0,0,0,1.244.483,1.634,1.634,0,0,0,1.189-.483,2.043,2.043,0,0,0,0-2.73,1.773,1.773,0,0,0-2.433,0,2.061,2.061,0,0,0-.464,1.356Z" transform="translate(-119.743 139.673)" fill="#c7c7c7"/>
      <path id="Path_1566" data-name="Path 1566" d="M309.775,283.911v3.12a.687.687,0,0,1-.687.687.706.706,0,0,1-.706-.687v-3.12a1.356,1.356,0,0,0-1.337-1.3,1.319,1.319,0,0,0-1.318,1.337v3.083h0a.724.724,0,0,1-.65.408h-.13a.706.706,0,0,1-.557-.687V283.67h0v-2.024a.694.694,0,0,1,1.318-.316,2.748,2.748,0,0,1,1.393-.39,2.674,2.674,0,0,1,2.043.91,2.581,2.581,0,0,1,2.024-.91,2.711,2.711,0,0,1,2.711,2.73v3.083a.687.687,0,0,1-.687.687.706.706,0,0,1-.706-.687V283.67a1.318,1.318,0,0,0-1.318-1.337,1.356,1.356,0,0,0-1.393,1.578Z" transform="translate(-115.827 139.544)" fill="#c7c7c7"/>
      <path id="Path_1567" data-name="Path 1567" d="M233.99,238.754l27.984-.223,27.984-.074,55.986-.167,55.968.167,27.984.074,27.984.223-27.984.223-27.984.093-55.968.148-55.986-.148-27.984-.093Z" transform="translate(-176.155 102.996)" fill="#263238"/>
      <path id="Path_1568" data-name="Path 1568" d="M245.12,245.434l22.822-.223,22.822-.074,45.643-.167,45.643.167,22.8.074,22.822.223-22.822.223-22.8.093-45.643.149-45.643-.149-22.822-.093Z" transform="translate(-166.617 108.721)" fill="#263238"/>
      <path id="Path_1569" data-name="Path 1569" d="M227.99,310.554l30.769-.241,30.769-.074,61.557-.149,61.539.149,30.788.074,30.769.241-30.769.223-30.788.074L351.086,311l-61.557-.149-30.769-.074Z" transform="translate(-181.296 164.524)" fill="#ebebeb"/>
      <rect id="Rectangle_19164" data-name="Rectangle 19164" width="192.657" height="29.915" transform="translate(73.452 507.333)" fill="#febf09"/>
      <path id="Path_1570" data-name="Path 1570" d="M266.664,341.4a2.117,2.117,0,0,0-.947-1.764,3.36,3.36,0,0,0-1.356-.576h-2.934v4.624a.409.409,0,1,1-.817,0v-10.9a.39.39,0,0,1,.371-.39h3.342a3.343,3.343,0,0,1,1.411,6.351h.167a2.953,2.953,0,0,1,1.56,2.6,4.809,4.809,0,0,0,.149,1.356.687.687,0,0,0,.186.3.446.446,0,0,1,.446.26.464.464,0,0,1-.279.539h-.223a.929.929,0,0,1-.761-.539A4.106,4.106,0,0,1,266.664,341.4Zm-2.34-8.226h-2.9v5.051H264.4a2.525,2.525,0,1,0,0-5.051Z" transform="translate(-153.343 183.634)" fill="#fff"/>
      <path id="Path_1571" data-name="Path 1571" d="M265.86,338.268a3.974,3.974,0,0,1,7.929-.3h0a.39.39,0,0,1-.409.371h-6.722a3.231,3.231,0,0,0,3.175,3.157,3.045,3.045,0,0,0,2.637-1.5.427.427,0,0,1,.539-.13.446.446,0,0,1,.149.576,3.937,3.937,0,0,1-3.324,1.857,4.03,4.03,0,0,1-3.974-4.03Zm.854-.65h6.2a3.138,3.138,0,0,0-6.2,0Z" transform="translate(-148.844 185.332)" fill="#fff"/>
      <path id="Path_1572" data-name="Path 1572" d="M271.411,340.707a.409.409,0,0,1,.576,0,4.29,4.29,0,0,0,2.507.966,2.34,2.34,0,0,0,1.541-.52,1.226,1.226,0,0,0,.631-1,1.3,1.3,0,0,0-.594-1,4.1,4.1,0,0,0-1.745-.594h0a4.548,4.548,0,0,1-1.857-.631,1.708,1.708,0,0,1-.891-1.467,2.062,2.062,0,0,1,.891-1.616,3.53,3.53,0,0,1,2.006-.538,4.42,4.42,0,0,1,2.432.873.446.446,0,0,1,.13.576.39.39,0,0,1-.557.111,3.713,3.713,0,0,0-2.005-.817,2.507,2.507,0,0,0-1.56.464,1.263,1.263,0,0,0-.52.947,1,1,0,0,0,.464.817,4.27,4.27,0,0,0,1.671.557h0a5.96,5.96,0,0,1,1.987.668,2.061,2.061,0,0,1,.928,1.671,2.117,2.117,0,0,1-.947,1.671,3.342,3.342,0,0,1-2.024.65,4.92,4.92,0,0,1-3.027-1.17.39.39,0,0,1-.037-.613Z" transform="translate(-144.2 185.269)" fill="#fff"/>
      <path id="Path_1573" data-name="Path 1573" d="M275.77,338.267a3.974,3.974,0,0,1,7.929-.3h0a.39.39,0,0,1-.409.371h-6.722a3.231,3.231,0,0,0,3.175,3.157,3.045,3.045,0,0,0,2.637-1.5.408.408,0,1,1,.668.446,3.881,3.881,0,0,1-3.305,1.857A4.03,4.03,0,0,1,275.77,338.267Zm.854-.65h6.2a3.138,3.138,0,0,0-6.2,0Z" transform="translate(-140.352 185.332)" fill="#fff"/>
      <path id="Path_1574" data-name="Path 1574" d="M284.411,336.244a.427.427,0,0,1-.39.409h-.984v5.961a.65.65,0,0,0,.613.613.409.409,0,1,1,0,.817,1.393,1.393,0,0,1-1.448-1.43v-5.961H281.18c-.39,0-.39-.2-.39-.409s0-.39.39-.39H282.2v-3.045a.446.446,0,0,1,.409-.408.464.464,0,0,1,.427.408v3.045H284.1a.408.408,0,0,1,.316.39Z" transform="translate(-136.05 183.642)" fill="#fff"/>
      <path id="Path_1575" data-name="Path 1575" d="M287.634,332.76a.39.39,0,0,1,.409-.39h3.305a3.343,3.343,0,0,1,0,6.667l-2.971.074V343.7a.409.409,0,0,1-.817,0Zm3.714,5.478a2.525,2.525,0,1,0,0-5.051h-2.971v5.051Z" transform="translate(-130.249 183.616)" fill="#fff"/>
      <path id="Path_1576" data-name="Path 1576" d="M300.008,334.633v7.428a.409.409,0,1,1-.8,0v-1.226a3.714,3.714,0,0,1-3.082,1.634,4.1,4.1,0,0,1,0-8.189,3.806,3.806,0,0,1,3.082,1.6V334.67a.4.4,0,0,1,.8-.037Zm-.8,3.714a3.083,3.083,0,1,0-3.082,3.305,3.194,3.194,0,0,0,3.045-3.324Z" transform="translate(-126.188 185.253)" fill="#fff"/>
      <path id="Path_1577" data-name="Path 1577" d="M298.038,340.707a.39.39,0,0,1,.557,0,4.382,4.382,0,0,0,2.507.966,2.414,2.414,0,0,0,1.56-.52,1.207,1.207,0,0,0,.613-1,1.337,1.337,0,0,0-.576-1,4.2,4.2,0,0,0-1.746-.594h0a4.752,4.752,0,0,1-1.857-.631,1.727,1.727,0,0,1-.873-1.467,2.1,2.1,0,0,1,.873-1.616,3.715,3.715,0,0,1,2.024-.539,4.476,4.476,0,0,1,2.433.873.409.409,0,0,1,.112.576.371.371,0,0,1-.539.111,3.714,3.714,0,0,0-2.005-.817,2.47,2.47,0,0,0-1.56.464,1.262,1.262,0,0,0-.52.947,1,1,0,0,0,.464.817,4.268,4.268,0,0,0,1.671.557h0a6.108,6.108,0,0,1,1.987.669,2.061,2.061,0,0,1,.929,1.671,2.117,2.117,0,0,1-.947,1.671,3.4,3.4,0,0,1-2.043.65,4.976,4.976,0,0,1-3.064-1.318A.371.371,0,0,1,298.038,340.707Z" transform="translate(-121.34 185.27)" fill="#fff"/>
      <path id="Path_1578" data-name="Path 1578" d="M302.407,340.707a.409.409,0,0,1,.576,0,4.327,4.327,0,0,0,2.507.966,2.414,2.414,0,0,0,1.56-.52,1.244,1.244,0,0,0,.613-1,1.337,1.337,0,0,0-.576-1,4.2,4.2,0,0,0-1.746-.594h0a4.753,4.753,0,0,1-1.857-.631,1.69,1.69,0,0,1-.873-1.467,2.043,2.043,0,0,1,.873-1.616,3.53,3.53,0,0,1,2.006-.538,4.55,4.55,0,0,1,2.451.873.427.427,0,0,1,.111.576.39.39,0,0,1-.557.111,3.713,3.713,0,0,0-2.005-.817,2.414,2.414,0,0,0-1.541.464,1.263,1.263,0,0,0-.52.947,1,1,0,0,0,.464.817,4.16,4.16,0,0,0,1.671.557h0a6.109,6.109,0,0,1,1.987.668,2.042,2.042,0,0,1,.91,1.671,2.1,2.1,0,0,1-.928,1.671,3.435,3.435,0,0,1-2.043.65,4.976,4.976,0,0,1-3.027-1.17.39.39,0,0,1-.056-.613Z" transform="translate(-117.632 185.269)" fill="#fff"/>
      <path id="Path_1579" data-name="Path 1579" d="M309.943,342.347a.279.279,0,0,1-.167-.186l-3.083-7.316a.409.409,0,0,1,.2-.52.39.39,0,0,1,.52.223l2.73,6.444L312,336.5a.427.427,0,0,1,.371-.26.483.483,0,0,1,.408.26l1.857,4.494,2.693-6.444a.408.408,0,0,1,.52-.223.39.39,0,0,1,.223.52l-3.064,7.279a.428.428,0,0,1-.149.2.3.3,0,0,1-.2.093h0a.408.408,0,0,1-.316-.26h0l-1.857-4.531-1.857,4.512h0a.427.427,0,0,1-.353.26h-.148Z" transform="translate(-113.878 185.264)" fill="#fff"/>
      <path id="Path_1580" data-name="Path 1580" d="M318.152,334.263a4.1,4.1,0,1,1-3.881,4.085,3.992,3.992,0,0,1,3.881-4.085Zm0,7.428a3.305,3.305,0,1,0-3.083-3.305,3.213,3.213,0,0,0,3.083,3.268Z" transform="translate(-107.361 185.233)" fill="#fff"/>
      <path id="Path_1581" data-name="Path 1581" d="M319.92,334.669a.408.408,0,0,1,.427-.408.39.39,0,0,1,.371.408v1.857l.13-.2a3.955,3.955,0,0,1,3.268-2.005.408.408,0,1,1,0,.817,2.971,2.971,0,0,0-2.377,1.337,8.059,8.059,0,0,0-.984,1.857.28.28,0,0,0,0,.149v3.584a.39.39,0,0,1-.371.409.409.409,0,0,1-.427-.409Z" transform="translate(-102.519 185.236)" fill="#fff"/>
      <path id="Path_1582" data-name="Path 1582" d="M330.395,342.48a3.918,3.918,0,0,1-3.138,1.6,4.1,4.1,0,0,1,0-8.189,3.918,3.918,0,0,1,3.138,1.6v-4.717a.409.409,0,0,1,.817,0v10.9a.409.409,0,1,1-.817,0Zm0-2.358v-.26a3.268,3.268,0,1,0,0,.26Z" transform="translate(-99.512 183.608)" fill="#fff"/>
      <circle id="Ellipse_154" data-name="Ellipse 154" cx="43.025" cy="43.025" r="43.025" transform="translate(177.124 156.076)" fill="#455a64"/>
      <circle id="Ellipse_155" data-name="Ellipse 155" cx="29.395" cy="29.395" r="29.395" transform="translate(76.386 231.765)" fill="#ebebeb"/>
      <path id="Path_1583" data-name="Path 1583" d="M333.664,171.462v30.825h-8.728V171.462c0-11.736-8.913-21.28-19.869-21.28s-19.869,9.545-19.869,21.28v30.825H276.47V171.462c0-16.805,12.831-30.472,28.6-30.472S333.664,154.657,333.664,171.462Z" transform="translate(-139.752 19.617)" fill="#c7c7c7"/>
      <path id="Path_1584" data-name="Path 1584" d="M276.47,161.72l8.728.353V184.56H276.47Z" transform="translate(-139.752 37.381)" fill="#a6a6a6"/>
      <path id="Path_1585" data-name="Path 1585" d="M311.3,163.151v20.5H302.57V162.78Z" transform="translate(-117.386 38.289)" fill="#a6a6a6"/>
      <rect id="Rectangle_19165" data-name="Rectangle 19165" width="79.551" height="72.16" transform="translate(125.539 204.375)" fill="#febf09"/>
      <rect id="Rectangle_19166" data-name="Rectangle 19166" width="39.775" height="72.16" transform="translate(165.314 204.375)" opacity="0.1"/>
      <path id="Path_1586" data-name="Path 1586" d="M298.676,191.454l3.342,15.8h-14.15l3.342-15.8a7.075,7.075,0,1,1,7.428,0Z" transform="translate(-130.001 51.638)" fill="#263238"/>
      <path id="Path_1587" data-name="Path 1587" d="M287.026,383.587a4.7,4.7,0,1,1-1.369-3.334,4.7,4.7,0,0,1,1.369,3.334Z" transform="translate(-138.758 223.464)" fill="#dbdbdb"/>
      <path id="Path_1588" data-name="Path 1588" d="M304.674,384.7a7.112,7.112,0,1,1-7.112-7.131A7.112,7.112,0,0,1,304.674,384.7Z" transform="translate(-127.772 222.35)" fill="#c7c7c7"/>
      <path id="Path_1589" data-name="Path 1589" d="M315.283,383.587a4.717,4.717,0,1,1-4.717-4.717,4.717,4.717,0,0,1,4.717,4.717Z" transform="translate(-114.576 223.464)" fill="#dbdbdb"/>
      <path id="Path_1590" data-name="Path 1590" d="M255.83,231.409V221.53a.91.91,0,0,1,.928-.91h5.459a.929.929,0,0,1,.91.91.947.947,0,0,1-.91.947h-4.531v3.064h3.9a.928.928,0,0,1,0,1.857h-3.9v4.011a.929.929,0,0,1-.928.91.91.91,0,0,1-.928-.91Z" transform="translate(-157.439 87.854)" fill="#263238"/>
      <path id="Path_1591" data-name="Path 1591" d="M261.461,229.551a4.2,4.2,0,0,1-1.151-2.934,4.438,4.438,0,0,1,1.151-2.934,3.937,3.937,0,0,1,2.878-1.263,3.714,3.714,0,0,1,2.8,1.263,4.271,4.271,0,0,1,1.17,2.934,4.048,4.048,0,0,1-1.17,2.934,3.714,3.714,0,0,1-2.8,1.281A3.9,3.9,0,0,1,261.461,229.551Zm.669-2.934a2.637,2.637,0,0,0,.613,1.764,2.21,2.21,0,0,0,1.6.631,2.172,2.172,0,0,0,1.541-.631,2.693,2.693,0,0,0,0-3.51,2.34,2.34,0,0,0-1.541-.631,2.377,2.377,0,0,0-1.6.631,2.655,2.655,0,0,0-.613,1.745Z" transform="translate(-153.601 89.397)" fill="#263238"/>
      <path id="Path_1592" data-name="Path 1592" d="M271.122,223.3a.891.891,0,0,1-.891.873,1.652,1.652,0,0,0-1,.316,2.47,2.47,0,0,0-.761.817,4.826,4.826,0,0,0-.687,1.393v3.175a.91.91,0,0,1-.928.891.891.891,0,0,1-.891-.891V223.3a.891.891,0,0,1,.891-.873.91.91,0,0,1,.928.873v.186a1.86,1.86,0,0,1,.334-.334,3.714,3.714,0,0,1,2.117-.65.873.873,0,0,1,.891.8Z" transform="translate(-148.759 89.405)" fill="#263238"/>
      <path id="Path_1593" data-name="Path 1593" d="M277.642,226.688v3.1a4.011,4.011,0,0,1-5.775,3.6.891.891,0,0,1-.39-1.207.928.928,0,0,1,1.207-.427,1.857,1.857,0,0,0,.947.241,2.247,2.247,0,0,0,2.191-1.857,3.974,3.974,0,0,1-2.191.668,3.807,3.807,0,0,1-2.841-1.281,4.122,4.122,0,0,1-1.17-2.934,4.345,4.345,0,0,1,1.17-2.971,3.918,3.918,0,0,1,2.841-1.244,3.714,3.714,0,0,1,2.247.706.873.873,0,0,1,.873-.706.891.891,0,0,1,.891.891V226.6Zm-1.857,0a2.618,2.618,0,0,0-.65-1.708,2.079,2.079,0,0,0-1.578-.724,2.024,2.024,0,0,0-1.541.724,2.451,2.451,0,0,0-.668,1.708,2.4,2.4,0,0,0,.668,1.727,2.043,2.043,0,0,0,1.541.669,2.1,2.1,0,0,0,1.578-.669,2.544,2.544,0,0,0,.761-1.746Z" transform="translate(-145.623 89.362)" fill="#263238"/>
      <path id="Path_1594" data-name="Path 1594" d="M276.8,229.551a4.1,4.1,0,0,1-1.151-2.934,4.345,4.345,0,0,1,1.151-2.934,3.918,3.918,0,0,1,2.878-1.263,3.714,3.714,0,0,1,2.785,1.263,4.2,4.2,0,0,1,1.17,2.934,3.974,3.974,0,0,1-1.17,2.934,3.714,3.714,0,0,1-2.785,1.281,3.862,3.862,0,0,1-2.878-1.281Zm.668-2.934a2.729,2.729,0,0,0,.594,1.764,2.284,2.284,0,0,0,1.615.631,2.21,2.21,0,0,0,1.541-.631,2.693,2.693,0,0,0,0-3.51,2.4,2.4,0,0,0-1.541-.631,2.469,2.469,0,0,0-1.615.631A2.749,2.749,0,0,0,277.47,226.617Z" transform="translate(-140.456 89.397)" fill="#263238"/>
      <path id="Path_1595" data-name="Path 1595" d="M285.455,224.881a.947.947,0,0,1-.928.928h-.409v4.661a.929.929,0,0,1,.91.947.891.891,0,0,1-.91.91,1.857,1.857,0,0,1-1.857-1.857v-4.661h-.5a.928.928,0,0,1-.91-.928.91.91,0,0,1,.91-.91h.5v-2.433a.928.928,0,1,1,1.857,0v2.433h.409a.929.929,0,0,1,.928.91Z" transform="translate(-135.999 87.846)" fill="#263238"/>
      <path id="Path_1596" data-name="Path 1596" d="M291.61,227.739h-2.043v3.714a.928.928,0,0,1-.947.91.91.91,0,0,1-.91-.91v-9.879a.91.91,0,0,1,.91-.91h2.99a3.584,3.584,0,1,1,0,7.149Zm-2.043-1.857h2.043a1.727,1.727,0,1,0,0-3.435h-2.043Z" transform="translate(-130.12 87.884)" fill="#263238"/>
      <path id="Path_1597" data-name="Path 1597" d="M300.329,226.64v3.268a.873.873,0,0,1-.873.891.891.891,0,0,1-.873-.724,3.714,3.714,0,0,1-2.228.724,3.862,3.862,0,0,1-2.841-1.226,4.382,4.382,0,0,1,0-5.887,3.881,3.881,0,0,1,2.841-1.244,3.714,3.714,0,0,1,2.228.743.877.877,0,0,1,1.745.167Zm-1.857,0a2.525,2.525,0,0,0-.65-1.727,2.1,2.1,0,0,0-1.56-.687,2.061,2.061,0,0,0-1.56.687,2.525,2.525,0,0,0-.631,1.727,2.581,2.581,0,0,0,.631,1.727,2.173,2.173,0,0,0,1.56.65,2.21,2.21,0,0,0,1.56-.65,2.6,2.6,0,0,0,.743-1.727Z" transform="translate(-126.12 89.374)" fill="#263238"/>
      <path id="Path_1598" data-name="Path 1598" d="M298.275,228.389a.891.891,0,0,1,1.263-.13,3.027,3.027,0,0,0,1.857.743,2.266,2.266,0,0,0,1.133-.316.724.724,0,0,0,.3-.5.2.2,0,0,0,0-.167.409.409,0,0,0-.2-.2,3.882,3.882,0,0,0-1.337-.464h0a7.111,7.111,0,0,1-1.467-.446,2.86,2.86,0,0,1-1.151-.966,2.005,2.005,0,0,1-.279-1.058,2.358,2.358,0,0,1,.984-1.857,3.714,3.714,0,0,1,2.061-.613,4.419,4.419,0,0,1,2.507.91.928.928,0,0,1,.26,1.244.873.873,0,0,1-1.226.241,2.878,2.878,0,0,0-1.541-.631,1.69,1.69,0,0,0-1,.316c-.223.149-.279.3-.279.371v.13a.409.409,0,0,0,.186.167,2.99,2.99,0,0,0,1.225.409h0a6.2,6.2,0,0,1,1.541.483,2.544,2.544,0,0,1,1.188.984,2.154,2.154,0,0,1,.316,1.114,2.4,2.4,0,0,1-1.04,1.857,3.714,3.714,0,0,1-2.173.669,4.847,4.847,0,0,1-2.99-1.151.91.91,0,0,1-.13-1.133Z" transform="translate(-121.187 89.388)" fill="#263238"/>
      <path id="Path_1599" data-name="Path 1599" d="M302.617,228.389a.873.873,0,0,1,1.244-.13,3.064,3.064,0,0,0,1.857.743,2.284,2.284,0,0,0,1.151-.316.724.724,0,0,0,.3-.5.2.2,0,0,0,0-.167s0-.13-.223-.2a3.6,3.6,0,0,0-1.337-.464h0a7.112,7.112,0,0,1-1.467-.446,2.73,2.73,0,0,1-1.151-.966,2.006,2.006,0,0,1-.278-1.058,2.358,2.358,0,0,1,.984-1.857,3.714,3.714,0,0,1,2.061-.613,4.419,4.419,0,0,1,2.507.91.929.929,0,0,1,.26,1.244.891.891,0,0,1-1.244.241,2.822,2.822,0,0,0-1.523-.631,1.653,1.653,0,0,0-1,.316c-.223.149-.279.3-.279.371v.13a.409.409,0,0,0,.186.167,2.99,2.99,0,0,0,1.226.409h0a6.11,6.11,0,0,1,1.56.483,2.637,2.637,0,0,1,1.188.984,2.154,2.154,0,0,1,.316,1.114A2.358,2.358,0,0,1,307.891,230a3.713,3.713,0,0,1-2.173.669,4.846,4.846,0,0,1-2.971-1.151.891.891,0,0,1-.13-1.133Z" transform="translate(-117.471 89.388)" fill="#263238"/>
      <path id="Path_1600" data-name="Path 1600" d="M317.569,223.659l-2.767,6.481v.149h0l-.093.111h-.761a.2.2,0,0,0-.111,0h-.149a.2.2,0,0,1-.093,0h0v-.111h0a.77.77,0,0,1,0-.149l-1.226-2.878-1.188,2.878v.149h0l-.111.111h0v.093c0,.093-.111,0-.149,0h-.52a.185.185,0,0,1-.148,0h-.093v-.111h0v-.149l-2.748-6.481a.873.873,0,0,1,.483-1.151.835.835,0,0,1,1.114.5l1.968,4.494,1.17-2.785a.891.891,0,0,1,.817-.539.854.854,0,0,1,.817.539l1.188,2.785,1.968-4.494a.854.854,0,0,1,1.133-.5.873.873,0,0,1-.5,1.058Z" transform="translate(-113.296 89.495)" fill="#263238"/>
      <path id="Path_1601" data-name="Path 1601" d="M315.54,229.551a4.122,4.122,0,0,1-1.17-2.934,4.364,4.364,0,0,1,1.17-2.934,3.881,3.881,0,0,1,2.86-1.263,3.714,3.714,0,0,1,2.8,1.263,4.27,4.27,0,0,1,1.17,2.934,4.048,4.048,0,0,1-1.17,2.934,3.714,3.714,0,0,1-2.8,1.281A3.825,3.825,0,0,1,315.54,229.551Zm.668-2.934a2.637,2.637,0,0,0,.594,1.764,2.247,2.247,0,0,0,1.6.631,2.154,2.154,0,0,0,1.541-.631,2.693,2.693,0,0,0,0-3.51,2.3,2.3,0,0,0-1.541-.631,2.414,2.414,0,0,0-1.6.631A2.655,2.655,0,0,0,316.208,226.617Z" transform="translate(-107.275 89.397)" fill="#263238"/>
      <path id="Path_1602" data-name="Path 1602" d="M325.174,223.3a.891.891,0,0,1-.891.873,1.745,1.745,0,0,0-1,.316,2.674,2.674,0,0,0-.761.817,4.826,4.826,0,0,0-.687,1.393v3.175a.91.91,0,0,1-.928.891.873.873,0,0,1-.873-.891V223.3a.873.873,0,0,1,.873-.873.91.91,0,0,1,.929.873v.186a1.5,1.5,0,0,1,.353-.334,3.714,3.714,0,0,1,2.1-.65.873.873,0,0,1,.891.8Z" transform="translate(-102.425 89.405)" fill="#263238"/>
      <path id="Path_1603" data-name="Path 1603" d="M331.635,231.409a.9.9,0,0,1-1.783.186,4.03,4.03,0,0,1-2.284.724,4.178,4.178,0,1,1,0-8.356,3.9,3.9,0,0,1,2.247.706v-3.157a.91.91,0,0,1,.928-.891.891.891,0,0,1,.891.891v6.629h0Zm-4.067-5.571a2.172,2.172,0,0,0-1.56.687,2.358,2.358,0,0,0-.669,1.69,2.3,2.3,0,0,0,.669,1.653,2.135,2.135,0,0,0,3.138,0,2.377,2.377,0,0,0,.668-1.653,2.432,2.432,0,0,0-.668-1.69,2.173,2.173,0,0,0-1.578-.743Z" transform="translate(-99.545 87.854)" fill="#263238"/>
      <path id="Path_1604" data-name="Path 1604" d="M333.2,227.494v1.077a.8.8,0,0,1-.817.817.817.817,0,0,1-.817-.817v-1.727h0a.854.854,0,0,1,.817-.817,1.857,1.857,0,1,0-1.6-2.785.836.836,0,0,1-1.133.3.817.817,0,0,1-.3-1.114,3.51,3.51,0,1,1,3.844,5.181Zm0,3.714v.3a.8.8,0,0,1-.817.817.817.817,0,0,1-.817-.817v-.3a.817.817,0,0,1,.817-.817.8.8,0,0,1,.817.761Z" transform="translate(-94.522 87.907)" fill="#263238"/>
    </g>
    <g id="freepik--Character--inject-96" transform="translate(54.018 322.608)">
      <path id="Path_1605" data-name="Path 1605" d="M149.48,329.51l4.4,26.424L183.74,517.153h4.809L166.842,355.934,163.63,329.51Z" transform="translate(33.818 -40.24)" fill="#dbdbdb"/>
      <path id="Path_1606" data-name="Path 1606" d="M163.63,329.51H149.48l4.4,26.424h12.961Z" transform="translate(33.818 -40.24)" fill="#a6a6a6"/>
      <path id="Path_1607" data-name="Path 1607" d="M98.99,517.153H103.8l29.859-161.219,4.4-26.424H123.91L120.7,355.934Z" transform="translate(-9.449 -40.24)" fill="#dbdbdb"/>
      <path id="Path_1608" data-name="Path 1608" d="M113.892,329.51l-3.212,26.424h12.961l4.4-26.424Z" transform="translate(0.569 -40.24)" fill="#a6a6a6"/>
      <path id="Path_1609" data-name="Path 1609" d="M50.77,517.153h4.809L85.439,355.934l4.4-26.424H75.69l-3.213,26.424Z" transform="translate(-50.77 -40.24)" fill="#dbdbdb"/>
      <path id="Path_1610" data-name="Path 1610" d="M62.46,355.934H75.421l4.4-26.424H65.673Z" transform="translate(-40.752 -40.24)" fill="#a6a6a6"/>
      <path id="Path_1611" data-name="Path 1611" d="M54.88,402.217H273.627V379.172H191.736L164.216,259.14h-101Z" transform="translate(-47.248 -100.542)" fill="#dbdbdb"/>
      <path id="Path_1612" data-name="Path 1612" d="M54.88,402.217H66.8L74.582,259.14H63.218Z" transform="translate(-47.248 -100.542)" fill="#a6a6a6"/>
      <path id="Path_1613" data-name="Path 1613" d="M227.36,502.863c-4.122.52-116.745-25.756-120.4-29.3-.446-.39,3.51-22.19,3.51-22.19C112.323,442.476,142.925,370,142.925,370l73.7,18.161-31.271,67.258s14.038,9.508,26.108,18.569a162.765,162.765,0,0,1,15.264,12.219C230.312,490.589,231.482,502.381,227.36,502.863Z" transform="translate(-2.652 -5.543)" fill="#c95f50"/>
      <path id="Path_1614" data-name="Path 1614" d="M106.946,449.018c3.714,3.547,116.3,29.822,120.422,29.3s2.953-12.274-.613-16.564a163.77,163.77,0,0,0-15.264-12.2h0c-12.052-9.062-26.09-18.569-26.09-18.569l6.908-14.967L120.966,398.64c-5.4,13.463-9.842,25.05-10.492,28.281C110.474,426.847,106.5,448.629,106.946,449.018Z" transform="translate(-2.661 19)" fill="#ebebeb"/>
      <path id="Path_1615" data-name="Path 1615" d="M228.246,472.912c-4.252.446-117.8-24.994-121.5-28.708-1.43-1.393,1.318-18.124,5.218-38.253a1.111,1.111,0,0,1,.13-.631l73.423,15.6-.3,1.244s39.088,29.154,42.709,33.666S232.424,472.485,228.246,472.912Z" transform="translate(-3.13 24.724)" fill="#febf09"/>
      <path id="Path_1616" data-name="Path 1616" d="M225.112,450.931c-19.034-4.754-96.245-22.153-115.427-25.421-.149,0-.167,0,0,.111,18.755,5.144,96.115,21.912,115.39,25.626C225.5,451.321,225.5,451.024,225.112,450.931Z" transform="translate(-0.386 42.025)" fill="#263238"/>
      <path id="Path_1617" data-name="Path 1617" d="M164.273,416.056c-7.223-3.1-16.712-4.011-23.639,0-.279.167,0,.539.223.52a108.671,108.671,0,0,1,23.175.371.5.5,0,0,0,.241-.891Z" transform="translate(26.137 31.629)" fill="#263238"/>
      <path id="Path_1618" data-name="Path 1618" d="M166.8,418.476c-7.2-3.1-16.712-4.011-23.639,0-.279.167,0,.539.223.52a109.9,109.9,0,0,1,23.174.353.483.483,0,0,0,.241-.873Z" transform="translate(28.305 33.703)" fill="#263238"/>
      <path id="Path_1619" data-name="Path 1619" d="M169.333,420.879c-7.2-3.083-16.712-3.992-23.639,0-.279.167,0,.539.223.52a108.673,108.673,0,0,1,23.175.353.5.5,0,0,0,.241-.873Z" transform="translate(30.473 35.774)" fill="#263238"/>
      <path id="Path_1620" data-name="Path 1620" d="M173.125,408.851c-2.043-4.735-7.966-4.141-11.7-2.21a41.074,41.074,0,0,0-15.468,14.633.186.186,0,0,0,.111.3.947.947,0,0,0,.966,1.207c6.741-.891,14.057-1.04,20.315-3.974C170.99,417.077,175.056,413.326,173.125,408.851ZM156.97,419.324c-3.305.52-6.611.891-9.9,1.541a122.815,122.815,0,0,1,9.285-8.356,45.033,45.033,0,0,1,4.958-3.4c2.693-1.541,12.534-3.881,9.285,4.067-1.727,4.382-9.675,5.515-13.63,6.146Z" transform="translate(30.766 24.628)" fill="#263238"/>
      <path id="Path_1621" data-name="Path 1621" d="M138.137,416.708c5.571,4.03,12.794,5.571,19.238,7.613a.966.966,0,0,0,1.188-1,.2.2,0,0,0,.167-.279A41.149,41.149,0,0,0,146.2,405.826c-3.324-2.581-9.043-4.234-11.921,0S134.869,414.35,138.137,416.708Zm-2.191-6.128c-1.671-8.393,7.576-4.308,9.953-2.3a43.976,43.976,0,0,1,4.252,4.271,121.637,121.637,0,0,1,7.539,9.879c-3.1-1.244-6.295-2.191-9.433-3.305-3.77-1.337-11.383-3.9-12.311-8.542Z" transform="translate(19.869 22.936)" fill="#263238"/>
      <path id="Path_1622" data-name="Path 1622" d="M154.12,448.827c17.845,3.9,31.679,6.685,33.109,6.536,4.271-.427,3.324-12.609-.3-17.1a162.514,162.514,0,0,0-14.855-12.441Z" transform="translate(37.794 42.291)" opacity="0.2"/>
      <path id="Path_1623" data-name="Path 1623" d="M213.667,537.841,135.509,519.42s65.215-149.5,59.422-157.1c-2.878-3.807-75.651-4.921-98.789-24.53-30.064-25.477-9.9-64.4-9.9-64.4L167.6,271s-.984,16.972,2.191,19.516c2.08,1.708,98.919,9.86,109.559,42.487C292.383,373.02,213.667,537.841,213.667,537.841Z" transform="translate(-26.043 -90.379)" fill="#37474f"/>
      <path id="Path_1624" data-name="Path 1624" d="M184.235,416.573c-2.043-.966-22.283-6.908-26.833-8.059-9.136-2.34-18.309-4.642-27.5-6.741-4.809-1.1-15.1-3.473-15.728-3.361-.3,0-.353.557,0,.65,8.913,2.934,17.957,5.422,27,7.948s40.184,10.009,42.914,10.195C184.29,417.222,184.625,416.7,184.235,416.573Z" transform="translate(3.353 18.801)" fill="#263238"/>
      <path id="Path_1625" data-name="Path 1625" d="M204.315,351.923a12.535,12.535,0,0,0-6.128-1.857L162.9,344.18c-10.974-1.857-22.023-3.472-32.942-5.571-9.043-1.745-18.254-4.1-26-9.006a37.733,37.733,0,0,1-15.988-20.891,67.536,67.536,0,0,1-2.061-26.777c.2-2.191.613-4.364,1.021-6.518a.131.131,0,1,0-.26,0c-2.99,16.712-3.25,35.95,9.285,49.227,6.091,6.462,14.447,10.25,22.97,12.72A261.26,261.26,0,0,0,148.5,343.1l35.282,5.868c5.571.947,11.383,1.671,16.991,2.841a5.849,5.849,0,0,1,3.045,1.356,4.327,4.327,0,0,1,.5,4.067c-.557,2.767-1.318,5.571-2.1,8.208C195.81,387.3,148.532,498.77,147.27,501.165a.223.223,0,0,0,.39.2c10.77-19.164,46.145-106.9,53.257-127.571a132.132,132.132,0,0,0,4.605-16.081C205.726,355.6,206.041,353.39,204.315,351.923Z" transform="translate(-21.462 -86.719)" fill="#263238"/>
      <path id="Path_1626" data-name="Path 1626" d="M293.285,497c-3.937,1.318-116.652-.26-120.942-3.008-4.7-4.475-6.7-110.822-6.7-110.822l72.513-.594,4.531,76.357s15.654,6.518,29.284,13h0a163.844,163.844,0,0,1,17.381,8.932C293.75,484.377,297.222,495.7,293.285,497Z" transform="translate(47.666 5.237)" fill="#c95f50"/>
      <path id="Path_1627" data-name="Path 1627" d="M166.7,416.78c1.077,23.9,2.618,45.94,4.717,47.909,4.29,2.748,116.987,4.345,120.961,3.008s.464-12.609-3.9-16.1a162.919,162.919,0,0,0-17.4-8.932h0c-13.63-6.481-29.284-13-29.284-13l-.761-12.85Z" transform="translate(48.574 34.544)" fill="#ebebeb"/>
      <path id="Path_1628" data-name="Path 1628" d="M294.681,463.452c-4.085,1.356-120.441.8-124.842-2.043-1.708-1.04-2.618-17.975-3.12-38.476v-.65l75.057-.464v1.263s44.436,20.111,48.967,23.732S298.748,462.134,294.681,463.452Z" transform="translate(48.591 38.863)" fill="#febf09"/>
      <path id="Path_1629" data-name="Path 1629" d="M289.532,442.107c-19.609-.576-98.77-1.04-118.194-.13-.167,0-.167.13,0,.13,19.424,1,98.585.817,118.194.334C289.94,442.46,289.94,442.125,289.532,442.107Z" transform="translate(52.441 55.696)" fill="#263238"/>
      <path id="Path_1630" data-name="Path 1630" d="M222.333,422.271c-7.706-1.467-17.158-.334-23.082,5.125-.223.223,0,.539.334.464a108.744,108.744,0,0,1,22.729-4.605.5.5,0,0,0,.019-.984Z" transform="translate(76.392 38.747)" fill="#263238"/>
      <path id="Path_1631" data-name="Path 1631" d="M225.337,424.041c-7.725-1.467-17.158-.334-23.082,5.125-.241.223,0,.538.316.464a108.737,108.737,0,0,1,22.729-4.605.5.5,0,0,0,.037-.984Z" transform="translate(78.958 40.263)" fill="#263238"/>
      <path id="Path_1632" data-name="Path 1632" d="M228.327,425.861c-7.725-1.467-17.158-.334-23.082,5.125-.241.223,0,.539.316.464a108.734,108.734,0,0,1,22.729-4.605.5.5,0,0,0,.037-.984Z" transform="translate(81.521 41.823)" fill="#263238"/>
      <path id="Path_1633" data-name="Path 1633" d="M228.117,414.07c-3.008-4.2-8.672-2.34-11.9.353a41.113,41.113,0,0,0-11.977,17.585.2.2,0,0,0,.186.279.947.947,0,0,0,1.207.966c6.388-2.321,13.5-4.011,18.978-8.226C227.8,422.557,230.976,418.026,228.117,414.07ZM214.6,427.756c-3.12,1.226-6.276,2.284-9.285,3.621a117.675,117.675,0,0,1,7.224-10.12,43.777,43.777,0,0,1,4.1-4.4c2.3-2.08,11.42-6.481,10.027,1.968C225.833,423.485,218.293,426.307,214.6,427.756Z" transform="translate(80.728 30.105)" fill="#263238"/>
      <path id="Path_1634" data-name="Path 1634" d="M196.745,427.747c6.332,2.73,13.648,2.637,20.426,3.324a1,1,0,0,0,.947-1.244.2.2,0,0,0,0-.316A41.149,41.149,0,0,0,202.186,415.4c-3.807-1.857-9.73-2.21-11.624,2.581S193.031,426.15,196.745,427.747Zm-3.472-5.571c-3.435-7.855,6.481-5.831,9.285-4.382a45.183,45.183,0,0,1,5.069,3.25,122.547,122.547,0,0,1,9.489,8.041c-3.305-.539-6.611-.78-9.935-1.207-4.011-.446-12.014-1.318-13.908-5.645Z" transform="translate(68.629 32.268)" fill="#263238"/>
      <path id="Path_1635" data-name="Path 1635" d="M325.646,552.381H243.941s1.021-147.57-5.385-155.741c-8.542-10.919-128.128-10.677-153.773-46.256C61.757,318.407,81.2,273.173,81.2,273.173l90.563-2.693a188.848,188.848,0,0,1-8.393,28.485s109.076,20.111,139.641,53.517C323.547,375.062,325.646,552.381,325.646,552.381Z" transform="translate(-31.266 -90.825)" fill="#37474f"/>
      <path id="Path_1636" data-name="Path 1636" d="M144.154,282.491a44.416,44.416,0,0,0-7.669,2.451c-2.6,1-5.162,2.117-7.669,3.342a153.051,153.051,0,0,0-14.317,8.1c-.149,0,0,.279.149.2,4.884-2.544,9.953-4.828,15.023-7l7.316-3.157a75.031,75.031,0,0,0,7.428-3.268.371.371,0,0,0-.26-.668Z" transform="translate(3.788 -80.534)" fill="#263238"/>
      <path id="Path_1637" data-name="Path 1637" d="M133.377,270.6c-1.04,4.122-1.857,8.282-3.138,12.386a50.226,50.226,0,0,1-1.857,5.571c-.594,1.523-1.5,3.287-3.287,3.621s-2.637-1.356-2.47-3.045.669-3.714,1.04-5.571c.427-2.135.873-4.29,1.263-6.425.186-1.077.39-2.154.576-3.231a27.456,27.456,0,0,1,.39-2.934.09.09,0,0,0,.111.093h0s.13,0,.13-.111a.373.373,0,0,0-.111-.316c-.111-.111-.111,0-.186,0-.39.223-.409.761-.539,1.151-.334,1.04-.669,2.1-.984,3.138-.576,1.968-1.133,3.955-1.634,5.942s-.984,3.974-1.467,5.961a9.284,9.284,0,0,0-.409,4.587,3.528,3.528,0,0,0,3.25,2.655l-.223.39c-.186.408-.316.836-.464,1.263s-.3.854-.427,1.281a3.968,3.968,0,0,0-.111.65v.706c0,.241.464.594.65.241a6.55,6.55,0,0,1,.39-.594,3.824,3.824,0,0,0,.3-.687c.13-.409.26-.817.353-1.244s.241-.836.316-1.263a5.036,5.036,0,0,0,0-.761,4.642,4.642,0,0,0,2.4-.91,7.984,7.984,0,0,0,2.47-3.714c.613-1.708,1.1-3.491,1.578-5.255a75.557,75.557,0,0,0,2.637-13.3C134.157,270.284,133.489,270.117,133.377,270.6Z" transform="translate(9.142 -90.963)" fill="#263238"/>
      <path id="Path_1638" data-name="Path 1638" d="M112.275,275.979c-.371,2.043-.613,4.122-1.1,6.146s-1,3.974-1.653,5.905A20.946,20.946,0,0,1,107,293.36a19.909,19.909,0,0,1-4.011,4.085,34.1,34.1,0,0,1-9.712,5.385,44.758,44.758,0,0,1-5.385,1.578,27.3,27.3,0,0,1-2.878.52,6.053,6.053,0,0,0-2.321.52.483.483,0,0,0,0,.817,8.6,8.6,0,0,0,4.29.13,34.3,34.3,0,0,0,4.587-.8,33.424,33.424,0,0,0,8.672-3.714,27.167,27.167,0,0,0,7.353-5.868,20.426,20.426,0,0,0,3.881-8.486,41.5,41.5,0,0,0,1.263-11.513C112.646,275.793,112.312,275.756,112.275,275.979Z" transform="translate(-23.607 -86.241)" fill="#263238"/>
      <path id="Path_1639" data-name="Path 1639" d="M251.1,446.53q-1.207-19.275-3.194-38.457c-.334-3.157-.65-6.332-1.04-9.47a29.093,29.093,0,0,0-1.6-7.2c-1.857-4.809-5.887-7.242-10.733-8.449-5.719-1.448-11.643-2.321-17.455-3.25s-11.922-1.857-17.9-2.655c-12.089-1.69-24.14-3.25-36.229-5.274a286.884,286.884,0,0,1-35.56-7.985c-10.7-3.231-21.67-7.224-30.231-14.633C78.716,333.2,78.048,306.443,80.294,284.16c.316-3.157.706-6.3,1.1-9.452a.131.131,0,1,0-.26,0c-1.448,12.59-3.157,25.273-1.857,37.956a62.077,62.077,0,0,0,10.065,29.414c6.239,8.932,15.487,14.707,25.459,18.736a200.677,200.677,0,0,0,33.926,9.749c23.9,5.014,48.28,7.131,72.327,11.234,2.971.5,5.924,1.04,8.876,1.616a37.38,37.38,0,0,1,8.022,2.154c5.459,2.433,6.964,7.743,7.632,13.24,1.578,12.738,2.637,25.551,3.565,38.364,1.857,25.793,2.841,51.734,2.8,77.6v17.139c0,.279.427.241.427,0C253.063,505.84,252.729,472.4,251.1,446.53Z" transform="translate(-26.741 -87.328)" fill="#263238"/>
      <path id="Path_1640" data-name="Path 1640" d="M240.741,415.755c-18.569-1.263-71.789-.743-72.42-.483-.279.13-.2.631.093.65,9.285.668,69.542.984,72.235.5C240.945,416.368,241.056,415.774,240.741,415.755Z" transform="translate(49.814 32.97)" fill="#263238"/>
      <path id="Path_1641" data-name="Path 1641" d="M122.441,286.008a304.7,304.7,0,0,1,49.394,10.12A345.9,345.9,0,0,1,219.5,313.379c8.672,3.881,17.065,8.226,25.366,12.794.167.093,0,.334-.149.26A382.863,382.863,0,0,0,198.3,306.212a375.7,375.7,0,0,0-48.28-14c-9.285-2.006-18.569-3.565-27.854-5.107C121.642,286.9,121.81,285.841,122.441,286.008Z" transform="translate(10.144 -77.533)" fill="#263238"/>
      <path id="Path_1642" data-name="Path 1642" d="M187.685,376.131c-.576-8.876-1.5-17.752-2.952-26.554-.594-3.547-.743-8.133-4.475-9.9-1.727-.836-36.377-6.852-41.354-6.759a.241.241,0,0,0-.111.446c.464.2,33.425,6.425,37.584,7.428A6.574,6.574,0,0,1,181,343.208a16.9,16.9,0,0,1,1.393,5.7A366.1,366.1,0,0,1,187,401.07q.2,7.279.241,14.5c0,4.977-.167,10.009.2,14.948a.409.409,0,1,0,.817,0c.371-4.494.241-9.08.26-13.593s0-9.062,0-13.611C188.5,394.236,188.3,385.175,187.685,376.131Z" transform="translate(24.562 -37.319)" fill="#263238"/>
      <path id="Path_1643" data-name="Path 1643" d="M127.139,235.565c23.416,31.141,79.031,74.927,92.085,64.733,16.044-12.516,13-58.568,13.407-64.491.353-6.332-52.254-4.735-50.137,1.727,1.244,3.825,1.857,7.929.836,7.539-3.1-1.226-9.99-7.428-39.868-24.14C126.842,211.592,111.634,214.953,127.139,235.565Z" transform="translate(9.141 -137.522)" fill="#c95f50"/>
      <path id="Path_1644" data-name="Path 1644" d="M176.413,239.12,164.1,251.208l-15.45,15.153s-17.585-17.047-25.2-31.1c-5.571-10.343-5.756-19.071-.223-20.965a12.4,12.4,0,0,1,8.245.78C151.4,222.519,176.413,239.12,176.413,239.12Z" transform="translate(7.85 -139.294)" fill="#febf09"/>
      <path id="Path_1645" data-name="Path 1645" d="M157.27,225.8c-4.921,4.494-22.747,21.15-24.14,24.14,0,0,.13.223.2.2,2.9-1.411,19.721-19.071,24.233-23.954C157.641,226,157.363,225.721,157.27,225.8Z" transform="translate(19.807 -129.127)" fill="#263238"/>
      <path id="Path_1646" data-name="Path 1646" d="M164.1,251.036l-15.45,15.153s-17.585-17.047-25.2-31.1c-5.571-10.343-5.756-19.071-.223-20.965Z" transform="translate(7.85 -139.122)" fill="#263238"/>
      <path id="Path_1647" data-name="Path 1647" d="M206.365,219.165c2.971,10.083.984,33.09-1.616,38.457s-41.855,3.305-45.346-1.746-10.882-39.775-6.815-49.71S203.246,208.711,206.365,219.165Z" transform="translate(35.463 -149.05)" fill="#c95f50"/>
      <path id="Path_1648" data-name="Path 1648" d="M164.008,199.823c-1.69-4.568-9.935-17.659-13.908-16.137s-.427,11.884,1.133,16.044c3.25,8.56,3.138,21.206,2.99,27.334s14.168,0,14.168,0S168.427,211.689,164.008,199.823Z" transform="translate(32.79 -165.306)" fill="#c95f50"/>
      <path id="Path_1649" data-name="Path 1649" d="M153.647,226.554s-.557,10.789,5.181,13,7.743-6.425,7.911-7.019c0,.557-.279,10.492,5.738,12.144s6.982-7.242,7.019-7.818c.149.539,2.21,7.743,7.038,7.966,8.338.371,3.584-18.179,7.261-23.843,0,0,10.306,5.144,10.622,5.237,0,0-4.16-17.752-12.051-22.283a5.812,5.812,0,0,0-7.223,1.021s-.706-5.868-5.4-7.316c-2.4-.743-5.719,2.451-5.719,2.451a7.279,7.279,0,0,0-5.014-5.7c-3.38-.836-6.648,2.433-7.428,3.881C155.1,209.433,153.647,226.554,153.647,226.554Z" transform="translate(37.376 -156.142)" fill="#c95f50"/>
      <path id="Path_1650" data-name="Path 1650" d="M162.366,195.94h-.149a51.864,51.864,0,0,0-8.653,29.6.306.306,0,0,0,.613,0,106.105,106.105,0,0,1,8.189-29.6Z" transform="translate(37.31 -154.701)" fill="#263238"/>
      <path id="Path_1651" data-name="Path 1651" d="M168.329,197.379c0-.093-.13-.186-.2,0a48.522,48.522,0,0,0-7.428,32.886c0,.409.539.687.483.223C160.493,222.578,164.3,206.181,168.329,197.379Z" transform="translate(43.064 -153.559)" fill="#263238"/>
      <path id="Path_1652" data-name="Path 1652" d="M168.693,232.613c-1.374-11.253.984-21.819,4.977-32.311,0-.149-.149-.2-.223-.111-3.342,4.624-5.2,11.569-6.165,17.121a29.711,29.711,0,0,0,1.021,15.357C168.377,232.854,168.73,232.854,168.693,232.613Z" transform="translate(48.587 -151.097)" fill="#263238"/>
      <path id="Path_1653" data-name="Path 1653" d="M153.664,214.169a34.187,34.187,0,0,0,.817,6.165,11.5,11.5,0,0,0,2.581,5.385,3.714,3.714,0,0,0,2.433,1.133,5.386,5.386,0,0,0,2.711-.539,6.611,6.611,0,0,0,3.138-4.42l1.1-4.457.52,4.549a18.29,18.29,0,0,0,1.615,5.849,6.741,6.741,0,0,0,3.9,3.825,3.825,3.825,0,0,0,4.531-1.6,11.513,11.513,0,0,0,1.6-5.571l.334-5.4,1.448,5.181a17.994,17.994,0,0,0,1.746,4.141,7.167,7.167,0,0,0,2.953,2.953,3.4,3.4,0,0,0,3.6-.371,7.428,7.428,0,0,0,1.968-3.714,58.457,58.457,0,0,0,1.263-9.285c.149-1.578.3-3.157.52-4.735a11.143,11.143,0,0,1,1.374-4.55,12.163,12.163,0,0,0-.947,4.605c-.093,1.56-.111,3.138-.13,4.735a52.347,52.347,0,0,1-.8,9.563,8.987,8.987,0,0,1-2.228,4.605,4.9,4.9,0,0,1-5.311.743,8.857,8.857,0,0,1-3.714-3.584,18.977,18.977,0,0,1-2.006-4.568l1.857-.2a13.407,13.407,0,0,1-1.857,6.592,5.571,5.571,0,0,1-2.953,2.321,6.257,6.257,0,0,1-3.714,0,8.431,8.431,0,0,1-4.958-4.828,21.132,21.132,0,0,1-1.671-6.462l1.616.111a7.948,7.948,0,0,1-4.16,5.274,6.926,6.926,0,0,1-3.4.5,4.9,4.9,0,0,1-3.045-1.6,11.754,11.754,0,0,1-2.4-5.961A28.448,28.448,0,0,1,153.664,214.169Z" transform="translate(37.359 -143.758)" fill="#263238"/>
      <path id="Path_1654" data-name="Path 1654" d="M161.85,246.437s-28.448-34.39-9.563-39c5.571-1.356,30.268-.186,30.138,4.772-.186,6.388-10.566,7.836-17.232,7.688,0,0,11.327,10.343,6.481,20.426a11.142,11.142,0,0,1-9.823,6.109Z" transform="translate(30.676 -145.293)" fill="#c95f50"/>
      <path id="Path_1655" data-name="Path 1655" d="M148.47,208.224a23.193,23.193,0,0,1,6.648-1.393,52.419,52.419,0,0,1,6.834-.149,78.738,78.738,0,0,1,13.593,1.634,11.977,11.977,0,0,1,3.4,1.244,4.7,4.7,0,0,1,1.578,1.355,3.715,3.715,0,0,1,.52,1.021,3.954,3.954,0,0,1,.13,1.114,5.812,5.812,0,0,1-1.541,3.714,11.029,11.029,0,0,1-3.027,2.191,20.8,20.8,0,0,1-6.8,1.857,47.587,47.587,0,0,1-6.889.26l.52-1.393a27.445,27.445,0,0,1,3.38,4.011,26.462,26.462,0,0,1,2.544,4.531,18.142,18.142,0,0,1,1.3,5.014,13.481,13.481,0,0,1-.427,5.107,15.115,15.115,0,0,0-.111-5.014,17.791,17.791,0,0,0-1.671-4.68,24.72,24.72,0,0,0-2.674-4.2,28.128,28.128,0,0,0-3.38-3.584l-1.541-1.318h2.08a49.073,49.073,0,0,0,6.629-.464,20.427,20.427,0,0,0,6.2-1.746c1.857-.928,3.491-2.451,3.51-4.2s-2.135-2.451-4.178-2.99a62.915,62.915,0,0,0-6.555-1.281c-2.21-.353-4.438-.687-6.666-.891a43.287,43.287,0,0,0-13.407.241Z" transform="translate(32.952 -145.537)" fill="#263238"/>
      <path id="Path_1656" data-name="Path 1656" d="M154.42,231.65l1.541,4.4,1.486,4.42,3.008,8.783c1,2.934,2.024,5.849,3.1,8.746.538,1.448,1.077,2.9,1.671,4.327s1.207,2.86,1.857,4.308a59.421,59.421,0,0,1-4.475-8.208c-1.3-2.841-2.4-5.775-3.435-8.709s-1.857-5.924-2.693-8.932A81.168,81.168,0,0,1,154.42,231.65Z" transform="translate(38.051 -124.1)" fill="#263238"/>
      <path id="Path_1657" data-name="Path 1657" d="M185.351,345.69c-2.785,2.228-113.069,3.472-113.533,2.693-1.263-2.117,28.652-102.725,75.67-134,8.282-5.571,20.909-1.69,26.368,2.581,2.748,2.154,10.715,18.439,11.81,31.754S187.115,344.26,185.351,345.69Z" transform="translate(-32.766 -141.263)" fill="#febf09"/>
      <path id="Path_1658" data-name="Path 1658" d="M178.195,286.5v.817c-.52-.316-1.058-.668-1.56-1.04a45.865,45.865,0,0,1-10.213-11.142c-2.9-4.1-5.571-8.393-8.133-12.627A115.243,115.243,0,0,0,146,245.461l-.576-.613a46.984,46.984,0,0,0-5.942-5.255,32.088,32.088,0,0,0-28.1-4.884,30.528,30.528,0,0,0-11.142,6.536l1.356-2.265a30.342,30.342,0,0,1,9.489-5.125,33,33,0,0,1,15.041-.929,32.422,32.422,0,0,1,13.816,6.109,47.131,47.131,0,0,1,6.462,5.831c.2.223.409.427.594.65a116.843,116.843,0,0,1,11.922,16.712c2.637,4.252,5.218,8.523,8.078,12.609a45.551,45.551,0,0,0,10.009,10.9C177.433,286,177.8,286.257,178.195,286.5Zm-10.4,4.754a37.938,37.938,0,0,1-15.134-3.714c-9.563-4.55-17.251-12.07-24.92-19.331-2.785-2.637-5.571-5.274-8.486-7.762l-.464-.409c-.966-.817-1.857-1.616-2.971-2.4a36.8,36.8,0,0,0-14.187-7.242,23.062,23.062,0,0,0-6.184-.557l-.427.743a22.283,22.283,0,0,1,6.462.52,36.248,36.248,0,0,1,13.871,7.149c.966.743,1.857,1.5,2.823,2.284a5.115,5.115,0,0,1,.483.408c2.934,2.488,5.738,5.181,8.542,7.836,7.632,7.279,15.357,14.855,25.069,19.535a38.364,38.364,0,0,0,15.505,3.862,40.164,40.164,0,0,0,10.417-1.1c0-.316,0-.613,0-.928a40.035,40.035,0,0,1-10.4,1.1Zm10.325-26c-1.133-1.857-2.3-3.714-3.547-5.571a41.763,41.763,0,0,0-10.436-10.863,24.641,24.641,0,0,0-14.391-4.16,19.3,19.3,0,0,0-3.268.186l-1.04.13a31.592,31.592,0,0,0-3.212.594,37.363,37.363,0,0,0-7.075,2.655A86.11,86.11,0,0,0,118.792,260c-.2.167-.409.353-.613.5-2.3,1.987-4.624,3.937-7,5.775A61.61,61.61,0,0,1,98.5,274.113a41.169,41.169,0,0,1-14.428,3.454h-2.3c0,.167-.149.334-.2.5l2.544-.093a41.743,41.743,0,0,0,14.6-3.454,63.38,63.38,0,0,0,12.831-7.855c2.433-1.857,4.791-3.844,7.131-5.831l.594-.5a83.711,83.711,0,0,1,16.192-11.587,35.913,35.913,0,0,1,6.945-2.581,29.568,29.568,0,0,1,3.714-.65h1.058c.891-.093,1.857-.13,2.674-.149a24.14,24.14,0,0,1,13.983,4.085,40.853,40.853,0,0,1,10.213,10.7c1.486,2.135,2.86,4.327,4.2,6.573a8.786,8.786,0,0,1-.13-1.541Z" transform="translate(-24.385 -123.407)" fill="#fff"/>
      <path id="Path_1659" data-name="Path 1659" d="M133.83,245.955c-6.462-.279-14.243-12.5-16.23-21.15-.13-.594,7.836-20.556,9.006-24.679.241-.836,24.14,13.63,24.14,13.63a67.924,67.924,0,0,0-6.982,15.1C143.542,229.447,140.088,246.234,133.83,245.955Z" transform="translate(6.498 -151.143)" fill="#c95f50"/>
      <path id="Path_1660" data-name="Path 1660" d="M122.978,200.23c-.576,7-.724,25.607,13.24,29.934a16.172,16.172,0,0,0,2.581.557c.279-1.133.446-1.857.464-2.006a68.058,68.058,0,0,1,6.982-15.078h0a1.859,1.859,0,0,0-.39-.241h0c-.167-.13-.39-.241-.65-.409l-.279-.167c-.149-.111-.334-.2-.52-.316l-.668-.409-1.114-.65-.409-.26-.854-.52-3.38-2.006L136.7,207.9c-.557-.316-1.114-.631-1.653-.984l-1.653-.947-.2-.111-2.8-1.634-.928-.539-1.857-1-1.207-.669-2.377-1.263-.539-.26Z" transform="translate(10.944 -151.024)" fill="#263238"/>
      <path id="Path_1661" data-name="Path 1661" d="M130.85,187.081c-6.091,7.873-11.142,35.282-6.964,43.508,6.035,11.792,20.779,18.291,32.032,9.935,10.919-8.1,16.861-44.046,11.754-51.994C160.153,177.053,139.856,175.456,130.85,187.081Z" transform="translate(10.574 -169.127)" fill="#c95f50"/>
      <path id="Path_1662" data-name="Path 1662" d="M138.264,197.58s-.167,0-.167.13c-.409,1.857-1.188,3.974-3.027,4.178V202C137.187,202.222,138.19,199.437,138.264,197.58Z" transform="translate(21.469 -153.295)" fill="#263238"/>
      <path id="Path_1663" data-name="Path 1663" d="M137.679,196.359c-2.952-.966-4.679,5-1.857,5.905S140.149,197.176,137.679,196.359Z" transform="translate(20.884 -154.432)" fill="#263238"/>
      <path id="Path_1664" data-name="Path 1664" d="M142.863,198.78s.13.13,0,.2c-.594,1.857-.984,4.011.5,5.125h0C141.451,203.311,141.953,200.414,142.863,198.78Z" transform="translate(27.455 -152.267)" fill="#263238"/>
      <path id="Path_1665" data-name="Path 1665" d="M144.984,198.016c3.027.669,1.486,6.685-1.318,6.072S142.44,197.477,144.984,198.016Z" transform="translate(27.562 -152.951)" fill="#263238"/>
      <path id="Path_1666" data-name="Path 1666" d="M134.136,205.816c.3.576.538,1.3,1.17,1.578a4.828,4.828,0,0,0,2.117.2s.111.093,0,.13a2.618,2.618,0,0,1-2.655.2,2.061,2.061,0,0,1-.891-2.1.13.13,0,1,1,.26-.019Z" transform="translate(20.416 -146.341)" fill="#263238"/>
      <path id="Path_1667" data-name="Path 1667" d="M143.853,211.431s-.39,2.878-.743,4.178a29.377,29.377,0,0,0-7.855-.984c-.631,0-.5-.446.26-.65a11.5,11.5,0,0,1,6.778.186c.2-.334.52-4.438.724-4.382a11.678,11.678,0,0,1,2.785,1.486c.966-5.961.984-12.051,2.043-17.975a.186.186,0,0,1,.353,0,96.929,96.929,0,0,1-1.374,19.442C146.732,213.53,144.41,211.8,143.853,211.431Z" transform="translate(21.284 -157.082)" fill="#263238"/>
      <path id="Path_1668" data-name="Path 1668" d="M135.534,193.764c.854-.13,1.653-.13,2.507-.186a4.159,4.159,0,0,1,2.6.316,1.3,1.3,0,0,1,.427,1.523,3.231,3.231,0,0,1-2.841,1.578,4.754,4.754,0,0,1-3.305-.78,1.374,1.374,0,0,1,.613-2.451Z" transform="translate(20.876 -156.795)" fill="#263238"/>
      <path id="Path_1669" data-name="Path 1669" d="M149.041,195.777a22.938,22.938,0,0,0-1.987-1.56,4.048,4.048,0,0,0-2.3-1.207,1.263,1.263,0,0,0-1.207,1,3.194,3.194,0,0,0,1.448,2.915,4.679,4.679,0,0,0,3.175,1.207,1.374,1.374,0,0,0,.873-2.358Z" transform="translate(28.724 -157.211)" fill="#263238"/>
      <path id="Path_1670" data-name="Path 1670" d="M130.756,200.9c2.284.873,2.711-3.9,2.823-5.571a29.528,29.528,0,0,1,1.281-5.051,27.969,27.969,0,0,1-2.451,4.605C131.35,196.166,128.472,199.992,130.756,200.9Z" transform="translate(17.037 -159.551)" fill="#fff"/>
      <path id="Path_1671" data-name="Path 1671" d="M123.015,217.833s-4.364-19.349-.353-28.355c1.857-4.067,8.486-4.977,8.486-4.977a10.027,10.027,0,0,1,6.2-8.56c6.536-3.027,18.235,2.061,18.235,2.061s11.569-8.672,21.113-.52-1.857,18.291-1.857,18.291,2.135,7.094-9.285,8.282c-11.142,1.17-29.377-9.73-29.377-9.73a72.253,72.253,0,0,1-7.131,20.315A6.555,6.555,0,0,1,123.015,217.833Z" transform="translate(9.384 -173.511)" fill="#263238"/>
      <path id="Path_1672" data-name="Path 1672" d="M152.982,179a20.427,20.427,0,0,0-7.3-4.011,21.726,21.726,0,0,0-7.428-1.244,12.237,12.237,0,0,0-11.142,5.979,8.579,8.579,0,0,0-.5,6.629c0,.093.167,0,.13,0-1.486-4.03,1.5-8.486,5.014-10.25a18.384,18.384,0,0,1,13-.409,35.669,35.669,0,0,1,7.855,3.565.227.227,0,0,0,.371-.26Z" transform="translate(13.844 -173.732)" fill="#263238"/>
      <path id="Path_1673" data-name="Path 1673" d="M166.174,185.414a10.009,10.009,0,0,0-4.531-8.226,16.954,16.954,0,0,0-10.584-3.12A21.225,21.225,0,0,0,140.4,177.54v.13a18.792,18.792,0,0,1,19.2-.65,9.285,9.285,0,0,1,2.47,15.32,19.257,19.257,0,0,1-9.489,4.735v.13a19.517,19.517,0,0,0,9.1-3.714A11.141,11.141,0,0,0,166.174,185.414Z" transform="translate(26.037 -173.458)" fill="#263238"/>
      <path id="Path_1674" data-name="Path 1674" d="M162.932,197.447a35.376,35.376,0,0,1-14.688-2.247,71.776,71.776,0,0,1-13.964-6.889c-2.563-1.6-5.069-3.305-7.539-5.051,0,0-.149,0,0,.13a78.812,78.812,0,0,0,13.407,9.619,39.516,39.516,0,0,0,14.484,4.68,33.427,33.427,0,0,0,8.393-.13S163.006,197.428,162.932,197.447Z" transform="translate(14.275 -165.566)" fill="#263238"/>
      <path id="Path_1675" data-name="Path 1675" d="M130.645,200.318s-2.878-10.473-7.428-9.73-4.475,14.447-.594,17.7a4.809,4.809,0,0,0,6.871-.186Z" transform="translate(8.346 -159.32)" fill="#c95f50"/>
      <path id="Path_1676" data-name="Path 1676" d="M121.749,192.68v.111c2.674,2.4,3.287,5.868,3.38,9.285a2.674,2.674,0,0,0-3.528-2.024v.186a2.99,2.99,0,0,1,2.73,2.08,14.854,14.854,0,0,1,.594,3.008c0,.334.594.371.613,0h0C127,201.3,125.89,194.611,121.749,192.68Z" transform="translate(9.926 -157.494)" fill="#263238"/>
      <path id="Path_1677" data-name="Path 1677" d="M108.672,231.288c-5.441,30.379-2.173,94.072,11.662,104.749,16.025,12.349,86.18,14.855,101.778,10.287,6.221-1.857-8.579-42.951-15.487-42.9-29.024.2-53.461-3.138-55.949-6.574-3.825-5.255-13.834-42.3-20.668-65.513C121.447,202.189,111.1,217.658,108.672,231.288Z" transform="translate(-3.291 -138.555)" fill="#c95f50"/>
      <path id="Path_1678" data-name="Path 1678" d="M223.269,239.84,178.7,268.957a1.857,1.857,0,0,0-.279,3.12l20.723,15.561a4.178,4.178,0,0,0,4.475,0l44.566-29.117a1.857,1.857,0,0,0,.279-3.138L227.744,239.84a4.178,4.178,0,0,0-4.475,0Z" transform="translate(58.001 -117.638)" fill="#263238"/>
      <path id="Path_1679" data-name="Path 1679" d="M222.239,239.14l-44.566,29.117a1.857,1.857,0,0,0-.279,3.12l20.723,15.561a4.178,4.178,0,0,0,4.475,0l44.566-29.117a1.857,1.857,0,0,0,.279-3.138L226.714,239.14A4.178,4.178,0,0,0,222.239,239.14Z" transform="translate(57.118 -118.238)" fill="#37474f"/>
      <path id="Path_1680" data-name="Path 1680" d="M220.057,240.7,179.2,267.4c-1.263.817-1.43,2.117-.39,2.9l18.569,13.908a3.955,3.955,0,0,0,4.16,0L242.4,257.484c2.563-1.653,2.284-2.655,1.244-3.435l-3.714-2.785a.966.966,0,0,0-1,.111h-.149a1.207,1.207,0,0,1-1.671-.13l-8.6-6.444c-.483-.371-.854-.669,0-1.188l.13-.093c.353-.223.446-.52.223-.687l-3.714-2.785C224.012,239.3,222.452,239.175,220.057,240.7Z" transform="translate(58.372 -117.363)" fill="#fff"/>
      <path id="Path_1681" data-name="Path 1681" d="M207.486,243.365l2.34,1.857a.316.316,0,0,0,.316,0h0a.149.149,0,0,0,0-.223l-2.358-1.746a.241.241,0,0,0-.3,0h0C207.411,243.216,207.411,243.309,207.486,243.365Z" transform="translate(83.477 -114.2)" fill="#fff"/>
      <path id="Path_1682" data-name="Path 1682" d="M189.49,255.237l15.747,11.81L222.8,255.609,207.038,243.78Z" transform="translate(68.104 -113.705)" fill="#febf09"/>
      <path id="Path_1683" data-name="Path 1683" d="M191.47,253.918l9.192,6.908,1.04-.687-9.192-6.889Z" transform="translate(69.8 -105.59)" fill="#a6a6a6"/>
      <path id="Path_1684" data-name="Path 1684" d="M189.65,253.674l10.882,8.171.52-.334-10.9-8.171Z" transform="translate(68.241 -105.513)" fill="#a6a6a6"/>
      <path id="Path_1685" data-name="Path 1685" d="M189.14,254l10.882,8.171.52-.334-10.9-8.171Z" transform="translate(67.804 -105.23)" fill="#a6a6a6"/>
      <path id="Path_1686" data-name="Path 1686" d="M188.63,254.353l10.882,8.152.52-.334L189.15,254Z" transform="translate(67.367 -104.947)" fill="#a6a6a6"/>
      <path id="Path_1687" data-name="Path 1687" d="M209.25,247.609l1.968,1.467.409-.279-1.95-1.467Z" transform="translate(85.037 -110.663)" fill="#a6a6a6"/>
      <path id="Path_1688" data-name="Path 1688" d="M208.83,247.879l1.95,1.467.427-.279-1.95-1.467Z" transform="translate(84.677 -110.431)" fill="#a6a6a6"/>
      <path id="Path_1689" data-name="Path 1689" d="M208.41,248.149l1.968,1.486.409-.279-1.95-1.486Z" transform="translate(84.317 -110.2)" fill="#a6a6a6"/>
      <path id="Path_1690" data-name="Path 1690" d="M188.212,251.237a1.43,1.43,0,0,0,0,.724,3.492,3.492,0,0,0,1.058,0c.687,0,1.207-.446.836-.743a.835.835,0,0,0-.873,0s.427-.353.111-.576S188.341,250.754,188.212,251.237Z" transform="translate(66.968 -107.885)" fill="#febf09"/>
      <path id="Path_1691" data-name="Path 1691" d="M182.23,257.047l12.7,9.545L199,263.955l-12.72-9.545Z" transform="translate(61.882 -104.596)" fill="#febf09"/>
      <path id="Path_1692" data-name="Path 1692" d="M177.025,314.312c3.417,0,32.162-7.131,40.853-12.014a97.341,97.341,0,0,0,24.994-19.089c11.364-12.181,18.068-21.689,18.291-26.944.241-6.109,0-7.186-22.97,11.55-13,10.585-21.355,9.285-28.04,6.759C182.67,264.1,156.19,271.25,156.19,271.25S163.878,314.275,177.025,314.312Z" transform="translate(39.568 -106.413)" fill="#c95f50"/>
      <path id="Path_1693" data-name="Path 1693" d="M212.243,275.617c-7-2.4,20.742-8.375,23.936-16.192s-5.515-8.1-13.129-5.868c-26.74,7.929-42.431,1.43-58.493,12.423-1.708,1.151-6.741,3.714-6.833,4.531C156.962,278.2,212.243,275.617,212.243,275.617Z" transform="translate(40.875 -106.361)" fill="#c95f50"/>
      <path id="Path_1694" data-name="Path 1694" d="M190.308,255.721a58.662,58.662,0,0,0-14.855.427,35.968,35.968,0,0,0-12.59,5.422c-.167.093,0,.371.149.279,8.245-4.958,17.957-5.441,27.3-5.9a.111.111,0,1,0,0-.223Z" transform="translate(45.226 -103.715)" fill="#263238"/>
      <path id="Path_1695" data-name="Path 1695" d="M104.561,272.758l16.9-3.175,21.28-3.992s-5-23.694-11.142-38.476c-6.276-15.19-16.712-20.148-22.45.724C103.577,248.358,104.561,272.758,104.561,272.758Z" transform="translate(-4.732 -139.304)" fill="#febf09"/>
      <path id="Path_1696" data-name="Path 1696" d="M105.373,244.28c6.5-1.467,30.361-6.555,33.536-6.054,0,0,.111.241,0,.279-2.8,1.578-26.926,5.274-33.518,6.165C105.317,244.688,105.243,244.317,105.373,244.28Z" transform="translate(-4.04 -118.494)" fill="#263238"/>
      <path id="Path_1697" data-name="Path 1697" d="M107.834,259.729c-1,.3-2.006.557-3.008.817h-.279v-.316c-.26-2.655-.3-5.329-.3-7.985s.13-5.329.316-7.985.427-5.311.8-7.948.761-5.255,1.318-7.873c0,2.674-.186,5.311-.316,7.966s-.3,5.292-.446,7.948c-.279,5.274-.65,10.566-.873,15.858l-.3-.223C105.754,259.934,106.794,259.8,107.834,259.729Z" transform="translate(-4.941 -126.85)" fill="#263238"/>
      <path id="Path_1698" data-name="Path 1698" d="M103.8,231.65a31.327,31.327,0,0,1,1.188,4.939c.13.836.26,1.671.334,2.507a23.462,23.462,0,0,1,.13,2.563,20.018,20.018,0,0,1-1.374-4.921A21.131,21.131,0,0,1,103.8,231.65Z" transform="translate(-5.365 -124.1)" fill="#263238"/>
      <path id="Path_1699" data-name="Path 1699" d="M126.884,254.34l1.374-.409-.111.186c-.724-2.21-1.3-4.438-1.95-6.648l-1.727-6.685c-1.114-4.457-2.154-8.913-3.12-13.444a54.665,54.665,0,0,1,2.507,6.462,61.031,61.031,0,0,1,1.857,6.648c.5,2.228,1.077,4.494,1.523,6.759s.836,4.531,1.114,6.833v.167H128.2A11.7,11.7,0,0,1,126.884,254.34Z" transform="translate(9.712 -127.793)" fill="#263238"/>
      <path id="Path_1700" data-name="Path 1700" d="M123.36,229.75a12.554,12.554,0,0,1,.631,3.862,11.681,11.681,0,0,1-.13,1.968,6.926,6.926,0,0,1-.5,1.857,27.465,27.465,0,0,1-.3-3.862,18.423,18.423,0,0,1,.3-3.825Z" transform="translate(11.175 -125.728)" fill="#263238"/>
    </g>
    <g id="freepik--speech-bubble--inject-96" transform="translate(248.748 194.576)">
      <path id="Path_1701" data-name="Path 1701" d="M186.855,170.286a11.439,11.439,0,1,1-4.028-7.788A11.457,11.457,0,0,1,186.855,170.286Z" transform="translate(-148.485 -57.632)" fill="#fff"/>
      <path id="Path_1702" data-name="Path 1702" d="M187.068,170.487a11.689,11.689,0,1,1-12.442-10.9,11.94,11.94,0,0,1,12.442,10.9Zm0,0a10.974,10.974,0,0,0-12.349-9.972,11.142,11.142,0,0,0-9.545,11.866,10.988,10.988,0,1,0,21.893-1.894Z" transform="translate(-148.698 -57.833)" fill="#263238"/>
      <path id="Path_1703" data-name="Path 1703" d="M168.868,179.513a6.369,6.369,0,1,1-6.908-5.812,6.369,6.369,0,0,1,6.908,5.812Z" transform="translate(-155.196 -45.746)" fill="#fff"/>
      <path id="Path_1704" data-name="Path 1704" d="M169.31,179.68a6.852,6.852,0,1,1-4.911-5.925A6.889,6.889,0,0,1,169.31,179.68Zm0,0a6.072,6.072,0,0,0-2.34-4.234,5.924,5.924,0,1,0,.761,8.8,6.072,6.072,0,0,0,1.578-4.568Z" transform="translate(-155.637 -45.912)" fill="#263238"/>
      <path id="Path_1705" data-name="Path 1705" d="M279.308,164a33.425,33.425,0,0,1-46.2,34.855,28.058,28.058,0,0,1-44.566-.093,21.021,21.021,0,0,1-3.714.78,22.766,22.766,0,0,1-21.466-35.653A33.425,33.425,0,0,1,208.41,115.5a28.058,28.058,0,0,1,48.169,7.651,17.807,17.807,0,0,1,3.6-.817,18.346,18.346,0,0,1,15.784,30.584A32.665,32.665,0,0,1,279.308,164Z" transform="translate(-155.259 -104.623)" fill="#fff"/>
      <path id="Path_1706" data-name="Path 1706" d="M279.686,164.162a33.945,33.945,0,0,1-2.4,17.121,35.726,35.726,0,0,1-4.4,7.558,34.6,34.6,0,0,1-6.221,6.109,33.778,33.778,0,0,1-33.295,4.327h.316a28.56,28.56,0,0,1-45.346.13l.668.223a23.138,23.138,0,0,1-7.131.984,22.06,22.06,0,0,1-7.112-1.188,23.565,23.565,0,0,1-11.55-8.449,25.237,25.237,0,0,1-3.287-6.462,24.643,24.643,0,0,1-1.188-7.149A23.564,23.564,0,0,1,163,163.642v.966a34.223,34.223,0,0,1,1.857-44.566A34.6,34.6,0,0,1,186.1,109.382a34.075,34.075,0,0,1,22.952,5.812l-.817.13a28.539,28.539,0,0,1,48.874,8l-.241-.111a18.7,18.7,0,0,1,11.959.149,18.439,18.439,0,0,1,7.428,29.841h0A32.645,32.645,0,0,1,279.686,164.162Zm0,0a32.757,32.757,0,0,0-3.4-11.142h0a18.254,18.254,0,0,0-7.558-29.525,18.031,18.031,0,0,0-11.736,0h-.186v-.186a27.854,27.854,0,0,0-8.542-11.662,27.6,27.6,0,0,0-38.977,4.345l-.334.446-.483-.334a32.724,32.724,0,0,0-43.991,47.352l.39.5-.371.538a21.745,21.745,0,0,0-3.992,12.7,22.544,22.544,0,0,0,1.059,6.666,23.287,23.287,0,0,0,3.027,6.035,22.431,22.431,0,0,0,10.715,8,20.945,20.945,0,0,0,6.685,1.207,21.261,21.261,0,0,0,6.741-.836l.409-.13.279.353A28.039,28.039,0,0,0,199,206.537a27.668,27.668,0,0,0,34.335-7.725l.13-.167h.186a32.942,32.942,0,0,0,32.961-3.974,35.024,35.024,0,0,0,6.239-6.054,35.413,35.413,0,0,0,4.419-7.428,33.833,33.833,0,0,0,2.414-17.028Z" transform="translate(-155.637 -104.783)" fill="#263238"/>
      <path id="Path_1707" data-name="Path 1707" d="M205.564,151.727l-1.058,5.069a3.714,3.714,0,0,1-4.605,3.027,3.9,3.9,0,0,1-3.027-4.624l1.69-8.115.111-.13c.111-.13,0,0,0-.186a4.011,4.011,0,0,1,4.624-3.008,8.941,8.941,0,1,0-4.679-14.744,3.918,3.918,0,1,1-5.831-5.218,16.712,16.712,0,1,1,12.906,27.854Zm-3.547,17.084-.3,1.411a3.825,3.825,0,0,1-4.624,3.027,3.937,3.937,0,0,1-3.027-4.624l.3-1.411a3.955,3.955,0,0,1,4.624-2.99A3.9,3.9,0,0,1,202.017,168.81Z" transform="translate(-124.782 -93.258)" fill="#febf09"/>
      <path id="Path_1708" data-name="Path 1708" d="M182.216,141.386l-.538-5.051a3.714,3.714,0,0,1,3.4-4.364,3.918,3.918,0,0,1,4.345,3.4l1.021,8.226v.167c0,.167,0,0,.093.149a3.992,3.992,0,0,1-3.4,4.345,8.932,8.932,0,1,0,2.191,17.715,8.765,8.765,0,0,0,7.056-5.274,3.937,3.937,0,0,1,5.2-2.1,3.881,3.881,0,0,1,2.006,5.125,16.712,16.712,0,1,1-21.225-22.283Zm-2.135-17.307-.186-1.43a3.714,3.714,0,0,1,3.4-4.345,3.881,3.881,0,0,1,4.345,3.4l.186,1.411a3.974,3.974,0,0,1-3.4,4.364,3.862,3.862,0,0,1-4.345-3.4Z" transform="translate(-142.008 -93.224)" fill="#febf09"/>
    </g>
  </g>
</svg>
