<svg xmlns="http://www.w3.org/2000/svg" width="60" height="60" viewBox="0 0 60 60">
  <g id="Group_67720" data-name="Group 67720" transform="translate(-116 -53)">
    <g id="Ellipse_4" data-name="Ellipse 4" transform="translate(116 53)" fill="none" stroke="#fff" stroke-width="1">
      <circle cx="30" cy="30" r="30" stroke="none"/>
      <circle cx="30" cy="30" r="29.5" fill="none"/>
    </g>
    <g id="svgexport-7_42_" data-name="svgexport-7 (42)" transform="translate(132.996 70)">
      <g id="Group_67643" data-name="Group 67643" transform="translate(0.005 0)">
        <g id="Group_67637" data-name="Group 67637" transform="translate(0 0)">
          <path id="Path_1142" data-name="Path 1142" d="M3.1,20.912a5.215,5.215,0,0,1-2.564-.674A.808.808,0,0,1,.21,19.106a5.68,5.68,0,0,0,.732-4.365A17.552,17.552,0,0,1,0,10.265,10.336,10.336,0,0,1,10.512,0,10.39,10.39,0,0,1,20.6,10.291,10.383,10.383,0,0,1,6.346,19.8,5.288,5.288,0,0,1,3.1,20.912ZM2.008,19.148a3.693,3.693,0,0,0,3.645-.86.8.8,0,0,1,.9-.146A8.761,8.761,0,0,0,19,10.291,8.7,8.7,0,0,0,1.6,10.269,18.48,18.48,0,0,0,2.53,14.53a7.107,7.107,0,0,1-.522,4.618Z" transform="translate(-0.005 0)" fill="#fff"/>
        </g>
        <g id="Group_67638" data-name="Group 67638" transform="translate(9.5 9.276)">
          <path id="Path_1143" data-name="Path 1143" d="M157.367,157.306a5.288,5.288,0,0,1-3.249-1.116,10.413,10.413,0,0,1-10.695-1.709.8.8,0,1,1,1.041-1.205,8.806,8.806,0,0,0,9.449,1.261.8.8,0,0,1,.9.146,3.692,3.692,0,0,0,3.645.86,7.077,7.077,0,0,1-.295-5.417c.006-.016.012-.032.018-.048a8.793,8.793,0,0,0-1.323-9,.8.8,0,0,1,1.222-1.021,10.345,10.345,0,0,1,2.38,6.6,10.224,10.224,0,0,1-.8,4.015,5.619,5.619,0,0,0,.6,4.825.808.808,0,0,1-.322,1.132A5.217,5.217,0,0,1,157.367,157.306Z" transform="translate(-143.147 -139.77)" fill="#fff"/>
        </g>
        <g id="Group_67642" data-name="Group 67642" transform="translate(4.394 9.071)">
          <g id="Group_67639" data-name="Group 67639" transform="translate(4.643)">
            <ellipse id="Ellipse_1517" data-name="Ellipse 1517" cx="1.26" cy="1.259" rx="1.26" ry="1.259" fill="#fff"/>
          </g>
          <g id="Group_67640" data-name="Group 67640">
            <ellipse id="Ellipse_1518" data-name="Ellipse 1518" cx="1.26" cy="1.259" rx="1.26" ry="1.259" fill="#fff"/>
          </g>
          <g id="Group_67641" data-name="Group 67641" transform="translate(9.285)">
            <ellipse id="Ellipse_1519" data-name="Ellipse 1519" cx="1.26" cy="1.259" rx="1.26" ry="1.259" fill="#fff"/>
          </g>
        </g>
      </g>
    </g>
  </g>
</svg>
