<svg xmlns="http://www.w3.org/2000/svg" width="69" height="69" viewBox="0 0 69 69">
  <g id="Group_67726" data-name="Group 67726" transform="translate(-645 -649)">
    <circle id="Ellipse_14" data-name="Ellipse 14" cx="34.5" cy="34.5" r="34.5" transform="translate(645 649)" fill="#fff" opacity="0.23"/>
    <g id="svgexport-6_-_2022-01-18T142734.448" data-name="svgexport-6 - 2022-01-18T142734.448" transform="translate(661.5 665.6)">
      <g id="Group_39" data-name="Group 39" transform="translate(0.5 0.4)">
        <g id="Group_37" data-name="Group 37">
          <g id="Group_35" data-name="Group 35" transform="translate(2.29)">
            <g id="Group_33" data-name="Group 33" transform="translate(10.416)">
              <path id="Path_840" data-name="Path 840" d="M35.946,35.193H19.177a1.477,1.477,0,1,1,0-2.955H34.468V3.355H20.655v7.387a1.477,1.477,0,0,1-2.955,0V1.877A1.482,1.482,0,0,1,19.177.4H35.946a1.482,1.482,0,0,1,1.477,1.477V33.715A1.587,1.587,0,0,1,35.946,35.193Z" transform="translate(-17.7 -0.4)" fill="#fff"/>
            </g>
            <g id="Group_34" data-name="Group 34" transform="translate(0 7.313)">
              <path id="Path_841" data-name="Path 841" d="M21.846,37.779H5.077A1.482,1.482,0,0,1,3.6,36.3V16.874a1.51,1.51,0,0,1,1.034-1.4l16.768-5.1a1.291,1.291,0,0,1,1.256.222,1.542,1.542,0,0,1,.591,1.182V36.3a1.377,1.377,0,0,1-1.4,1.477ZM6.555,34.9H20.368V13.772L6.555,17.909Z" transform="translate(-3.6 -10.3)" fill="#fff"/>
            </g>
          </g>
          <g id="Group_36" data-name="Group 36" transform="translate(0 31.838)">
            <path id="Path_842" data-name="Path 842" d="M33.741,46.455H1.977a1.477,1.477,0,0,1,0-2.955H33.815a1.482,1.482,0,0,1,1.477,1.477A1.547,1.547,0,0,1,33.741,46.455Z" transform="translate(-0.5 -43.5)" fill="#fff"/>
          </g>
        </g>
        <g id="Group_38" data-name="Group 38" transform="translate(10.711 24.968)">
          <path id="Path_843" data-name="Path 843" d="M16.477,44.025A1.482,1.482,0,0,1,15,42.547v-6.87a1.477,1.477,0,0,1,2.955,0v6.87A1.587,1.587,0,0,1,16.477,44.025Z" transform="translate(-15 -34.2)" fill="#fff"/>
        </g>
      </g>
    </g>
  </g>
</svg>
