<svg xmlns="http://www.w3.org/2000/svg" width="69" height="69" viewBox="0 0 69 69">
  <g id="Group_67725" data-name="Group 67725" transform="translate(-869 -649)">
    <circle id="Ellipse_13" data-name="Ellipse 13" cx="34.5" cy="34.5" r="34.5" transform="translate(869 649)" fill="#778084" opacity="0.49"/>
    <g id="svgexport-6_-_2022-01-18T142652.623" data-name="svgexport-6 - 2022-01-18T142652.623" transform="translate(865.922 667)">
      <g id="Group_32" data-name="Group 32" transform="translate(23.011)">
        <g id="Group_31" data-name="Group 31">
          <g id="Group_30" data-name="Group 30">
            <path id="Path_810" data-name="Path 810" d="M51.6,30.931h-.9V2.7a.539.539,0,0,0-.539-.539H40.1a.539.539,0,0,0-.539.539V5.035H38.477V2.7a.539.539,0,0,0-.539-.539H35.6V.539a.539.539,0,0,0-1.079,0V2.158H32.183a.539.539,0,0,0-.539.539V5.035H30.025a.539.539,0,0,0-.539.539v4.5h-4.5a.539.539,0,0,0-.539.539V30.931h-.9a.54.54,0,0,0,0,1.079H51.6a.539.539,0,1,0,0-1.079ZM32.722,3.237H37.4v1.8H32.722Zm-1.8,27.694h-.36v-.9a.539.539,0,0,0-1.079,0v.9h-.36v-1.8h1.8Zm3.6-13.847V30.931H32V28.593a.539.539,0,0,0-.539-.539H28.586a.539.539,0,0,0-.539.539v2.338H25.529V11.15H34.52Zm.539-7.013h-4.5V6.114h8.992v10.43H35.6v-1.8h1.619a.539.539,0,0,0,0-1.079H35.6v-1.8h1.619a.539.539,0,0,0,0-1.079H35.6v-.18A.539.539,0,0,0,35.06,10.071Zm9.531,20.861H35.6V17.624h8.992Zm5.035,0H45.67V16.365a.539.539,0,0,0-1.079,0v.18H43.512v-.18a.539.539,0,1,0-1.079,0v.18h-1.8V3.237h8.992V30.931Z" transform="translate(-23.011)" fill="#fff"/>
            <path id="Path_811" data-name="Path 811" d="M253.663,310.3a.539.539,0,0,0,.539-.539V299.689a.539.539,0,1,0-1.079,0v10.071A.539.539,0,0,0,253.663,310.3Z" transform="translate(-238.737 -280.446)" fill="#fff"/>
            <path id="Path_812" data-name="Path 812" d="M288.18,310.3a.539.539,0,0,0,.539-.539V299.689a.539.539,0,1,0-1.079,0v10.071A.539.539,0,0,0,288.18,310.3Z" transform="translate(-271.096 -280.446)" fill="#fff"/>
            <path id="Path_813" data-name="Path 813" d="M322.7,310.3a.54.54,0,0,0,.54-.539V299.689a.54.54,0,0,0-1.079,0v10.071A.539.539,0,0,0,322.7,310.3Z" transform="translate(-303.454 -280.446)" fill="#fff"/>
            <path id="Path_814" data-name="Path 814" d="M334.2,82.338a.539.539,0,0,0,.539-.539v-.719a.539.539,0,0,0-1.079,0V81.8A.539.539,0,0,0,334.2,82.338Z" transform="translate(-314.241 -75.505)" fill="#fff"/>
            <path id="Path_815" data-name="Path 815" d="M368.719,82.338a.539.539,0,0,0,.539-.539v-.719a.539.539,0,0,0-1.079,0V81.8A.539.539,0,0,0,368.719,82.338Z" transform="translate(-346.6 -75.505)" fill="#fff"/>
            <path id="Path_816" data-name="Path 816" d="M403.236,82.338a.539.539,0,0,0,.539-.539v-.719a.539.539,0,0,0-1.079,0V81.8A.539.539,0,0,0,403.236,82.338Z" transform="translate(-378.959 -75.505)" fill="#fff"/>
            <path id="Path_817" data-name="Path 817" d="M334.2,139.865a.539.539,0,0,0,.539-.539v-.719a.539.539,0,0,0-1.079,0v.719A.539.539,0,0,0,334.2,139.865Z" transform="translate(-314.241 -129.435)" fill="#fff"/>
            <path id="Path_818" data-name="Path 818" d="M368.719,139.865a.539.539,0,0,0,.539-.539v-.719a.539.539,0,0,0-1.079,0v.719A.539.539,0,0,0,368.719,139.865Z" transform="translate(-346.6 -129.435)" fill="#fff"/>
            <path id="Path_819" data-name="Path 819" d="M403.236,139.865a.539.539,0,0,0,.539-.539v-.719a.539.539,0,0,0-1.079,0v.719A.539.539,0,0,0,403.236,139.865Z" transform="translate(-378.959 -129.435)" fill="#fff"/>
            <path id="Path_820" data-name="Path 820" d="M334.2,197.394a.539.539,0,0,0,.539-.539v-.719a.539.539,0,0,0-1.079,0v.719A.539.539,0,0,0,334.2,197.394Z" transform="translate(-314.241 -183.367)" fill="#fff"/>
            <path id="Path_821" data-name="Path 821" d="M368.719,197.394a.539.539,0,0,0,.539-.539v-.719a.539.539,0,0,0-1.079,0v.719A.539.539,0,0,0,368.719,197.394Z" transform="translate(-346.6 -183.367)" fill="#fff"/>
            <path id="Path_822" data-name="Path 822" d="M403.236,197.394a.539.539,0,0,0,.539-.539v-.719a.539.539,0,0,0-1.079,0v.719A.539.539,0,0,0,403.236,197.394Z" transform="translate(-378.959 -183.367)" fill="#fff"/>
            <path id="Path_823" data-name="Path 823" d="M92.584,220.405a.539.539,0,0,0,.539-.539v-.719a.539.539,0,0,0-1.079,0v.719A.54.54,0,0,0,92.584,220.405Z" transform="translate(-87.729 -204.94)" fill="#fff"/>
            <path id="Path_824" data-name="Path 824" d="M127.1,220.405a.539.539,0,0,0,.539-.539v-.719a.539.539,0,0,0-1.079,0v.719A.539.539,0,0,0,127.1,220.405Z" transform="translate(-120.088 -204.94)" fill="#fff"/>
            <path id="Path_825" data-name="Path 825" d="M161.618,220.405a.539.539,0,0,0,.539-.539v-.719a.539.539,0,0,0-1.079,0v.719A.539.539,0,0,0,161.618,220.405Z" transform="translate(-152.447 -204.94)" fill="#fff"/>
            <path id="Path_826" data-name="Path 826" d="M92.584,277.933a.539.539,0,0,0,.539-.539v-.719a.539.539,0,1,0-1.079,0v.719A.54.54,0,0,0,92.584,277.933Z" transform="translate(-87.729 -258.871)" fill="#fff"/>
            <path id="Path_827" data-name="Path 827" d="M127.1,277.933a.539.539,0,0,0,.539-.539v-.719a.539.539,0,1,0-1.079,0v.719A.539.539,0,0,0,127.1,277.933Z" transform="translate(-120.088 -258.871)" fill="#fff"/>
            <path id="Path_828" data-name="Path 828" d="M161.618,277.933a.539.539,0,0,0,.539-.539v-.719a.539.539,0,1,0-1.079,0v.719A.539.539,0,0,0,161.618,277.933Z" transform="translate(-152.447 -258.871)" fill="#fff"/>
            <path id="Path_829" data-name="Path 829" d="M92.584,335.461a.539.539,0,0,0,.539-.539V334.2a.539.539,0,1,0-1.079,0v.719A.539.539,0,0,0,92.584,335.461Z" transform="translate(-87.729 -312.802)" fill="#fff"/>
            <path id="Path_830" data-name="Path 830" d="M127.1,335.461a.539.539,0,0,0,.539-.539V334.2a.539.539,0,1,0-1.079,0v.719A.539.539,0,0,0,127.1,335.461Z" transform="translate(-120.088 -312.802)" fill="#fff"/>
            <path id="Path_831" data-name="Path 831" d="M161.618,335.461a.539.539,0,0,0,.539-.539V334.2a.539.539,0,1,0-1.079,0v.719A.539.539,0,0,0,161.618,335.461Z" transform="translate(-152.447 -312.802)" fill="#fff"/>
            <path id="Path_832" data-name="Path 832" d="M92.584,392.989a.539.539,0,0,0,.539-.539v-.719a.539.539,0,1,0-1.079,0v.719A.539.539,0,0,0,92.584,392.989Z" transform="translate(-87.729 -366.734)" fill="#fff"/>
            <path id="Path_833" data-name="Path 833" d="M127.1,392.989a.539.539,0,0,0,.539-.539v-.719a.539.539,0,1,0-1.079,0v.719A.539.539,0,0,0,127.1,392.989Z" transform="translate(-120.088 -366.734)" fill="#fff"/>
            <path id="Path_834" data-name="Path 834" d="M161.618,392.989a.539.539,0,0,0,.539-.539v-.719a.539.539,0,1,0-1.079,0v.719A.539.539,0,0,0,161.618,392.989Z" transform="translate(-152.447 -366.734)" fill="#fff"/>
            <path id="Path_835" data-name="Path 835" d="M403.236,254.922a.539.539,0,0,0,.539-.539v-.719a.539.539,0,0,0-1.079,0v.719A.539.539,0,0,0,403.236,254.922Z" transform="translate(-378.959 -237.299)" fill="#fff"/>
            <path id="Path_836" data-name="Path 836" d="M403.236,312.45a.539.539,0,0,0,.539-.539v-.719a.539.539,0,1,0-1.079,0v.719A.539.539,0,0,0,403.236,312.45Z" transform="translate(-378.959 -291.23)" fill="#fff"/>
            <path id="Path_837" data-name="Path 837" d="M403.236,369.978a.539.539,0,0,0,.539-.539v-.719a.539.539,0,0,0-1.079,0v.719A.539.539,0,0,0,403.236,369.978Z" transform="translate(-378.959 -345.161)" fill="#fff"/>
            <path id="Path_838" data-name="Path 838" d="M403.236,427.506a.539.539,0,0,0,.539-.539v-.719a.539.539,0,0,0-1.079,0v.719A.539.539,0,0,0,403.236,427.506Z" transform="translate(-378.959 -399.093)" fill="#fff"/>
            <path id="Path_839" data-name="Path 839" d="M177.979,127.1a.539.539,0,0,0-.539-.539h-4.316a.539.539,0,1,0,0,1.079h4.316A.539.539,0,0,0,177.979,127.1Z" transform="translate(-163.233 -118.649)" fill="#fff"/>
          </g>
        </g>
      </g>
    </g>
  </g>
</svg>
