<svg xmlns="http://www.w3.org/2000/svg" width="69" height="69" viewBox="0 0 69 69">
  <g id="Group_67722" data-name="Group 67722" transform="translate(-1505 -649)">
    <circle id="Ellipse_10" data-name="Ellipse 10" cx="34.5" cy="34.5" r="34.5" transform="translate(1505 649)" fill="#fff" opacity="0.19"/>
    <g id="svgexport-6_98_" data-name="svgexport-6 (98)" transform="translate(1518 667)">
      <g id="Group_29" data-name="Group 29" transform="translate(0 0)">
        <g id="HOUSE-35" transform="translate(0 0)">
          <path id="Path_801" data-name="Path 801" d="M41.864,92.314H37.89v-.795A2.408,2.408,0,0,0,39.745,89.2c0-.066-.53-6.558-2.385-6.558s-2.385,6.492-2.385,6.558a2.408,2.408,0,0,0,1.855,2.318v.795H32.789V76.151a.506.506,0,0,0-.132-.331l-11-14.242a.541.541,0,0,0-.795-.066l-.066.066L9.8,75.754a.506.506,0,0,0-.132.331V92.314H5.63v-.795A2.408,2.408,0,0,0,7.485,89.2c0-.066-.53-6.558-2.385-6.558S2.65,89.135,2.65,89.2A2.408,2.408,0,0,0,4.5,91.519v.795H.53a.522.522,0,0,0-.53.53.57.57,0,0,0,.53.53H41.8a.522.522,0,0,0,.53-.53.512.512,0,0,0-.464-.53ZM36.035,89.2c0-1.126.729-4.7,1.259-5.366.6.662,1.259,4.239,1.259,5.365a1.224,1.224,0,0,1-.729,1.126c0-.464.132-1.259-.53-1.259s-.53.795-.53,1.259a1.16,1.16,0,0,1-.729-1.126Zm-32.259,0c0-1.126.729-4.7,1.259-5.366.6.662,1.259,4.239,1.259,5.365a1.224,1.224,0,0,1-.729,1.126c0-.464.132-1.259-.53-1.259s-.53.795-.53,1.259A1.16,1.16,0,0,1,3.776,89.2ZM31.6,76.284v1.192h-9.87V76.019H31.4Zm-9.87,3.776V78.6H31.6V80.06Zm9.87,1.126v1.457h-9.87V81.186Zm-9.87,2.583H31.6v1.457h-9.87Zm0-8.876V73.435h7.684l1.126,1.457Zm0-2.517V70.918h5.631l1.126,1.457H21.727Zm0-2.583V68.335h3.709l1.126,1.457Zm0-2.583V63.566l2.782,3.643ZM21.2,87.015a.507.507,0,0,0,.53-.6v-.066H31.6V87.81H10.8v-.861H21.2ZM10.8,88.936H31.6v1.457H10.8Zm9.87-25.37V85.889H10.8v-9.6ZM10.8,92.314v-.795H31.6v.795Z" transform="translate(0 -61.37)" fill="#fff"/>
          <path id="Path_802" data-name="Path 802" d="M146.217,251.981h5.829a.522.522,0,0,0,.53-.53v-5.167a.522.522,0,0,0-.53-.53h-5.829a.522.522,0,0,0-.53.53v5.167A.522.522,0,0,0,146.217,251.981Zm.6-5.167h4.7v4.107h-4.7Z" transform="translate(-133.432 -230.245)" fill="#fff"/>
        </g>
      </g>
    </g>
  </g>
</svg>
