<svg xmlns="http://www.w3.org/2000/svg" width="60" height="60" viewBox="0 0 60 60">
  <g id="Group_68" data-name="Group 68" transform="translate(-445 -53)">
    <g id="Ellipse_3" data-name="Ellipse 3" transform="translate(445 53)" fill="none" stroke="#fff" stroke-width="1">
      <circle cx="30" cy="30" r="30" stroke="none"/>
      <circle cx="30" cy="30" r="29.5" fill="none"/>
    </g>
    <g id="svgexport-6_91_" data-name="svgexport-6 (91)" transform="translate(462 70)">
      <g id="Group_10" data-name="Group 10" transform="translate(0)">
        <g id="Group_9" data-name="Group 9">
          <path id="Path_775" data-name="Path 775" d="M21.466,16.257a12.526,12.526,0,0,0-4.778-3,7.27,7.27,0,1,0-8.226,0A12.594,12.594,0,0,0,0,25.149H1.965a10.61,10.61,0,1,1,21.219,0h1.965A12.492,12.492,0,0,0,21.466,16.257Zm-8.891-3.683a5.3,5.3,0,1,1,5.3-5.3A5.311,5.311,0,0,1,12.574,12.574Z" transform="translate(0)" fill="#fff"/>
        </g>
      </g>
    </g>
  </g>
</svg>
