<svg xmlns="http://www.w3.org/2000/svg" width="835.221" height="809.98" viewBox="0 0 835.221 809.98">
  <g id="Login-amico" transform="translate(-13.44 -29.071)">
    <g id="freepik--Floor--inject-64" transform="translate(13.44 356.834)">
      <ellipse id="freepik--floor--inject-64-2" data-name="freepik--floor--inject-64" cx="417.611" cy="241.108" rx="417.611" ry="241.108" fill="#f0f0f0"/>
    </g>
    <g id="freepik--Shadow--inject-64" transform="translate(38.826 390.067)">
      <path id="freepik--shadow--inject-64-2" data-name="freepik--shadow--inject-64" d="M393.311,427.338c-27.385-15.81-27.385-41.44,0-57.251s71.785-15.81,99.169,0,27.385,41.44,0,57.251S420.7,443.149,393.311,427.338Z" transform="translate(238.746 -135.803)" fill="#e0e0e0"/>
      <path id="freepik--shadow--inject-64-3" data-name="freepik--shadow--inject-64" d="M102.84,526.473,30.807,484.891c-4.059-2.34-4.059-6.15,0-8.49L449.8,234.495a16.254,16.254,0,0,1,14.694,0l72.051,41.582c4.059,2.34,4.059,6.15,0,8.49L117.551,526.473a16.289,16.289,0,0,1-14.711,0Z" transform="translate(-27.762 -232.74)" fill="#e0e0e0"/>
    </g>
    <g id="freepik--Device--inject-64" transform="translate(92.421 29.071)">
      <g id="freepik--device--inject-64-2" data-name="freepik--device--inject-64" transform="translate(0)">
        <path id="Path_1244" data-name="Path 1244" d="M262.841,435.524l61.93-35.8c6.381-3.687,9.571-8.508,9.571-13.347V377.76L270.109,341.53A13.542,13.542,0,0,1,263.94,330.9V254.52l-108.12,62.5v76.34a13.648,13.648,0,0,0,6.168,10.635l54.663,31.479C229.377,442.9,250.08,442.9,262.841,435.524Z" transform="translate(17.563 145.081)" fill="#febf09"/>
        <g id="Group_76398" data-name="Group 76398" transform="translate(173.383 399.601)" opacity="0.6">
          <path id="Path_1245" data-name="Path 1245" d="M262.841,435.524l61.93-35.8c6.381-3.687,9.571-8.508,9.571-13.347V377.76L270.109,341.53A13.542,13.542,0,0,1,263.94,330.9V254.52l-108.12,62.5v76.34a13.648,13.648,0,0,0,6.168,10.635l54.663,31.479C229.377,442.9,250.08,442.9,262.841,435.524Z" transform="translate(-155.82 -254.52)"/>
        </g>
        <path id="Path_1246" data-name="Path 1246" d="M181.767,384.827v8.579L161.95,381.974a13.6,13.6,0,0,1-6.15-10.635V294.963l20.6-11.893c.425,5.229.886,10.635,1.329,15.952l-14.481,8.331V367a13.524,13.524,0,0,0,6.168,10.635Z" transform="translate(17.547 167.135)" opacity="0.3"/>
        <path id="Path_1247" data-name="Path 1247" d="M160,383.668a13.613,13.613,0,0,0,6.168,10.635l47.183,27.19c12.762,7.356,33.464,7.373,46.244,0l62.036-35.8c12.779-7.373,12.779-19.32,0-26.693l-47.218-27.19a13.63,13.63,0,0,1-6.15-10.635V261.51l-108.12,62.5Z" transform="translate(20.792 150.481)" fill="#febf09"/>
        <path id="Path_1248" data-name="Path 1248" d="M160,383.668a13.613,13.613,0,0,0,6.168,10.635l47.183,27.19c12.762,7.356,33.464,7.373,46.244,0l62.036-35.8c12.779-7.373,12.779-19.32,0-26.693l-47.218-27.19a13.63,13.63,0,0,1-6.15-10.635V261.51l-108.12,62.5Z" transform="translate(20.792 150.481)" opacity="0.3"/>
        <path id="Path_1249" data-name="Path 1249" d="M286.878,339.091h0l-12.567-7.249a13.63,13.63,0,0,1-6.15-10.635v-59.7l-108.12,62.5v59.661a13.612,13.612,0,0,0,6.168,10.635l12.407,7.09Z" transform="translate(20.822 150.481)" opacity="0.5"/>
        <path id="Path_1250" data-name="Path 1250" d="M297.375,324.06v8.614c0,4.839-3.208,9.642-9.571,13.347l-62.036,35.786a46.493,46.493,0,0,1-22.067,5.477v-8.579a46.492,46.492,0,0,0,22.067-5.477L287.8,337.407C294.167,333.738,297.375,328.9,297.375,324.06Z" transform="translate(54.548 198.798)" fill="#febf09"/>
        <path id="Path_1251" data-name="Path 1251" d="M297.375,324.06v8.614c0,4.839-3.208,9.642-9.571,13.347l-62.036,35.786a46.493,46.493,0,0,1-22.067,5.477v-8.579a46.492,46.492,0,0,0,22.067-5.477L287.8,337.407C294.167,333.738,297.375,328.9,297.375,324.06Z" transform="translate(54.548 198.798)" opacity="0.5"/>
        <path id="Path_1252" data-name="Path 1252" d="M65.09,637.362a16.573,16.573,0,0,0,14.942-.266l418.3-241.5a17.051,17.051,0,0,0,7.71-13.347V43.852a16.519,16.519,0,0,0-7.2-13.134A16.484,16.484,0,0,0,483.923,31L65.622,272.571A16.98,16.98,0,0,0,58,285.953V624.3a16.519,16.519,0,0,0,7.09,13.063Z" transform="translate(-58 -29.071)" fill="#febf09"/>
        <path id="Path_1253" data-name="Path 1253" d="M73.82,633.035l418.3-241.5a17,17,0,0,0,7.71-13.347V39.808c0-4.91-3.456-6.913-7.71-4.449l-418.3,241.5A17.033,17.033,0,0,0,66.11,290.2V628.586C66.11,633.5,69.566,635.5,73.82,633.035Z" transform="translate(-51.735 -25.027)" fill="#febf09"/>
        <path id="Path_1254" data-name="Path 1254" d="M73.82,633.035l418.3-241.5a17,17,0,0,0,7.71-13.347V39.808c0-4.91-3.456-6.913-7.71-4.449l-418.3,241.5A17.033,17.033,0,0,0,66.11,290.2V628.586C66.11,633.5,69.566,635.5,73.82,633.035Z" transform="translate(-51.735 -25.027)" opacity="0.5"/>
        <path id="Path_1255" data-name="Path 1255" d="M78.951,396.318a16.555,16.555,0,0,1-13.861-.284,16.519,16.519,0,0,1-7.09-13.1V352.13L72.446,360.5V391.3C72.357,395.786,75.211,397.824,78.951,396.318Z" transform="translate(-58 220.482)" fill="#febf09"/>
        <path id="Path_1256" data-name="Path 1256" d="M78.951,396.318a16.555,16.555,0,0,1-13.861-.284,16.519,16.519,0,0,1-7.09-13.1V352.13L72.446,360.5V391.3C72.357,395.786,75.211,397.824,78.951,396.318Z" transform="translate(-58 220.482)" opacity="0.5"/>
        <path id="Path_1257" data-name="Path 1257" d="M66.1,466.007v30.805c0,4.91,3.545,6.895,7.71,4.449l418.3-241.5a17.051,17.051,0,0,0,7.71-13.276V215.54Z" transform="translate(-51.743 114.97)" fill="#febf09"/>
        <path id="Path_1258" data-name="Path 1258" d="M66.11,465.936v30.876c0,4.91,3.545,6.895,7.71,4.449l418.3-241.5a17.051,17.051,0,0,0,7.692-13.276V215.54Z" transform="translate(-51.735 114.97)" opacity="0.3"/>
        <path id="Path_1259" data-name="Path 1259" d="M74.26,556.973V284.7a10.192,10.192,0,0,1,4.608-8.012L474.376,48.275C476.929,46.8,479,47.991,479,50.934v272.41a10.209,10.209,0,0,1-4.626,8.012L78.886,559.72C76.334,561.191,74.26,559.986,74.26,556.973Z" transform="translate(-45.44 -14.723)" fill="#febf09"/>
        <path id="Path_1260" data-name="Path 1260" d="M74.26,556.973V284.7a10.192,10.192,0,0,1,4.608-8.012L474.376,48.275C476.929,46.8,479,47.991,479,50.934v272.41a10.209,10.209,0,0,1-4.626,8.012L78.886,559.72C76.334,561.191,74.26,559.986,74.26,556.973Z" transform="translate(-45.44 -14.723)" fill="#263238"/>
        <path id="Path_1261" data-name="Path 1261" d="M191.6,292.161a15.953,15.953,0,0,0-7.232,12.514c0,4.608,3.244,6.487,7.232,4.183a15.952,15.952,0,0,0,7.232-12.531C198.833,291.718,195.59,289.856,191.6,292.161Z" transform="translate(39.616 173.394)" fill="#febf09"/>
        <path id="Path_1262" data-name="Path 1262" d="M74.643,178a16.4,16.4,0,0,0-2.286,7.6V501.417L58,493.051V177.322a15.775,15.775,0,0,1,2.269-7.622Z" transform="translate(-58 79.561)" opacity="0.7"/>
        <path id="Path_1263" data-name="Path 1263" d="M505.066,42.545c-.549-3.97-3.758-5.317-7.639-3.173l-418.3,241.5a15.845,15.845,0,0,0-5.441,5.725L59.22,278.247a15.952,15.952,0,0,1,5.459-5.725l418.3-241.481a16.519,16.519,0,0,1,14.942-.284,16.608,16.608,0,0,1,7.143,11.787Z" transform="translate(-57.058 -29.04)" opacity="0.3"/>
      </g>
    </g>
    <g id="freepik--Window--inject-64" transform="translate(158.949 83.812)">
      <g id="freepik--window--inject-64-2" data-name="freepik--window--inject-64" transform="translate(0 0)">
        <g id="freepik--window--inject-64-3" data-name="freepik--window--inject-64">
          <g id="freepik--window--inject-64-4" data-name="freepik--window--inject-64">
            <path id="Path_1264" data-name="Path 1264" d="M499.539,60.367a3.828,3.828,0,0,0-3.935.3L100.912,288.678a11.893,11.893,0,0,0-5.317,9.341v270.6a5.317,5.317,0,0,0,2.286,4.7c.868.479,5.512,3.173,6.895,3.917a3.1,3.1,0,0,0,3.12-.177l394.6-228.01a11.893,11.893,0,0,0,5.317-9.341v-272a3.722,3.722,0,0,0-1.666-3.545C505.264,63.575,500.532,60.952,499.539,60.367Z" transform="translate(-95.495 -59.95)" fill="#febf09"/>
            <path id="Path_1265" data-name="Path 1265" d="M104.8,290.822,499.508,62.9c2.978-1.772,5.317-.319,5.317,3.12v272a11.893,11.893,0,0,1-5.317,9.341L104.8,575.373c-2.978,1.772-5.317-1.081-5.317-4.52V300.163a11.929,11.929,0,0,1,5.317-9.341Z" transform="translate(-92.486 -58.265)" fill="#fafafa"/>
            <path id="Path_1266" data-name="Path 1266" d="M501.918,63.922h0c1.046,0,1.205,1.312,1.205,2.092v272a10.068,10.068,0,0,1-4.52,7.8L103.947,573.825a1.773,1.773,0,0,1-.886.284c-.993,0-1.772-1.524-1.772-3.261V300.157a10.174,10.174,0,0,1,4.431-7.852L500.394,64.419a3.137,3.137,0,0,1,1.524-.5m0-1.772a4.963,4.963,0,0,0-2.411.744L104.8,290.816a11.929,11.929,0,0,0-5.317,9.341V570.847c0,2.73,1.524,5.034,3.545,5.034a3.545,3.545,0,0,0,1.772-.514L499.49,347.357a11.893,11.893,0,0,0,5.317-9.341v-272c0-2.446-1.205-3.864-2.978-3.864Z" transform="translate(-92.486 -58.259)" fill="#e0e0e0"/>
            <path id="Path_1267" data-name="Path 1267" d="M97.813,461.961c.585.3,4.786,2.694,6.629,3.758a5.512,5.512,0,0,1-1.985-4.537V208.161l-6.913-4.041V457.263a5.318,5.318,0,0,0,2.269,4.7Z" transform="translate(-95.534 51.408)" fill="#f0f0f0"/>
            <path id="Path_1268" data-name="Path 1268" d="M504.9,65.959c0-3.4-2.428-4.786-5.317-3.066L104.8,290.814a11.929,11.929,0,0,0-5.317,9.341v17.725L504.9,83.683Z" transform="translate(-92.486 -58.257)" fill="#febf09"/>
            <g id="Group_76399" data-name="Group 76399" transform="translate(1.659)" opacity="0.4">
              <path id="Path_1269" data-name="Path 1269" d="M501.833,64.59l-394.71,227.9a11.077,11.077,0,0,0-3.793,4.023l-6.859-3.988a10.635,10.635,0,0,1,3.758-3.846L494.92,60.673a3.828,3.828,0,0,1,3.935-.319c.957.6,5.441,3.137,6.594,3.758a3.9,3.9,0,0,0-3.616.479Z" transform="translate(-96.47 -59.955)" fill="#fff"/>
            </g>
            <path id="Path_1270" data-name="Path 1270" d="M95.54,214.141V196.576a11.078,11.078,0,0,1,1.648-5.406l6.877,3.97a10.777,10.777,0,0,0-1.613,5.317v17.725Z" transform="translate(-95.53 41.405)" opacity="0.15"/>
          </g>
        </g>
        <path id="Path_1271" data-name="Path 1271" d="M386,179.836,149.6,316.315a8.7,8.7,0,0,0-3.953,6.824v67.779a8.7,8.7,0,0,0,3.953,6.824l6.895,3.97a8.756,8.756,0,0,0,7.905,0l236.358-136.48a8.738,8.738,0,0,0,3.953-6.842v-67.8a8.7,8.7,0,0,0-3.953-6.824l-6.913-3.97a8.7,8.7,0,0,0-7.852.036Z" transform="translate(-56.821 31.912)" fill="#febf09"/>
        <path id="Path_1272" data-name="Path 1272" d="M404.2,189.98c-.284-2.038-1.932-2.783-3.917-1.631L163.893,324.829a7.958,7.958,0,0,0-2.783,2.942l-14.8-8.543a8.1,8.1,0,0,1,2.765-2.907l236.411-136.48a8.7,8.7,0,0,1,7.888,0l6.913,3.97A8.863,8.863,0,0,1,404.2,189.98Z" transform="translate(-56.311 31.924)" fill="#fff" opacity="0.5"/>
        <path id="Path_1273" data-name="Path 1273" d="M163.729,340.88a8.862,8.862,0,0,1-7.214-.319l-6.913-3.97a8.738,8.738,0,0,1-3.953-6.824V261.987a8.207,8.207,0,0,1,1.17-3.917l14.8,8.543a7.94,7.94,0,0,0-1.17,3.882v67.8C160.45,340.543,161.868,341.589,163.729,340.88Z" transform="translate(-56.821 93.082)" fill="#263238"/>
        <path id="Path_1274" data-name="Path 1274" d="M157.937,320.946l236.394-136.48c2.18-1.258,3.953-.248,3.953,2.269v67.8a8.738,8.738,0,0,1-3.953,6.842L157.973,397.853c-2.18,1.258-3.953.23-3.953-2.286V327.787A8.738,8.738,0,0,1,157.937,320.946Z" transform="translate(-50.356 35.808)" fill="#febf09"/>
        <path id="Path_1275" data-name="Path 1275" d="M322.8,199.84l-173.7,100.3a8.1,8.1,0,0,0-2.765,2.907l14.8,8.543a7.958,7.958,0,0,1,2.783-2.942l173.7-100.286Z" transform="translate(-56.296 48.102)" fill="#455a64"/>
        <path id="Path_1276" data-name="Path 1276" d="M331.654,204.65l-173.7,100.286A8.738,8.738,0,0,0,154,311.778v67.761c0,2.517,1.772,3.545,3.953,2.286l173.7-100.286Z" transform="translate(-50.371 51.817)" fill="#37474f"/>
        <path id="Path_1277" data-name="Path 1277" d="M181.765,279.542,271.4,227.8c3.7-2.145,6.718-.62,6.718,3.4a14.41,14.41,0,0,1-6.735,11.167l-89.616,51.756c-3.7,2.145-6.735.62-6.735-3.4A14.463,14.463,0,0,1,181.765,279.542Z" transform="translate(-34.126 68.952)" fill="#febf09"/>
        <path id="Path_1278" data-name="Path 1278" d="M192.513,266.266a.177.177,0,0,1,.266,0,.656.656,0,0,1,.106.408v10.085a16.911,16.911,0,0,1-.248,2.907,11.256,11.256,0,0,1-.744,2.552,9.057,9.057,0,0,1-1.241,2.091,6.5,6.5,0,0,1-1.773,1.471,3.279,3.279,0,0,1-1.772.532,1.772,1.772,0,0,1-1.241-.656,3.988,3.988,0,0,1-.744-1.772,12.245,12.245,0,0,1-.23-2.606v-10.1a1.276,1.276,0,0,1,.106-.514.638.638,0,0,1,.266-.355l1.117-.656a.2.2,0,0,1,.266,0,.621.621,0,0,1,.106.408v9.961a6.715,6.715,0,0,0,.16,1.631,1.773,1.773,0,0,0,.425.922.8.8,0,0,0,.656.284,1.773,1.773,0,0,0,.851-.284,3.827,3.827,0,0,0,.851-.691,4.2,4.2,0,0,0,.674-1.063,6.685,6.685,0,0,0,.443-1.418,9.355,9.355,0,0,0,.142-1.772v-9.979a1.3,1.3,0,0,1,.124-.514.638.638,0,0,1,.266-.355Z" transform="translate(-26.511 99.367)" fill="#fafafa"/>
        <path id="Path_1279" data-name="Path 1279" d="M195.051,275.571a.639.639,0,0,0-.089-.372.39.39,0,0,0-.337-.124,2.43,2.43,0,0,0-.656,0l-1.028.195a2.091,2.091,0,0,1-1.01,0,1.223,1.223,0,0,1-.638-.478,2.534,2.534,0,0,1-.337-.939,6.628,6.628,0,0,1,.567-4.449,7.658,7.658,0,0,1,.886-1.418,4.45,4.45,0,0,1,1.205-1.046,3.066,3.066,0,0,1,1.223-.425,1.488,1.488,0,0,1,.9.195,1.471,1.471,0,0,1,.585.674,2.818,2.818,0,0,1,.23,1.046.869.869,0,0,1-.106.514.638.638,0,0,1-.266.354l-1.063.62a.319.319,0,0,1-.319,0l-.23-.177a.584.584,0,0,0-.319-.124,1.454,1.454,0,0,0-.638.23,2.73,2.73,0,0,0-.727.638,1.542,1.542,0,0,0-.319.975,1.117,1.117,0,0,0,0,.408.408.408,0,0,0,.3.177,1.773,1.773,0,0,0,.585,0l.993-.177a1.676,1.676,0,0,1,1.772.461,3.722,3.722,0,0,1,.514,2.18,6.223,6.223,0,0,1-.213,1.56,7.568,7.568,0,0,1-.6,1.6,6.733,6.733,0,0,1-.975,1.453,5.018,5.018,0,0,1-1.294,1.081,2.889,2.889,0,0,1-1.294.443,1.6,1.6,0,0,1-.939-.266,1.631,1.631,0,0,1-.6-.762,2.659,2.659,0,0,1-.213-1.064.957.957,0,0,1,.106-.532.638.638,0,0,1,.266-.355l1.064-.62c.142,0,.248-.089.319,0l.23.248a.532.532,0,0,0,.372.177,1.134,1.134,0,0,0,.691-.23,3.314,3.314,0,0,0,.851-.691,2.2,2.2,0,0,0,.3-.479,1.063,1.063,0,0,0,.248-.5Z" transform="translate(-22.101 99.599)" fill="#fafafa"/>
        <path id="Path_1280" data-name="Path 1280" d="M195.15,272.807a15.827,15.827,0,0,1,.23-2.747,13.221,13.221,0,0,1,.691-2.5,8.51,8.51,0,0,1,1.064-2.038,4.557,4.557,0,0,1,1.418-1.329,1.932,1.932,0,0,1,1.4-.3,1.773,1.773,0,0,1,1.063.727,4.43,4.43,0,0,1,.691,1.6,9.892,9.892,0,0,1,.248,2.269v1.1a1.063,1.063,0,0,1-.124.532.638.638,0,0,1-.266.354l-4.608,2.676a2.766,2.766,0,0,0,.124.922,1.152,1.152,0,0,0,.354.514.744.744,0,0,0,.514.159,1.454,1.454,0,0,0,.6-.213,2.572,2.572,0,0,0,.709-.567,3.244,3.244,0,0,0,.461-.674,4.693,4.693,0,0,1,.248-.408,1.133,1.133,0,0,1,.266-.23l1.1-.638a.213.213,0,0,1,.266,0,.5.5,0,0,1,.106.408,3.42,3.42,0,0,1-.213,1.01,7.69,7.69,0,0,1-.6,1.418,8.137,8.137,0,0,1-.993,1.453,5.316,5.316,0,0,1-1.347,1.152,2.144,2.144,0,0,1-1.418.337,1.772,1.772,0,0,1-1.064-.744,4.7,4.7,0,0,1-.691-1.772A12.054,12.054,0,0,1,195.15,272.807Zm3.4-5.654a2.074,2.074,0,0,0-.691.6,3.4,3.4,0,0,0-.479.815,6.01,6.01,0,0,0-.3.9,5.8,5.8,0,0,0-.124.851l3.12-1.772a5.144,5.144,0,0,0-.106-.727,1.17,1.17,0,0,0-.248-.585.673.673,0,0,0-.461-.284,1.063,1.063,0,0,0-.709.2Z" transform="translate(-18.585 97.559)" fill="#fafafa"/>
        <path id="Path_1281" data-name="Path 1281" d="M203.6,264.474a2.854,2.854,0,0,0-1.205,1.347,6.1,6.1,0,0,0-.372,2.34v6.4a1.294,1.294,0,0,1-.106.532.638.638,0,0,1-.266.354l-1.046.6a.177.177,0,0,1-.266,0,.656.656,0,0,1-.106-.408V264.172a1.418,1.418,0,0,1,.106-.532.727.727,0,0,1,.266-.355l1.046-.6a.2.2,0,0,1,.266,0,.567.567,0,0,1,.106.39v.567a7.3,7.3,0,0,1,.78-1.347,3.226,3.226,0,0,1,1.063-.94l.638-.372a.177.177,0,0,1,.248,0,.656.656,0,0,1,.124.408V263a1.294,1.294,0,0,1-.124.532.727.727,0,0,1-.248.354Z" transform="translate(-14.661 95.293)" fill="#fafafa"/>
        <path id="Path_1282" data-name="Path 1282" d="M212.395,267.386a.177.177,0,0,1,.266,0,.656.656,0,0,1,.106.408v1.772a1.418,1.418,0,0,1-.106.532.922.922,0,0,1-.266.337l-6.062,3.545a.2.2,0,0,1-.266,0,.6.6,0,0,1-.106-.39V257.637a1.417,1.417,0,0,1,.106-.532.673.673,0,0,1,.266-.337l1.117-.656a.2.2,0,0,1,.266,0,.6.6,0,0,1,.106.39v13.488Z" transform="translate(-10.235 91.53)" fill="#fafafa"/>
        <path id="Path_1283" data-name="Path 1283" d="M214.174,255.215a2.127,2.127,0,0,1,1.365-.372,1.63,1.63,0,0,1,1.081.532,3.4,3.4,0,0,1,.709,1.312,7.584,7.584,0,0,1,.319,1.932v2.5a12.4,12.4,0,0,1-.319,2.286,11.1,11.1,0,0,1-.709,2.127,7.9,7.9,0,0,1-1.081,1.773,4.892,4.892,0,0,1-1.365,1.223,2.322,2.322,0,0,1-1.383.372,1.613,1.613,0,0,1-1.063-.532,3.013,3.013,0,0,1-.709-1.294,7.589,7.589,0,0,1-.319-1.932v-2.481a11.255,11.255,0,0,1,.3-2.3,11.736,11.736,0,0,1,.727-2.145,8.56,8.56,0,0,1,1.063-1.772A4.716,4.716,0,0,1,214.174,255.215Zm1.666,4.573a3.543,3.543,0,0,0-.195-1.152,1.1,1.1,0,0,0-.39-.567.762.762,0,0,0-.514-.124,1.542,1.542,0,0,0-.567.23,2.5,2.5,0,0,0-.567.425,3.174,3.174,0,0,0-.514.709,3.88,3.88,0,0,0-.39,1.028,7.089,7.089,0,0,0-.213,1.383v2.216a4.184,4.184,0,0,0,.213,1.152,1.081,1.081,0,0,0,.39.567.656.656,0,0,0,.514.106,1.594,1.594,0,0,0,.567-.213,2.962,2.962,0,0,0,.567-.425,3.845,3.845,0,0,0,.514-.709,4.609,4.609,0,0,0,.39-1.028A6.328,6.328,0,0,0,215.84,262a3.858,3.858,0,0,0,0-.5v-1.241A3.727,3.727,0,0,0,215.84,259.788Z" transform="translate(-6.572 90.585)" fill="#fafafa"/>
        <path id="Path_1284" data-name="Path 1284" d="M219.186,268.362a2.516,2.516,0,0,0,.6-.514,4.343,4.343,0,0,0,.549-.815,5.464,5.464,0,0,0,.408-1.117,5.315,5.315,0,0,0,.16-1.329v-.9c0,.177-.177.39-.3.638a5.316,5.316,0,0,1-.425.744,7.088,7.088,0,0,1-.6.709,3.119,3.119,0,0,1-.762.585,1.63,1.63,0,0,1-1.258.248,1.773,1.773,0,0,1-.957-.727,4.822,4.822,0,0,1-.62-1.489,10.2,10.2,0,0,1-.248-2.038v-1.719a14.974,14.974,0,0,1,.248-2.322,13.989,13.989,0,0,1,.62-2.216,8.864,8.864,0,0,1,.957-1.772,4.041,4.041,0,0,1,1.258-1.205,2.5,2.5,0,0,1,.762-.3,1.649,1.649,0,0,1,.6,0,1.1,1.1,0,0,1,.425.23,1.615,1.615,0,0,1,.3.3v-.567a1.419,1.419,0,0,1,.106-.532.674.674,0,0,1,.266-.337l1.046-.62a.2.2,0,0,1,.266,0,.656.656,0,0,1,.124.408v11.521a12.159,12.159,0,0,1-.939,5.034,6.434,6.434,0,0,1-2.588,3.013,2.73,2.73,0,0,1-1.312.408,1.773,1.773,0,0,1-1.046-.266,2.394,2.394,0,0,1-.709-.851,3.545,3.545,0,0,1-.284-1.276.957.957,0,0,1,.106-.532.638.638,0,0,1,.266-.354l.939-.532a.23.23,0,0,1,.337,0,1.77,1.77,0,0,1,.23.3.833.833,0,0,0,.5.39C218.424,268.716,218.743,268.539,219.186,268.362Zm-1.666-8.6v1.383a3.013,3.013,0,0,0,.567,1.985.869.869,0,0,0,1.134,0,3.048,3.048,0,0,0,1.152-1.382,6.417,6.417,0,0,0,.532-2.34q0-.4,0-.957v-.922a2.712,2.712,0,0,0-.532-1.772.851.851,0,0,0-1.152,0,3.067,3.067,0,0,0-1.134,1.365,6.789,6.789,0,0,0-.567,2.641Z" transform="translate(-2.687 87.807)" fill="#fafafa"/>
        <path id="Path_1285" data-name="Path 1285" d="M222.689,247.189a.2.2,0,0,1,.248,0,.567.567,0,0,1,.124.408v1.932a1.17,1.17,0,0,1-.124.532.762.762,0,0,1-.248.337l-1.188.691a.177.177,0,0,1-.266,0,.514.514,0,0,1-.124-.39v-1.932a1.17,1.17,0,0,1,.124-.532.673.673,0,0,1,.266-.337Zm.3,16.643a1.277,1.277,0,0,1-.106.514.868.868,0,0,1-.266.355l-1.064.6a.16.16,0,0,1-.248,0,.567.567,0,0,1-.124-.408V253.428a1.17,1.17,0,0,1,.124-.532.833.833,0,0,1,.248-.354l1.063-.6a.2.2,0,0,1,.266,0,.6.6,0,0,1,.106.39Z" transform="translate(1.468 84.643)" fill="#fafafa"/>
        <path id="Path_1286" data-name="Path 1286" d="M230.374,258.3a1.417,1.417,0,0,1-.106.532.674.674,0,0,1-.266.337l-1.064.62a.177.177,0,0,1-.248,0,.567.567,0,0,1-.124-.408v-6.239a4.342,4.342,0,0,0-.39-2.145c-.248-.443-.638-.514-1.187-.195a2.907,2.907,0,0,0-1.152,1.542,7.445,7.445,0,0,0-.425,2.606v6.257a1.418,1.418,0,0,1-.106.532.638.638,0,0,1-.266.354l-1.046.6a.177.177,0,0,1-.266,0,.567.567,0,0,1-.106-.39V250.837a1.293,1.293,0,0,1,.106-.532.638.638,0,0,1,.266-.355l1.046-.6a.177.177,0,0,1,.266,0,.656.656,0,0,1,.106.408v.549a9.13,9.13,0,0,1,.851-1.542,3.332,3.332,0,0,1,1.152-1.081,1.932,1.932,0,0,1,1.4-.355,1.436,1.436,0,0,1,.922.727,4.5,4.5,0,0,1,.5,1.542,15.958,15.958,0,0,1,.142,2.127Z" transform="translate(3.407 84.771)" fill="#fafafa"/>
        <path id="Path_1287" data-name="Path 1287" d="M285.68,242.117l-17.211,9.926,2.676-24.141c-2.074-1.1-3.385-3.775-3.385-7.622,0-6.859,4.183-14.818,9.323-17.725s9.305.177,9.305,7.09a23.5,23.5,0,0,1-3.368,11.521Z" transform="translate(37.504 49.357)" fill="#455a64"/>
        <path id="Path_1288" data-name="Path 1288" d="M285.388,228.208l-15.155-8.738-2.074,18.682Z" transform="translate(37.813 63.265)" fill="#37474f"/>
        <path id="Path_1289" data-name="Path 1289" d="M276.461,202.536a20.3,20.3,0,0,0-7.941,10.546l13.878,8.012h0a23.5,23.5,0,0,0,3.368-11.521C285.8,202.713,281.636,199.576,276.461,202.536Z" transform="translate(38.092 49.323)" fill="#37474f"/>
        <path id="Path_1290" data-name="Path 1290" d="M250.025,157.647c-5.9-3.4-14.038-2.925-23.042,2.269C209.01,170.3,194.44,195.524,194.44,216.28c0,10.422,3.687,17.725,9.607,21.092l11.468,6.664c5.885,3.4,14.02,2.907,23.042-2.286,17.973-10.369,32.542-35.609,32.542-56.364,0-10.369-3.651-17.725-9.536-21.039" transform="translate(-19.133 13.831)" fill="#febf09"/>
        <path id="Path_1291" data-name="Path 1291" d="M233.5,163.686c-17.973,10.387-32.542,35.627-32.542,56.364s14.57,29.175,32.542,18.788,32.56-35.609,32.542-56.364S251.458,153.317,233.5,163.686Z" transform="translate(-14.096 16.743)" fill="#febf09"/>
        <path id="Path_1292" data-name="Path 1292" d="M245.108,192.941v2.375a52.341,52.341,0,0,1-17.955,18.824c-7,4.024-13.329,4.467-17.973,1.9v-4.892a31.9,31.9,0,0,1,14.641-25.364l4.732-2.73c4.183-2.411,8.26-2.73,11.45-.868S245.108,187.961,245.108,192.941Z" transform="translate(-7.747 33.536)" fill="#febf09"/>
        <path id="Path_1293" data-name="Path 1293" d="M247.962,157.644l11.521,6.7c-5.885-3.421-14.02-2.942-23.042,2.251-11.769,6.806-22.085,19.976-27.792,34.085L197.11,194c5.725-14.18,15.952-27.278,27.792-34.085C233.942,154.737,242.077,154.241,247.962,157.644Z" transform="translate(-17.07 13.833)" fill="#fff" opacity="0.4"/>
        <path id="Path_1294" data-name="Path 1294" d="M215.1,217.271l-11.042-6.4c-5.92-3.368-9.607-10.635-9.607-21.092l11.539,6.7C206.06,206.583,209.463,213.779,215.1,217.271Z" transform="translate(-19.125 40.331)" opacity="0.2"/>
        <path id="Path_1295" data-name="Path 1295" d="M199.169,177.21l11.539,6.682a60.458,60.458,0,0,0-4.679,22.28h0l-11.539-6.7a60.671,60.671,0,0,1,4.679-22.262Z" transform="translate(-19.094 30.621)" opacity="0.1"/>
        <path id="Path_1296" data-name="Path 1296" d="M219.857,192.641a6.186,6.186,0,0,1-3.137-.815,7.675,7.675,0,0,1-3.385-7.09,20.241,20.241,0,0,1,9.288-16.094h0a6.948,6.948,0,0,1,11.2,6.487,20.277,20.277,0,0,1-9.288,16.094,9.376,9.376,0,0,1-4.679,1.418Z" transform="translate(-4.563 22.829)" fill="#fff"/>
        <path id="Path_1297" data-name="Path 1297" d="M240,182.172c-3.19-1.861-7.267-1.542-11.45.869l-4.732,2.73a31.9,31.9,0,0,0-14.641,25.382v4.91c4.644,2.57,10.972,2.127,17.973-1.9a52.341,52.341,0,0,0,17.955-18.824v-2.375C245.108,187.968,243.264,184.051,240,182.172Z" transform="translate(-7.747 33.528)" fill="#fff"/>
      </g>
    </g>
    <g id="freepik--Plants--inject-64" transform="translate(755.589 542.17)">
      <g id="freepik--plants--inject-64-2" data-name="freepik--plants--inject-64">
        <path id="Path_1298" data-name="Path 1298" d="M432.15,382.533s2.357-20.7,12.655-36.779,24.442-26.091,37.647-27.136,23.875,11.113,9.749,19.5-39.225,16.856-50.781,48.052Z" transform="translate(-432.15 -318.554)" fill="#febf09"/>
        <path id="Path_1299" data-name="Path 1299" d="M432.15,382.533s2.357-20.7,12.655-36.779,24.442-26.091,37.647-27.136,23.875,11.113,9.749,19.5-39.225,16.856-50.781,48.052Z" transform="translate(-432.15 -318.554)" opacity="0.1"/>
        <path id="Path_1300" data-name="Path 1300" d="M434.594,374.421h-.142a.709.709,0,0,1-.39-.922c13.932-34.3,40.448-48.636,52.536-51.4a.709.709,0,0,1,.319,1.383c-11.84,2.73-37.842,16.8-51.543,50.568a.691.691,0,0,1-.78.372Z" transform="translate(-430.713 -315.831)" fill="#fff"/>
        <path id="Path_1301" data-name="Path 1301" d="M504.333,359.6c-1.188,2.694-4.13,4.112-6.859,5.211s-5.707,2.286-7.2,4.839c-2.978,5.14,1.914,12.407-1.276,17.388a9.288,9.288,0,0,1-6.31,3.651c-2.038.372-4.112.372-6.168.55a22.726,22.726,0,0,1-2.942-.23,13.418,13.418,0,0,0-8.526.9c-4.094,2.3-5.317,7.462-7.834,11.45a19.5,19.5,0,0,1-13.772,8.65c-1.772.23-5.317.567-7.09-.479a2.09,2.09,0,0,1-.39-.248h0c-.266-.284-.585-.656-.727-.851a.284.284,0,0,1,0-.124c-.727-2.676.461-5.441.514-8.206v-.5c-.124-3.208-.213-6.4-.284-9.589q-.23-8.862-.177-17.725c0-3.829-.425-8.012,1.205-11.61,1.772-3.97,6.239-4.059,7.923-7.941.674-1.56,1.028-3.208,1.684-4.786a13.7,13.7,0,0,1,11.663-8.136c7.781-.39,14.747,5.9,22.528,5.317,2-.16,3.97-.78,5.955-1.134,6.292-1.188,13.577.6,17.122,5.938A8.171,8.171,0,0,1,504.333,359.6Z" transform="translate(-429.943 -300.598)" fill="#febf09"/>
        <path id="Path_1302" data-name="Path 1302" d="M434.91,393.687h0a.674.674,0,0,1-.461-.815c10.741-40.306,53.174-46.084,63.153-45.411a.656.656,0,0,1,.62.709.673.673,0,0,1-.709.6c-9.731-.691-51.277,5-61.788,44.453a.674.674,0,0,1-.815.461Z" transform="translate(-430.39 -296.263)" fill="#fff"/>
        <path id="Path_1303" data-name="Path 1303" d="M474.411,366.419a.62.62,0,0,1-.354-.177,35.272,35.272,0,0,0-28.909-8.136.691.691,0,0,1-.744-.567.674.674,0,0,1,.549-.762,36.708,36.708,0,0,1,30.132,8.526.656.656,0,0,1,0,.939A.6.6,0,0,1,474.411,366.419Z" transform="translate(-422.69 -289.413)" fill="#fff"/>
      </g>
    </g>
    <g id="freepik--Clouds--inject-64" transform="translate(650.748 99.32)">
      <g id="freepik--clouds--inject-64-2" data-name="freepik--clouds--inject-64" transform="translate(0 0)">
        <path id="Path_1304" data-name="Path 1304" d="M380.3,88.726l5.636,2.162V78.481c0-9.855,7.852-12.212,16.378-7.285h0c8.543,4.927,15.456,16.892,15.456,26.746v1.772a8.242,8.242,0,0,1,7.09,1.1h0a24.566,24.566,0,0,1,11.113,19.267v.815l7.87,4.538a16.2,16.2,0,0,1,7.32,12.673c0,4.679-3.279,6.576-7.32,4.236L380.3,105.635A16.112,16.112,0,0,1,373,92.962C373,88.3,376.244,86.4,380.3,88.726Z" transform="translate(-373 -68.704)" fill="#e6e6e6"/>
        <path id="Path_1305" data-name="Path 1305" d="M421.711,76.891l10.227,5.9a11.465,11.465,0,0,1-.089-1.347v-2.96c0-5.317,3.687-7.409,8.26-4.768a15.953,15.953,0,0,1,4.927,4.732c.744-6.629,5.955-9.093,12.265-5.459a27.385,27.385,0,0,1,12.407,21.429v4.431a11.679,11.679,0,0,1-1.046,5.14l8.508,4.892a10.174,10.174,0,0,1,4.538,7.958c0,2.925-2.056,4.112-4.591,2.659L421.711,87.6a10.138,10.138,0,0,1-4.591-7.976C417.12,76.625,419.176,75.438,421.711,76.891Z" transform="translate(-338.919 -66.689)" fill="#e6e6e6"/>
      </g>
    </g>
    <g id="freepik--Character--inject-64" transform="translate(525.275 287.79)">
      <g id="freepik--character--inject-64-2" data-name="freepik--character--inject-64">
        <path id="Path_1306" data-name="Path 1306" d="M438.635,235.512C431.19,248.1,424.03,259.032,419,264.279c-9.554,4.431-31.993,11.273-40.767,12.407a6.469,6.469,0,0,1-4.4-1.028c-3.456-2.269-6.133-2.641-9.766-3.9-2.854-.975-4.059-2.34-4.591-1.772a3.244,3.244,0,0,0,.3,4.52,23.965,23.965,0,0,0,4.5,3.368,26.587,26.587,0,0,1-11.876.213c-7.6-2-11.184,1.648-6.044,9.908,1.772,2.942,9.075,7.675,23.751,6.4a132.917,132.917,0,0,0,15.615-1.772c14.073-3.013,29.724-5.92,39.349-8.862a24.814,24.814,0,0,0,9.359-6.487c16.183-18.451,21.553-31.6,28.643-43.549l-.6-19.5C450.989,213.834,444.856,224.983,438.635,235.512Z" transform="translate(-269.967 -144.773)" fill="#ffa8a7"/>
        <path id="Path_1307" data-name="Path 1307" d="M429.079,214.078a18.451,18.451,0,0,0-17.547,7.5c-7.87,10.085-21.8,34.3-21.8,34.3s4.555,12.141,16.856,14.18l19.763-26.693S435.708,224.82,429.079,214.078Z" transform="translate(-234.604 -145.017)" fill="#455a64"/>
        <rect id="Rectangle_19075" data-name="Rectangle 19075" width="12.886" height="22.971" transform="translate(224.323 341.206)" fill="#ffa8a7"/>
        <path id="Path_1308" data-name="Path 1308" d="M416.734,377.448l-12.868.461-.656-24.318,13.524-.461Z" transform="translate(-224.191 -37.465)" fill="#ffa8a7"/>
        <path id="Path_1309" data-name="Path 1309" d="M466.709,255.4c0,12.8-1.879,115.9-1.879,115.9.284,3.687,3.545,10.493,2.889,24.655-.975,19.231-2.269,69.782-2.269,69.782a16.378,16.378,0,0,1-14.339.284s-10.457-70.9-12.762-89.882c-2.021-16.643-7.2-71.732-7.2-71.732l-6.966,65.12a80.171,80.171,0,0,1,1.6,21.27c-.6,8.862-4.75,54.734-4.75,54.734a17.034,17.034,0,0,1-14.871,1.188s-7.338-69.126-7.48-77.244c-.177-9.217,4.289-114.182,4.289-114.182Z" transform="translate(-227.693 -113.043)" fill="#37474f"/>
        <path id="Path_1310" data-name="Path 1310" d="M437.648,377.639v-1.914c-1.241.549-4.094,11.929-9.217,16.785-4.059,3.864-9.589,8.313-11.007,12.62s7.71,6.948,11.521,6.257c4.4-.815,12.053-4.059,13.967-7.09s2.818-7.427,4.378-9.624,5.158-4.644,5.991-7.2a17.051,17.051,0,0,0-.727-7.09c-.6-2.375-1.241-4.981-2.021-4.75v1.453a10,10,0,0,1-6.452,2.269C442.2,379.518,437.631,379.128,437.648,377.639Z" transform="translate(-213.325 -20.091)" fill="#263238"/>
        <path id="Path_1311" data-name="Path 1311" d="M416.852,365.175c-.674,0-1.223,1.01-2.694,2.676a28.356,28.356,0,0,1-7.568,5.672c-4.821,2.517-14.18,6.381-18.451,8.384-2.659,1.241-2.535,4.573.213,6.469s9.359,3.261,17.3,1.418c4.325-1.01,9.961-5.176,13.542-4.945s10.227.16,12.868-1.772,1.578-5.938.833-9.394c-.815-3.793-1.772-9.7-3.031-9.43v1.329c-1.542,2.446-9.536,3.439-12.939,1.648Z" transform="translate(-237.319 -28.879)" fill="#263238"/>
        <path id="Path_1312" data-name="Path 1312" d="M424.817,287.673A47.361,47.361,0,0,1,406.88,276.95S410.425,283.7,420.634,290l-2.2,58.155Z" transform="translate(-221.356 -96.312)" fill="#263238"/>
        <path id="Path_1313" data-name="Path 1313" d="M458.36,215.894s10.635,2.446,9.873,21.66l-2.216,30.575v45.907c-9.465,10.741-51.4,9.961-65.847-.851,0,0,1.631-54.326,2.606-75.241.691-14.853,4.112-22.333,18.717-23.964l17.955.78Z" transform="translate(-226.539 -144.954)" fill="#febf09"/>
        <path id="Path_1314" data-name="Path 1314" d="M442.441,201.246A19.5,19.5,0,0,1,423.262,221.2c-10.635,0-16.874-9.181-19.178-19.958-4.254-19.728,8.579-19.976,19.178-19.976a19.586,19.586,0,0,1,19.178,19.976Z" transform="translate(-224.161 -170.221)" fill="#263238"/>
        <path id="Path_1315" data-name="Path 1315" d="M434.225,197.09s-2.942,14.392-4.13,16.768a6.257,6.257,0,0,1-3.545,3.031l.213-10.121Z" transform="translate(-206.162 -158.001)" fill="#263238"/>
        <path id="Path_1316" data-name="Path 1316" d="M429.593,185.473s2.109-.532,4.36,2.978c1.914,3,2.357,9.731-.656,17.725l-5.548.674Z" transform="translate(-205.235 -166.997)" fill="#263238"/>
        <path id="Path_1317" data-name="Path 1317" d="M429.94,188.6l6.806.124a3.208,3.208,0,0,0-3.1-3.545,3.775,3.775,0,0,0-3.7,3.421Z" transform="translate(-203.543 -167.201)" fill="#263238"/>
        <path id="Path_1318" data-name="Path 1318" d="M430.782,188.808l5.034-4.839a3.244,3.244,0,0,0-4.768-.195A3.722,3.722,0,0,0,430.782,188.808Z" transform="translate(-203.552 -169.021)" fill="#263238"/>
        <path id="Path_1319" data-name="Path 1319" d="M444.031,210.609c1.117.691,2.694-1.524,4.077-3.031s5.672-2.889,7.905,2-1.578,9.731-4.768,11.326c-5.725,2.836-7.533-1.294-7.533-1.294l-.479,22.794c-8.047,12.407-26.3,12.017-19.728-.6v-6.93a36.407,36.407,0,0,1-8.189.425c-4.467-.709-7.267-4.378-8.632-9.412-2.162-8.082-3-14.605-1.152-30.5,2.021-17.406,21.482-17.6,31.9-10.635S444.031,210.609,444.031,210.609Z" transform="translate(-223.182 -170.846)" fill="#ffa8a7"/>
        <path id="Path_1320" data-name="Path 1320" d="M422.26,196.862c4.644-.461,9.235-1.418,13.9-1.772a9.04,9.04,0,0,1,3.013.142c3.545.975,3.12,5.122,3.687,8.012.975,5,1.772,13.453,3.651,13.488.567,0,2.694-3.669,4.077-4.981a7.321,7.321,0,0,0,1.241-3.811c.354-2.056.532-4.165.691-6.257.142-1.772.319-3.545.319-5.317a24.957,24.957,0,0,0-.479-5.973,10.44,10.44,0,0,0-2.482-4.467l-.354-.39a23.52,23.52,0,0,0-8.313-5.6,50.213,50.213,0,0,0-14.073-3.066A138.24,138.24,0,0,1,412.8,175.1a1.489,1.489,0,0,0-.833,0,1.312,1.312,0,0,0-.674,1.064,5.92,5.92,0,0,0,2.393,5.849c-3.208.248-6.895-1.418-9.979-2.269a2.02,2.02,0,0,0-1.578,0,1.559,1.559,0,0,0-.62.9,5.636,5.636,0,0,0-.089,2.552,14.676,14.676,0,0,0,2.765,7.09,17.3,17.3,0,0,0,9.571,6.257A27.935,27.935,0,0,0,422.26,196.862Z" transform="translate(-225.658 -175.036)" fill="#263238"/>
        <path id="Path_1321" data-name="Path 1321" d="M415.24,215.076s9.961-2.091,13.435-4.023a11.734,11.734,0,0,0,4.821-4.963,16.572,16.572,0,0,1-2.747,5.849c-2.535,3.4-15.509,5.885-15.509,5.885Z" transform="translate(-214.898 -151.049)" fill="#f28f8f"/>
        <path id="Path_1322" data-name="Path 1322" d="M416.591,196.947a2.074,2.074,0,0,0,1.985,2.145,2.162,2.162,0,1,0-1.985-2.145Z" transform="translate(-213.856 -159.79)" fill="#263238"/>
        <path id="Path_1323" data-name="Path 1323" d="M418.39,191.752l4.272,2.464a2.712,2.712,0,0,0-.993-3.545,2.34,2.34,0,0,0-3.279,1.081Z" transform="translate(-212.465 -163.191)" fill="#263238"/>
        <path id="Path_1324" data-name="Path 1324" d="M417.725,204.11l-4.555,1.772a2.375,2.375,0,0,0,3.1,1.56A2.659,2.659,0,0,0,417.725,204.11Z" transform="translate(-216.497 -152.578)" fill="#f28f8f"/>
        <path id="Path_1325" data-name="Path 1325" d="M406.455,194l3.9-3.12a2.3,2.3,0,0,0-3.385-.549,2.783,2.783,0,0,0-.514,3.669Z" transform="translate(-222.047 -163.615)" fill="#263238"/>
        <path id="Path_1326" data-name="Path 1326" d="M407.221,196.612a2,2,0,1,0,2-2.162,2.074,2.074,0,0,0-2,2.162Z" transform="translate(-221.094 -160.04)" fill="#263238"/>
        <path id="Path_1327" data-name="Path 1327" d="M416.471,194.73l-.23,12.6L409.08,205.7Z" transform="translate(-219.657 -159.824)" fill="#f28f8f"/>
        <path id="Path_1328" data-name="Path 1328" d="M317.31,259.4l11.113-6.416,4.4-5.335-11.1,6.416L317.31,259.4" transform="translate(-290.546 -118.945)" fill="#febf09"/>
        <path id="Path_1329" data-name="Path 1329" d="M317.31,259.4l11.113-6.416,4.4-5.335-11.1,6.416L317.31,259.4" transform="translate(-290.546 -118.945)" opacity="0.4"/>
        <path id="Path_1330" data-name="Path 1330" d="M334.36,270.493l11.113-6.416,9.27-8.207-11.1,6.4-9.288,8.224" transform="translate(-277.375 -112.595)" fill="#febf09"/>
        <path id="Path_1331" data-name="Path 1331" d="M334.36,270.493l11.113-6.416,9.27-8.207-11.1,6.4-9.288,8.224" transform="translate(-277.375 -112.595)" opacity="0.4"/>
        <path id="Path_1332" data-name="Path 1332" d="M453.558,318.794a23.557,23.557,0,0,1,4.591,12.088A23.8,23.8,0,0,1,453.558,318.794Zm25.825.337c-3.74-25.435-17.406-50.586-33.677-60-7.817-4.52-15.048-4.679-20.844-1.294L414.4,263.866l-.585.354a13.255,13.255,0,0,0-1.347.851,18.142,18.142,0,0,0-2.411,1.985l-.354.337c-.319.319-.656.691-.957,1.046s-.762.9-1.117,1.383a26.288,26.288,0,0,0-2.038,3.12,18.375,18.375,0,0,0-.9,1.772L313.356,222l-11.1,6.4v7.09l.939.532.886.514v1.418L302.313,239v4.112l13.418,28.359,13.258,7.675,4.413-5.317,11.7,7,6.718,11.5,7.409,4.272,9.27-8.224,11.379,6.576,3.829,15.793,19.125,11.06a104.033,104.033,0,0,0,3.545,11.858c.124.39.284.8.443,1.241,6.345,16.661,16.431,30.93,27.81,37.505a28.52,28.52,0,0,0,4.272,2.074,22.281,22.281,0,0,0,2.393.8q1.063.284,2.127.479a18.879,18.879,0,0,0,6.771,0l.922-.23a8.3,8.3,0,0,0,1.294-.372l.993-.39a5.824,5.824,0,0,0,1.01-.478,9.626,9.626,0,0,0,.957-.479l.461-.284a.745.745,0,0,0,.23-.124c2.535-1.453,8.774-5.069,10.475-6.026,8.437-4.892,13.9-17.264,13.9-34.758a91.233,91.233,0,0,0-1.046-13.489Z" transform="translate(-302.171 -138.759)" fill="#febf09"/>
        <path id="Path_1333" data-name="Path 1333" d="M450.322,337.47c-4.4-2.535-7.941-10.05-7.941-16.785s3.545-10.156,7.941-7.639,7.923,10.05,7.923,16.8S454.7,340,450.322,337.47Zm17.955-14.729c-3.722-25.417-17.388-50.586-33.677-59.98-7.551-4.36-14.534-4.679-20.206-1.684l-.585.354a13.264,13.264,0,0,0-1.347.851,18.147,18.147,0,0,0-2.411,1.985l-.354.337c-.319.319-.656.691-.957,1.046s-.762.9-1.117,1.383a26.277,26.277,0,0,0-2.038,3.12,18.4,18.4,0,0,0-.9,1.772,43.128,43.128,0,0,0-3.545,10.794L302.25,225.61v7.09l.939.532.886.514v1.418l-1.772,1.046v4.112l13.418,28.359,13.258,7.675,4.413-5.317,11.7,7,6.718,11.5,7.409,4.272,9.27-8.224,11.379,6.576,3.829,15.793,19.143,11.06a104.033,104.033,0,0,0,3.545,11.858c.124.39.284.8.443,1.241,6.345,16.661,16.431,30.93,27.81,37.505a28.52,28.52,0,0,0,4.272,2.074,22.281,22.281,0,0,0,2.393.8q1.063.284,2.127.479a18.879,18.879,0,0,0,6.771,0l.922-.23a8.3,8.3,0,0,0,1.294-.372l.993-.39a5.824,5.824,0,0,0,1.01-.478,9.626,9.626,0,0,0,.957-.479l.461-.284a.745.745,0,0,0,.23-.124c8.083-5.1,13.276-17.3,13.276-34.368A94.177,94.177,0,0,0,468.277,322.741Z" transform="translate(-302.179 -135.97)" fill="#febf09"/>
        <path id="Path_1334" data-name="Path 1334" d="M397.174,292.09c0,6.753-3.545,10.174-7.923,7.639s-7.941-10.032-7.941-16.785,3.545-10.174,7.941-7.639a11.31,11.31,0,0,1,3.244,2.978,23.715,23.715,0,0,0,4.591,12.088,14,14,0,0,1,.089,1.719Z" transform="translate(-241.108 -98.229)" opacity="0.4"/>
        <path id="Path_1335" data-name="Path 1335" d="M431.527,318c0,17.494-5.459,29.866-13.9,34.758-1.772.957-7.941,4.573-10.475,6.026,8.082-5.1,13.276-17.3,13.276-34.368a94.176,94.176,0,0,0-1.028-13.488c-3.722-25.417-17.388-50.586-33.677-59.98-7.551-4.36-14.534-4.679-20.206-1.684l10.458-6.026c5.8-3.385,13.028-3.226,20.844,1.294,16.289,9.412,29.955,34.563,33.677,60A91.225,91.225,0,0,1,431.527,318Z" transform="translate(-253.305 -124.16)" fill="#fff" opacity="0.4"/>
        <path id="Path_1336" data-name="Path 1336" d="M402.286,291.646c0,17.069-5.193,29.263-13.276,34.368,2.535-1.453,8.774-5.069,10.475-6.026,8.437-4.892,13.9-17.264,13.9-34.758v-1.95l-11.1,6.416C402.268,290.388,402.286,291.026,402.286,291.646Z" transform="translate(-235.16 -91.422)" fill="#febf09"/>
        <path id="Path_1337" data-name="Path 1337" d="M402.286,291.646c0,17.069-5.193,29.263-13.276,34.368,2.535-1.453,8.774-5.069,10.475-6.026,8.437-4.892,13.9-17.264,13.9-34.758v-1.95l-11.1,6.416C402.268,290.388,402.286,291.026,402.286,291.646Z" transform="translate(-235.16 -91.422)" opacity="0.1"/>
        <path id="Path_1338" data-name="Path 1338" d="M401.553,286.446v3.6L302.26,232.722l1.826-1.063V230.17Z" transform="translate(-302.171 -132.448)" opacity="0.15"/>
        <path id="Path_1339" data-name="Path 1339" d="M401.553,287.293V289.4L302.26,232.081l1.826-1.063V231Z" transform="translate(-302.171 -131.807)" opacity="0.15"/>
        <path id="Path_1340" data-name="Path 1340" d="M400.067,346.224a21.268,21.268,0,0,1-10.635-3.173c-16.183-9.341-29.352-37.133-29.352-61.948,0-14.481,4.378-25.293,12.017-29.707,5.317-3.084,11.61-2.694,18.221,1.117,16.165,9.341,29.334,37.222,29.334,62.036,0,14.463-4.378,25.293-12.017,29.689a15.084,15.084,0,0,1-7.568,1.985Zm-20.295-95.093a13.4,13.4,0,0,0-6.735,1.772c-6.966,4.023-11.131,14.57-11.131,28.182,0,24.247,12.762,51.4,28.466,60.406,6.009,3.545,11.7,3.864,16.431,1.134,6.966-4.023,11.131-14.552,11.131-28.164,0-24.265-12.762-51.4-28.448-60.423a19.5,19.5,0,0,0-9.713-2.836Z" transform="translate(-257.507 -117.64)" opacity="0.15"/>
        <path id="Path_1341" data-name="Path 1341" d="M404.641,274.693a43.127,43.127,0,0,0-3.545,10.794L302.21,228.379l11.1-6.4Z" transform="translate(-302.21 -138.774)" fill="#fff" opacity="0.4"/>
        <path id="Path_1342" data-name="Path 1342" d="M467.352,284.938c5.176-9.8,11.1-31.816,14.038-42.929,4.183-15.775-2.588-25.7-10.28-26.108-4.8.744-20.632,58.3-20.632,58.3-1.772,1.4-25.825,13.613-33.553,16.679a6.062,6.062,0,0,1-4.289,0c-3.7-1.347-6.239-1.1-9.873-1.453-2.854-.284-4.289-1.294-4.662-.691a3.261,3.261,0,0,0,1.4,4.2,23.294,23.294,0,0,0,4.963,2.162,30.292,30.292,0,0,1-9.589,1.294c-7.444-.159-10.121,3.066-4.343,10.635,3.545,4.715,9.412,6.2,22.51,1.684,3.758-1.312,8.862-3.846,13.63-5.566,9.819-3.545,12.407-3.97,19.887-6.5C457.462,292.949,465.048,289.3,467.352,284.938Z" transform="translate(-236.4 -143.471)" fill="#ffa8a7"/>
        <path id="Path_1343" data-name="Path 1343" d="M439.983,215.06c4.52.62,8.862,1.631,11.539,5.317s4.821,8.862,2.2,22.953a220.31,220.31,0,0,1-8.047,29.21s-10.528,4.5-21.713-6.913l7.693-29.742S432.893,216.549,439.983,215.06Z" transform="translate(-208.162 -144.12)" fill="#455a64"/>
      </g>
    </g>
  </g>
</svg>
