<svg xmlns="http://www.w3.org/2000/svg" xmlns:xlink="http://www.w3.org/1999/xlink" width="401.506" height="139.383" viewBox="0 0 401.506 139.383">
  <defs>
    <linearGradient id="linear-gradient" y1="0.5" x2="1" y2="0.5" gradientUnits="objectBoundingBox">
      <stop offset="0.02" stop-color="#f6c80e"/>
      <stop offset="1" stop-color="#f5811a"/>
    </linearGradient>
    <linearGradient id="linear-gradient-2" y1="0.5" x2="1" y2="0.5" xlink:href="#linear-gradient"/>
    <linearGradient id="linear-gradient-6" y1="0.499" x2="1" y2="0.499" xlink:href="#linear-gradient"/>
    <linearGradient id="linear-gradient-12" y1="0.5" x2="1" y2="0.5" xlink:href="#linear-gradient"/>
    <linearGradient id="linear-gradient-13" x1="-0.001" y1="0.5" x2="1" y2="0.5" xlink:href="#linear-gradient"/>
    <linearGradient id="linear-gradient-14" y1="0.501" x2="1" y2="0.501" xlink:href="#linear-gradient"/>
    <linearGradient id="linear-gradient-15" x1="-0.001" y1="0.501" x2="1" y2="0.501" xlink:href="#linear-gradient"/>
    <linearGradient id="linear-gradient-16" x1="-0.001" y1="0.501" x2="0.999" y2="0.501" xlink:href="#linear-gradient"/>
    <linearGradient id="linear-gradient-17" x1="0.002" y1="0.499" x2="1.001" y2="0.499" xlink:href="#linear-gradient"/>
    <linearGradient id="linear-gradient-18" x1="0.002" y1="0.5" x2="1.001" y2="0.5" xlink:href="#linear-gradient"/>
    <linearGradient id="linear-gradient-19" x1="0.001" y1="0.499" x2="1.002" y2="0.499" xlink:href="#linear-gradient"/>
    <linearGradient id="linear-gradient-20" x1="0.003" y1="0.499" x2="1.002" y2="0.499" xlink:href="#linear-gradient"/>
  </defs>
  <g id="Layer_1-2" transform="translate(542.944)">
    <g id="Group_1" data-name="Group 1" transform="translate(-542.944 43)">
      <path id="Path_1" data-name="Path 1" d="M247.13,107.316v9.357a1.331,1.331,0,0,1-.114.544,1.451,1.451,0,0,1-.3.443,1.532,1.532,0,0,1-.443.3,1.331,1.331,0,0,1-.544.114h-8.1a6.292,6.292,0,0,1-2.548-.455,4.6,4.6,0,0,1-1.656-1.182,4.384,4.384,0,0,1-.9-1.65,6.714,6.714,0,0,1-.266-1.865,8.531,8.531,0,0,1,.272-2.143,9.277,9.277,0,0,1,.3-.948,8.035,8.035,0,0,1,.354-.8l2.491,1.3a6.172,6.172,0,0,0-.613,2.636,3.614,3.614,0,0,0,.1.885,1.63,1.63,0,0,0,.367.721,1.933,1.933,0,0,0,.746.5,3.467,3.467,0,0,0,1.226.2l6.828-.013v-7.941h2.807Zm-10.52-2.4a1.448,1.448,0,0,1,.12-.594,1.424,1.424,0,0,1,.322-.487,1.565,1.565,0,0,1,.48-.322,1.526,1.526,0,0,1,.588-.12,1.448,1.448,0,0,1,.594.12,1.425,1.425,0,0,1,.487.322,1.558,1.558,0,0,1,.322.487,1.584,1.584,0,0,1,.12.594,1.419,1.419,0,0,1-.12.588,1.462,1.462,0,0,1-.322.48,1.557,1.557,0,0,1-.487.322,1.583,1.583,0,0,1-.594.12,1.418,1.418,0,0,1-.588-.12,1.461,1.461,0,0,1-.48-.322,1.566,1.566,0,0,1-.322-.48A1.527,1.527,0,0,1,236.61,104.914Zm3.509,0a1.447,1.447,0,0,1,.12-.594,1.423,1.423,0,0,1,.322-.487,1.566,1.566,0,0,1,.48-.322,1.527,1.527,0,0,1,.588-.12,1.448,1.448,0,0,1,.594.12,1.424,1.424,0,0,1,.487.322,1.522,1.522,0,0,1,.322.487,1.584,1.584,0,0,1,.12.594,1.419,1.419,0,0,1-.12.588,1.462,1.462,0,0,1-.322.48,1.522,1.522,0,0,1-.487.322,1.583,1.583,0,0,1-.594.12,1.418,1.418,0,0,1-.588-.12,1.461,1.461,0,0,1-.48-.322,1.565,1.565,0,0,1-.322-.48A1.526,1.526,0,0,1,240.118,104.914Z" transform="translate(-231.982 -98.965)" fill="#001b47"/>
      <path id="Path_2" data-name="Path 2" d="M263.2,117.379H260.39v-15.8H263.2Z" transform="translate(-242.328 -98.299)" fill="#001b47"/>
      <path id="Path_3" data-name="Path 3" d="M275.315,116.681c0,.714-.025,1.441-.07,2.181a16.355,16.355,0,0,1-.3,2.206,12.548,12.548,0,0,1-.8,2.554,6.8,6.8,0,0,1-1.41,2.074,6.284,6.284,0,0,1-2.143,1.391,8.171,8.171,0,0,1-3.022.506v-2.82a5.07,5.07,0,0,0,1.935-.335,3.731,3.731,0,0,0,1.347-.923,4.687,4.687,0,0,0,.872-1.385,8.425,8.425,0,0,0,.493-1.7,14.984,14.984,0,0,0,.215-1.9c.038-.658.051-1.315.051-1.96,0-.872-.019-1.726-.051-2.56s-.051-1.587-.051-2.263h2.807c0,.7.019,1.467.063,2.3s.063,1.707.063,2.63Z" transform="translate(-244.969 -102.039)" fill="#001b47"/>
      <path id="Path_4" data-name="Path 4" d="M288.305,117.4h-3.983a1.331,1.331,0,0,1-.544-.114,1.594,1.594,0,0,1-.455-.3,1.437,1.437,0,0,1-.31-.443A1.331,1.331,0,0,1,282.9,116a.432.432,0,0,1,.013-.133V101.57h2.807v13.011H288.3v2.82Z" transform="translate(-250.607 -98.295)" fill="#001b47"/>
      <path id="Path_5" data-name="Path 5" d="M291.026,117.47v-2.82h2.516a5.612,5.612,0,0,1-.468-1.328,6.783,6.783,0,0,1-.152-1.435,6.554,6.554,0,0,1,.335-2.067,5.461,5.461,0,0,1,.986-1.8,4.879,4.879,0,0,1,1.625-1.264,5.025,5.025,0,0,1,2.238-.48h3.445a1.776,1.776,0,0,1,1.264.537,1.717,1.717,0,0,1,.379.582,1.876,1.876,0,0,1,.139.7v6.55h1.979v2.82H291.02Zm4.274-14.187a1.447,1.447,0,0,1,.12-.594,1.424,1.424,0,0,1,.322-.487,1.6,1.6,0,0,1,.48-.322,1.527,1.527,0,0,1,.588-.12,1.448,1.448,0,0,1,.594.12,1.425,1.425,0,0,1,.487.322,1.523,1.523,0,0,1,.322.487,1.583,1.583,0,0,1,.12.594,1.419,1.419,0,0,1-.12.588,1.462,1.462,0,0,1-.322.48,1.557,1.557,0,0,1-.487.322,1.583,1.583,0,0,1-.594.12,1.418,1.418,0,0,1-.588-.12,1.461,1.461,0,0,1-.48-.322,1.6,1.6,0,0,1-.322-.48A1.527,1.527,0,0,1,295.3,103.284Zm.651,9.837a2.494,2.494,0,0,0,.771,1.094,2.141,2.141,0,0,0,1.391.436h2.421v-5.557h-2.421a2.233,2.233,0,0,0-1.062.24,2.2,2.2,0,0,0-.74.645,2.822,2.822,0,0,0-.436.9,3.691,3.691,0,0,0-.145,1.012,4.024,4.024,0,0,0,.051.62,3.324,3.324,0,0,0,.171.607Zm2.858-9.837a1.447,1.447,0,0,1,.12-.594,1.424,1.424,0,0,1,.322-.487,1.6,1.6,0,0,1,.48-.322,1.527,1.527,0,0,1,.588-.12,1.448,1.448,0,0,1,.594.12,1.425,1.425,0,0,1,.487.322,1.557,1.557,0,0,1,.322.487,1.583,1.583,0,0,1,.12.594,1.418,1.418,0,0,1-.12.588,1.46,1.46,0,0,1-.322.48,1.557,1.557,0,0,1-.487.322,1.583,1.583,0,0,1-.594.12,1.418,1.418,0,0,1-.588-.12,1.461,1.461,0,0,1-.48-.322,1.6,1.6,0,0,1-.322-.48A1.526,1.526,0,0,1,298.809,103.284Z" transform="translate(-253.593 -98.365)" fill="#001b47"/>
      <path id="Path_6" data-name="Path 6" d="M313.12,117.287h3.749l-1.517-2.333a4.789,4.789,0,0,1-.556-1.17,3.8,3.8,0,0,1-.177-1.132,3.438,3.438,0,0,1,.3-1.391,3.72,3.72,0,0,1,.847-1.195,4.335,4.335,0,0,1,1.321-.841,4.591,4.591,0,0,1,1.745-.316h2.908a4.8,4.8,0,0,1,1.631.278,4.08,4.08,0,0,1,1.34.778,3.625,3.625,0,0,1,.91,1.2,3.5,3.5,0,0,1,.335,1.53,4.079,4.079,0,0,1-.746,2.251l-1.5,2.333h3.717v2.82H313.126v-2.82Zm7.093,0h.133l2.516-3.863a1.479,1.479,0,0,0,.272-.771.631.631,0,0,0-.126-.4,1.056,1.056,0,0,0-.329-.291,1.663,1.663,0,0,0-.449-.177,2.242,2.242,0,0,0-.5-.057h-2.908a2.022,2.022,0,0,0-.525.07,1.929,1.929,0,0,0-.449.2,1,1,0,0,0-.31.3.644.644,0,0,0-.114.367,1.457,1.457,0,0,0,.259.771l2.516,3.863Z" transform="translate(-261.722 -100.995)" fill="#001b47"/>
      <path id="Path_7" data-name="Path 7" d="M335.316,117.4v-2.82h2.592V101.57h2.8v13.011h2.4v2.82h-7.8Z" transform="translate(-269.883 -98.295)" fill="#001b47"/>
      <path id="Path_8" data-name="Path 8" d="M347.256,114.591h2.516V101.58h2.8v14.294a.724.724,0,0,1,.013.133,1.331,1.331,0,0,1-.114.544,1.363,1.363,0,0,1-.31.443,1.652,1.652,0,0,1-.449.3,1.331,1.331,0,0,1-.544.114h-3.92v-2.82Z" transform="translate(-274.274 -98.299)" fill="#001b47"/>
      <path id="Path_9" data-name="Path 9" d="M374.654,114.657a5.612,5.612,0,0,1-.468-1.328,6.785,6.785,0,0,1-.152-1.435,6.554,6.554,0,0,1,.335-2.067,5.462,5.462,0,0,1,.986-1.8,4.88,4.88,0,0,1,1.625-1.264,5.025,5.025,0,0,1,2.238-.48h3.446a1.735,1.735,0,0,1,.7.145,1.793,1.793,0,0,1,.569.392,1.716,1.716,0,0,1,.379.582,1.76,1.76,0,0,1,.139.7l.013,7.966a1.331,1.331,0,0,1-.114.544,1.45,1.45,0,0,1-.3.443,1.48,1.48,0,0,1-.449.3,1.33,1.33,0,0,1-.544.114h-10.2a6.292,6.292,0,0,1-2.516-.443,4.643,4.643,0,0,1-1.663-1.163,4.368,4.368,0,0,1-.923-1.644,6.372,6.372,0,0,1-.285-1.89,7.884,7.884,0,0,1,.076-1.094,9.057,9.057,0,0,1,.209-1.049,9.241,9.241,0,0,1,.3-.948,8.049,8.049,0,0,1,.354-.8l2.491,1.3a6.172,6.172,0,0,0-.613,2.636,3.583,3.583,0,0,0,.1.872,1.749,1.749,0,0,0,.36.727,1.85,1.85,0,0,0,.74.506,3.517,3.517,0,0,0,1.239.2.575.575,0,0,1,.133-.013h1.8Zm1.536-11.373a1.447,1.447,0,0,1,.12-.594,1.424,1.424,0,0,1,.322-.487,1.6,1.6,0,0,1,.481-.322,1.526,1.526,0,0,1,.588-.12,1.448,1.448,0,0,1,.594.12,1.424,1.424,0,0,1,.487.322,1.557,1.557,0,0,1,.322.487,1.583,1.583,0,0,1,.12.594,1.419,1.419,0,0,1-.12.588,1.461,1.461,0,0,1-.322.48,1.557,1.557,0,0,1-.487.322,1.583,1.583,0,0,1-.594.12,1.418,1.418,0,0,1-.588-.12,1.462,1.462,0,0,1-.481-.322,1.6,1.6,0,0,1-.322-.48A1.418,1.418,0,0,1,376.191,103.284Zm.879,9.837a2.493,2.493,0,0,0,.771,1.094,2.141,2.141,0,0,0,1.391.436h2.421v-5.557h-2.421a2.232,2.232,0,0,0-1.062.24,2.2,2.2,0,0,0-.74.645,2.757,2.757,0,0,0-.436.9,3.692,3.692,0,0,0-.145,1.012,4.036,4.036,0,0,0,.051.62,2.889,2.889,0,0,0,.171.607Zm2.63-9.837a1.447,1.447,0,0,1,.12-.594,1.424,1.424,0,0,1,.322-.487,1.6,1.6,0,0,1,.48-.322,1.527,1.527,0,0,1,.588-.12,1.448,1.448,0,0,1,.594.12,1.425,1.425,0,0,1,.487.322,1.557,1.557,0,0,1,.322.487,1.584,1.584,0,0,1,.12.594,1.419,1.419,0,0,1-.12.588,1.566,1.566,0,0,1-.322.48,1.522,1.522,0,0,1-.487.322,1.583,1.583,0,0,1-.594.12,1.418,1.418,0,0,1-.588-.12,1.46,1.46,0,0,1-.48-.322,1.6,1.6,0,0,1-.322-.48A1.527,1.527,0,0,1,379.7,103.284Z" transform="translate(-281.707 -98.365)" fill="#001b47"/>
      <path id="Path_10" data-name="Path 10" d="M403.2,111.75c0,.7.025,1.467.063,2.3s.063,1.707.063,2.63q0,.825-.038,1.65h1.941v2.82h-2.295a12.73,12.73,0,0,1-.816,2.529,6.86,6.86,0,0,1-1.4,2.048,6.219,6.219,0,0,1-2.131,1.372,8.1,8.1,0,0,1-3,.5v-2.82a5.071,5.071,0,0,0,1.935-.335,3.732,3.732,0,0,0,1.347-.923,4.687,4.687,0,0,0,.872-1.385,8.854,8.854,0,0,0,.493-1.7,14.989,14.989,0,0,0,.215-1.9c.032-.658.051-1.315.051-1.96,0-.872-.019-1.726-.051-2.56s-.051-1.587-.051-2.263h2.8Z" transform="translate(-292.05 -102.039)" fill="#001b47"/>
      <path id="Path_11" data-name="Path 11" d="M420.944,115.5v-.955a1.408,1.408,0,0,1-.506.689,1.369,1.369,0,0,1-.835.266h-4.4v-.955a1.413,1.413,0,0,1-1.34.955H410.31v-2.82h2.137v-7.941h2.82v7.941H418.2v-7.941H421v7.941h2.946v-7.941h2.807v7.941h2.124v2.82h-7.941Zm-4.95-14.187a1.448,1.448,0,0,1,.12-.594,1.424,1.424,0,0,1,.322-.487,1.6,1.6,0,0,1,.48-.322,1.527,1.527,0,0,1,.588-.12,1.448,1.448,0,0,1,.594.12,1.425,1.425,0,0,1,.487.322,1.558,1.558,0,0,1,.323.487,1.583,1.583,0,0,1,.12.594,1.419,1.419,0,0,1-.12.588,1.462,1.462,0,0,1-.323.48,1.557,1.557,0,0,1-.487.322,1.583,1.583,0,0,1-.594.12,1.418,1.418,0,0,1-.588-.12,1.461,1.461,0,0,1-.48-.322,1.6,1.6,0,0,1-.322-.48A1.419,1.419,0,0,1,415.994,101.309Zm2.105-3.395a1.447,1.447,0,0,1,.12-.594,1.424,1.424,0,0,1,.322-.487,1.6,1.6,0,0,1,.48-.322,1.527,1.527,0,0,1,.588-.12,1.448,1.448,0,0,1,.594.12,1.424,1.424,0,0,1,.487.322,1.558,1.558,0,0,1,.322.487,1.584,1.584,0,0,1,.12.594,1.419,1.419,0,0,1-.12.588,1.482,1.482,0,0,1-.809.8,1.583,1.583,0,0,1-.594.12,1.418,1.418,0,0,1-.588-.12,1.461,1.461,0,0,1-.48-.322,1.6,1.6,0,0,1-.322-.48A1.527,1.527,0,0,1,418.1,97.914Zm2.1,3.395a1.446,1.446,0,0,1,.12-.594,1.423,1.423,0,0,1,.322-.487,1.565,1.565,0,0,1,.48-.322,1.527,1.527,0,0,1,.588-.12,1.448,1.448,0,0,1,.594.12,1.424,1.424,0,0,1,.487.322,1.557,1.557,0,0,1,.322.487,1.583,1.583,0,0,1,.12.594,1.418,1.418,0,0,1-.12.588,1.461,1.461,0,0,1-.322.48,1.522,1.522,0,0,1-.487.322,1.583,1.583,0,0,1-.594.12,1.418,1.418,0,0,1-.588-.12,1.461,1.461,0,0,1-.48-.322,1.6,1.6,0,0,1-.322-.48A1.527,1.527,0,0,1,420.2,101.309Z" transform="translate(-297.467 -96.39)" fill="#001b47"/>
      <path id="Path_12" data-name="Path 12" d="M439.336,114.591h2.516V101.58h2.8v14.294a.73.73,0,0,1,.013.133,1.332,1.332,0,0,1-.114.544,1.365,1.365,0,0,1-.31.443,1.652,1.652,0,0,1-.449.3,1.331,1.331,0,0,1-.544.114h-3.92v-2.82Z" transform="translate(-308.141 -98.299)" fill="#001b47"/>
      <path id="Path_13" data-name="Path 13" d="M455.371,117.379h-2.8v-15.8h2.8Z" transform="translate(-313.01 -98.299)" fill="#001b47"/>
      <path id="Path_14" data-name="Path 14" d="M483.108,117.47h-3.642a1.36,1.36,0,0,1-.588-.126,1.286,1.286,0,0,1-.442-.329,1.511,1.511,0,0,1-.285-.48,1.643,1.643,0,0,1-.1-.588l-.025-6.853-2.478-.013a2.3,2.3,0,0,0-.948.2,2.436,2.436,0,0,0-.784.537,2.711,2.711,0,0,0-.531.79,2.338,2.338,0,0,0-.2.948l.013,3.028c.4.076.809.133,1.22.171s.828.051,1.245.051c.36,0,.721-.013,1.087-.038l.221,2.807q-.341.028-.664.038c-.215.006-.436.013-.664.013a17.389,17.389,0,0,1-2.137-.133,12.791,12.791,0,0,1-2.017-.4,1.387,1.387,0,0,1-.8-.487,1.36,1.36,0,0,1-.316-.891v-4.154a5.177,5.177,0,0,1,.411-2.048,5.314,5.314,0,0,1,1.125-1.675,5.374,5.374,0,0,1,1.669-1.132,5.081,5.081,0,0,1,2.055-.417h3.483a1.662,1.662,0,0,1,.676.139,1.82,1.82,0,0,1,.563.373,2.09,2.09,0,0,1,.392.544,1.464,1.464,0,0,1,.152.664l.038,6.657h2.251v2.82Zm-10.065-14.187a1.448,1.448,0,0,1,.12-.594,1.426,1.426,0,0,1,.322-.487,1.6,1.6,0,0,1,.48-.322,1.527,1.527,0,0,1,.588-.12,1.447,1.447,0,0,1,.594.12,1.424,1.424,0,0,1,.487.322,1.557,1.557,0,0,1,.323.487,1.584,1.584,0,0,1,.12.594,1.419,1.419,0,0,1-.12.588,1.566,1.566,0,0,1-.323.48,1.521,1.521,0,0,1-.487.322,1.583,1.583,0,0,1-.594.12,1.418,1.418,0,0,1-.588-.12,1.461,1.461,0,0,1-.48-.322,1.6,1.6,0,0,1-.322-.48A1.528,1.528,0,0,1,473.043,103.284Zm3.515,0a1.448,1.448,0,0,1,.12-.594A1.424,1.424,0,0,1,477,102.2a1.567,1.567,0,0,1,.481-.322,1.527,1.527,0,0,1,.588-.12,1.448,1.448,0,0,1,.594.12,1.426,1.426,0,0,1,.487.322,1.559,1.559,0,0,1,.322.487,1.583,1.583,0,0,1,.12.594,1.418,1.418,0,0,1-.12.588,1.461,1.461,0,0,1-.322.48,1.523,1.523,0,0,1-.487.322,1.583,1.583,0,0,1-.594.12,1.418,1.418,0,0,1-.588-.12,1.462,1.462,0,0,1-.481-.322,1.6,1.6,0,0,1-.322-.48A1.419,1.419,0,0,1,476.558,103.284Z" transform="translate(-319.524 -98.365)" fill="#001b47"/>
      <path id="Path_15" data-name="Path 15" d="M490.09,120.094v-2.82h2.162v-3.2a4.448,4.448,0,0,1,.183-1.233,5.428,5.428,0,0,1,.525-1.22,6.2,6.2,0,0,1,.816-1.1,5.241,5.241,0,0,1,1.062-.879,4.881,4.881,0,0,1,1.252-.569,4.281,4.281,0,0,1,1.4-.177l3.97.051a1.331,1.331,0,0,1,.544.114,1.451,1.451,0,0,1,.443.3,1.5,1.5,0,0,1,.3.436,1.28,1.28,0,0,1,.114.537v6.929h1.979v2.82H490.09Zm4.982-2.813h4.982v-5.532q-.986-.009-1.5-.019c-.341-.006-.6-.006-.759-.013s-.259-.006-.3-.006h-.063a2.046,2.046,0,0,0-.872.2,2.647,2.647,0,0,0-.759.531,2.62,2.62,0,0,0-.531.752,2.039,2.039,0,0,0-.2.872v3.212Z" transform="translate(-326.81 -100.989)" fill="#001b47"/>
      <path id="Path_16" data-name="Path 16" d="M515.2,109c.462.044.967.07,1.5.082s1.1.044,1.669.082a15.018,15.018,0,0,1,1.726.228,8.074,8.074,0,0,1,1.669.506,6.286,6.286,0,0,1,1.511.91,5.674,5.674,0,0,1,1.252,1.454,8.013,8.013,0,0,1,.879,2.124,12.793,12.793,0,0,1,.386,2.927h2.112v2.82h-15v-2.82h10.077a7.076,7.076,0,0,0-.537-2.56,4.638,4.638,0,0,0-1.151-1.606,4.243,4.243,0,0,0-1.549-.872,9.089,9.089,0,0,0-1.713-.36,13.617,13.617,0,0,0-1.663-.082c-.537,0-1.005-.006-1.41-.032l.234-2.807Zm2.225,14.711a1.449,1.449,0,0,1,.12-.594,1.423,1.423,0,0,1,.323-.487,1.6,1.6,0,0,1,.48-.322,1.527,1.527,0,0,1,.588-.12,1.448,1.448,0,0,1,.594.12,1.426,1.426,0,0,1,.487.322,1.557,1.557,0,0,1,.322.487,1.583,1.583,0,0,1,.12.594,1.419,1.419,0,0,1-.12.588,1.482,1.482,0,0,1-.809.8,1.584,1.584,0,0,1-.594.12,1.419,1.419,0,0,1-.588-.12,1.565,1.565,0,0,1-.48-.322,1.6,1.6,0,0,1-.323-.48A1.528,1.528,0,0,1,517.43,123.708Z" transform="translate(-335.203 -101.024)" fill="#001b47"/>
      <path id="Path_17" data-name="Path 17" d="M536.226,114.635h3.679v-7.941h2.807v9.224a.724.724,0,0,1,.013.133,1.33,1.33,0,0,1-.114.544,1.452,1.452,0,0,1-.3.443,1.436,1.436,0,0,1-.455.3,1.383,1.383,0,0,1-.55.114H536.22v-2.82Zm3.559-11.411a1.447,1.447,0,0,1,.12-.594,1.426,1.426,0,0,1,.322-.487,1.6,1.6,0,0,1,.481-.322,1.526,1.526,0,0,1,.588-.12,1.447,1.447,0,0,1,.594.12,1.425,1.425,0,0,1,.487.322,1.557,1.557,0,0,1,.322.487,1.582,1.582,0,0,1,.12.594,1.418,1.418,0,0,1-.12.588,1.461,1.461,0,0,1-.322.48,1.559,1.559,0,0,1-.487.322,1.469,1.469,0,0,1-.594.12,1.418,1.418,0,0,1-.588-.12,1.567,1.567,0,0,1-.481-.322,1.6,1.6,0,0,1-.322-.48A1.529,1.529,0,0,1,539.786,103.224Z" transform="translate(-343.776 -98.343)" fill="#001b47"/>
      <path id="Path_18" data-name="Path 18" d="M571.477,117.47h-3.641a1.36,1.36,0,0,1-.588-.126,1.287,1.287,0,0,1-.443-.329,1.513,1.513,0,0,1-.284-.48,1.643,1.643,0,0,1-.1-.588l-.025-6.853-2.478-.013a2.3,2.3,0,0,0-.948.2,2.438,2.438,0,0,0-.784.537,2.715,2.715,0,0,0-.531.79,2.338,2.338,0,0,0-.2.948l.013,3.028c.4.076.809.133,1.22.171s.828.051,1.245.051c.36,0,.721-.013,1.087-.038l.221,2.807q-.341.028-.664.038c-.215.006-.436.013-.664.013a17.387,17.387,0,0,1-2.137-.133,12.79,12.79,0,0,1-2.017-.4,1.387,1.387,0,0,1-.8-.487,1.36,1.36,0,0,1-.316-.891v-4.154a5.176,5.176,0,0,1,.411-2.048,5.314,5.314,0,0,1,1.125-1.675,5.375,5.375,0,0,1,1.669-1.132,5.081,5.081,0,0,1,2.055-.417h3.484a1.662,1.662,0,0,1,.676.139,1.821,1.821,0,0,1,.563.373,2.093,2.093,0,0,1,.392.544,1.464,1.464,0,0,1,.152.664l.038,6.657h2.251v2.82Zm-10.065-14.187a1.448,1.448,0,0,1,.12-.594,1.425,1.425,0,0,1,.322-.487,1.6,1.6,0,0,1,.48-.322,1.527,1.527,0,0,1,.588-.12,1.448,1.448,0,0,1,.594.12,1.426,1.426,0,0,1,.487.322,1.557,1.557,0,0,1,.322.487,1.583,1.583,0,0,1,.12.594,1.419,1.419,0,0,1-.12.588,1.565,1.565,0,0,1-.322.48,1.523,1.523,0,0,1-.487.322,1.584,1.584,0,0,1-.594.12,1.418,1.418,0,0,1-.588-.12,1.462,1.462,0,0,1-.48-.322,1.6,1.6,0,0,1-.322-.48A1.529,1.529,0,0,1,561.413,103.284Zm3.515,0a1.448,1.448,0,0,1,.12-.594,1.425,1.425,0,0,1,.322-.487,1.567,1.567,0,0,1,.48-.322,1.527,1.527,0,0,1,.588-.12,1.448,1.448,0,0,1,.594.12,1.424,1.424,0,0,1,.487.322,1.557,1.557,0,0,1,.323.487,1.584,1.584,0,0,1,.12.594,1.419,1.419,0,0,1-.12.588,1.461,1.461,0,0,1-.323.48,1.521,1.521,0,0,1-.487.322,1.583,1.583,0,0,1-.594.12,1.419,1.419,0,0,1-.588-.12,1.462,1.462,0,0,1-.48-.322,1.6,1.6,0,0,1-.322-.48A1.419,1.419,0,0,1,564.928,103.284Z" transform="translate(-352.026 -98.365)" fill="#001b47"/>
      <path id="Path_19" data-name="Path 19" d="M589.064,120.35V119.4a1.408,1.408,0,0,1-.506.689,1.369,1.369,0,0,1-.835.266h-4.4V119.4a1.413,1.413,0,0,1-1.34.955H578.43v-2.82h2.137V109.59h2.82v7.941h2.933V109.59h2.8v7.941h2.946V109.59h2.807v7.941H597v2.82h-7.94Z" transform="translate(-359.301 -101.245)" fill="#001b47"/>
      <path id="Path_20" data-name="Path 20" d="M607.44,117.541h2.775V109.6h2.82v7.941h2.933V109.6h2.807v7.941h2.946V109.6h2.807v9.357a1.332,1.332,0,0,1-.114.544,1.453,1.453,0,0,1-.3.443,1.529,1.529,0,0,1-.443.3,1.331,1.331,0,0,1-.544.114h-4.413v-.955a1.408,1.408,0,0,1-.506.689,1.37,1.37,0,0,1-.835.266h-4.4v-.955a1.413,1.413,0,0,1-1.34.955H607.44v-2.82Z" transform="translate(-369.97 -101.249)" fill="#001b47"/>
      <path id="Path_21" data-name="Path 21" d="M644.817,116.683c-.348.044-.7.076-1.049.1s-.708.032-1.075.032-.74-.013-1.1-.038-.714-.063-1.075-.107c-.335-.051-.683-.107-1.043-.164a5.318,5.318,0,0,1-1.005-.253,1.917,1.917,0,0,1-.752-.487,1.22,1.22,0,0,1-.3-.866v-4.154a5.253,5.253,0,0,1,1.536-3.724,5.375,5.375,0,0,1,1.669-1.132,5.081,5.081,0,0,1,2.055-.417h3.483a1.73,1.73,0,0,1,.7.139,1.8,1.8,0,0,1,.569.379,1.831,1.831,0,0,1,.379.569,1.771,1.771,0,0,1,.139.708c0,.7.019,1.467.063,2.3s.063,1.707.063,2.63q0,.825-.038,1.65h2.187v2.82h-2.541a12.726,12.726,0,0,1-.816,2.529,6.86,6.86,0,0,1-1.4,2.048,6.219,6.219,0,0,1-2.13,1.372,8.1,8.1,0,0,1-3,.5V120.3a5.138,5.138,0,0,0,1.789-.278,3.737,3.737,0,0,0,1.258-.759,4.013,4.013,0,0,0,.854-1.138,8.859,8.859,0,0,0,.569-1.429Zm-4.211-13.965a2.278,2.278,0,0,1-.12-.4,2.55,2.55,0,0,1-.038-.436,2.379,2.379,0,0,1,.164-.853,2.131,2.131,0,0,1,.48-.746,2.388,2.388,0,0,1,.778-.531,2.726,2.726,0,0,1,1.081-.2h2.225v1.479l-2.225-.013a1,1,0,0,0-.79.278.86.86,0,0,0-.24.588.833.833,0,0,0,.221.563,1,1,0,0,0,.708.278h2.529V104.2h-5.532v-1.479h.759ZM642.693,114a13.106,13.106,0,0,0,2.529-.234c.025-.556.038-1.138.038-1.732,0-.657-.013-1.3-.032-1.941s-.044-1.239-.057-1.808l-2.478-.013a2.3,2.3,0,0,0-.948.2,2.439,2.439,0,0,0-.784.537,2.717,2.717,0,0,0-.531.79,2.318,2.318,0,0,0-.2.948l.013,3.028c.259.063.493.107.7.139s.4.051.582.063.367.019.55.019h.613Z" transform="translate(-380.997 -97.552)" fill="#001b47"/>
      <path id="Path_22" data-name="Path 22" d="M657.24,117.285h2.213v-3.2a4.448,4.448,0,0,1,.183-1.233,5.421,5.421,0,0,1,.525-1.22,6.188,6.188,0,0,1,.815-1.1,5.234,5.234,0,0,1,1.062-.879,4.878,4.878,0,0,1,1.252-.569,4.28,4.28,0,0,1,1.4-.177l3.97.051a1.33,1.33,0,0,1,.544.114,1.452,1.452,0,0,1,.443.3,1.5,1.5,0,0,1,.3.436,1.278,1.278,0,0,1,.114.537v8.212a1.676,1.676,0,0,1-.1.594,1.335,1.335,0,0,1-.285.487,1.415,1.415,0,0,1-.436.329,1.331,1.331,0,0,1-.582.126H657.24v-2.82Zm5.032,0h4.982v-5.532q-.986-.009-1.5-.019c-.341-.006-.6-.006-.759-.013s-.259-.006-.3-.006h-.063a2.047,2.047,0,0,0-.872.2,2.649,2.649,0,0,0-.759.531,2.621,2.621,0,0,0-.531.752,2.04,2.04,0,0,0-.2.872v3.212Z" transform="translate(-388.286 -100.993)" fill="#001b47"/>
      <path id="Path_23" data-name="Path 23" d="M239.691,158.143H233.78v5.481h6.588v1.644H231.82v-15.2h8.212v1.644h-6.246v4.8H239.7v1.625Z" transform="translate(-231.82 -116.133)" fill="#001b47"/>
      <path id="Path_24" data-name="Path 24" d="M254.8,167.611l-.158-1.378h-.07a4.058,4.058,0,0,1-3.338,1.625,3.108,3.108,0,0,1-3.338-3.136c0-2.636,2.345-4.084,6.562-4.059v-.228a2.25,2.25,0,0,0-2.478-2.529,5.481,5.481,0,0,0-2.845.809l-.449-1.309a6.77,6.77,0,0,1,3.585-.967c3.338,0,4.147,2.276,4.147,4.463v4.084a14.992,14.992,0,0,0,.183,2.617h-1.8Zm-.291-5.57c-2.162-.044-4.621.335-4.621,2.459a1.76,1.76,0,0,0,1.871,1.9,2.714,2.714,0,0,0,2.636-1.827,2.022,2.022,0,0,0,.114-.632Z" transform="translate(-237.734 -118.476)" fill="#001b47"/>
      <path id="Path_25" data-name="Path 25" d="M265.743,165.585a5.188,5.188,0,0,0,2.617.79c1.441,0,2.118-.721,2.118-1.625,0-.948-.563-1.467-2.029-2-1.96-.7-2.889-1.783-2.889-3.091,0-1.758,1.422-3.205,3.768-3.205a5.476,5.476,0,0,1,2.687.676l-.493,1.441a4.247,4.247,0,0,0-2.232-.632c-1.176,0-1.827.676-1.827,1.486,0,.9.651,1.309,2.074,1.852,1.9.721,2.864,1.669,2.864,3.294,0,1.916-1.486,3.269-4.084,3.269a6.172,6.172,0,0,1-3.066-.746l.5-1.511Z" transform="translate(-244.115 -118.48)" fill="#001b47"/>
      <path id="Path_26" data-name="Path 26" d="M282.245,151.886v3.136h2.845v1.511h-2.845v5.886c0,1.353.386,2.118,1.486,2.118a4.638,4.638,0,0,0,1.151-.133l.089,1.486a4.857,4.857,0,0,1-1.758.272,2.747,2.747,0,0,1-2.143-.835,4.055,4.055,0,0,1-.765-2.845v-5.955H278.61v-1.511H280.3V152.4l1.941-.518Z" transform="translate(-249.029 -116.799)" fill="#001b47"/>
      <path id="Path_27" data-name="Path 27" d="M299.343,162.735a6.921,6.921,0,0,0,3.521.993c2,0,3.18-1.062,3.18-2.592,0-1.422-.809-2.232-2.864-3.022-2.478-.879-4.014-2.162-4.014-4.305,0-2.371,1.96-4.128,4.919-4.128a6.894,6.894,0,0,1,3.363.746l-.544,1.6a6.033,6.033,0,0,0-2.889-.721c-2.074,0-2.864,1.239-2.864,2.276,0,1.422.923,2.118,3.022,2.933,2.573.993,3.882,2.232,3.882,4.463,0,2.346-1.739,4.375-5.323,4.375a7.918,7.918,0,0,1-3.882-.967l.493-1.644Z" transform="translate(-256.473 -115.99)" fill="#001b47"/>
      <path id="Path_28" data-name="Path 28" d="M319.105,151.886v3.136h2.845v1.511h-2.845v5.886c0,1.353.386,2.118,1.486,2.118a4.639,4.639,0,0,0,1.151-.133l.089,1.486a4.857,4.857,0,0,1-1.758.272,2.747,2.747,0,0,1-2.143-.835,4.055,4.055,0,0,1-.765-2.845v-5.955H315.47v-1.511h1.694V152.4l1.941-.518Z" transform="translate(-262.586 -116.799)" fill="#001b47"/>
      <path id="Path_29" data-name="Path 29" d="M334.794,167.611l-.158-1.378h-.07a4.058,4.058,0,0,1-3.338,1.625,3.108,3.108,0,0,1-3.338-3.136c0-2.636,2.345-4.084,6.562-4.059v-.228a2.25,2.25,0,0,0-2.478-2.529,5.481,5.481,0,0,0-2.845.809l-.449-1.309a6.77,6.77,0,0,1,3.585-.967c3.338,0,4.147,2.276,4.147,4.463v4.084a15,15,0,0,0,.183,2.617h-1.8Zm-.3-5.57c-2.162-.044-4.621.335-4.621,2.459a1.76,1.76,0,0,0,1.871,1.9,2.714,2.714,0,0,0,2.636-1.827,2.022,2.022,0,0,0,.114-.632Z" transform="translate(-267.154 -118.476)" fill="#001b47"/>
      <path id="Path_30" data-name="Path 30" d="M346.388,160.1c0-1.283-.025-2.39-.089-3.408h1.739l.07,2.143h.089a3.279,3.279,0,0,1,3.022-2.39,2.14,2.14,0,0,1,.563.07v1.871a3.01,3.01,0,0,0-.676-.07,2.788,2.788,0,0,0-2.662,2.548,5.719,5.719,0,0,0-.089.923v5.816h-1.96V160.1Z" transform="translate(-273.925 -118.48)" fill="#001b47"/>
      <path id="Path_31" data-name="Path 31" d="M365.618,160.262c0-1.4-.044-2.529-.089-3.566h1.783l.089,1.871h.044a4.3,4.3,0,0,1,3.882-2.118c2.636,0,4.621,2.232,4.621,5.551,0,3.926-2.39,5.867-4.963,5.867a3.842,3.842,0,0,1-3.363-1.713h-.044v5.93h-1.96V160.269Zm1.96,2.914a4.53,4.53,0,0,0,.089.809,3.056,3.056,0,0,0,2.978,2.32c2.1,0,3.313-1.713,3.313-4.217,0-2.187-1.151-4.059-3.25-4.059a3.426,3.426,0,0,0-3.136,3.268v1.871Z" transform="translate(-280.998 -118.48)" fill="#001b47"/>
      <path id="Path_32" data-name="Path 32" d="M385.918,160.1c0-1.283-.025-2.39-.088-3.408h1.739l.07,2.143h.089a3.279,3.279,0,0,1,3.022-2.39,2.14,2.14,0,0,1,.563.07v1.871a3.01,3.01,0,0,0-.676-.07,2.788,2.788,0,0,0-2.662,2.548,5.719,5.719,0,0,0-.089.923v5.816h-1.96V160.1Z" transform="translate(-288.464 -118.48)" fill="#001b47"/>
      <path id="Path_33" data-name="Path 33" d="M406.692,162.074c0,4.04-2.794,5.8-5.437,5.8-2.952,0-5.235-2.162-5.235-5.614,0-3.654,2.39-5.8,5.412-5.8s5.254,2.276,5.254,5.614Zm-8.661.114c0,2.39,1.378,4.2,3.319,4.2s3.313-1.783,3.313-4.242c0-1.852-.923-4.2-3.268-4.2S398.03,160.108,398.03,162.188Z" transform="translate(-292.212 -118.483)" fill="#001b47"/>
      <path id="Path_34" data-name="Path 34" d="M416.809,160.262c0-1.4-.044-2.529-.089-3.566H418.5l.089,1.871h.044a4.3,4.3,0,0,1,3.882-2.118c2.636,0,4.621,2.232,4.621,5.551,0,3.926-2.39,5.867-4.963,5.867a3.842,3.842,0,0,1-3.363-1.713h-.044v5.93h-1.96V160.269Zm1.966,2.914a4.529,4.529,0,0,0,.089.809,3.056,3.056,0,0,0,2.978,2.32c2.1,0,3.313-1.713,3.313-4.217,0-2.187-1.151-4.059-3.25-4.059a3.17,3.17,0,0,0-3,2.459,3.138,3.138,0,0,0-.133.809v1.871Z" transform="translate(-299.825 -118.48)" fill="#001b47"/>
      <path id="Path_35" data-name="Path 35" d="M437.81,162.519a3.492,3.492,0,0,0,3.743,3.787,7.174,7.174,0,0,0,3.022-.563l.341,1.422a8.85,8.85,0,0,1-3.629.676c-3.363,0-5.367-2.213-5.367-5.507s1.941-5.886,5.121-5.886c3.566,0,4.508,3.136,4.508,5.14a6.9,6.9,0,0,1-.07.923H437.81Zm5.823-1.422c.025-1.264-.518-3.224-2.75-3.224-2,0-2.889,1.852-3.047,3.224Z" transform="translate(-306.887 -118.48)" fill="#001b47"/>
      <path id="Path_36" data-name="Path 36" d="M454.988,160.1c0-1.283-.025-2.39-.089-3.408h1.739l.07,2.143h.089a3.279,3.279,0,0,1,3.022-2.39,2.139,2.139,0,0,1,.563.07v1.871a3.009,3.009,0,0,0-.676-.07,2.788,2.788,0,0,0-2.662,2.548,5.719,5.719,0,0,0-.089.923v5.816h-1.96V160.1Z" transform="translate(-313.867 -118.48)" fill="#001b47"/>
      <path id="Path_37" data-name="Path 37" d="M469.229,151.886v3.136h2.845v1.511h-2.845v5.886c0,1.353.386,2.118,1.486,2.118a4.638,4.638,0,0,0,1.151-.133l.089,1.486a4.856,4.856,0,0,1-1.758.272,2.747,2.747,0,0,1-2.143-.835,4.055,4.055,0,0,1-.765-2.845v-5.955H465.6v-1.511h1.688V152.4l1.941-.518Z" transform="translate(-317.803 -116.799)" fill="#001b47"/>
      <path id="Path_38" data-name="Path 38" d="M479.572,156.85l2.39,6.449c.247.721.518,1.581.7,2.232h.044c.2-.651.43-1.486.7-2.276l2.162-6.4h2.1l-2.978,7.782c-1.422,3.743-2.39,5.658-3.743,6.834a5.321,5.321,0,0,1-2.434,1.283l-.5-1.669a5.287,5.287,0,0,0,1.739-.967,5.966,5.966,0,0,0,1.669-2.213,1.458,1.458,0,0,0,.158-.474,1.741,1.741,0,0,0-.133-.518l-4.04-10.058h2.162Z" transform="translate(-322.146 -118.627)" fill="#001b47"/>
      <path id="Path_39" data-name="Path 39" d="M514.255,164.628a9.737,9.737,0,0,1-4.015.721c-4.286,0-7.511-2.706-7.511-7.694s3.224-7.985,7.941-7.985a8.13,8.13,0,0,1,3.61.676l-.474,1.6a7.15,7.15,0,0,0-3.066-.632c-3.566,0-5.93,2.276-5.93,6.271,0,3.724,2.143,6.113,5.842,6.113a7.834,7.834,0,0,0,3.205-.632l.4,1.555Z" transform="translate(-331.459 -115.986)" fill="#001b47"/>
      <path id="Path_40" data-name="Path 40" d="M533.772,162.074c0,4.04-2.794,5.8-5.437,5.8-2.952,0-5.235-2.162-5.235-5.614,0-3.654,2.39-5.8,5.412-5.8s5.254,2.276,5.254,5.614Zm-8.661.114c0,2.39,1.378,4.2,3.319,4.2s3.313-1.783,3.313-4.242c0-1.852-.923-4.2-3.268-4.2S525.11,160.108,525.11,162.188Z" transform="translate(-338.951 -118.483)" fill="#001b47"/>
      <path id="Path_41" data-name="Path 41" d="M543.888,160.1c0-1.283-.025-2.39-.088-3.408h1.739l.069,2.143h.089a3.279,3.279,0,0,1,3.022-2.39,2.142,2.142,0,0,1,.563.07v1.871a3.012,3.012,0,0,0-.677-.07,2.788,2.788,0,0,0-2.661,2.548,5.719,5.719,0,0,0-.089.923v5.816h-1.96V160.1Z" transform="translate(-346.564 -118.48)" fill="#001b47"/>
      <path id="Path_42" data-name="Path 42" d="M555.7,160.262c0-1.4-.044-2.529-.089-3.566h1.783l.089,1.871h.044a4.3,4.3,0,0,1,3.882-2.118c2.636,0,4.621,2.232,4.621,5.551,0,3.926-2.39,5.867-4.963,5.867a3.842,3.842,0,0,1-3.363-1.713h-.044v5.93H555.7V160.269Zm1.96,2.914a4.513,4.513,0,0,0,.089.809,3.056,3.056,0,0,0,2.978,2.32c2.1,0,3.313-1.713,3.313-4.217,0-2.187-1.151-4.059-3.249-4.059a3.427,3.427,0,0,0-3.136,3.268v1.871Z" transform="translate(-350.908 -118.48)" fill="#001b47"/>
      <path id="Path_43" data-name="Path 43" d="M585.462,162.074c0,4.04-2.794,5.8-5.437,5.8-2.952,0-5.235-2.162-5.235-5.614,0-3.654,2.39-5.8,5.412-5.8s5.254,2.276,5.254,5.614Zm-8.661.114c0,2.39,1.378,4.2,3.319,4.2s3.313-1.783,3.313-4.242c0-1.852-.923-4.2-3.269-4.2S576.8,160.108,576.8,162.188Z" transform="translate(-357.962 -118.483)" fill="#001b47"/>
      <path id="Path_44" data-name="Path 44" d="M595.579,160.1c0-1.283-.025-2.39-.089-3.408h1.739l.07,2.143h.089a3.279,3.279,0,0,1,3.022-2.39,2.14,2.14,0,0,1,.563.07v1.871a3.011,3.011,0,0,0-.677-.07,2.788,2.788,0,0,0-2.662,2.548,5.719,5.719,0,0,0-.089.923v5.816h-1.96V160.1Z" transform="translate(-365.575 -118.48)" fill="#001b47"/>
      <path id="Path_45" data-name="Path 45" d="M612.664,167.611l-.158-1.378h-.07a4.058,4.058,0,0,1-3.338,1.625,3.108,3.108,0,0,1-3.338-3.136c0-2.636,2.345-4.084,6.562-4.059v-.228a2.25,2.25,0,0,0-2.478-2.529,5.481,5.481,0,0,0-2.845.809l-.449-1.309a6.769,6.769,0,0,1,3.584-.967c3.338,0,4.147,2.276,4.147,4.463v4.084a15,15,0,0,0,.183,2.617h-1.8Zm-.291-5.57c-2.162-.044-4.621.335-4.621,2.459a1.76,1.76,0,0,0,1.871,1.9,2.714,2.714,0,0,0,2.636-1.827,2.019,2.019,0,0,0,.114-.632Z" transform="translate(-369.352 -118.476)" fill="#001b47"/>
      <path id="Path_46" data-name="Path 46" d="M625.849,151.886v3.136h2.845v1.511h-2.845v5.886c0,1.353.386,2.118,1.486,2.118a4.638,4.638,0,0,0,1.151-.133l.089,1.486a4.857,4.857,0,0,1-1.758.272,2.747,2.747,0,0,1-2.143-.835,4.055,4.055,0,0,1-.765-2.845v-5.955H622.22v-1.511h1.688V152.4l1.941-.518Z" transform="translate(-375.406 -116.799)" fill="#001b47"/>
      <path id="Path_47" data-name="Path 47" d="M638.049,151.269a1.23,1.23,0,0,1-2.459,0,1.221,1.221,0,0,1,1.239-1.239A1.194,1.194,0,0,1,638.049,151.269Zm-2.213,13.984V154.335h1.985v10.918Z" transform="translate(-380.324 -116.118)" fill="#001b47"/>
      <path id="Path_48" data-name="Path 48" d="M653.752,162.074c0,4.04-2.794,5.8-5.437,5.8-2.952,0-5.235-2.162-5.235-5.614,0-3.654,2.39-5.8,5.412-5.8s5.254,2.276,5.254,5.614Zm-8.661.114c0,2.39,1.378,4.2,3.319,4.2s3.313-1.783,3.313-4.242c0-1.852-.923-4.2-3.268-4.2S645.09,160.108,645.09,162.188Z" transform="translate(-383.078 -118.483)" fill="#001b47"/>
      <path id="Path_49" data-name="Path 49" d="M663.868,159.655c0-1.125-.025-2.055-.089-2.952h1.758l.114,1.8h.044a4.017,4.017,0,0,1,3.61-2.055c1.511,0,3.856.9,3.856,4.647v6.518h-1.985v-6.29c0-1.758-.657-3.224-2.529-3.224a2.821,2.821,0,0,0-2.662,2.029,2.9,2.9,0,0,0-.133.923v6.562h-1.985v-7.959Z" transform="translate(-390.692 -118.48)" fill="#001b47"/>
    </g>
    <g id="Group_2" data-name="Group 2" transform="translate(-227.944)">
      <path id="Path_50" data-name="Path 50" d="M82.243,165.172,80.3,168.71c-1.328-.744-2.585-1.449-4-2.238-.562.926-1.1,1.808-1.747,2.877-1.334-.755-2.634-1.488-4.095-2.309.661-1.2,1.257-2.293,1.962-3.582,1.334.75,2.6,1.455,4,2.249l1.731-2.927Z" transform="translate(-31.627 -73.067)" fill="#001b47"/>
      <path id="Path_51" data-name="Path 51" d="M74.761,152.7c1.444.86,2.7,1.6,4.111,2.447-.656,1.174-1.262,2.249-1.973,3.516-1.383-.8-2.673-1.543-4.089-2.364.661-1.218,1.251-2.309,1.951-3.6Z" transform="translate(-32.682 -68.542)" fill="#001b47"/>
      <path id="Path_52" data-name="Path 52" d="M35.463,156.142l-1.946,3.538c-1.328-.744-2.585-1.449-4-2.238-.562.926-1.1,1.808-1.747,2.877-1.334-.755-2.634-1.488-4.095-2.309.661-1.2,1.257-2.293,1.962-3.582,1.334.75,2.6,1.455,4,2.249.568-.959,1.091-1.846,1.731-2.926l4.089,2.392Z" transform="translate(-10.629 -69.013)" fill="#001b47"/>
      <path id="Path_53" data-name="Path 53" d="M72.782,213.465c-.524,1.339-.964,2.464-1.472,3.764-1.411-.562-2.756-1.1-4.249-1.7-.435.987-.854,1.934-1.361,3.081-1.422-.573-2.805-1.13-4.359-1.758.5-1.279.948-2.436,1.483-3.808,1.422.568,2.761,1.108,4.26,1.709.435-1.02.843-1.973,1.334-3.125,1.433.606,2.811,1.185,4.365,1.841Z" transform="translate(-27.533 -94.994)" fill="#001b47"/>
      <path id="Path_54" data-name="Path 54" d="M132.621,134.87c1.444.86,2.7,1.6,4.111,2.447-.656,1.174-1.262,2.249-1.973,3.516-1.383-.8-2.673-1.543-4.089-2.364C131.331,137.251,131.921,136.16,132.621,134.87Z" transform="translate(-58.653 -60.539)" fill="#001b47"/>
      <path id="Path_55" data-name="Path 55" d="M147.911,196.93c1.444.86,2.7,1.6,4.111,2.447-.656,1.174-1.262,2.249-1.973,3.516-1.383-.8-2.673-1.543-4.089-2.364C146.621,199.311,147.211,198.22,147.911,196.93Z" transform="translate(-65.517 -88.395)" fill="#001b47"/>
      <path id="Path_56" data-name="Path 56" d="M21.731,191.662A10.519,10.519,0,0,1,4.012,190.2h0A32.023,32.023,0,0,1,0,176.065a25.023,25.023,0,0,1,1.356-7.925l2.37.369a27.212,27.212,0,0,0-.987,3.224h0a28.582,28.582,0,0,0-.783,7.3,18.2,18.2,0,0,0,.711,4.607c.006.028.017.055.022.083a9.287,9.287,0,0,0,6.321,6.713c.1.033.2.066.3.094a11.942,11.942,0,0,0,1.714.342,10.463,10.463,0,0,0,10.483-4.4,13.187,13.187,0,0,0,2.326-7.121,3.535,3.535,0,0,0-.358-1.13,5.02,5.02,0,0,0-1.025.369c-2.679,1.681-5.28.557-5.77-2.579a8.337,8.337,0,0,1,.072-2.888,3.413,3.413,0,0,1,5.357-2.331,7.5,7.5,0,0,1,3.731,5.732,19.637,19.637,0,0,1-4.106,15.151Z" transform="translate(0 -75.472)" fill="#001b47"/>
      <path id="Path_57" data-name="Path 57" d="M61.664,146.123a26.205,26.205,0,0,1-.259,6.84l-.066-.033a9.83,9.83,0,0,1-.81,2.138,10.027,10.027,0,0,1-.628,1.08c-.821,1.185-1.819,2.028-3.445,1.472q-.091.273-.182.529c-1.262,3.505-2.6,4.448-5.186,3.786-.121.259-.243.535-.358.81a3.78,3.78,0,0,1-7.253-.237,13.215,13.215,0,0,1-.4-2.2c-.055-.424-.1-.854-.171-1.273-.044-.27-.1-.54-.22-1.157a20.568,20.568,0,0,0-2.491,1.8,9.522,9.522,0,0,0-.683.733,18.942,18.942,0,0,0-3.141,5.759,21.044,21.044,0,0,1-3.935,6.807,16.99,16.99,0,0,1-11.3,5.352l-.16.017a16.121,16.121,0,0,1-7.881-1.554,15.642,15.642,0,0,1-5.478-4.365,38.06,38.06,0,0,0,4.5,2.188,14.848,14.848,0,0,0,10.356,0,.093.093,0,0,0,.028-.011c6.178-2.326,10.3-6.834,13.382-12.5.535-.987,1.1-1.951,1.7-2.91.579-.942,1.179-1.874,1.786-2.805.331-.507.661-1.009,1-1.516A8.8,8.8,0,0,1,42.3,153c.9-.711,1.334-.5,1.488.645.132,1,.182,2.006.331,3,.039.27.083.546.143.816a4.025,4.025,0,0,0,.634,1.5,2.452,2.452,0,0,0,3.593.4,4.706,4.706,0,0,0,.518-.4,7.258,7.258,0,0,0,2.166-3.092,5.956,5.956,0,0,0,.209-.733,3.712,3.712,0,0,1,.182-.6,4.563,4.563,0,0,1,.43-.54c.1.452.193.849.27,1.224.1.463.2.887.3,1.328a1.6,1.6,0,0,0,.766-.05.744.744,0,0,0,.193-.077,2.144,2.144,0,0,0,.953-1.08c.309-.672.562-1.372.81-2.078.154-.441.3-.882.463-1.323.149-.408.309-.816.5-1.334,1.141.777.479,1.885.838,2.971,2.607-1.764,1.824-7.192,1.824-7.192V115.369q1.438-.785,2.756-1.609v32.357Z" transform="translate(-3.414 -51.063)" fill="#001b47"/>
      <path id="Path_58" data-name="Path 58" d="M99.662,16.192V52.33a21.284,21.284,0,0,1-2.833,3.3l.072-36.59-4.426,4.431V59.026c-.865.557-1.786,1.086-2.756,1.6V5.3L78.278,16.743V63.5L76.25,13.933,89.72,0l2.756,2.552V18.32l4.437-4.591v-.088Z" transform="translate(-34.226)" fill="url(#linear-gradient)"/>
      <path id="Path_59" data-name="Path 59" d="M116.4,103.436v27.237c-.006,1.852-.006,3.709-.022,5.561a13.229,13.229,0,0,1-2.656,7.639c-.039-.535-.11-1.064-.11-1.6q.025-3.985.072-7.975l-.028.033V119.286c-.028-1.488-.061-2.976-.11-4.459l.017-8.791a31.646,31.646,0,0,0,2.844-2.607Z" transform="translate(-50.969 -46.426)" fill="#001b47"/>
      <path id="Path_60" data-name="Path 60" d="M44.868,34.19c4.354-.077,8,1.042,11.006,5.07a4.974,4.974,0,0,0-2.827-5.4c-5.451-3.1-11.078-2.987-16.567-.066a4.225,4.225,0,0,0-2.4,5.032c2.767-3.693,6.514-4.569,10.8-4.641Z" transform="translate(-15.228 -14.173)" fill="url(#linear-gradient-2)"/>
      <path id="Path_61" data-name="Path 61" d="M44.868,42.29c4.354-.077,8,1.042,11.006,5.07a4.974,4.974,0,0,0-2.827-5.4c-5.451-3.1-11.078-2.987-16.567-.066a4.225,4.225,0,0,0-2.4,5.032c2.767-3.693,6.514-4.569,10.8-4.641Z" transform="translate(-15.228 -17.809)" fill="url(#linear-gradient-2)"/>
      <path id="Path_62" data-name="Path 62" d="M44.868,50.38c4.354-.077,8,1.042,11.006,5.07a4.974,4.974,0,0,0-2.827-5.4c-5.451-3.1-11.078-2.987-16.567-.066a4.225,4.225,0,0,0-2.4,5.032c2.767-3.693,6.514-4.569,10.8-4.641Z" transform="translate(-15.228 -21.44)" fill="url(#linear-gradient-2)"/>
      <path id="Path_63" data-name="Path 63" d="M44.868,58.48c4.354-.077,8,1.042,11.006,5.07a4.974,4.974,0,0,0-2.827-5.4c-5.451-3.1-11.078-2.987-16.567-.066a4.225,4.225,0,0,0-2.4,5.032c2.767-3.693,6.514-4.569,10.8-4.641Z" transform="translate(-15.228 -25.076)" fill="url(#linear-gradient-2)"/>
      <path id="Path_64" data-name="Path 64" d="M44.868,66.58c4.354-.077,8,1.042,11.006,5.07a4.974,4.974,0,0,0-2.827-5.4c-5.451-3.1-11.078-2.987-16.567-.066a4.225,4.225,0,0,0-2.4,5.032c2.767-3.693,6.514-4.569,10.8-4.641Z" transform="translate(-15.228 -28.712)" fill="url(#linear-gradient-6)"/>
      <path id="Path_65" data-name="Path 65" d="M44.868,74.67c4.354-.077,8,1.042,11.006,5.07a4.974,4.974,0,0,0-2.827-5.4c-5.451-3.1-11.078-2.987-16.567-.066a4.225,4.225,0,0,0-2.4,5.032c2.767-3.693,6.514-4.569,10.8-4.641Z" transform="translate(-15.228 -32.343)" fill="url(#linear-gradient-2)"/>
      <path id="Path_66" data-name="Path 66" d="M44.868,83.01c4.354-.077,8,1.042,11.006,5.07a4.974,4.974,0,0,0-2.827-5.4c-5.451-3.1-11.078-2.987-16.567-.066a4.225,4.225,0,0,0-2.4,5.032c2.767-3.693,6.514-4.569,10.8-4.641Z" transform="translate(-15.228 -36.087)" fill="url(#linear-gradient-2)"/>
      <path id="Path_67" data-name="Path 67" d="M44.868,91.35c4.354-.077,8,1.042,11.006,5.07a4.974,4.974,0,0,0-2.827-5.4c-5.451-3.1-11.078-2.987-16.567-.066a4.225,4.225,0,0,0-2.4,5.032c2.767-3.693,6.514-4.569,10.8-4.641Z" transform="translate(-15.228 -39.83)" fill="url(#linear-gradient-6)"/>
      <path id="Path_68" data-name="Path 68" d="M44.868,99.68c4.354-.077,8,1.042,11.006,5.07a4.974,4.974,0,0,0-2.827-5.4c-5.451-3.1-11.078-2.987-16.567-.066a4.225,4.225,0,0,0-2.4,5.032c2.767-3.693,6.514-4.569,10.8-4.641Z" transform="translate(-15.228 -43.569)" fill="url(#linear-gradient-2)"/>
      <path id="Path_69" data-name="Path 69" d="M44.868,108.02c4.354-.077,8,1.042,11.006,5.07a4.974,4.974,0,0,0-2.827-5.4c-5.451-3.1-11.078-2.987-16.567-.066a4.225,4.225,0,0,0-2.4,5.032c2.767-3.693,6.514-4.569,10.8-4.641Z" transform="translate(-15.228 -47.313)" fill="url(#linear-gradient-2)"/>
      <path id="Path_70" data-name="Path 70" d="M54.779,116.922c-.887.22-1.742.435-2.568.645a13.4,13.4,0,0,0-7.347-1.675c-4.282.072-8.03.948-10.8,4.646a4.24,4.24,0,0,1,2.4-5.037c5.489-2.915,11.116-3.031,16.567.066a6.659,6.659,0,0,1,1.736,1.356Z" transform="translate(-15.224 -50.847)" fill="url(#linear-gradient-12)"/>
      <path id="Path_71" data-name="Path 71" d="M48.967,122.185c-3.175.876-5.825,1.7-7.991,2.425a12.235,12.235,0,0,0-3.384,1.19h-.006c-.1.039-.2.072-.3.11-1.135.435-2.249.92-3.329,1.46a4.311,4.311,0,0,1,2.541-3.533,16.509,16.509,0,0,1,12.472-1.653Z" transform="translate(-15.244 -54.589)" fill="url(#linear-gradient-13)"/>
      <path id="Path_72" data-name="Path 72" d="M61.913,86.667c-5.478,4.4-14.12,8.719-27.507,12.329-19.328,4.773-28.791,15.228-31.663,24.735h0a19.384,19.384,0,0,0-.055,11.982,10.4,10.4,0,0,0,6.321,6.713c.1.033.2.066.3.094a9.168,9.168,0,0,0,1.714.342l-7.01-.661h0A26.4,26.4,0,0,1,.009,128.062a25.022,25.022,0,0,1,1.356-7.925,30.407,30.407,0,0,1,5.34-9.419,37.3,37.3,0,0,1,15.619-11.2A168.814,168.814,0,0,1,43.78,93.336c.705-.16,1.405-.336,2.1-.546,32.484-9.876,22-31.034,21.72-31.569V61.21s9.728,13.062-5.677,25.451Z" transform="translate(-0.004 -27.475)" fill="#001b47"/>
      <path id="Path_73" data-name="Path 73" d="M110.082,150.666a2.348,2.348,0,0,0-.446-.143.55.55,0,0,0-.165-.033h-.017c-1.686.2-3.891,2.32-4.916,3.412a.241.241,0,0,1-.044.039c-.1.116-.2.226-.3.331a.047.047,0,0,0-.017.028,1.254,1.254,0,0,1-.121.127,1.216,1.216,0,0,0-.083.1l-.011.011c-4.111,4.635-5.2,10.168-4.883,16.424,3.169-1.213,5.616-3.219,8.84-4.111a10.433,10.433,0,0,1-3.345,4.778c-1.56,1.168-3.23,2.227-4.883,3.257-4.255,2.662-5.6,6.5-3.759,11.2a1.881,1.881,0,0,1-.821,2.69c-.452.276-.838.661-1.284.959a7.03,7.03,0,0,1-3.053,1.086,6.516,6.516,0,0,1-3.858-.739,10.168,10.168,0,0,1-.964-.92c-.336-.358-.645-.744-.959-1.13s-.645-.755-.981-1.119c-.171-.182-.347-.358-.524-.529a3.065,3.065,0,0,0-.59-.468,2.159,2.159,0,0,0-1.477-.276,3.526,3.526,0,0,0-1.389.584,8.023,8.023,0,0,0-1.168.942,6.91,6.91,0,0,0-.948,1.174c-.281.408-.551.827-.8,1.262a22.761,22.761,0,0,0-1.317,2.678A55.358,55.358,0,0,0,74,197.948a19.086,19.086,0,0,1-1.036,2.756l-.3.683a3.1,3.1,0,0,1-.32.634,2.062,2.062,0,0,1-1.135.772,3.553,3.553,0,0,1-1.422.143,3.1,3.1,0,0,1-1.339-.485,5.56,5.56,0,0,1-1.819-2.238c-.292-.727-.54-1.449-.75-2.166a28.749,28.749,0,0,1-1.1-8.625,23.973,23.973,0,0,1,.32-3.61,27.307,27.307,0,0,0-.661,2.932,25.487,25.487,0,0,0,.557,11.2l.011.033a15.911,15.911,0,0,0,2.69,5.043,8.625,8.625,0,0,0,1.031,1.025,4.193,4.193,0,0,0,1.3.716,3.134,3.134,0,0,0,1.5.132,2.824,2.824,0,0,0,1.361-.65,4.146,4.146,0,0,0,.92-1.163,13.9,13.9,0,0,0,.612-1.3c.369-.882.683-1.786.976-2.69.606-1.808.97-3.676,1.6-5.44a13.267,13.267,0,0,1,1.229-2.513,8.208,8.208,0,0,1,1.8-2.122,5.889,5.889,0,0,1,.479-.347,2.055,2.055,0,0,1,1.9.039,2.312,2.312,0,0,1,.8.744c.044.055.083.116.127.171a.012.012,0,0,1,.011.011c.033.055.072.116.1.171a15.119,15.119,0,0,0,1.08,1.455,8.464,8.464,0,0,0,2.717,2.21c2.061.992,4.37.672,7.032-1.1a11.724,11.724,0,0,0,1.863-1.516c2.315-2.337,4.5-4.828,7.562-6.029a22.955,22.955,0,0,0-.022-5c-1.615.485-2.954.948-4.337,1.262-.953.215-2.227,1.009-2.756-.507-.485-1.378.849-1.813,1.72-2.331,1.83-1.108,3.792-2,5.577-3.175a11.975,11.975,0,0,0,5.544-9.309c.143-1.51.22-3.031.281-4.547a16.855,16.855,0,0,0-.226-2.089c-2.805,1.367-5.307,2.579-7.815,3.8,1.119-3.092,2.425-5.892,4.883-7.909a4.815,4.815,0,0,1,2.315-1.212c.59-.061,1.268.661,2.2,1.218.094-1.163.248-2.188.3-3.18v-.033c-.061-2.05-.75-2.822-1.279-3.125Z" transform="translate(-28.768 -67.55)" fill="#001b47"/>
      <path id="Path_74" data-name="Path 74" d="M56.44,167.479a2.789,2.789,0,0,0-.127-.722c-.4-.893-.8-1.786-1.268-2.651a5.313,5.313,0,0,1-.86-2.26,3.656,3.656,0,0,1,.342-1.813,1.021,1.021,0,0,1,1.378-.557,1.955,1.955,0,0,1,1.075.9,3.011,3.011,0,0,1,.391,1.438,2.436,2.436,0,0,1-.165.645c-.281-.237-.468-.408-.667-.557a3.242,3.242,0,0,0-.766-.507c-.457-.165-.766.132-.667.606a2.444,2.444,0,0,0,.22.529c.287.579.6,1.152.865,1.736a10.369,10.369,0,0,1,1.075,4.574,5.894,5.894,0,0,1-.138.92c-.05.287-.209.54-.507.507-.16-.017-.353-.237-.43-.413a9.2,9.2,0,0,1-.336-1.02,2.952,2.952,0,0,0-1.521-1.863,1.887,1.887,0,0,1-1.141.187,1.52,1.52,0,0,1-.937-2.221.889.889,0,0,1,1.025-.325,3.233,3.233,0,0,1,1.438.783,5.9,5.9,0,0,1,1.317,1.609c.088.165.187.325.281.491l.121-.033Z" transform="translate(-23.372 -71.549)" fill="url(#linear-gradient-14)"/>
      <path id="Path_75" data-name="Path 75" d="M113.68,190.006c.336-.2.265-.485.265-.739.006-1.031-.011-2.067.011-3.1a2.123,2.123,0,0,1,.584-1.5.921.921,0,0,1,.981-.281.944.944,0,0,1,.739.794,2.858,2.858,0,0,1,.072.568c-.017.254-.077.507-.132.849-.248-.176-.413-.3-.584-.419-.59-.408-.909-.281-1.058.424a3.431,3.431,0,0,0-.055.716c-.011.722,0,1.444-.011,2.16a2.917,2.917,0,0,1-.441,1.571.642.642,0,0,1-.931.248,2.533,2.533,0,0,1-1.058-3.345,1.54,1.54,0,0,1,.215-.237c.441.81.628,1.747,1.416,2.287Z" transform="translate(-50.178 -82.744)" fill="url(#linear-gradient-15)"/>
      <path id="Path_76" data-name="Path 76" d="M70.594,133.832c.011.209.011.419.033.628a1.08,1.08,0,0,0,.705,1.08,1.488,1.488,0,0,0,1.411-.755,4.135,4.135,0,0,0,.242-1.13,8.7,8.7,0,0,1,.138-1.494c.044.209.077.424.132.628.11.375.209.81.672.854a1.173,1.173,0,0,0,1.174-.573,2.69,2.69,0,0,0,.276-1c.044-.4.011-.81.066-1.218a4.1,4.1,0,0,1,.143,3.742,1.408,1.408,0,0,1-1.3.942.945.945,0,0,0-.97.65,3.655,3.655,0,0,1-.325.546,1.421,1.421,0,0,1-1.35.689,1.228,1.228,0,0,1-1.069-1.042,7.459,7.459,0,0,1-.143-1.576c-.011-.314.033-.634.05-.948C70.517,133.848,70.555,133.837,70.594,133.832Z" transform="translate(-31.612 -58.734)" fill="url(#linear-gradient-16)"/>
      <path id="Path_77" data-name="Path 77" d="M16.188,187.138a2.589,2.589,0,0,1-.612,2.171.7.7,0,0,1-1.146-.193,3.047,3.047,0,0,1-.27-1.885,10.464,10.464,0,0,1,.931-3.147,8.487,8.487,0,0,1,.75-1.3c.132.325-.061.573-.143.838-.276.915-.584,1.819-.832,2.739a3.143,3.143,0,0,0-.055,1.135.773.773,0,0,0,.391.529c.121.055.4-.116.535-.248a4.067,4.067,0,0,0,.446-.645Z" transform="translate(-6.339 -82.048)" fill="url(#linear-gradient-17)"/>
      <path id="Path_78" data-name="Path 78" d="M48.578,142.658a2.589,2.589,0,0,1-.612,2.171.7.7,0,0,1-1.146-.193,3.047,3.047,0,0,1-.27-1.885,10.464,10.464,0,0,1,.931-3.147,8.486,8.486,0,0,1,.75-1.3c.132.325-.061.573-.143.838-.276.915-.584,1.819-.832,2.739a3.143,3.143,0,0,0-.055,1.135.773.773,0,0,0,.391.529c.121.055.4-.116.535-.248a4.068,4.068,0,0,0,.446-.645Z" transform="translate(-20.878 -62.083)" fill="url(#linear-gradient-18)"/>
      <path id="Path_79" data-name="Path 79" d="M54.063,232.084c-.05.248-.083.5-.143.75-.116.491-.259.97-.364,1.46A1.042,1.042,0,0,0,54,235.418c.617-.116.6-.788.992-1.113.055.1.138.187.138.265a3.75,3.75,0,0,1-.5,1.99c-.507.744-1.207.7-1.62-.1a2.2,2.2,0,0,1-.226-1.257,8.8,8.8,0,0,1,.849-2.805,1.716,1.716,0,0,1,.309-.358.917.917,0,0,0,.11.044Z" transform="translate(-23.69 -104.155)" fill="url(#linear-gradient-19)"/>
      <path id="Path_80" data-name="Path 80" d="M104.793,202.684c-.05.248-.083.5-.143.75-.116.491-.259.97-.364,1.46a1.042,1.042,0,0,0,.446,1.124c.617-.116.6-.788.992-1.113.055.1.138.187.138.265a3.75,3.75,0,0,1-.5,1.99c-.507.744-1.207.7-1.62-.1a2.2,2.2,0,0,1-.226-1.257,8.8,8.8,0,0,1,.849-2.805,1.717,1.717,0,0,1,.309-.358.916.916,0,0,0,.11.044Z" transform="translate(-46.461 -90.958)" fill="url(#linear-gradient-20)"/>
    </g>
    <path id="Path_81" data-name="Path 81" d="M184.367,58.7q.48,10.888.645,21.77c.077,3.626.094,7.258.138,10.885l.044,10.885-.044,10.885c-.044,3.626-.061,7.258-.138,10.885q-.165,10.888-.645,21.77-.48-10.888-.645-21.77c-.077-3.626-.094-7.258-.138-10.885l-.044-10.885.044-10.885c.044-3.626.061-7.258.138-10.885Q183.887,69.582,184.367,58.7Z" transform="translate(-428.484 -32.7)" fill="#001b47"/>
  </g>
</svg>
