<svg xmlns="http://www.w3.org/2000/svg" xmlns:xlink="http://www.w3.org/1999/xlink" width="466" height="454.839" viewBox="0 0 466 454.839">
  <defs>
    <linearGradient id="linear-gradient" x1="0.5" x2="0.5" y2="1" gradientUnits="objectBoundingBox">
      <stop offset="0.02" stop-color="#f6c80e"/>
      <stop offset="1" stop-color="#f5811a"/>
    </linearGradient>
  </defs>
  <g id="Mediamodifier-Design" transform="translate(0.752 -12.382)">
    <g id="Group_57" data-name="Group 57" transform="translate(-0.752 12.382)">
      <g id="Group_56" data-name="Group 56" transform="translate(0)">
        <g id="Group_25" data-name="Group 25" transform="translate(46.417 42.956)">
          <path id="Path_3" data-name="Path 3" d="M412.7,472.632c-15.348,7.674-41.384,16.718-71.8,24.255-37.273,9.181-81.4,16.033-120.725,14.8-82.082-2.6-143.746-40.15-81.808-163.616C164.4,296.135,67.106,254.614,127.948,182.4,281.561-.128,372.413,170.34,392.967,218.849c44.4,105.1,101.677,57.005,128.81,115.107C538.906,370.543,452.165,453.036,412.7,472.632Z" transform="translate(-107.566 -99.946)" fill="#eaf0f5"/>
        </g>
        <g id="Group_26" data-name="Group 26" transform="translate(243.056 19.748)">
          <path id="Path_4" data-name="Path 4" d="M570.847,48.428c56.868-14.388,103.6,41.384,118.807,64.542,21.24,32.339,63.72,136.073,23.706,122.917-11.1-3.7-52.483-74-71.531-109.488-26.447-49.057-100.855-70.434-70.982-77.971Z" transform="translate(-563.891 -46.089)" fill="#eaf0f5"/>
        </g>
        <g id="Group_27" data-name="Group 27" transform="translate(0 147.104)">
          <path id="Path_5" data-name="Path 5" d="M43.216,475.2c-9.455,0-26.036-16.444-32.751-28.091-28.64-50.291,8.907-109.625,16.444-105.24,7.537,4.522-2.467,34.121,4.659,58.238,6.989,24.118,25.351,45.632,28.092,56.731,2.878,11.1-11.237,18.362-16.444,18.362Z" transform="translate(0.152 -341.636)" fill="#eaf0f5"/>
        </g>
        <g id="Group_28" data-name="Group 28" transform="translate(372.837 357.506)">
          <path id="Path_6" data-name="Path 6" d="M948.471,851.86c-14.662,35.765-59.335,52.072-76.875,50.428-23.158-2.056,21.651-20.555,35.217-34.943,13.566-14.251,23.432-26.584,29.873-32.888C943.127,828.016,959.708,824.454,948.471,851.86Z" transform="translate(-865.064 -829.901)" fill="#eaf0f5"/>
        </g>
        <g id="Group_29" data-name="Group 29" transform="translate(223.29 230.1)">
          <path id="Path_7" data-name="Path 7" d="M561.6,541.229l-.548,2.741-.959,4.8-3.837,28.5a4.435,4.435,0,0,0,2.192,5.07L550.5,591.93h0l-31.243-6.989h0l-.822-8.5-.411-3.7h.822a4.6,4.6,0,0,0,1.918-.685,4.312,4.312,0,0,0,1.781-2.33h0v-.274l.548-2.33,3.289-15.073.274-1.37,1.507-6.852,2.193-9.592h0l18.225,3.974,12.333,2.741.685.274Z" transform="translate(-518.022 -534.24)" fill="#eba583"/>
        </g>
        <g id="Group_30" data-name="Group 30" transform="translate(159.022 268.469)">
          <path id="Path_8" data-name="Path 8" d="M510.16,649.042c-.274,1.37-12.47,60.979-17.4,93.182,0,.411-.137.685-.137,1.1-.685,4.385-1.233,8.222-1.507,11.237-.548,4.385-.822,12.744-1.1,20.692h0a17.473,17.473,0,0,1-.137,2.741c-.137,4.385-.274,11.511-.274,16.581-37.273,9.181-81.4,16.033-120.725,14.8,2.193-11.237,5.07-26.721,6.989-37.136.548-2.6,3.015-16.033,3.426-18.225.411-2.467.685-4.659.959-6.44,0-.548.137-1.1.137-1.507v-.685c0-.548.137-1.233.137-1.918h0c.137-2.056.274-4.385.274-6.852,0-1.781.137-3.563.137-5.481.274-10.963.137-24.529-.274-38.095,0-2.055-.137-4.111-.137-6.166-.137-3.563-.137-7.126-.274-10.688h0c-.685-22.2-1.37-37.547-1.644-42.206.685-.548,2.055-1.233,3.289-2.055a17.647,17.647,0,0,1,3.7-1.781c10.551-3.426,41.932-6.3,47.276-6.852h.959a48.961,48.961,0,0,0,2.055,4.522,17.847,17.847,0,0,0,1.37,2.055,19.172,19.172,0,0,0,10.825,7.811c18.5,4.248,24.94-4.8,25.351-4.659,11.511,4.111,20.418,7.126,26.447,10a57.757,57.757,0,0,1,10.277,6.029Z" transform="translate(-368.88 -623.28)" fill="#c66e46"/>
        </g>
        <g id="Group_31" data-name="Group 31" transform="translate(253.545 290.333)">
          <path id="Path_9" data-name="Path 9" d="M704.738,759.038c0,4.8-5.892,12.333-10.551,17.677a7.7,7.7,0,0,1-11.1.411l-94-68.379c-3.563-3.426,4.933-23.706,9.318-26.31,8.085-4.933,20.692-10.826,30.147-7.4,25.214,9.044,76.053,67.146,76.19,84Z" transform="translate(-588.232 -674.017)" fill="#c66e46"/>
        </g>
        <g id="Group_32" data-name="Group 32" transform="translate(347.39 293.632)">
          <path id="Path_10" data-name="Path 10" d="M828.947,786.416c2.329-.685,4.659-3.015,7.263-6.44,15.073-20.418,32.2-79.89,34.806-89.071a1.4,1.4,0,0,0-.822-1.644l-2.055-.822-11.785-6.029-1.644-.685a1.241,1.241,0,0,0-1.37.411c-2.878,4.385-17.4,26.721-29.6,49.88-7.811,14.8-15.485,31.928-17.54,42.069-1.919,10.414,11.237,15.9,22.747,12.333Z" transform="translate(-806.013 -681.673)" fill="#f39f79"/>
        </g>
        <g id="Group_33" data-name="Group 33" transform="translate(215.642 176.52)">
          <path id="Path_11" data-name="Path 11" d="M569.038,443.336a31.859,31.859,0,0,1-18.225,27,27.9,27.9,0,0,1-8.907,2.6h0c-3.563,7.811-9.044,15.485-17.951,20.281a24.733,24.733,0,0,1-10.962,2.878c-4.659,0-9.318-1.918-12.47-7.948-.685-1.37.137-8.633,1.37-17.129,1.507-10.551,3.563-23.021,3.837-29.462a54.534,54.534,0,0,1,1.1-8.907c3.563-16.718,14.936-22.473,29.6-22.747,18.5-.137,33.573,15.073,32.614,33.436Z" transform="translate(-500.274 -409.9)" fill="#eba583"/>
        </g>
        <g id="Group_34" data-name="Group 34" transform="translate(215.514 176.654)">
          <path id="Path_12" data-name="Path 12" d="M517.756,478.731a4.846,4.846,0,0,1-.822.137,1.036,1.036,0,0,0-.548.137,50.116,50.116,0,0,1-6.989.137,13.393,13.393,0,0,1-6.578-2.193,4.907,4.907,0,0,1,5.207-4.522c3.7,0,8.359,5.07,8.633,5.207a8.127,8.127,0,0,1,1.1,1.1Zm34.395-15.759c-.822,2.878-.959,3.837-3.974,5.755-1.233.822-4.522-.137-4.248-1.781,0-.411.137-.822.137-1.233a.906.906,0,0,1-.137-.822c.411-3.015,1.644-9.044,3.152-11.648.548-.959,2.467-1.1,4.111.411a4.85,4.85,0,0,1,1.644,4.8,12.785,12.785,0,0,1-.685,4.522Zm-15.9-52.757c-14.114.274-25.214,5.618-29.188,20.966-.137.548-.274,1.1-.411,1.781.137.137.274.274.411.274,11.511,9.181,33.162,11.785,35.765,12.059h.274c-.137.822-1.781,16.033-4.8,22.336a9.945,9.945,0,0,1-.685,1.233c-.137.137-.274.411-.411.548-3.837,4.933-14.114,10.414-14.8,10.826h0a15.678,15.678,0,0,0-3.974-6.715l-.411-.411a15.066,15.066,0,0,0-9.181-3.974,8.26,8.26,0,0,0-6.715,1.644c-.137.137-.274.274-.411.274q-.822,4.933-1.233,9.044c-.548,4.248-.685,7.4-.274,8.222,3.152,6.029,7.948,7.948,12.47,7.948l-.548,2.33a.478.478,0,0,1-.137.274,4.313,4.313,0,0,1-1.781,2.33c-.548.411,9.729,1.233,12.881.548,12.333-2.741,20.418-19.733,20.555-20.144,0,0,1.781-1.233,6.029-3.563l.959-4.8h0l.548-2.741h0l-.685-.137a31.682,31.682,0,0,0,18.225-27c1.1-18.225-13.977-33.436-32.476-33.162Z" transform="translate(-499.977 -410.211)" fill="#bf7d66"/>
        </g>
        <g id="Group_35" data-name="Group 35" transform="translate(214.251 161.25)">
          <path id="Path_13" data-name="Path 13" d="M564.872,399.464h0c-6.989-20.281-25.625-13.155-36.725-17.54-9.318-3.7-17.4-8.5-23.569-7.263-9.592,1.918-8.633,23.569-.822,31.38a23.8,23.8,0,0,0,2.055,1.781c11.922,9.455,34.943,12.059,35.9,12.2h0c0,.137-.137.959-.274,2.055-.685,4.933-2.467,17.4-5.344,21.514-.137.137-.274.411-.411.548-3.837,4.933-14.114,10.414-14.8,10.826h0a15.351,15.351,0,0,0-13.566-11.1,8.26,8.26,0,0,0-6.715,1.644c-3.563,3.015-3.015,9.044-3.015,9.318h0a3.346,3.346,0,0,0-.137.959c-.411,3.152-1.37,13.566,2.6,16.718,6.578,5.207,18.5,4.659,21.377,3.152a40.184,40.184,0,0,0,18.773-19.6h0c.274-.137,4.248-2.467,9.181-5.892h0c5.07-3.563,10.963-8.359,14.251-12.881,6.578-9.044,16.581-34.806,1.233-37.821Zm-48.783,56.457a4.843,4.843,0,0,1-.822.137c-.274,0-.548.137-.959.137a32.686,32.686,0,0,1-6.44,0,15.783,15.783,0,0,1-6.029-1.781c-.274-.137-.548-.274-.548-.411h0c0-.274.959-4.8,5.618-4.248,2.878.274,6.989,3.837,8.633,5.481.274.274.548.548.548.685Zm35.354-20.966a10.508,10.508,0,0,1-.685,2.6c-.822,2.878-.959,3.837-3.974,5.755a3.592,3.592,0,0,1-4.111-.959.906.906,0,0,1-.137-.822c.411-3.015,1.644-9.044,3.152-11.648.548-.959,2.467-1.1,4.111.411a4.529,4.529,0,0,1,1.644,4.659Z" transform="translate(-497.046 -374.463)" fill="#4f2820"/>
        </g>
        <g id="Group_36" data-name="Group 36" transform="translate(93.785 275.251)">
          <path id="Path_14" data-name="Path 14" d="M335.757,675.538l-41.11,26.584L244.9,734.187l-6.715,4.248a24,24,0,0,1-9.455.685,6.708,6.708,0,0,1-1.781-1.644c-4.385-5.481-9.729-13.429-9.455-18.225.411-6.029,7.811-16.17,18.088-27.406,9.318-10,50.7-47,60.568-51.25,5.755-2.467,11.648-1.781,17.266.274a58.161,58.161,0,0,1,14.388,7.674c4.248,3.015,11.785,23.706,7.948,27Z" transform="translate(-217.488 -639.017)" fill="#c66e46"/>
        </g>
        <g id="Group_37" data-name="Group 37" transform="translate(64.307 267.735)">
          <path id="Path_15" data-name="Path 15" d="M205.975,724.261a12.164,12.164,0,0,1-6.715,4.248,24,24,0,0,1-9.455.685,21.4,21.4,0,0,1-5.618-1.507c-2.193-.822-4.522-3.289-6.715-6.852-13.566-21.377-26.447-81.945-28.366-91.263a1.3,1.3,0,0,1,.822-1.507l2.055-.685,12.2-5.207,1.781-.548c.548-.137,1.1,0,1.233.548,2.6,4.522,15.348,27.817,26.036,51.8,1.233,2.6,2.33,5.344,3.426,8.085,5.344,13.018,10,26.584,10.963,35.08a9.052,9.052,0,0,1-1.644,7.126Z" transform="translate(-149.08 -621.575)" fill="#f39f79"/>
        </g>
        <g id="Group_38" data-name="Group 38" transform="translate(38.515 247.474)">
          <path id="Path_16" data-name="Path 16" d="M126.831,587.468c-.959-.548-14.662,2.741-24.255-1.233A43.175,43.175,0,0,1,91.2,579.383c-.822-.959-2.741-2.6-1.644-3.974,2.6-3.015,8.633,2.878,9.866,3.7a18.832,18.832,0,0,0,6.44,2.467,26.687,26.687,0,0,0,5.07,0C116.417,581.3,124.775,583.631,126.831,587.468Z" transform="translate(-89.228 -574.557)" fill="#bf7d66"/>
        </g>
        <g id="Group_39" data-name="Group 39" transform="translate(13.218 253.814)">
          <path id="Path_17" data-name="Path 17" d="M93.423,595.841c1.781,1.644,2.193,9.044-3.563,10.414-7.263,1.644-19.87-2.6-24.8-3.837-4.248-1.1-14.525-3.563-20.144-3.7-3.152-.137-12.881-.685-13.566-1.1-1.233-.822-1.644-4.111,2.878-3.974S45.6,594.2,45.6,594.2s-7.948-.959-6.852-3.426c.959-1.919,3.152-1.644,6.44-1.1a125.959,125.959,0,0,1,12.881,2.741c9.729,3.152,16.992,1.644,23.158.548,6.3-1.1,11.237,1.918,12.2,2.878Z" transform="translate(-30.523 -589.271)" fill="#eba583"/>
        </g>
        <g id="Group_40" data-name="Group 40" transform="translate(11.244 261.344)">
          <path id="Path_18" data-name="Path 18" d="M27.507,611.54s-1.918-.411-1.507-1.918c.274-1.233,1.644-2.467,2.741-2.192.959.274,18.225-.274,24.255.548a59.017,59.017,0,0,1,8.085,2.193c2.878.822,8.5,2.741,11.374,3.426a47.462,47.462,0,0,0,10.826.685c8.77-.959,8.085-7.537,8.085-7.537l3.563,7.811-13.977,5.618L79.442,617.3a1.507,1.507,0,0,0-1.37-.822,34.264,34.264,0,0,1-6.852-.959c-6.166-1.507-14.251-4.111-17.951-4.248-6.166-.685-25.762.274-25.762.274Z" transform="translate(-25.942 -606.744)" fill="#eba583"/>
        </g>
        <g id="Group_41" data-name="Group 41" transform="translate(38.571 261.207)">
          <path id="Path_19" data-name="Path 19" d="M108.542,613.278c2.6.822,8.085.959,10.826.685,8.77-.959,8.085-7.537,8.085-7.537l3.563,7.811-13.977,5.618-1.507-2.878a1.507,1.507,0,0,0-1.37-.822,34.265,34.265,0,0,1-6.852-.959c-6.166-1.507-14.251-4.111-17.951-4.248.548-.137,7.811-1.1,19.184,2.33Z" transform="translate(-89.358 -606.426)" fill="#bf7d66"/>
        </g>
        <g id="Group_42" data-name="Group 42" transform="translate(401.705 276.664)">
          <path id="Path_20" data-name="Path 20" d="M932.058,652.327c.959-.411,14.388,3.837,24.255.685a53.767,53.767,0,0,0,11.922-5.892c.822-.822,3.015-2.467,1.918-3.837-2.33-3.152-8.907,2.193-10.14,2.878a19.472,19.472,0,0,1-6.577,1.919c-1.233.137-1.233.137-5.07-.411C943.02,646.982,934.387,648.764,932.058,652.327Z" transform="translate(-932.058 -642.296)" fill="#bf7d66"/>
        </g>
        <g id="Group_43" data-name="Group 43" transform="translate(400.265 283.8)">
          <path id="Path_21" data-name="Path 21" d="M930.156,661.751c-1.781,1.507-2.878,8.907,2.741,10.551,7.126,2.193,20.007-1.1,25.077-1.918,4.385-.822,14.8-2.467,20.418-2.193,3.152.137,12.881.274,13.566-.137,1.233-.822,1.918-3.974-2.6-4.248s-11.511-.274-11.511-.274,7.948-.411,7.126-2.878c-.685-2.055-3.015-1.918-6.3-1.644a129.531,129.531,0,0,0-13.018,1.781c-10,2.33-17.129.274-23.158-1.233a17.218,17.218,0,0,0-12.333,2.193Z" transform="translate(-928.716 -658.856)" fill="#eba583"/>
        </g>
        <g id="Group_44" data-name="Group 44" transform="translate(397.046 287.243)">
          <path id="Path_22" data-name="Path 22" d="M988.529,676.986s1.918-.274,1.644-1.918c-.274-1.37-1.507-2.6-2.466-2.467s-18.225-1.644-24.255-1.37c-2.055.137-6.166,1.1-8.222,1.507a114.971,114.971,0,0,1-11.511,2.467,47.576,47.576,0,0,1-10.825-.137c-8.633-1.644-7.4-8.222-7.4-8.222l-4.248,7.537,13.429,6.578,1.644-2.741a1.507,1.507,0,0,1,1.37-.822,48.744,48.744,0,0,0,6.852-.411c6.3-.959,14.525-3.015,18.225-2.878,6.3.411,25.762,2.878,25.762,2.878Z" transform="translate(-921.246 -666.846)" fill="#eba583"/>
        </g>
        <g id="Group_45" data-name="Group 45" transform="translate(396.909 287.38)">
          <path id="Path_23" data-name="Path 23" d="M943.4,675.523c-2.6.548-8.222.274-10.825-.137-8.633-1.644-7.4-8.222-7.4-8.222l-4.248,7.537,13.429,6.577L936,678.538a1.507,1.507,0,0,1,1.37-.822,48.744,48.744,0,0,0,6.852-.411c6.3-.959,14.525-3.015,18.225-2.878a58.23,58.23,0,0,0-19.047,1.1Z" transform="translate(-920.928 -667.164)" fill="#bf7d66"/>
        </g>
        <g id="Group_46" data-name="Group 46" transform="translate(313.868 82.7)">
          <path id="Path_24" data-name="Path 24" d="M740.142,207.068c-1.233,0-5.207-.685-5.618-1.1-.548-.411-1.1-8.5,5.07-12.333,4.933-2.878,14.114-1.781,18.773,5.755,4.8,7.811-1.644,16.992-5.892,19.321-5.07,2.878-11.785,2.878-14.251,4.111s-4.659,6.3-4.933,6.715-5.07-.959-5.07-2.741c0-1.1.822-5.755,7.263-9.455,5.481-3.289,12.059-.411,16.307-7.811.959-1.644,3.426-6.166-1.507-9.318-5.344-3.426-8.907-.411-9.592,2.33-.274,1.1-.548,4.522-.548,4.522Z" transform="translate(-728.22 -192.177)" fill="url(#linear-gradient)"/>
        </g>
        <g id="Group_47" data-name="Group 47" transform="translate(310.115 120.833)">
          <path id="Path_25" data-name="Path 25" d="M724.5,288.26a3.859,3.859,0,1,0-4.8-2.6A3.865,3.865,0,0,0,724.5,288.26Z" transform="translate(-719.51 -280.67)" fill="url(#linear-gradient)"/>
        </g>
        <g id="Group_48" data-name="Group 48" transform="translate(143.655 76.706)">
          <path id="Path_26" data-name="Path 26" d="M343.653,197.234a38.71,38.71,0,0,1-4.385,3.563c-.685.137-7.126-4.8-5.892-11.922.959-5.618,7.811-11.785,16.581-10.414,9.044,1.507,11.785,12.333,10.825,17.129-1.1,5.618-5.481,10.688-6.166,13.429s1.644,7.674,1.781,8.085c.137.548-4.111,3.152-5.481,2.055-.822-.685-3.837-4.385-2.467-11.648,1.233-6.3,7.537-9.318,4.933-17.4-.685-1.918-2.467-6.578-7.948-4.933-6.029,1.781-6.166,6.441-4.522,8.77a28.343,28.343,0,0,0,2.741,3.289Z" transform="translate(-333.219 -178.267)" fill="url(#linear-gradient)"/>
        </g>
        <g id="Group_49" data-name="Group 49" transform="translate(162.996 118.557)">
          <path id="Path_27" data-name="Path 27" d="M381.939,283.062a3.837,3.837,0,1,0-3.837-3.837A3.83,3.83,0,0,0,381.939,283.062Z" transform="translate(-378.102 -275.388)" fill="url(#linear-gradient)"/>
        </g>
        <g id="Group_50" data-name="Group 50" transform="translate(198.448)">
          <path id="Path_28" data-name="Path 28" d="M482.748,39.751c-2.878,1.233-13.566,4.111-14.662,3.974-1.781-.274-13.84-15.9-3.7-30.01,7.948-11.1,31.517-18.773,52.483-8.907,21.788,10.277,18.225,35.628,11.237,44.946-8.359,11.1-24.529,18.362-28.914,23.706C494.807,78.668,496.314,91,496.04,92.1s-13.566,3.563-15.9,0c-1.37-2.055-5.481-12.333,4.933-26.858,9.044-12.47,28.366-13.84,29.325-33.162.274-4.522,0-16.033-15.759-16.855-17.4-.959-21.788,8.77-20.144,15.073.685,2.33,4.248,9.455,4.248,9.455Z" transform="translate(-460.373 -0.262)" fill="url(#linear-gradient)"/>
        </g>
        <g id="Group_51" data-name="Group 51" transform="translate(217.261 97.728)">
          <path id="Path_29" data-name="Path 29" d="M514.718,244.592c5.892,0,10.688-3.974,10.688-8.77,0-4.933-4.8-8.77-10.688-8.77s-10.688,3.974-10.688,8.77C504.167,240.618,508.963,244.592,514.718,244.592Z" transform="translate(-504.03 -227.052)" fill="url(#linear-gradient)"/>
        </g>
        <g id="Group_52" data-name="Group 52" transform="translate(33.315 83.533)">
          <path id="Path_30" data-name="Path 30" d="M108.041,243.8c-1.507,2.741-7.674,11.785-8.77,12.47-1.507.959-20.829-3.426-22.062-20.692-.959-13.7,12.2-34.669,34.669-40.424,23.3-6.029,36.862,15.622,37.41,27.406.685,13.977-6.989,29.873-7.126,36.724,0,6.852,9.044,15.348,9.592,16.444.548.959-8.222,11.374-12.2,10.14-2.33-.822-12.2-6.029-13.292-23.844-1.1-15.485,13.018-28.777,1.233-44.261-2.741-3.563-10.277-12.333-22.884-2.878C90.638,225.3,93.379,235.575,98.86,239.275c1.781,1.37,9.181,4.522,9.181,4.522Z" transform="translate(-77.16 -194.111)" fill="url(#linear-gradient)"/>
        </g>
        <g id="Group_53" data-name="Group 53" transform="translate(102.411 170.457)">
          <path id="Path_31" data-name="Path 31" d="M253.145,412.172c4.522-3.7,5.618-9.866,2.467-13.566s-9.318-3.7-13.84,0-5.618,9.866-2.467,13.566C242.457,416.008,248.76,416.008,253.145,412.172Z" transform="translate(-237.507 -395.831)" fill="url(#linear-gradient)"/>
        </g>
        <g id="Group_54" data-name="Group 54" transform="translate(358.894 105.601)">
          <path id="Path_32" data-name="Path 32" d="M870.861,277.326c-2.878-1.1-12.607-6.3-13.292-7.4-1.1-1.507,1.1-21.1,18.225-24.255,13.429-2.467,35.765,8.222,43.987,30.01,8.5,22.473-11.511,38.369-23.158,40.15-13.84,2.192-30.421-3.7-37.273-3.015S845.1,323.506,844.14,324.054c-.959.685-12.333-6.852-11.374-10.963.548-2.467,4.659-12.744,22.2-15.9,15.211-2.741,30.01,9.729,44.124-3.7,3.289-3.152,11.1-11.511.411-23.158-11.922-12.744-21.788-8.77-24.94-3.015-1.507,2.329-3.7,10-3.7,10Z" transform="translate(-832.709 -245.323)" fill="url(#linear-gradient)"/>
        </g>
        <g id="Group_55" data-name="Group 55" transform="translate(345.943 181.089)">
          <path id="Path_33" data-name="Path 33" d="M820.185,437.585c3.426-3.563,2.741-9.592-1.507-13.7s-10.414-4.522-13.84-.959-2.741,9.592,1.507,13.7C810.593,440.6,816.76,441.148,820.185,437.585Z" transform="translate(-802.655 -420.502)" fill="url(#linear-gradient)"/>
        </g>
      </g>
    </g>
  </g>
</svg>
