<svg xmlns="http://www.w3.org/2000/svg" width="1014" height="755.552" viewBox="0 0 1014 755.552">
  <g id="Sign_up-rafiki" data-name="Sign up-rafiki" transform="translate(0 -55)">
    <g id="freepik--background-complete--inject-70" transform="translate(0 55)">
      <rect id="Rectangle_19076" data-name="Rectangle 19076" width="1014" height="0.507" transform="translate(0 663.967)" fill="#ebebeb"/>
      <rect id="Rectangle_19077" data-name="Rectangle 19077" width="67.167" height="0.507" transform="translate(845.23 696.598)" fill="#ebebeb"/>
      <rect id="Rectangle_19078" data-name="Rectangle 19078" width="17.623" height="0.507" transform="translate(654.091 702.114)" fill="#ebebeb"/>
      <rect id="Rectangle_19079" data-name="Rectangle 19079" width="38.917" height="0.507" transform="translate(804.284 677.778)" fill="#ebebeb"/>
      <rect id="Rectangle_19080" data-name="Rectangle 19080" width="87.589" height="0.507" transform="translate(106.389 681.185)" fill="#ebebeb"/>
      <rect id="Rectangle_19081" data-name="Rectangle 19081" width="12.837" height="0.507" transform="translate(212.048 681.185)" fill="#ebebeb"/>
      <rect id="Rectangle_19082" data-name="Rectangle 19082" width="189.983" height="0.507" transform="translate(266.621 689.743)" fill="#ebebeb"/>
      <path id="Path_1344" data-name="Path 1344" d="M441.356,628.518H49.77a11.58,11.58,0,0,1-11.56-11.58V66.478A11.58,11.58,0,0,1,49.77,55H441.356a11.58,11.58,0,0,1,11.58,11.58V616.939A11.58,11.58,0,0,1,441.356,628.518ZM49.77,55.406A11.073,11.073,0,0,0,38.717,66.478v550.46A11.073,11.073,0,0,0,49.77,628.011H441.356a11.093,11.093,0,0,0,11.073-11.073V66.478a11.093,11.093,0,0,0-11.073-11.073Z" transform="translate(39.28 -55)" fill="#ebebeb"/>
      <path id="Path_1345" data-name="Path 1345" d="M657.687,628.518H266.08a11.6,11.6,0,0,1-11.58-11.58V66.478A11.6,11.6,0,0,1,266.08,55H657.687a11.58,11.58,0,0,1,11.539,11.478v550.46A11.58,11.58,0,0,1,657.687,628.518ZM266.08,55.406a11.093,11.093,0,0,0-11.073,11.073v550.46a11.093,11.093,0,0,0,11.073,11.073H657.687a11.093,11.093,0,0,0,11.073-11.073V66.478a11.093,11.093,0,0,0-11.073-11.073Z" transform="translate(261.626 -55)" fill="#ebebeb"/>
      <rect id="Rectangle_19083" data-name="Rectangle 19083" width="287.935" height="422.169" transform="translate(203.53 241.089)" fill="#f0f0f0"/>
      <rect id="Rectangle_19084" data-name="Rectangle 19084" width="267.595" height="77.977" transform="translate(213.69 254.372)" fill="#e0e0e0"/>
      <rect id="Rectangle_19085" data-name="Rectangle 19085" width="15.21" height="65.342" transform="translate(213.69 266.986)" fill="#ebebeb"/>
      <rect id="Rectangle_19086" data-name="Rectangle 19086" width="15.21" height="65.342" transform="translate(287.205 266.986)" fill="#ebebeb"/>
      <rect id="Rectangle_19087" data-name="Rectangle 19087" width="15.21" height="65.342" transform="matrix(0.985, -0.17, 0.17, 0.985, 370.865, 267.928)" fill="#ebebeb"/>
      <rect id="Rectangle_19088" data-name="Rectangle 19088" width="15.21" height="56.743" transform="translate(232.53 275.605)" fill="#ebebeb"/>
      <rect id="Rectangle_19089" data-name="Rectangle 19089" width="15.21" height="56.743" transform="translate(267.473 275.605)" fill="#ebebeb"/>
      <rect id="Rectangle_19090" data-name="Rectangle 19090" width="15.21" height="56.743" transform="translate(355.671 275.605)" fill="#ebebeb"/>
      <rect id="Rectangle_19091" data-name="Rectangle 19091" width="15.21" height="56.743" transform="translate(307.545 276.935) rotate(-12.53)" fill="#ebebeb"/>
      <rect id="Rectangle_19092" data-name="Rectangle 19092" width="7.605" height="68.587" transform="translate(253.277 263.741)" fill="#ebebeb"/>
      <rect id="Rectangle_19093" data-name="Rectangle 19093" width="7.605" height="68.587" transform="translate(343.685 263.741)" fill="#ebebeb"/>
      <rect id="Rectangle_19094" data-name="Rectangle 19094" width="267.595" height="77.977" transform="translate(481.305 422.676) rotate(180)" fill="#e0e0e0"/>
      <rect id="Rectangle_19095" data-name="Rectangle 19095" width="15.21" height="65.342" transform="translate(481.285 422.655) rotate(180)" fill="#ebebeb"/>
      <rect id="Rectangle_19096" data-name="Rectangle 19096" width="15.21" height="65.342" transform="translate(407.79 422.655) rotate(180)" fill="#ebebeb"/>
      <rect id="Rectangle_19097" data-name="Rectangle 19097" width="15.21" height="65.342" transform="matrix(-0.985, -0.17, 0.17, -0.985, 313.039, 422.64)" fill="#ebebeb"/>
      <rect id="Rectangle_19098" data-name="Rectangle 19098" width="15.21" height="56.743" transform="translate(462.445 422.676) rotate(180)" fill="#ebebeb"/>
      <rect id="Rectangle_19099" data-name="Rectangle 19099" width="15.21" height="56.743" transform="translate(427.523 422.676) rotate(180)" fill="#ebebeb"/>
      <rect id="Rectangle_19100" data-name="Rectangle 19100" width="15.21" height="56.743" transform="translate(339.325 422.676) rotate(180)" fill="#ebebeb"/>
      <rect id="Rectangle_19101" data-name="Rectangle 19101" width="15.21" height="56.743" transform="translate(375.189 422.662) rotate(-167.47)" fill="#ebebeb"/>
      <rect id="Rectangle_19102" data-name="Rectangle 19102" width="7.605" height="68.587" transform="translate(441.698 422.655) rotate(180)" fill="#ebebeb"/>
      <rect id="Rectangle_19103" data-name="Rectangle 19103" width="7.605" height="68.587" transform="translate(351.31 422.655) rotate(180)" fill="#ebebeb"/>
      <rect id="Rectangle_19104" data-name="Rectangle 19104" width="15.21" height="65.342" transform="translate(213.69 357.313)" fill="#ebebeb"/>
      <rect id="Rectangle_19105" data-name="Rectangle 19105" width="15.21" height="56.743" transform="translate(232.53 365.912)" fill="#ebebeb"/>
      <rect id="Rectangle_19106" data-name="Rectangle 19106" width="15.21" height="56.743" transform="translate(267.473 365.912)" fill="#ebebeb"/>
      <rect id="Rectangle_19107" data-name="Rectangle 19107" width="7.605" height="68.587" transform="translate(253.277 354.069)" fill="#ebebeb"/>
      <rect id="Rectangle_19108" data-name="Rectangle 19108" width="267.595" height="77.977" transform="translate(213.69 435.006)" fill="#e0e0e0"/>
      <rect id="Rectangle_19109" data-name="Rectangle 19109" width="15.21" height="65.342" transform="translate(367.291 447.62)" fill="#ebebeb"/>
      <rect id="Rectangle_19110" data-name="Rectangle 19110" width="15.21" height="65.342" transform="matrix(0.985, -0.17, 0.17, 0.985, 450.964, 448.557)" fill="#ebebeb"/>
      <rect id="Rectangle_19111" data-name="Rectangle 19111" width="15.21" height="56.743" transform="translate(312.616 456.239)" fill="#ebebeb"/>
      <rect id="Rectangle_19112" data-name="Rectangle 19112" width="15.21" height="56.743" transform="translate(347.559 456.239)" fill="#ebebeb"/>
      <rect id="Rectangle_19113" data-name="Rectangle 19113" width="15.21" height="56.743" transform="translate(435.756 456.239)" fill="#ebebeb"/>
      <rect id="Rectangle_19114" data-name="Rectangle 19114" width="15.21" height="56.743" transform="translate(387.637 457.571) rotate(-12.53)" fill="#ebebeb"/>
      <rect id="Rectangle_19115" data-name="Rectangle 19115" width="7.605" height="68.587" transform="translate(333.363 444.375)" fill="#ebebeb"/>
      <rect id="Rectangle_19116" data-name="Rectangle 19116" width="7.605" height="68.587" transform="translate(423.771 444.375)" fill="#ebebeb"/>
      <rect id="Rectangle_19117" data-name="Rectangle 19117" width="15.21" height="65.342" transform="matrix(0.985, -0.17, 0.17, 0.985, 276.075, 448.573)" fill="#ebebeb"/>
      <rect id="Rectangle_19118" data-name="Rectangle 19118" width="15.21" height="56.743" transform="translate(260.862 456.239)" fill="#ebebeb"/>
      <rect id="Rectangle_19119" data-name="Rectangle 19119" width="15.21" height="56.743" transform="translate(212.751 457.571) rotate(-12.53)" fill="#ebebeb"/>
      <rect id="Rectangle_19120" data-name="Rectangle 19120" width="7.605" height="68.587" transform="translate(248.896 444.375)" fill="#ebebeb"/>
      <rect id="Rectangle_19121" data-name="Rectangle 19121" width="49.686" height="423.264" transform="translate(203.53 664.352) rotate(180)" fill="#e0e0e0"/>
      <path id="Path_1346" data-name="Path 1346" d="M346.833,475.8h-42.2l22.186-180.776a16.1,16.1,0,0,1,15.555-13.851H526.432L499.44,475.716Z" transform="translate(313.16 177.503)" fill="#f5f5f5"/>
      <path id="Path_1347" data-name="Path 1347" d="M391.44,475.8h42.2l22.207-180.776a12.006,12.006,0,0,0-12.168-13.851h-14.5a16.224,16.224,0,0,0-15.555,13.851Z" transform="translate(402.4 177.501)" fill="#f0f0f0"/>
      <path id="Path_1348" data-name="Path 1348" d="M390.01,444.725l7.646-87.407a8.315,8.315,0,0,1,7.24-7.544l3.143-.406a11.134,11.134,0,0,0,9.714-10.14l1.4-15.94a11.174,11.174,0,0,0-11.134-12.168h70.534a11.174,11.174,0,0,1,11.134,12.168l-1.4,15.94a11.134,11.134,0,0,1-9.714,10.14l-3.143.406a8.335,8.335,0,0,0-7.24,7.544l-7.646,87.407a12.35,12.35,0,0,1-12.29,11.255H377.72a12.35,12.35,0,0,0,12.29-11.255Z" transform="translate(388.296 208.291)" fill="#e6e6e6"/>
      <path id="Path_1349" data-name="Path 1349" d="M301.475,335.486A26.567,26.567,0,0,0,275.01,311.15h61.408a26.567,26.567,0,0,1,26.364,24.336l6.084,69.276H307.539Z" transform="translate(282.71 208.322)" fill="#e6e6e6"/>
      <path id="Path_1350" data-name="Path 1350" d="M267.22,311.19h27.256a26.567,26.567,0,0,1,26.465,24.336l6.084,69.276H473.285l6.084-69.276a26.547,26.547,0,0,1,26.364-24.336H533.01a11.174,11.174,0,0,1,11.134,12.168l-1.4,15.94a11.134,11.134,0,0,1-9.714,10.14l-3.143.406a8.315,8.315,0,0,0-7.24,7.544l-7.564,87.265a12.35,12.35,0,0,1-12.29,11.255H297.518a12.35,12.35,0,0,1-12.29-11.255l-7.646-87.407a8.355,8.355,0,0,0-7.24-7.544L267.2,349.3a11.174,11.174,0,0,1-9.734-10.14l-1.379-15.94A11.174,11.174,0,0,1,267.22,311.19Z" transform="translate(263.224 208.363)" fill="#f0f0f0"/>
      <path id="Path_1351" data-name="Path 1351" d="M112.574,203.336s-2.251-14.825,8.558-24.336,9.856-15.149,6.753-15.879-5.922,8.761-10.667,11.377c0,0-.162-13.547,4.664-18.516s7.362-17.846,2.758-18.069-5.05,7.625-6.084,13.2-6.084,13.405-6.084,13.405-.994-12.168-4.056-17.1,5.192-16.386,2.028-21.355-8.9,4.5-8.436,15.19,7.6,22.085,5.942,33.239c0,0-3.143-7.848-5.962-8.558s-5.678-5.881-7.564-7.808-4.279,4.725,0,10.89,15.19,22.693,13.527,36.038Z" transform="translate(94.607 16.662)" fill="#e6e6e6"/>
      <path id="Path_1352" data-name="Path 1352" d="M116.831,160.15l3.549,22.207a11.3,11.3,0,0,1-11.154,13.06h-3.772A11.3,11.3,0,0,1,94.3,182.357l3.59-22.207Z" transform="translate(96.798 53.094)" fill="#e6e6e6"/>
      <rect id="Rectangle_19122" data-name="Rectangle 19122" width="11.012" height="47.354" transform="translate(436.993 244.171) rotate(180)" fill="#ebebeb"/>
      <rect id="Rectangle_19123" data-name="Rectangle 19123" width="11.012" height="47.354" transform="translate(383.738 244.171) rotate(180)" fill="#ebebeb"/>
      <rect id="Rectangle_19124" data-name="Rectangle 19124" width="11.012" height="47.354" transform="matrix(-0.985, -0.17, 0.17, -0.985, 315.081, 244.157)" fill="#ebebeb"/>
      <rect id="Rectangle_19125" data-name="Rectangle 19125" width="11.012" height="41.108" transform="translate(423.345 244.151) rotate(180)" fill="#ebebeb"/>
      <rect id="Rectangle_19126" data-name="Rectangle 19126" width="11.012" height="41.108" transform="translate(398.036 244.151) rotate(180)" fill="#ebebeb"/>
      <rect id="Rectangle_19127" data-name="Rectangle 19127" width="11.012" height="41.108" transform="translate(334.113 244.151) rotate(180)" fill="#ebebeb"/>
      <rect id="Rectangle_19128" data-name="Rectangle 19128" width="11.012" height="41.108" transform="translate(360.115 244.156) rotate(-167.47)" fill="#ebebeb"/>
      <rect id="Rectangle_19129" data-name="Rectangle 19129" width="5.516" height="49.706" transform="translate(408.318 244.171) rotate(180)" fill="#ebebeb"/>
      <rect id="Rectangle_19130" data-name="Rectangle 19130" width="5.516" height="49.706" transform="translate(342.793 244.171) rotate(180)" fill="#ebebeb"/>
      <rect id="Rectangle_19131" data-name="Rectangle 19131" width="53.681" height="37.052" transform="translate(244.333 206.572)" fill="#ebebeb"/>
      <rect id="Rectangle_19132" data-name="Rectangle 19132" width="44.961" height="27.662" transform="translate(437.156 221.742)" fill="#ebebeb"/>
      <rect id="Rectangle_19133" data-name="Rectangle 19133" width="22.491" height="27.662" transform="translate(449.121 197.426)" fill="#ebebeb"/>
      <rect id="Rectangle_19134" data-name="Rectangle 19134" width="53.478" height="222.837" transform="translate(793.84 160.82)" fill="#e0e0e0"/>
      <rect id="Rectangle_19135" data-name="Rectangle 19135" width="200.001" height="223.425" transform="translate(841.579 384.265) rotate(180)" fill="#e0e0e0"/>
      <rect id="Rectangle_19136" data-name="Rectangle 19136" width="207.505" height="223.425" transform="translate(842.634 384.265) rotate(180)" fill="#f0f0f0"/>
      <rect id="Rectangle_19137" data-name="Rectangle 19137" width="190.105" height="206.045" transform="translate(834.116 373.983) rotate(180)" fill="#fff"/>
      <rect id="Rectangle_19138" data-name="Rectangle 19138" width="3.529" height="206.045" transform="translate(647.52 373.983) rotate(180)" fill="#e0e0e0"/>
      <rect id="Rectangle_19139" data-name="Rectangle 19139" width="5.557" height="187.671" transform="translate(646.952 321.681) rotate(-90)" fill="#e0e0e0"/>
      <rect id="Rectangle_19140" data-name="Rectangle 19140" width="193.086" height="9.329" transform="translate(837.077 316.104) rotate(180)" fill="#f0f0f0"/>
    </g>
    <g id="freepik--Shadow--inject-70" transform="translate(113.791 764.638)">
      <ellipse id="freepik--path--inject-70" cx="393.209" cy="22.957" rx="393.209" ry="22.957" fill="#f5f5f5"/>
    </g>
    <g id="freepik--Tab--inject-70" transform="translate(275.24 253.379)">
      <rect id="Rectangle_19141" data-name="Rectangle 19141" width="392.519" height="456.908" rx="7.32" fill="#febf09"/>
      <rect id="Rectangle_19142" data-name="Rectangle 19142" width="392.519" height="456.908" rx="7.32" fill="#fff" opacity="0.6"/>
      <rect id="Rectangle_19143" data-name="Rectangle 19143" width="265.344" height="45.427" transform="translate(63.598 209.553)" fill="#fff"/>
      <g id="Group_76400" data-name="Group 76400" transform="translate(78.119 224.073)" opacity="0.4">
        <path id="Path_1353" data-name="Path 1353" d="M183.447,275.523v1.2H174.24V263.7h8.923v1.176h-7.544v4.644h6.733v1.156h-6.733v4.847Z" transform="translate(-174.24 -262.909)" fill="#263238"/>
        <path id="Path_1354" data-name="Path 1354" d="M179.69,267.35h4.887v1.136H179.69Z" transform="translate(-168.637 -259.157)" fill="#263238"/>
        <path id="Path_1355" data-name="Path 1355" d="M199.693,269.454v5.678h-1.318v-5.557c0-2.028-1.034-3.123-2.8-3.123a3.144,3.144,0,0,0-3.265,3.529v5.151h-1.338v-5.557c0-2.028-1.034-3.123-2.819-3.123a3.144,3.144,0,0,0-3.265,3.529v5.151H183.55v-9.8h1.278v1.785a4.056,4.056,0,0,1,3.59-1.866,3.488,3.488,0,0,1,3.468,2.028,4.3,4.3,0,0,1,3.874-2.028,3.691,3.691,0,0,1,3.934,4.2Z" transform="translate(-164.669 -261.322)" fill="#263238"/>
        <path id="Path_1356" data-name="Path 1356" d="M201.093,269.055v6.084h-1.278V273.6a3.65,3.65,0,0,1-3.366,1.622c-2.211,0-3.569-1.156-3.569-2.839s.973-2.778,3.772-2.778h3.1v-.588c0-1.683-.933-2.6-2.758-2.6a5.03,5.03,0,0,0-3.265,1.156l-.588-.973a6.084,6.084,0,0,1,4.056-1.339,3.488,3.488,0,0,1,3.894,3.792Zm-1.339,3.143v-1.6h-3.062c-1.886,0-2.515.73-2.515,1.744s.913,1.845,2.474,1.845a3.1,3.1,0,0,0,3.1-1.987Z" transform="translate(-155.078 -261.328)" fill="#263238"/>
        <path id="Path_1357" data-name="Path 1357" d="M198.55,264.243a.953.953,0,0,1,.973-.933.933.933,0,0,1,.953.913.963.963,0,1,1-1.927.02Zm.3,3.083h1.318v9.8h-1.318Z" transform="translate(-149.249 -263.31)" fill="#263238"/>
        <path id="Path_1358" data-name="Path 1358" d="M201.16,263.31h1.318v13.811H201.16Z" transform="translate(-146.566 -263.31)" fill="#263238"/>
      </g>
      <rect id="Rectangle_19144" data-name="Rectangle 19144" width="265.344" height="45.427" transform="translate(63.598 271.61)" fill="#fff"/>
      <g id="Group_76401" data-name="Group 76401" transform="translate(78.119 286.313)" opacity="0.4">
        <path id="Path_1359" data-name="Path 1359" d="M184.421,298.812c0,2.778-2.028,4.462-5.313,4.462h-3.488v4.056H174.24V294.31h4.867C182.413,294.351,184.421,296.034,184.421,298.812Zm-1.379,0c0-2.028-1.359-3.265-4.056-3.265h-3.448v6.51h3.448C181.683,302.057,183.042,300.861,183.042,298.812Z" transform="translate(-174.24 -293.681)" fill="#263238"/>
        <path id="Path_1360" data-name="Path 1360" d="M188.353,299.728v6.084h-1.278v-1.541a3.65,3.65,0,0,1-3.366,1.622c-2.211,0-3.569-1.156-3.569-2.859s.973-2.819,3.772-2.819h3.1v-.608c0-1.663-.953-2.576-2.778-2.576a4.948,4.948,0,0,0-3.245,1.156l-.608-.994a6.246,6.246,0,0,1,4.056-1.318,3.488,3.488,0,0,1,3.914,3.853Zm-1.318,3.123v-1.6h-3.123c-1.886,0-2.494.75-2.494,1.764s.892,1.825,2.474,1.825a3.123,3.123,0,0,0,3.143-1.987Z" transform="translate(-168.175 -292.103)" fill="#263238"/>
        <path id="Path_1361" data-name="Path 1361" d="M185.29,304.631l.588-1.034a6.084,6.084,0,0,0,3.488,1.1c1.845,0,2.616-.629,2.616-1.6,0-2.555-6.348-.548-6.348-4.4,0-1.6,1.379-2.8,3.873-2.8a6.812,6.812,0,0,1,3.468.913l-.588,1.055a5.029,5.029,0,0,0-2.88-.831c-1.764,0-2.555.69-2.555,1.622,0,2.636,6.348.649,6.348,4.4,0,1.7-1.48,2.8-4.056,2.8A6.49,6.49,0,0,1,185.29,304.631Z" transform="translate(-162.881 -292.057)" fill="#263238"/>
        <path id="Path_1362" data-name="Path 1362" d="M189.77,304.631l.608-1.034a5.881,5.881,0,0,0,3.468,1.1c1.866,0,2.616-.629,2.616-1.6,0-2.555-6.327-.548-6.327-4.4,0-1.6,1.379-2.8,3.853-2.8a6.712,6.712,0,0,1,3.468.913l-.568,1.055a5.13,5.13,0,0,0-2.9-.832c-1.764,0-2.535.69-2.535,1.622,0,2.636,6.348.649,6.348,4.4,0,1.7-1.5,2.8-4.056,2.8a6.59,6.59,0,0,1-3.975-1.217Z" transform="translate(-158.275 -292.057)" fill="#263238"/>
        <path id="Path_1363" data-name="Path 1363" d="M210.042,295.93l-3.691,9.775h-1.237l-3-8.011-3.083,8.011h-1.237L194,295.93h1.257l3.083,8.315,3.143-8.315h1.136l3.123,8.315,3.1-8.315Z" transform="translate(-153.927 -292.016)" fill="#263238"/>
        <path id="Path_1364" data-name="Path 1364" d="M202.271,300.869a4.989,4.989,0,1,1,4.989,4.989,4.827,4.827,0,0,1-4.989-4.989Zm8.619,0a3.65,3.65,0,1,0-3.63,3.813,3.569,3.569,0,0,0,3.63-3.813Z" transform="translate(-145.427 -292.067)" fill="#263238"/>
        <path id="Path_1365" data-name="Path 1365" d="M213.438,295.9v1.278h-.324a3.164,3.164,0,0,0-3.285,3.59v4.989H208.51v-9.775h1.257v1.906a3.711,3.711,0,0,1,3.671-1.987Z" transform="translate(-139.01 -292.067)" fill="#263238"/>
        <path id="Path_1366" data-name="Path 1366" d="M221.387,294v13.79H220.13v-1.927a4.259,4.259,0,0,1-3.772,2.028,4.989,4.989,0,0,1,0-9.957,4.238,4.238,0,0,1,3.711,2.028V294Zm-1.3,8.9a3.65,3.65,0,1,0-3.63,3.813,3.569,3.569,0,0,0,3.63-3.914Z" transform="translate(-135.745 -294)" fill="#263238"/>
      </g>
      <rect id="Rectangle_19145" data-name="Rectangle 19145" width="265.344" height="45.427" transform="translate(63.598 363.377)" opacity="0.2"/>
      <g id="Group_76402" data-name="Group 76402" transform="translate(122.004 335.831)" opacity="0.5">
        <path id="Path_1367" data-name="Path 1367" d="M202,324.619h-4.34l-.933,2.028h-.852l3.549-7.767h.811l3.549,7.767h-.852Zm-.3-.669-1.866-4.178-1.866,4.178Z" transform="translate(-195.88 -317.942)"/>
        <path id="Path_1368" data-name="Path 1368" d="M200.34,318.67h.791V326.9h-.791Z" transform="translate(-191.295 -318.158)"/>
        <path id="Path_1369" data-name="Path 1369" d="M204.8,319.84v.771h-.2a1.886,1.886,0,0,0-2.028,2.15v2.981h-.791V319.9h.771v1.136A2.19,2.19,0,0,1,204.8,319.84Z" transform="translate(-189.815 -316.975)"/>
        <path id="Path_1370" data-name="Path 1370" d="M209.371,323.035H204.4a2.15,2.15,0,0,0,2.292,2.028,2.352,2.352,0,0,0,1.8-.75l.426.507a3.083,3.083,0,0,1-5.313-2.028,2.819,2.819,0,0,1,2.86-2.961,2.778,2.778,0,0,1,2.839,2.961A1.012,1.012,0,0,1,209.371,323.035Zm-4.887-.588h4.056a2.028,2.028,0,1,0-4.056,0Z" transform="translate(-187.935 -316.966)"/>
        <path id="Path_1371" data-name="Path 1371" d="M211.746,322.166v3.61h-.69v-.913a2.15,2.15,0,0,1-2.028.973c-1.318,0-2.028-.69-2.028-1.7s.568-1.663,2.251-1.663h1.8v-.345c0-.994-.568-1.541-1.663-1.541a3,3,0,0,0-2.028.69l-.345-.588a3.631,3.631,0,0,1,2.373-.791,2.028,2.028,0,0,1,2.352,2.271Zm-.771,1.866v-.973h-1.845c-1.136,0-1.5.446-1.5,1.055s.548,1.1,1.48,1.1a1.906,1.906,0,0,0,1.947-1.278Z" transform="translate(-184.449 -316.929)"/>
        <path id="Path_1372" data-name="Path 1372" d="M215.908,318.67V326.9h-.75v-1.156a2.494,2.494,0,0,1-2.251,1.217,2.981,2.981,0,0,1,0-5.942,2.6,2.6,0,0,1,2.231,1.156V318.67Zm-.771,5.313a2.17,2.17,0,1,0-2.17,2.271,2.13,2.13,0,0,0,2.251-2.271Z" transform="translate(-181.189 -318.158)"/>
        <path id="Path_1373" data-name="Path 1373" d="M219.778,319.85l-2.92,6.55a2.139,2.139,0,0,1-3.448.973l.365-.588a1.521,1.521,0,0,0,1.075.446c.527,0,.872-.243,1.217-.994l.243-.548-2.616-5.841h.913l2.211,4.969,2.19-4.969Z" transform="translate(-177.859 -316.945)"/>
        <path id="Path_1374" data-name="Path 1374" d="M223.146,322.166v3.61h-.75v-.913a2.15,2.15,0,0,1-2.028.974c-1.318,0-2.028-.69-2.028-1.7s.568-1.663,2.251-1.663h1.845v-.345c0-.994-.548-1.541-1.643-1.541a3,3,0,0,0-2.028.69l-.365-.588a3.691,3.691,0,0,1,2.393-.791,2.028,2.028,0,0,1,2.352,2.271Zm-.791,1.866v-.973H220.53c-1.136,0-1.5.446-1.5,1.055s.548,1.1,1.48,1.1a1.866,1.866,0,0,0,1.845-1.278Z" transform="translate(-172.791 -316.929)"/>
        <path id="Path_1375" data-name="Path 1375" d="M232.955,322.383v3.387h-.771v-3.306c0-1.237-.629-1.866-1.683-1.866a1.886,1.886,0,0,0-2.028,2.028v3.062H227.7v-3.224c0-1.237-.629-1.866-1.7-1.866a1.886,1.886,0,0,0-2.028,2.028v3.062h-.791v-5.841h.75v1.075a2.353,2.353,0,0,1,2.15-1.115,2.028,2.028,0,0,1,2.028,1.237,2.535,2.535,0,0,1,2.312-1.237,2.19,2.19,0,0,1,2.535,2.576Z" transform="translate(-167.816 -317.024)"/>
        <path id="Path_1376" data-name="Path 1376" d="M234.409,322.973h-4.887A2.19,2.19,0,0,0,231.834,325a2.291,2.291,0,0,0,1.785-.75l.446.507a2.941,2.941,0,0,1-2.251.953,2.88,2.88,0,0,1-3.062-2.981,2.839,2.839,0,0,1,5.678,0S234.409,322.891,234.409,322.973Zm-4.887-.588h4.157a2.079,2.079,0,1,0-4.157,0Z" transform="translate(-162.091 -316.903)"/>
        <path id="Path_1377" data-name="Path 1377" d="M242.055,322.383v3.387h-.791v-3.306c0-1.237-.608-1.866-1.663-1.866a1.866,1.866,0,0,0-2.028,2.028v3.062h-.791v-3.224c0-1.237-.608-1.866-1.683-1.866a1.866,1.866,0,0,0-2.028,2.028v3.062h-.791v-5.841h.75v1.075a2.332,2.332,0,0,1,2.15-1.115,2.028,2.028,0,0,1,2.028,1.237,2.535,2.535,0,0,1,2.312-1.237,2.19,2.19,0,0,1,2.535,2.576Z" transform="translate(-158.461 -317.024)"/>
        <path id="Path_1378" data-name="Path 1378" d="M244.082,323.983a2.839,2.839,0,0,1-2.9,2.981,2.494,2.494,0,0,1-2.251-1.217V326.9h-.771V318.67h.791v3.508a2.576,2.576,0,0,1,2.231-1.156,2.819,2.819,0,0,1,2.9,2.961Zm-.791,0a2.17,2.17,0,1,0-2.17,2.271,2.129,2.129,0,0,0,2.17-2.271Z" transform="translate(-152.416 -318.158)"/>
        <path id="Path_1379" data-name="Path 1379" d="M247.26,323.076h-4.847A2.15,2.15,0,0,0,244.7,325.1a2.292,2.292,0,0,0,1.764-.832l.446.507a3.083,3.083,0,0,1-5.313-2.028,2.819,2.819,0,0,1,2.86-2.961,2.758,2.758,0,0,1,2.819,2.961Zm-4.887-.588h4.056a2.028,2.028,0,1,0-4.056,0Z" transform="translate(-148.882 -317.007)"/>
        <path id="Path_1380" data-name="Path 1380" d="M248.161,319.839v.771h-.182a1.886,1.886,0,0,0-2.028,2.15v2.981h-.791V319.9h.75v1.136A2.211,2.211,0,0,1,248.161,319.839Z" transform="translate(-145.22 -316.974)"/>
        <path id="Path_1381" data-name="Path 1381" d="M251.442,320.932c0-.811-.649-1.359-1.785-1.359a2.636,2.636,0,0,0-2.129.892l-.588-.446a3.447,3.447,0,0,1,2.778-1.156c1.562,0,2.555.75,2.555,2.028,0,1.886-2.028,2.028-2.028,3.569h-.831C249.414,322.554,251.442,322.371,251.442,320.932Zm-2.19,5.253a.588.588,0,1,1,.253.6A.588.588,0,0,1,249.252,326.184Z" transform="translate(-143.39 -317.965)"/>
        <path id="Path_1382" data-name="Path 1382" d="M251.87,318.9h1.8v6.287h3.894v1.46h-5.7Z" transform="translate(-138.322 -317.921)"/>
        <path id="Path_1383" data-name="Path 1383" d="M254.883,323.028a3.285,3.285,0,1,1,3.285,3.083,3.083,3.083,0,0,1-3.285-3.083Zm4.806,0a1.521,1.521,0,1,0-1.521,1.643,1.5,1.5,0,0,0,1.521-1.643Z" transform="translate(-135.231 -317.263)"/>
        <path id="Path_1384" data-name="Path 1384" d="M265.194,319.826v4.989a2.92,2.92,0,0,1-3.346,3.245,4.948,4.948,0,0,1-2.941-.831l.689-1.237a3.589,3.589,0,0,0,2.028.669c1.217,0,1.764-.547,1.764-1.622v-.264a2.454,2.454,0,0,1-1.886.75,2.9,2.9,0,1,1,0-5.78,2.393,2.393,0,0,1,2.028.852v-.771Zm-1.7,2.819a1.44,1.44,0,0,0-1.562-1.481,1.48,1.48,0,1,0,0,2.941,1.44,1.44,0,0,0,1.562-1.46Z" transform="translate(-131.65 -317.063)"/>
        <path id="Path_1385" data-name="Path 1385" d="M264,319.4a.994.994,0,0,1,1.075-.974.973.973,0,0,1,1.075.933,1.075,1.075,0,1,1-2.15,0Zm.2,1.785h1.724v6.084H264.2Z" transform="translate(-125.853 -318.417)"/>
        <path id="Path_1386" data-name="Path 1386" d="M271.834,322.39v3.427h-1.724v-3.143c0-.973-.446-1.42-1.217-1.42a1.421,1.421,0,0,0-1.44,1.6v2.961H265.73v-6.084h1.663v.71a2.616,2.616,0,0,1,2.028-.791,2.332,2.332,0,0,1,2.413,2.738Z" transform="translate(-124.074 -317.152)"/>
      </g>
      <rect id="Rectangle_19146" data-name="Rectangle 19146" width="265.344" height="45.427" transform="translate(63.598 360.599)" fill="#febf09"/>
      <path id="Path_1387" data-name="Path 1387" d="M220.822,353.174l-3.245-4.685h-4.827v4.725H210.52V337.66H216.6c4.056,0,6.469,2.028,6.469,5.435A4.908,4.908,0,0,1,219.666,348l3.691,5.212Zm0-10.14c0-2.231-1.48-3.488-4.34-3.488H212.71v7h3.772c2.8.02,4.279-1.278,4.279-3.488Z" transform="translate(-58.826 37.195)" fill="#fff"/>
      <path id="Path_1388" data-name="Path 1388" d="M229.456,346.174H219.9a4.056,4.056,0,0,0,4.259,3.448,4.421,4.421,0,0,0,3.407-1.42l1.176,1.379a6.429,6.429,0,0,1-10.992-4.056,5.78,5.78,0,0,1,5.922-6.084,5.679,5.679,0,0,1,5.82,6.084C229.5,345.708,229.476,345.971,229.456,346.174Zm-9.552-1.541h7.544a3.792,3.792,0,0,0-7.544,0Z" transform="translate(-51.397 39.024)" fill="#fff"/>
      <path id="Path_1389" data-name="Path 1389" d="M236.656,339.563V349.7c0,4.157-2.129,6.084-6.084,6.084a8.721,8.721,0,0,1-5.618-1.744l1.014-1.643a7.24,7.24,0,0,0,4.543,1.521c2.778,0,4.056-1.278,4.056-3.955v-.933a5.333,5.333,0,0,1-4.239,1.825,5.7,5.7,0,1,1,0-11.4,5.354,5.354,0,0,1,4.36,2.028v-1.825Zm-2.028,5.577a4.056,4.056,0,1,0-4.056,3.833,3.772,3.772,0,0,0,4-3.833Z" transform="translate(-44.321 39.045)" fill="#fff"/>
      <path id="Path_1390" data-name="Path 1390" d="M232.38,338.424a1.42,1.42,0,0,1,1.44-1.4,1.386,1.386,0,1,1-1.44,1.4Zm.385,3.65h2.129v11.762h-2.129Z" transform="translate(-36.354 36.532)" fill="#fff"/>
      <path id="Path_1391" data-name="Path 1391" d="M234.89,350.1l.892-1.683a7.544,7.544,0,0,0,4.056,1.217c2.028,0,2.8-.608,2.8-1.6,0-2.636-7.443-.345-7.443-5.05,0-2.028,1.886-3.529,4.908-3.529a8.518,8.518,0,0,1,4.279,1.075l-.913,1.683a6.084,6.084,0,0,0-3.387-.933c-1.866,0-2.778.69-2.778,1.622,0,2.778,7.463.507,7.463,5.09,0,2.028-2.028,3.488-5.09,3.488a8.557,8.557,0,0,1-4.786-1.379Z" transform="translate(-33.773 39.035)" fill="#fff"/>
      <path id="Path_1392" data-name="Path 1392" d="M248.605,351.918a4.056,4.056,0,0,1-2.576.832,3.366,3.366,0,0,1-3.731-3.691V342.59H240.27v-1.744H242.3V338.27h2.028v2.576h3.508v1.744h-3.387v6.388a1.724,1.724,0,0,0,1.845,2.028,2.717,2.717,0,0,0,1.663-.547Z" transform="translate(-28.243 37.823)" fill="#fff"/>
      <path id="Path_1393" data-name="Path 1393" d="M256.575,346.174h-9.491a4.056,4.056,0,0,0,4.279,3.448,4.36,4.36,0,0,0,3.387-1.42l1.176,1.379a6.408,6.408,0,0,1-10.971-4.056,5.78,5.78,0,0,1,5.922-6.084,5.7,5.7,0,0,1,5.82,6.084A3.693,3.693,0,0,1,256.575,346.174Zm-9.491-1.541h7.564a3.813,3.813,0,0,0-7.564,0Z" transform="translate(-23.436 39.024)" fill="#fff"/>
      <path id="Path_1394" data-name="Path 1394" d="M258.5,339.461v2.028h-.487a3.508,3.508,0,0,0-3.711,4.056v5.861H252.17V339.643H254.2v2.028a4.461,4.461,0,0,1,4.3-2.211Z" transform="translate(-16.009 39.025)" fill="#fff"/>
      <g id="Group_76403" data-name="Group 76403" transform="translate(149.808 33.806)" opacity="0.6">
        <path id="Path_1395" data-name="Path 1395" d="M209.59,185.321l.913-1.906a8.68,8.68,0,0,0,5.618,2.028c2.941,0,4.2-1.136,4.2-2.616,0-4.056-10.3-1.541-10.3-7.848,0-2.636,2.028-4.867,6.51-4.867a10.14,10.14,0,0,1,5.476,1.5l-.811,2.028a8.741,8.741,0,0,0-4.664-1.379c-2.9,0-4.056,1.217-4.056,2.7,0,4.056,10.323,1.541,10.323,7.808,0,2.6-2.028,4.827-6.591,4.827a10.14,10.14,0,0,1-6.611-2.271Z" transform="translate(-209.59 -168.852)" fill="#263238"/>
        <path id="Path_1396" data-name="Path 1396" d="M217.44,171.012a1.541,1.541,0,0,1,1.582-1.521,1.521,1.521,0,0,1,1.582,1.48,1.582,1.582,0,0,1-3.164,0Zm.406,4.056H220.2v12.9h-2.353Z" transform="translate(-201.52 -169.489)" fill="#263238"/>
        <path id="Path_1397" data-name="Path 1397" d="M233.912,172.256V183.39c0,4.563-2.312,6.632-6.672,6.632a9.613,9.613,0,0,1-6.084-1.927l1.115-1.8a7.808,7.808,0,0,0,4.969,1.683c3.042,0,4.421-1.42,4.421-4.34v-1.014a5.881,5.881,0,0,1-4.644,2.028,6.246,6.246,0,1,1,0-12.472,5.9,5.9,0,0,1,4.766,2.028v-2.028Zm-2.271,6.084a4.441,4.441,0,1,0-4.441,4.218,4.178,4.178,0,0,0,4.543-4.2Z" transform="translate(-198.462 -166.739)" fill="#263238"/>
        <path id="Path_1398" data-name="Path 1398" d="M241.5,177.733v7.422h-2.353v-7.24c0-2.535-1.257-3.772-3.468-3.772a3.833,3.833,0,0,0-4.056,4.279v6.652H229.29v-12.9h2.251V174.2a5.476,5.476,0,0,1,4.644-2.028,5.009,5.009,0,0,1,5.313,5.557Z" transform="translate(-189.338 -166.74)" fill="#263238"/>
        <path id="Path_1399" data-name="Path 1399" d="M252.774,172.282v12.9h-2.211v-2.028a5.252,5.252,0,0,1-4.38,2.028,5.07,5.07,0,0,1-5.557-5.618V172.14h2.332V179.3c0,2.515,1.278,3.792,3.488,3.792a3.813,3.813,0,0,0,4.056-4.279V172.14Z" transform="translate(-177.718 -166.765)" fill="#263238"/>
        <path id="Path_1400" data-name="Path 1400" d="M262.144,178.7a6.266,6.266,0,0,1-6.51,6.591,5.536,5.536,0,0,1-4.5-2.028v6.652H248.8v-17.6h2.231v2.028a5.5,5.5,0,0,1,4.6-2.17,6.246,6.246,0,0,1,6.51,6.53Zm-2.353,0a4.34,4.34,0,1,0-4.36,4.543,4.279,4.279,0,0,0,4.36-4.543Z" transform="translate(-169.282 -166.737)" fill="#263238"/>
      </g>
      <rect id="Rectangle_19147" data-name="Rectangle 19147" width="265.344" height="45.427" transform="translate(63.598 147.476)" fill="#fff"/>
      <g id="Group_76404" data-name="Group 76404" transform="translate(78.119 162.788)" opacity="0.4">
        <path id="Path_1401" data-name="Path 1401" d="M174.24,233.09h1.379v11.823H182.9v1.2h-8.66Z" transform="translate(-174.24 -233.09)" fill="#263238"/>
        <path id="Path_1402" data-name="Path 1402" d="M187.313,238.445v6.084h-1.257v-1.521a3.731,3.731,0,0,1-3.366,1.622c-2.211,0-3.569-1.156-3.569-2.859s.953-2.758,3.772-2.758h3.1v-.588c0-1.683-.953-2.6-2.778-2.6a4.948,4.948,0,0,0-3.245,1.156l-.608-.994a6.307,6.307,0,0,1,4.056-1.318,3.488,3.488,0,0,1,3.894,3.772Zm-1.318,3.123v-1.6h-3.062c-1.906,0-2.515.75-2.515,1.764s.913,1.825,2.474,1.825a3.123,3.123,0,0,0,3.1-1.987Z" transform="translate(-169.223 -231.489)" fill="#263238"/>
        <path id="Path_1403" data-name="Path 1403" d="M184.26,243.431l.588-1.034a6.084,6.084,0,0,0,3.488,1.1c1.866,0,2.616-.629,2.616-1.6,0-2.555-6.327-.548-6.327-4.4,0-1.6,1.359-2.8,3.853-2.8a6.712,6.712,0,0,1,3.468.913l-.588,1.055a5.029,5.029,0,0,0-2.88-.832c-1.764,0-2.535.69-2.535,1.622,0,2.636,6.327.649,6.327,4.4,0,1.7-1.48,2.8-4.056,2.8A6.571,6.571,0,0,1,184.26,243.431Z" transform="translate(-163.939 -231.446)" fill="#263238"/>
        <path id="Path_1404" data-name="Path 1404" d="M195.372,244.967a3.184,3.184,0,0,1-2.028.689,2.6,2.6,0,0,1-2.859-2.859v-5.9H188.72V235.78h1.764v-2.15H191.8v2.15h2.961V236.9H191.8v5.841a1.562,1.562,0,0,0,1.683,1.785,2.17,2.17,0,0,0,1.46-.507Z" transform="translate(-159.355 -232.535)" fill="#263238"/>
        <path id="Path_1405" data-name="Path 1405" d="M206.51,233.09v13.02h-1.136l-8.355-10.566V246.11H195.64V233.09h1.136l8.376,10.566V233.09Z" transform="translate(-152.241 -233.09)" fill="#263238"/>
        <path id="Path_1406" data-name="Path 1406" d="M210.814,238.444v6.084h-1.3v-1.521a3.691,3.691,0,0,1-3.366,1.622c-2.211,0-3.569-1.156-3.569-2.859s.973-2.758,3.792-2.758h3.143v-.588c0-1.683-.953-2.6-2.778-2.6a4.948,4.948,0,0,0-3.245,1.156l-.608-.994a6.246,6.246,0,0,1,4.056-1.318,3.488,3.488,0,0,1,3.874,3.772Zm-1.318,3.123v-1.6h-3.083c-1.886,0-2.494.75-2.494,1.764s.913,1.825,2.474,1.825a3.123,3.123,0,0,0,3.123-1.987Z" transform="translate(-145.106 -231.488)" fill="#263238"/>
        <path id="Path_1407" data-name="Path 1407" d="M224.553,238.837v5.678h-1.318v-5.536c0-2.028-1.055-3.123-2.819-3.123a3.143,3.143,0,0,0-3.265,3.529v5.131h-1.318v-5.536c0-2.028-1.055-3.123-2.839-3.123a3.143,3.143,0,0,0-3.265,3.529v5.131H208.41V234.74h1.2v1.785a4.056,4.056,0,0,1,3.59-1.866,3.529,3.529,0,0,1,3.488,2.028,4.259,4.259,0,0,1,3.853-2.028,3.691,3.691,0,0,1,4.015,4.178Z" transform="translate(-139.113 -231.495)" fill="#263238"/>
        <path id="Path_1408" data-name="Path 1408" d="M227.143,240.025h-8.112a3.63,3.63,0,0,0,3.853,3.407,3.873,3.873,0,0,0,3-1.278l.73.852a5.171,5.171,0,0,1-8.9-3.387,4.725,4.725,0,0,1,4.786-4.969,4.665,4.665,0,0,1,4.745,4.969A.713.713,0,0,0,227.143,240.025Zm-8.112-.973h6.936a3.468,3.468,0,1,0-6.936,0Z" transform="translate(-129.556 -231.487)" fill="#263238"/>
      </g>
      <rect id="Rectangle_19148" data-name="Rectangle 19148" width="265.344" height="45.427" transform="translate(63.598 85.419)" fill="#fff"/>
      <g id="Group_76405" data-name="Group 76405" transform="translate(78.119 99.879)" opacity="0.4">
        <path id="Path_1409" data-name="Path 1409" d="M175.619,203.687V208.8h6.733v1.2h-6.733v5.516H174.24V202.49h8.923v1.2Z" transform="translate(-174.24 -201.638)" fill="#263238"/>
        <path id="Path_1410" data-name="Path 1410" d="M179.67,203.064a.973.973,0,1,1,.953.953A.953.953,0,0,1,179.67,203.064Zm.284,3.1h1.318v9.775h-1.318Z" transform="translate(-168.658 -202.07)" fill="#263238"/>
        <path id="Path_1411" data-name="Path 1411" d="M187.208,204.061v1.278h-.324a3.164,3.164,0,0,0-3.285,3.61v4.989H182.28v-9.775h1.257v1.825a3.711,3.711,0,0,1,3.671-1.927Z" transform="translate(-165.975 -200.046)" fill="#263238"/>
        <path id="Path_1412" data-name="Path 1412" d="M185.25,212.791l.588-1.055a5.861,5.861,0,0,0,3.488,1.115c1.866,0,2.616-.649,2.616-1.6,0-2.555-6.327-.548-6.327-4.421,0-1.582,1.359-2.778,3.853-2.778a6.51,6.51,0,0,1,3.468.913l-.588,1.055a5.03,5.03,0,0,0-2.88-.831c-1.764,0-2.535.69-2.535,1.622,0,2.636,6.327.649,6.327,4.4,0,1.683-1.48,2.778-4.056,2.778a6.571,6.571,0,0,1-3.955-1.2Z" transform="translate(-162.922 -200.036)" fill="#263238"/>
        <path id="Path_1413" data-name="Path 1413" d="M196.372,214.4a3.285,3.285,0,0,1-2.028.669,2.576,2.576,0,0,1-2.859-2.839v-5.9H189.72v-1.115h1.764V203H192.8v2.15h2.961v1.115H192.8v5.82a1.582,1.582,0,0,0,1.683,1.8,2.272,2.272,0,0,0,1.46-.507Z" transform="translate(-158.327 -201.114)" fill="#263238"/>
        <path id="Path_1414" data-name="Path 1414" d="M207.51,202.49v13.02h-1.136l-8.355-10.566V215.51H196.64V202.49h1.136l8.376,10.566V202.49Z" transform="translate(-151.213 -201.638)" fill="#263238"/>
        <path id="Path_1415" data-name="Path 1415" d="M211.793,207.844v6.084h-1.278v-1.521a3.65,3.65,0,0,1-3.346,1.6c-2.231,0-3.59-1.136-3.59-2.839s.973-2.758,3.792-2.758h3.143V207.8c0-1.663-.953-2.576-2.778-2.576a4.948,4.948,0,0,0-3.245,1.156l-.608-.994a6.267,6.267,0,0,1,4.056-1.318,3.468,3.468,0,0,1,3.853,3.772Zm-1.318,3.123v-1.6h-3.083c-1.886,0-2.494.75-2.494,1.744s.913,1.845,2.474,1.845a3.143,3.143,0,0,0,3.143-1.987Z" transform="translate(-144.079 -200.036)" fill="#263238"/>
        <path id="Path_1416" data-name="Path 1416" d="M225.543,208.2v5.678h-1.318v-5.536c0-2.028-1.055-3.123-2.819-3.123a3.143,3.143,0,0,0-3.265,3.529v5.131h-1.318v-5.536c0-2.028-1.055-3.123-2.839-3.123a3.143,3.143,0,0,0-3.265,3.529v5.131H209.4v-9.775h1.217v1.845a4.056,4.056,0,0,1,3.59-1.866,3.529,3.529,0,0,1,3.488,2.028,4.218,4.218,0,0,1,3.853-2.028,3.691,3.691,0,0,1,4,4.117Z" transform="translate(-138.096 -200.011)" fill="#263238"/>
        <path id="Path_1417" data-name="Path 1417" d="M228.133,209.425h-8.112a3.63,3.63,0,0,0,3.853,3.407,3.833,3.833,0,0,0,3-1.3l.73.872a5.171,5.171,0,0,1-8.9-3.387,4.725,4.725,0,0,1,4.786-4.969,4.664,4.664,0,0,1,4.746,4.969A.638.638,0,0,0,228.133,209.425Zm-8.112-.994h6.936a3.468,3.468,0,1,0-6.936,0Z" transform="translate(-128.538 -200.035)" fill="#263238"/>
      </g>
    </g>
    <g id="freepik--Plant--inject-70" transform="translate(177.754 589.963)">
      <path id="Path_1418" data-name="Path 1418" d="M118.827,429.046H116.9c0-2.859,2.373-69.865,14.034-81.12,11.985-11.661,26.08-.162,26.2,0l-1.217,1.46c-.527-.426-12.918-10.485-23.667,0C121.159,359.952,118.847,428.356,118.827,429.046Z" transform="translate(-57.58 -294.201)" fill="#febf09"/>
      <path id="Path_1419" data-name="Path 1419" d="M129.305,450.866l-1.906-.182c0-.811,7.544-81.363-21.639-114.866l1.44-1.257C136.93,368.691,129.386,450.055,129.305,450.866Z" transform="translate(-69.032 -302.576)" fill="#febf09"/>
      <path id="Path_1420" data-name="Path 1420" d="M118.235,445.444c-.243-3.813-5.861-93.288,16.569-113.974l1.3,1.42c-21.76,20-16.021,111.54-15.96,112.412Z" transform="translate(-57.029 -305.752)" fill="#febf09"/>
      <path id="Path_1421" data-name="Path 1421" d="M137.8,424.9c0-.608-.69-60.84-16.65-69.905a10.14,10.14,0,0,0-9.288-.974c-9.349,3.874-14.318,21.72-14.378,21.9l-1.845-.507c.2-.771,5.273-18.921,15.494-23.16a11.945,11.945,0,0,1,10.972,1.075c16.893,9.674,17.6,68.952,17.623,71.548Z" transform="translate(-79.436 -285.269)" fill="#febf09"/>
      <path id="Path_1422" data-name="Path 1422" d="M119.8,423.531c-.122-2.028-2.576-47.536,10.343-64.43,3.448-4.482,7.26-6.611,11.4-6.307,9.187.629,16.224,13.081,16.609,13.608l-1.663.953c0-.122-6.936-12.168-15.088-12.655-3.427-.264-6.713,1.622-9.734,5.577-12.492,16.224-9.978,62.685-9.957,63.152Z" transform="translate(-54.866 -283.86)" fill="#febf09"/>
      <path id="Path_1423" data-name="Path 1423" d="M122.039,456.243l-1.906-.142c0-1.1,8.112-109.755-5.273-127.886l1.541-1.136C130.232,345.778,122.384,451.741,122.039,456.243Z" transform="translate(-59.678 -310.265)" fill="#febf09"/>
      <path id="Path_1424" data-name="Path 1424" d="M115.637,360.54s8.274,3.062,5.82,10.262S92.8,389.865,92.8,389.865,81.83,379.826,91.909,363.5,115.414,355.389,115.637,360.54Z" transform="translate(-87.65 -282.743)" fill="#febf09"/>
      <path id="Path_1425" data-name="Path 1425" d="M115.637,360.54s8.274,3.062,5.82,10.262S92.8,389.865,92.8,389.865,81.83,379.826,91.909,363.5,115.414,355.389,115.637,360.54Z" transform="translate(-87.65 -282.743)" opacity="0.2"/>
      <path id="Path_1426" data-name="Path 1426" d="M123.934,352.076s-8.822-.365-9.329,7.22,19.063,28.635,19.063,28.635,13.993-5.07,10.992-24.032S126.124,347.391,123.934,352.076Z" transform="translate(-59.95 -287.988)" fill="#febf09"/>
      <path id="Path_1427" data-name="Path 1427" d="M123.934,352.076s-8.822-.365-9.329,7.22,19.063,28.635,19.063,28.635,13.993-5.07,10.992-24.032S126.124,347.391,123.934,352.076Z" transform="translate(-59.95 -287.988)" opacity="0.2"/>
      <path id="Path_1428" data-name="Path 1428" d="M125.638,337.683s-5.881-.629-5.415-4.2,22.856-12.8,36.058,2.028c0,0-8.457,14.521-20.665,14.723S125.638,337.683,125.638,337.683Z" transform="translate(-54.191 -309.978)" fill="#febf09"/>
      <path id="Path_1429" data-name="Path 1429" d="M125.638,337.683s-5.881-.629-5.415-4.2,22.856-12.8,36.058,2.028c0,0-8.457,14.521-20.665,14.723S125.638,337.683,125.638,337.683Z" transform="translate(-54.191 -309.978)" opacity="0.2"/>
      <path id="Path_1430" data-name="Path 1430" d="M130.106,337.794s5.313,2.576,6.814-.71-12.634-22.937-31.718-17.279c0,0-.507,16.792,9.755,23.423S130.106,337.794,130.106,337.794Z" transform="translate(-69.61 -318.789)" fill="#febf09"/>
      <path id="Path_1431" data-name="Path 1431" d="M130.106,337.794s5.313,2.576,6.814-.71-12.634-22.937-31.718-17.279c0,0-.507,16.792,9.755,23.423S130.106,337.794,130.106,337.794Z" transform="translate(-69.61 -318.789)" opacity="0.2"/>
      <path id="Path_1432" data-name="Path 1432" d="M132.588,358.493s-4.056-3.285.324-4.888,25.857-1.136,26.08,20.138c0,0-25.026,4.157-28.108-3.955S132.588,358.493,132.588,358.493Z" transform="translate(-44.268 -283.576)" fill="#febf09"/>
      <path id="Path_1433" data-name="Path 1433" d="M132.588,358.493s-4.056-3.285.324-4.888,25.857-1.136,26.08,20.138c0,0-25.026,4.157-28.108-3.955S132.588,358.493,132.588,358.493Z" transform="translate(-44.268 -283.576)" opacity="0.2"/>
      <path id="Path_1434" data-name="Path 1434" d="M119.385,334.94s4.056-3.285-.324-4.867S93.2,328.917,92.98,350.19c0,0,25.026,4.178,28.108-3.934S119.385,334.94,119.385,334.94Z" transform="translate(-82.17 -307.762)" fill="#febf09"/>
      <path id="Path_1435" data-name="Path 1435" d="M119.385,334.94s4.056-3.285-.324-4.867S93.2,328.917,92.98,350.19c0,0,25.026,4.178,28.108-3.934S119.385,334.94,119.385,334.94Z" transform="translate(-82.17 -307.762)" opacity="0.2"/>
      <path id="Path_1436" data-name="Path 1436" d="M118.038,342.062s.365-4.056-2.859-2.413-14.4,13.648-2.8,25.107c0,0,15.636-11.58,12.817-17.6S118.038,342.062,118.038,342.062Z" transform="translate(-67.52 -297.747)" fill="#febf09"/>
      <path id="Path_1437" data-name="Path 1437" d="M118.038,342.062s.365-4.056-2.859-2.413-14.4,13.648-2.8,25.107c0,0,15.636-11.58,12.817-17.6S118.038,342.062,118.038,342.062Z" transform="translate(-67.52 -297.747)" opacity="0.2"/>
      <path id="Path_1438" data-name="Path 1438" d="M134.779,345.261s-2.434-3.184,1.136-3.569,19.469,3.853,15.758,19.753c0,0-19.388-1.46-20.28-8.112S134.779,345.261,134.779,345.261Z" transform="translate(-42.808 -295.268)" fill="#febf09"/>
      <path id="Path_1439" data-name="Path 1439" d="M134.779,345.261s-2.434-3.184,1.136-3.569,19.469,3.853,15.758,19.753c0,0-19.388-1.46-20.28-8.112S134.779,345.261,134.779,345.261Z" transform="translate(-42.808 -295.268)" opacity="0.2"/>
      <path id="Path_1440" data-name="Path 1440" d="M106.385,447.622h62.685l8.335-60.962H98.05Z" transform="translate(-76.958 -249.017)" fill="#263238"/>
      <path id="Path_1441" data-name="Path 1441" d="M106.385,447.622h62.685l8.335-60.962H98.05Z" transform="translate(-76.958 -249.017)" fill="#fff" opacity="0.2"/>
      <path id="Path_1442" data-name="Path 1442" d="M189.654,384.22v5.8a7.017,7.017,0,0,1-7.017,7.017h-81.83a7.017,7.017,0,0,1-7.017-7.017v-5.8Z" transform="translate(-81.337 -251.525)" fill="#263238"/>
    </g>
    <g id="freepik--speech-bubble--inject-70" transform="translate(732.209 144.86)">
      <path id="Path_1443" data-name="Path 1443" d="M437.242,99.31H378.978a17.928,17.928,0,0,0-17.927,17.928v50.7a17.927,17.927,0,0,0,17.927,17.948h17.015l-4.056,16,16.224-16h29.183a17.948,17.948,0,0,0,17.948-17.948v-50.7A17.927,17.927,0,0,0,437.242,99.31Z" transform="translate(-361.05 -99.31)" fill="#febf09"/>
      <path id="Path_1444" data-name="Path 1444" d="M437.242,99.31H378.978a17.928,17.928,0,0,0-17.927,17.928v50.7a17.927,17.927,0,0,0,17.927,17.948h17.015l-4.056,16,16.224-16h29.183a17.948,17.948,0,0,0,17.948-17.948v-50.7A17.927,17.927,0,0,0,437.242,99.31Z" transform="translate(-361.05 -99.31)" fill="#fff" opacity="0.7"/>
      <circle id="Ellipse_153" data-name="Ellipse 153" cx="22.612" cy="22.612" r="22.612" transform="translate(24.458 20.463)" fill="#fff"/>
      <path id="Path_1445" data-name="Path 1445" d="M398.919,106.29a28.9,28.9,0,1,0,20.455,8.464,28.919,28.919,0,0,0-20.455-8.464Zm16.406,20.28-17.421,20.523a2.6,2.6,0,0,1-2.028.933,2.636,2.636,0,0,1-2.028-.933l-11.337-13.365a2.657,2.657,0,1,1,4.056-3.427l9.309,10.971,15.393-18.13a2.657,2.657,0,0,1,4.056,3.427Z" transform="translate(-351.849 -92.134)" fill="#febf09"/>
    </g>
    <g id="freepik--Character--inject-70" transform="translate(591.203 242.785)">
      <path id="Path_1446" data-name="Path 1446" d="M442.543,308.517s-35.307-4.462-88.806,10.14c0,0-8.6-95.6-7.585-108.741s82.6-9.288,82.6-9.288,2.028,38.268,7.341,61.347S445.3,304.075,442.543,308.517Z" transform="translate(-235.444 -93.622)" fill="#febf09"/>
      <path id="Path_1447" data-name="Path 1447" d="M442.543,308.517s-35.307-4.462-88.806,10.14c0,0-8.6-95.6-7.585-108.741s82.6-9.288,82.6-9.288,2.028,38.268,7.341,61.347S445.3,304.075,442.543,308.517Z" transform="translate(-235.444 -93.622)" opacity="0.2"/>
      <path id="Path_1448" data-name="Path 1448" d="M337.13,427.055l14.4,4.076,3.427-22.409,1.845-11.985-14.4-4.076-2.454,16.062Z" transform="translate(-244.633 104.33)" fill="#e4897b"/>
      <path id="Path_1449" data-name="Path 1449" d="M377.95,427.841l14.845,1.967.142-21.477.1-13.344-14.865-1.947-.1,15.291Z" transform="translate(-202.67 104.72)" fill="#e4897b"/>
      <path id="Path_1450" data-name="Path 1450" d="M378.111,393.04l-.1,15.291h14.865l.1-13.344Z" transform="translate(-202.608 104.72)" opacity="0.2"/>
      <path id="Path_1451" data-name="Path 1451" d="M338.52,408.722h15.007l1.845-11.985-14.4-4.076Z" transform="translate(-243.204 104.33)" opacity="0.2"/>
      <path id="Path_1452" data-name="Path 1452" d="M312.857,210.948l-14.3-4.218,2.616,16.325s12.979,2.981,14.2-3.772Z" transform="translate(-284.283 -86.806)" fill="#e4897b"/>
      <path id="Path_1453" data-name="Path 1453" d="M291.52,210.522l7.017,13.263,9.876-.73L305.8,206.73Z" transform="translate(-291.52 -86.806)" fill="#e4897b"/>
      <path id="Path_1454" data-name="Path 1454" d="M328.324,213.533l-23.484-5.253-2.129,11.4,21.314,5.192Z" transform="translate(-280.017 -85.213)" fill="#e4897b"/>
      <path id="Path_1455" data-name="Path 1455" d="M395.242,218.722l-1.379,1.643c-2.961,3.468-10.14,11.844-17.623,19.063-6.084,5.881-12.168,11.012-16.224,12.046-11.5,2.961-53.3-9.349-53.3-9.349l4.32-16.954s38.938,5.171,41.959,5.171c2.292,0,25.979-34.314,31.718-37.133Z" transform="translate(-275.894 -100.705)" fill="#febf09"/>
      <path id="Path_1456" data-name="Path 1456" d="M358.623,212.891c-2.961,3.468-10.14,11.844-17.623,19.063,1.5-11.884,5.861-22.795,11.6-29.69a10.709,10.709,0,0,1,1.825-1.785Z" transform="translate(-240.655 -93.231)" opacity="0.2"/>
      <path id="Path_1457" data-name="Path 1457" d="M354.321,408.726l16.346-.426a1.3,1.3,0,0,1,1.3.973l3.448,13.162a2.17,2.17,0,0,1-2.028,2.717c-5.9,0-14.439,0-21.842.142-8.68.243-14.2-.183-24.336,0-6.084.162-8.112-5.962-5.516-6.591,11.62-2.88,19.225-2.312,29.122-8.8A7.077,7.077,0,0,1,354.321,408.726Z" transform="translate(-261.642 120.407)" fill="#263238"/>
      <path id="Path_1458" data-name="Path 1458" d="M341.128,411.1h0c-2.393.527-6.652,1.237-8.355-.162a2.028,2.028,0,0,1-.73-1.7,1.1,1.1,0,0,1,.548-.953c1.8-1.075,7.909,1.825,8.619,2.15a.385.385,0,0,1,.2.345A.345.345,0,0,1,341.128,411.1Zm-8.112-2.251h-.122a.446.446,0,0,0-.223.385,1.318,1.318,0,0,0,.466,1.115c.953.791,3.427.872,6.713.223-2.373-.994-5.678-2.15-6.794-1.724Z" transform="translate(-249.868 120.143)" fill="#febf09"/>
      <path id="Path_1459" data-name="Path 1459" d="M339.351,412.913h-.243c-1.846-.771-5.536-3.894-5.334-5.577,0-.406.325-.913,1.3-1.034a2.738,2.738,0,0,1,2.028.548c2.028,1.521,2.495,5.516,2.535,5.678a.365.365,0,0,1-.142.325Zm-4.543-5.82c-.3.1-.324.264-.324.324-.122,1.014,2.393,3.488,4.279,4.543a8.112,8.112,0,0,0-2.15-4.543,1.825,1.825,0,0,0-1.46-.406,1.234,1.234,0,0,0-.345.081Z" transform="translate(-248.091 118.33)" fill="#febf09"/>
      <path id="Path_1460" data-name="Path 1460" d="M395.351,408.726,411.7,408.3a1.318,1.318,0,0,1,1.318.973l3.427,13.162a2.15,2.15,0,0,1-2.028,2.717c-5.9,0-14.439,0-21.862.142-8.66.243-14.2-.183-24.336,0-6.084.162-8.112-5.962-5.516-6.591,11.62-2.88,19.205-2.312,29.1-8.8A7.077,7.077,0,0,1,395.351,408.726Z" transform="translate(-219.483 120.407)" fill="#263238"/>
      <path id="Path_1461" data-name="Path 1461" d="M382.158,411.1h0c-2.393.527-6.672,1.237-8.355-.162a2.028,2.028,0,0,1-.73-1.7,1.1,1.1,0,0,1,.548-.953c1.785-1.075,7.909,1.825,8.6,2.15a.324.324,0,0,1,.2.345.365.365,0,0,1-.264.324Zm-8.112-2.251h-.122a.406.406,0,0,0-.2.385,1.278,1.278,0,0,0,.467,1.115c.953.791,3.407.872,6.713.223-2.413-.994-5.719-2.15-6.834-1.724Z" transform="translate(-207.689 120.143)" fill="#febf09"/>
      <path id="Path_1462" data-name="Path 1462" d="M380.382,412.914h-.264c-1.825-.771-5.536-3.894-5.313-5.577,0-.406.3-.913,1.278-1.034a2.7,2.7,0,0,1,2.028.548,10.14,10.14,0,0,1,2.535,5.678.325.325,0,0,1-.142.325Zm-4.563-5.82c-.284.1-.3.264-.3.324-.142,1.014,2.393,3.488,4.279,4.543a8.335,8.335,0,0,0-2.15-4.543,1.845,1.845,0,0,0-1.46-.406Z" transform="translate(-205.913 118.329)" fill="#febf09"/>
      <path id="Path_1463" data-name="Path 1463" d="M449.734,249.26c7.869,34.091-5.638,302.294-5.638,302.294h-26.08L406.862,328.048,365.8,551.554l-27.885-2.028c18.252-173.151,34.334-276.518,34.334-276.518v-13.06Z" transform="translate(-243.831 -43.085)" fill="#263238"/>
      <path id="Path_1464" data-name="Path 1464" d="M337.91,549.526l27.885,2.028L398.121,375.6l8.741-47.557,11.154,223.506H444.1s13.506-268.2,5.638-302.294L372.2,259.948v13.06S356.142,376.375,337.91,549.526Z" transform="translate(-243.831 -43.086)" fill="#fff" opacity="0.4"/>
      <path id="Path_1465" data-name="Path 1465" d="M428.226,187.158a329.252,329.252,0,0,0,1.237,48.875c1.1,11.357,2.6,22.085,4.2,31.758,3.752,22.693,8.011,39.708,8.619,45.65l-77.53,10.688c-28.27-79.092-17.623-125.046-17.623-125.046A151.763,151.763,0,0,1,364.912,193c1.278-.345,2.576-.669,3.914-.973a290.382,290.382,0,0,1,32.955-4.543c2.028-.183,4.239-.324,6.307-.426A196.828,196.828,0,0,1,428.226,187.158Z" transform="translate(-236.377 -107.247)" fill="#263238"/>
      <path id="Path_1466" data-name="Path 1466" d="M373.57,169.45c.568,10.85,1.724,31.211,10.748,36.382,0,0-5.617,10.688-17.765,11.783-9.187.811-8.578-8.254-8.578-8.254,5.313-3.955,4.056-10.667,0-18.252Z" transform="translate(-223.214 -125.13)" fill="#e4897b"/>
      <path id="Path_1467" data-name="Path 1467" d="M367.167,173.81,358,186.627a35.285,35.285,0,0,1,2.434,5.476c4.259-1.7,9.146-8.112,8.437-12.756a15.817,15.817,0,0,0-1.7-5.536Z" transform="translate(-223.179 -120.648)" opacity="0.2"/>
      <path id="Path_1468" data-name="Path 1468" d="M346.54,160.037c-1.764,5.638-.791,17.2,7.057,13.446S349.582,150.364,346.54,160.037Z" transform="translate(-235.73 -137.559)" fill="#263238"/>
      <path id="Path_1469" data-name="Path 1469" d="M386.772,172.071c.872,14.46,2.028,22.876-4.279,31.069-9.592,12.31-28.169,7.727-33.361-6.226-4.664-12.574-5.293-34.111,8.112-41.412a20,20,0,0,1,29.528,16.569Z" transform="translate(-235.402 -141.968)" fill="#e4897b"/>
      <path id="Path_1470" data-name="Path 1470" d="M361.16,166.817V150.593s17.2-1.278,16.427,7.524c9.532,4.725,5.029,19.55-7.767,26.81-7.017-5.618-6.206-19.124-6.206-19.124A20.689,20.689,0,0,1,361.16,166.817Z" transform="translate(-219.93 -144.582)" fill="#263238"/>
      <path id="Path_1471" data-name="Path 1471" d="M376.449,171.944a13.487,13.487,0,0,1-5.78,8.741c-4.056,2.657-7.564-.608-7.706-5.171-.122-4.056,1.8-10.464,6.469-11.276a6.246,6.246,0,0,1,7.017,7.706Z" transform="translate(-218.082 -130.565)" fill="#e4897b"/>
      <path id="Path_1472" data-name="Path 1472" d="M357.051,166.651c.142,1.176-.365,2.19-1.136,2.271s-1.5-.791-1.643-2.028.365-2.19,1.115-2.271S356.909,165.393,357.051,166.651Z" transform="translate(-227.035 -130.098)" fill="#263238"/>
      <path id="Path_1473" data-name="Path 1473" d="M350.51,167.381c.142,1.176-.365,2.19-1.136,2.271s-1.5-.791-1.643-2.028.365-2.19,1.136-2.271S350.328,166.2,350.51,167.381Z" transform="translate(-233.758 -129.347)" fill="#263238"/>
      <path id="Path_1474" data-name="Path 1474" d="M353.492,166.4a40.822,40.822,0,0,1-4.522,10.3,6.976,6.976,0,0,0,5.7.3Z" transform="translate(-232.461 -128.266)" fill="#de5753"/>
      <path id="Path_1475" data-name="Path 1475" d="M356.1,176.057a11.886,11.886,0,0,1-1.521.284.345.345,0,1,1,0-.69,9.329,9.329,0,0,0,7.139-4.462.325.325,0,0,1,.446-.162.345.345,0,0,1,.162.466,9.552,9.552,0,0,1-6.226,4.563Z" transform="translate(-227.054 -123.544)" fill="#263238"/>
      <path id="Path_1476" data-name="Path 1476" d="M360.532,165.021a.73.73,0,0,1-.69-.2,5.617,5.617,0,0,0-4.685-1.8.669.669,0,0,1-.811-.548.69.69,0,0,1,.547-.811,6.936,6.936,0,0,1,5.942,2.211.669.669,0,0,1,0,.973.811.811,0,0,1-.3.183Z" transform="translate(-226.948 -133.194)" fill="#263238"/>
      <path id="Path_1477" data-name="Path 1477" d="M346.44,167.114a.568.568,0,0,1-.406,0,.689.689,0,0,1-.426-.872,6.794,6.794,0,0,1,4.482-4.421.691.691,0,1,1,.345,1.339,5.293,5.293,0,0,0-3.508,3.529.669.669,0,0,1-.487.426Z" transform="translate(-235.955 -132.995)" fill="#263238"/>
      <path id="Path_1478" data-name="Path 1478" d="M386.861,175.834s-10.14-3.711-14.764-9.592c0,0-9.207,2.413-11.093,6.084a4.583,4.583,0,0,1-.791-6.084s-6.9,1.46-8.254,6.084a5.8,5.8,0,0,1-3.245-6.084s-3.062,1.156-4.056,6.084c0,0-7.605-15.859,17.522-20.4a18.74,18.74,0,0,0-5.9-.994s17.542-7.078,31.434-.608S399.191,169.324,386.861,175.834Z" transform="translate(-238.006 -147.596)" fill="#263238"/>
      <path id="Path_1479" data-name="Path 1479" d="M415.666,327.6l-24.336,3.245s-10.039-70.149-14.46-92.8V189.7l12.716-3.346,9.856,3.346a237.274,237.274,0,0,1,6.226,29.609c1.2,7.585,2.271,15.7,3.224,23.91,1.318,11.195,2.413,22.592,3.346,33.259,1.46,17.218,2.434,32.448,2.961,41.757C415.5,324.071,415.666,327.6,415.666,327.6Z" transform="translate(-203.78 -107.757)" fill="#febf09"/>
      <path id="Path_1480" data-name="Path 1480" d="M380.629,241.051s2.028-34.131,12.716-51.734c0,0-.264-5.029-2.393-5.841s-10.323,4.056-10.323,4.056-5.09-3.488-6.206-1.866S370.59,198.078,380.629,241.051Z" transform="translate(-207.519 -110.805)" fill="#febf09"/>
      <path id="Path_1481" data-name="Path 1481" d="M380.629,241.051s2.028-34.131,12.716-51.734c0,0-.264-5.029-2.393-5.841s-10.323,4.056-10.323,4.056-5.09-3.488-6.206-1.866S370.59,198.078,380.629,241.051Z" transform="translate(-207.519 -110.805)" fill="#fff" opacity="0.7"/>
      <path id="Path_1482" data-name="Path 1482" d="M354.487,333.32l2.778,2.028s-4.056-22.612-2.393-79.8c0-2.758.182-5.415.284-7.95,2.028-48.388,9.572-57.19,10.14-57.717l-7.017,2.393-12.716,4.38C341.731,237.923,354.487,333.32,354.487,333.32Z" transform="translate(-236.701 -104.128)" fill="#febf09"/>
      <path id="Path_1483" data-name="Path 1483" d="M352.835,241.234s-7.017-33.178-4.928-44.616,9.572-6.348,9.572-6.348,6.875-5.557,8.923.568C366.4,190.839,356.952,197.49,352.835,241.234Z" transform="translate(-233.954 -106.101)" fill="#febf09"/>
      <path id="Path_1484" data-name="Path 1484" d="M352.835,241.234s-7.017-33.178-4.928-44.616,9.572-6.348,9.572-6.348,6.875-5.557,8.923.568C366.4,190.839,356.952,197.49,352.835,241.234Z" transform="translate(-233.954 -106.101)" fill="#fff" opacity="0.7"/>
      <path id="Path_1485" data-name="Path 1485" d="M398.6,226.47c-10.383-5.82-11.762-21.01-11.762-21.01.629-.243,4.482-1.562,8.538-2.9C396.574,210.145,397.649,218.257,398.6,226.47Z" transform="translate(-193.531 -91.093)" opacity="0.2"/>
      <path id="Path_1486" data-name="Path 1486" d="M368.2,348.424l8.741-47.557L375.26,275.7S363.275,319.343,368.2,348.424Z" transform="translate(-213.912 -15.905)" opacity="0.2"/>
      <path id="Path_1487" data-name="Path 1487" d="M402.545,272.507c-6.53-.446-12.168-.872-12.168-.872l-1.237-26.547a9.43,9.43,0,0,1,6.834-1.257,74.687,74.687,0,0,0,3.63-13.081C401.024,247.968,402.018,263.218,402.545,272.507Z" transform="translate(-191.167 -62.114)" opacity="0.2"/>
      <path id="Path_1488" data-name="Path 1488" d="M403.3,230.74,390.58,251.162l10.059,5.78,11.945-18.394Z" transform="translate(-189.686 -62.124)" fill="#e4897b"/>
      <path id="Path_1489" data-name="Path 1489" d="M390.721,187.84c8.558.933,44.94,50.862,46.543,65.91s-21.375,41.026-21.375,41.026l-15.332-9.025s15.575-23.951,16.386-30.42-28.493-32.61-28.493-32.61a59.036,59.036,0,0,1-3.61-18.779C384.434,192.951,390.721,187.84,390.721,187.84Z" transform="translate(-195.607 -106.225)" fill="#febf09"/>
      <path id="Path_1490" data-name="Path 1490" d="M391.5,237.83s13.081,2.8,18.353,11.032c0,0-5.476,17.137-9.39,19s-13.608,1.866-13.608,1.866S386.223,250.667,391.5,237.83Z" transform="translate(-193.543 -54.836)" fill="#febf09"/>
    </g>
  </g>
</svg>
