<svg xmlns="http://www.w3.org/2000/svg" width="174.849" height="53.317" viewBox="0 0 174.849 53.317">
  <g id="Layer_1-2" transform="translate(243.791 0.005)">
    <g id="Group_1" data-name="Group 1" transform="translate(-176 20.072)">
      <path id="Path_13" data-name="Path 13" d="M315.947,103.175a6.161,6.161,0,0,0-1.867,4.5v.853h10.878a4.644,4.644,0,0,1-4.543,3.745H314.08v1.771h6.385a6.393,6.393,0,0,0,6.35-6.4v-.885H315.937a4.444,4.444,0,0,1,1.549-2.606,4.531,4.531,0,0,1,2.994-1.089h6.335V101.29h-6.368A6.222,6.222,0,0,0,315.947,103.175Z" transform="translate(-314.08 -101.29)" fill="#031227"/>
      <path id="Path_14" data-name="Path 14" d="M399.43,122.34a4.218,4.218,0,0,0-3.378,1.673,4.262,4.262,0,0,0-7.651,2.606v4.261h1.787v-4.261a2.418,2.418,0,0,1,.722-1.767,2.489,2.489,0,0,1,4.241,1.633v4.4h1.771v-4.391a2.406,2.406,0,0,1,.771-1.679,2.525,2.525,0,0,1,3.5.05,2.4,2.4,0,0,1,.738,1.759v4.261h1.755v-4.261a4.251,4.251,0,0,0-4.261-4.277Z" transform="translate(-373.525 -118.127)" fill="#031227"/>
      <path id="Path_15" data-name="Path 15" d="M478.537,122.17a4.3,4.3,0,0,0,0,8.592,4.259,4.259,0,0,0,2.508-.8v.8h1.771v-4.3a4.291,4.291,0,0,0-4.277-4.3Zm-1.769,2.528a2.488,2.488,0,1,1-.741,1.767A2.423,2.423,0,0,1,476.768,124.7Z" transform="translate(-442.201 -117.991)" fill="#031227"/>
      <path id="Path_16" data-name="Path 16" d="M528.957,123.475a4.105,4.105,0,0,0-1.267,2.988v4.345h1.771v-4.279a2.529,2.529,0,0,1,2.508-2.508h.1V122.25h-.1a4.172,4.172,0,0,0-3.012,1.223Z" transform="translate(-484.938 -118.055)" fill="#031227"/>
      <path id="Path_17" data-name="Path 17" d="M560.781,101.38H559.01V109.9a4.04,4.04,0,0,0,1.259,2.98,4.186,4.186,0,0,0,3.02,1.233h.1v-1.771h-.1a2.528,2.528,0,0,1-2.508-2.508V107.33h2.608v-1.771h-2.608Z" transform="translate(-509.989 -101.362)" fill="#031227"/>
      <path id="Path_18" data-name="Path 18" d="M612.158,112.3H610.7a4.64,4.64,0,0,1-4.631-4.631V101.33H604.3v6.4a6.407,6.407,0,0,0,6.4,6.335h3.226V101.332h-1.771V112.3Z" transform="translate(-546.215 -101.322)" fill="#32f8bd"/>
      <rect id="Rectangle_4" data-name="Rectangle 4" width="1.771" height="8.556" transform="translate(69.87 4.189)" fill="#32f8bd"/>
      <path id="Path_19" data-name="Path 19" d="M663.985,103.093a.819.819,0,0,0,.614-.264.867.867,0,0,0,.254-.62.847.847,0,0,0-.254-.614.835.835,0,0,0-.614-.254.867.867,0,0,0-.62.254.825.825,0,0,0-.264.614.885.885,0,0,0,.885.887Z" transform="translate(-593.246 -101.33)" fill="#32f8bd"/>
      <path id="Path_20" data-name="Path 20" d="M683.953,123.487a4.293,4.293,0,0,0-1.223,3.07v.835h6.531a2.357,2.357,0,0,1-.849,1.115,2.4,2.4,0,0,1-1.453.49H682.73v1.787h4.229a4.3,4.3,0,0,0,4.227-4.229V125.6h-6.539a2.139,2.139,0,0,1,.727-1.035,2.556,2.556,0,0,1,1.365-.57h4.445V122.21h-4.229a4.02,4.02,0,0,0-3.006,1.275Z" transform="translate(-608.948 -118.023)" fill="#32f8bd"/>
      <rect id="Rectangle_5" data-name="Rectangle 5" width="1.771" height="8.556" transform="translate(84.394 4.189)" fill="#32f8bd"/>
      <path id="Path_21" data-name="Path 21" d="M736.565,103.093a.819.819,0,0,0,.614-.264.867.867,0,0,0,.254-.62.847.847,0,0,0-.254-.614.836.836,0,0,0-.614-.254.867.867,0,0,0-.62.254.825.825,0,0,0-.264.614.885.885,0,0,0,.885.887Z" transform="translate(-651.3 -101.33)" fill="#32f8bd"/>
      <path id="Path_22" data-name="Path 22" d="M758.3,122.3a4.108,4.108,0,0,0-3.022,1.259,4.286,4.286,0,0,0,0,6.032,4.253,4.253,0,0,0,7.265-3.012,4.166,4.166,0,0,0-1.241-3.02,4.087,4.087,0,0,0-3-1.259Zm-1.767,2.528a2.513,2.513,0,0,1,3.527,0,2.464,2.464,0,0,1,0,3.5,2.5,2.5,0,0,1-3.518,0,2.474,2.474,0,0,1-.008-3.5Z" transform="translate(-665.985 -118.095)" fill="#32f8bd"/>
      <path id="Path_23" data-name="Path 23" d="M813.339,123.3a4.317,4.317,0,0,0-6.082.008,4.123,4.123,0,0,0-1.267,3.02v4.311h1.787v-4.311a2.413,2.413,0,0,1,.739-1.775,2.452,2.452,0,0,1,1.785-.733,2.39,2.39,0,0,1,1.759.731,2.432,2.432,0,0,1,.731,1.775v4.311H814.6v-4.311a4.135,4.135,0,0,0-1.259-3.03Z" transform="translate(-707.538 -117.895)" fill="#32f8bd"/>
    </g>
    <path id="Path_24" data-name="Path 24" d="M26.659,53.312A26.658,26.658,0,1,1,45.51,45.5h0a26.481,26.481,0,0,1-18.851,7.808ZM11.376,13.5V28.18a12.17,12.17,0,0,0,2.043,6.829c3.336,4.855,9.273,5.232,11.018,5.232.22,0,.388,0,.466-.01h.961a14.413,14.413,0,0,1-9.827-5.864A10.821,10.821,0,0,1,14,28.216V15.953h7.866a11.076,11.076,0,0,1,5.386,1.4,8.71,8.71,0,0,1,4.621,7.165v6.128l2.548,2.572V24.525a11.419,11.419,0,0,0-.65-3.579,10.748,10.748,0,0,0-5-5.984A11.864,11.864,0,0,0,23.08,13.51h-11.7Zm7.742,7.043v8.684a11.4,11.4,0,0,0,.65,3.575,10.747,10.747,0,0,0,5,5.978,11.848,11.848,0,0,0,5.676,1.453H42.14V25.1a10.38,10.38,0,0,0-.6-3.482,12.027,12.027,0,0,0-3.845-5.5,15.178,15.178,0,0,0-9.541-2.62h-.5l.234.084c4.887,1.591,8.986,4.425,10.439,7.223a8.448,8.448,0,0,1,1.087,4.459V37.791H31.655a11.1,11.1,0,0,1-4.919-1.153,8.78,8.78,0,0,1-4.749-5.576,9.539,9.539,0,0,1-.322-2.46V23.118l-2.548-2.568Z" transform="translate(-243.791 0)" fill="#031227"/>
  </g>
</svg>
