<svg id="svgexport-6_-_2022-03-28T115700.454" data-name="svgexport-6 - 2022-03-28T115700.454" xmlns="http://www.w3.org/2000/svg" width="74.129" height="74.129" viewBox="0 0 74.129 74.129">
  <g id="Group_2341" data-name="Group 2341" transform="translate(0 14.092)">
    <g id="Group_2340" data-name="Group 2340">
      <path id="Path_1008" data-name="Path 1008" d="M0,81.919V137.9H21.621V77.865Zm15.444,49.806H6.178v-6.177h9.266Zm0-12.355H6.178v-6.178h9.266Zm0-12.355H6.178v-6.178h9.266Zm0-12.355H6.178V88.483h9.266Z" transform="translate(0 -77.865)" fill="#019572"/>
    </g>
  </g>
  <g id="Group_2343" data-name="Group 2343" transform="translate(27.798)">
    <g id="Group_2342" data-name="Group 2342">
      <path id="Path_1009" data-name="Path 1009" d="M153.6,0V74.129h46.331V8.687Zm18.532,67.952h-9.266V61.775h9.266Zm0-12.355h-9.266V49.419h9.266Zm0-12.355h-9.266V37.065h9.266Zm0-12.355h-9.266V24.71h9.266Zm0-12.355h-9.266V12.355h9.266Zm18.532,49.419H181.4V61.775h9.266Zm0-12.355H181.4V49.419h9.266Zm0-12.355H181.4V37.065h9.266Zm0-12.355H181.4V24.71h9.266Z" transform="translate(-153.6)" fill="#019572"/>
    </g>
  </g>
</svg>
