<svg xmlns="http://www.w3.org/2000/svg" width="34.288" height="34.288" viewBox="0 0 34.288 34.288">
  <g id="svgexport-6_99_" data-name="svgexport-6 (99)" transform="translate(-8 -8)">
    <path id="Path_803" data-name="Path 803" d="M47,25.858a.714.714,0,0,1-.5-.209L30.572,9.724l-2.352,2.352a.714.714,0,1,1-1.01-1.01l2.857-2.857a.714.714,0,0,1,1.01,0l16.43,16.43A.714.714,0,0,1,47,25.858Z" transform="translate(-5.428)" fill="#fff"/>
    <path id="Path_804" data-name="Path 804" d="M8.714,27.572a.714.714,0,0,1-.505-1.219L20.353,14.209a.714.714,0,1,1,1.01,1.01L9.219,27.363a.714.714,0,0,1-.505.209Z" transform="translate(0 -1.714)" fill="#fff"/>
    <path id="Path_805" data-name="Path 805" d="M11.714,48A.714.714,0,0,1,11,47.287V28.714a.714.714,0,0,1,1.429,0V47.287A.714.714,0,0,1,11.714,48Z" transform="translate(-0.857 -5.713)" fill="#fff"/>
    <path id="Path_806" data-name="Path 806" d="M51.714,48A.714.714,0,0,1,51,47.287V28.714a.714.714,0,0,1,1.429,0V47.287A.714.714,0,0,1,51.714,48Z" transform="translate(-12.284 -5.713)" fill="#fff"/>
    <path id="Path_807" data-name="Path 807" d="M51,55.429H41.714a.714.714,0,0,1,0-1.429H51a.714.714,0,1,1,0,1.429Z" transform="translate(-9.427 -13.141)" fill="#fff"/>
    <path id="Path_808" data-name="Path 808" d="M30.144,55.429H8.714a.714.714,0,0,1,0-1.429h21.43a.714.714,0,0,1,0,1.429Z" transform="translate(0 -13.141)" fill="#fff"/>
    <path id="Path_809" data-name="Path 809" d="M34.715,49.715h-10A.714.714,0,0,1,24,49V39.715a5.715,5.715,0,0,1,11.429,0V49A.714.714,0,0,1,34.715,49.715Zm-9.286-1.429H34V39.715a4.286,4.286,0,0,0-8.572,0Z" transform="translate(-4.571 -7.427)" fill="#fff"/>
  </g>
</svg>
