<svg xmlns="http://www.w3.org/2000/svg" width="62.562" height="62.553" viewBox="0 0 62.562 62.553">
  <g id="svgexport-7_99_" data-name="svgexport-7 (99)" transform="translate(0 -0.037)">
    <g id="Group_8" data-name="Group 8" transform="translate(0 0.037)">
      <path id="Path_771" data-name="Path 771" d="M31.15,77.589A12.22,12.22,0,0,1,20,65.417V44.856a12.219,12.219,0,0,1,4.809-9.716L41.427,22.466a12.219,12.219,0,0,1,14.821,0l1.124.857a12.206,12.206,0,0,0-8.613,2.442L28.995,40.839a4.226,4.226,0,0,0-1.663,3.36V68.717A12.184,12.184,0,0,0,31.15,77.589Z" transform="translate(-17.556 -17.528)" fill="#ff5e00"/>
      <path id="Path_772" data-name="Path 772" d="M47.9,62.59H14.663A14.68,14.68,0,0,1,0,47.927V27.366A14.748,14.748,0,0,1,5.771,15.707L22.389,3.032a14.7,14.7,0,0,1,17.785,0l5.282,4.025V3.938a2.444,2.444,0,1,1,4.888,0v8.054a2.444,2.444,0,0,1-3.925,1.944L37.21,6.919a9.8,9.8,0,0,0-11.857,0L8.735,19.593a9.831,9.831,0,0,0-3.847,7.772V47.927A9.786,9.786,0,0,0,14.663,57.7H47.9a9.786,9.786,0,0,0,9.775-9.775V27.366a9.838,9.838,0,0,0-3.8-7.8,2.444,2.444,0,1,1,2.964-3.886,14.753,14.753,0,0,1,5.727,11.685V47.927A14.68,14.68,0,0,1,47.9,62.59Z" transform="translate(0 -0.037)" fill="#019572"/>
      <path id="Path_773" data-name="Path 773" d="M197.11,234.017a3.055,3.055,0,1,1-3.055-3.055A3.055,3.055,0,0,1,197.11,234.017Zm6.721-3.055a3.055,3.055,0,1,0,3.055,3.055A3.055,3.055,0,0,0,203.83,230.962Zm-9.775,9.775a3.055,3.055,0,1,0,3.055,3.055A3.055,3.055,0,0,0,194.055,240.737Zm9.775,0a3.055,3.055,0,1,0,3.055,3.055A3.055,3.055,0,0,0,203.83,240.737Z" transform="translate(-167.661 -202.745)" fill="#019572"/>
    </g>
  </g>
</svg>
