<svg id="svgexport-6_-_2022-03-28T101156.931" data-name="svgexport-6 - 2022-03-28T101156.931" xmlns="http://www.w3.org/2000/svg" width="47.172" height="58.007" viewBox="0 0 47.172 58.007">
  <g id="Layer_19" data-name="Layer 19">
    <path id="Path_984" data-name="Path 984" d="M55.586,39,40.46,23.875a12.987,12.987,0,0,1-1.853,1.318L52.414,39Z" transform="translate(-8.414 -2.993)" fill="#ff5516"/>
    <path id="Path_985" data-name="Path 985" d="M13,55H26v2H13Z" transform="translate(-8.414 -2.993)" fill="#ff5516"/>
    <path id="Path_986" data-name="Path 986" d="M51,40.414l-14.3-14.3a13.171,13.171,0,0,1-1.408.462l-2.435,3.952a1,1,0,0,1-1.7,0l-2.435-3.952a13.172,13.172,0,0,1-1.408-.462L13,40.414V53H26V46a6,6,0,0,1,12,0v7H51Z" transform="translate(-8.414 -2.993)" fill="#ff5516"/>
    <path id="Path_987" data-name="Path 987" d="M38,55H51v2H38Z" transform="translate(-8.414 -2.993)" fill="#ff5516"/>
    <path id="Path_988" data-name="Path 988" d="M25.393,25.193a12.987,12.987,0,0,1-1.853-1.318L8.414,39h3.172Z" transform="translate(-8.414 -2.993)" fill="#ff5516"/>
    <path id="Path_989" data-name="Path 989" d="M29.569,24.721a1,1,0,0,1,.631.451l1.8,2.92,1.8-2.92a1,1,0,0,1,.631-.451,11,11,0,1,0-4.862,0ZM32,6a3.988,3.988,0,0,1,2,7.445V21l-2,2-2-2V19l1-1-1-1V13.445A3.988,3.988,0,0,1,32,6Z" transform="translate(-8.414 -2.993)" fill="#ff5516"/>
    <path id="Path_990" data-name="Path 990" d="M11,59H53v2H11Z" transform="translate(-8.414 -2.993)" fill="#ff5516"/>
    <path id="Path_991" data-name="Path 991" d="M31,9h2v2H31Z" transform="translate(-8.414 -2.993)" fill="#ff5516"/>
  </g>
</svg>
