<svg id="svgexport-6_-_2022-03-28T101239.605" data-name="svgexport-6 - 2022-03-28T101239.605" xmlns="http://www.w3.org/2000/svg" width="51.967" height="46.903" viewBox="0 0 51.967 46.903">
  <path id="Path_992" data-name="Path 992" d="M9.014,45.932v6.591A7.732,7.732,0,0,1,12.5,55.348h8.7V53.989a2.522,2.522,0,0,1,2.515-2.515h5.335a2.522,2.522,0,0,1,2.515,2.515v17.86H38.42A5.362,5.362,0,0,0,43.766,66.5V45.932l2.266,1.646a3.739,3.739,0,0,0,4.388-6.055L28.648,25.7a3.74,3.74,0,0,0-4.453-.047L2.36,41.523a3.739,3.739,0,0,0,4.388,6.055ZM6.105,53.579a6.107,6.107,0,0,1,5.472,3.393H25.991L28.136,59.5,26.9,62.4H24.694l-1.671-2.322L21.352,62.4l-1.671-2.322L18.01,62.4H11.577a6.107,6.107,0,1,1-5.472-8.821ZM4.625,57.8a1.889,1.889,0,1,1-1.889,1.889A1.889,1.889,0,0,1,4.625,57.8Zm4.4,9.048a7.733,7.733,0,0,0,3.48-2.821h6.337l.839-1.166,1.526,2.121v6.87H14.36A5.364,5.364,0,0,1,9.025,66.845Z" transform="translate(0.002 -24.946)" fill="#019572" fill-rule="evenodd"/>
</svg>
