<svg xmlns="http://www.w3.org/2000/svg" width="78.139" height="83.881" viewBox="0 0 78.139 83.881">
  <g id="svgexport-6_-_2022-03-28T115844.958" data-name="svgexport-6 - 2022-03-28T115844.958" transform="translate(-16.02)">
    <g id="Group_2347" data-name="Group 2347" transform="translate(16.02 0)">
      <g id="Group_2346" data-name="Group 2346" transform="translate(18.292 0)">
        <path id="Path_1015" data-name="Path 1015" d="M184.624,0a10.816,10.816,0,1,0,10.783,10.816A10.811,10.811,0,0,0,184.624,0Z" transform="translate(-163.846 0)" fill="#019572"/>
        <path id="Path_1016" data-name="Path 1016" d="M128.831,134.91a20.862,20.862,0,0,0-10.755,18.372v7.343a1.055,1.055,0,0,0,1.073,1.186h39.408a1.075,1.075,0,0,0,1.1-1.186v-7.343a20.875,20.875,0,0,0-10.77-18.372,17.959,17.959,0,0,1-20.056,0Z" transform="translate(-118.076 -110.73)" fill="#019572"/>
      </g>
      <path id="Path_1017" data-name="Path 1017" d="M172.956,346.957l-8.239,4.353,1.573-9.219-6.665-6.529,9.211-1.345,4.119-8.388,4.119,8.388,9.211,1.345-6.665,6.529,1.574,9.219Z" transform="translate(-133.887 -267.429)" fill="#019572"/>
      <path id="Path_1018" data-name="Path 1018" d="M27.473,303.932l7.078,3.74L33.2,299.751l5.726-5.61-7.914-1.155-3.539-7.207-3.539,7.207-7.914,1.156,5.726,5.61-1.352,7.921Z" transform="translate(-16.02 -234.558)" fill="#019572"/>
      <path id="Path_1019" data-name="Path 1019" d="M335.636,303.932l7.078,3.74-1.352-7.921,5.726-5.61-7.914-1.155-3.539-7.207-3.539,7.207-7.914,1.156,5.726,5.61-1.352,7.921Z" transform="translate(-268.95 -234.558)" fill="#019572"/>
    </g>
  </g>
</svg>
