<svg xmlns="http://www.w3.org/2000/svg" width="37.88" height="36.669" viewBox="0 0 37.88 36.669">
  <g id="svgexport-6_-_2022-01-18T144331.350" data-name="svgexport-6 - 2022-01-18T144331.350" transform="translate(0 -8.18)">
    <g id="Group_41" data-name="Group 41" transform="translate(1.767 10.716)">
      <g id="Group_40" data-name="Group 40" transform="translate(0 0)">
        <path id="Path_844" data-name="Path 844" d="M59.8,43.49a4.443,4.443,0,0,0-3.011-1.041c-2.433,0-5.158,1.492-8.1,4.434L38.511,57.061a2.259,2.259,0,0,0,0,3.194.14.14,0,0,1,0,.2l-1.25,1.25c-.031.03-.11.018-.172-.011a2.269,2.269,0,0,0-2.537.457l-9.9,9.9a2.659,2.659,0,0,0,3.76,3.76L59.8,44.423A.659.659,0,0,0,59.8,43.49ZM27.484,74.873a1.34,1.34,0,0,1-1.895-1.895l9.9-9.9a.944.944,0,0,1,1.056-.19,1.455,1.455,0,0,0,1.653-.256l1.25-1.249a1.461,1.461,0,0,0,0-2.063.94.94,0,0,1,0-1.329L49.622,47.816c3.281-3.281,5.648-4.012,7.056-4.046a3.7,3.7,0,0,1,1.612.3Z" transform="translate(-23.88 -42.449)" fill="#fff"/>
      </g>
    </g>
    <g id="Group_43" data-name="Group 43" transform="translate(1.697 11.573)">
      <g id="Group_42" data-name="Group 42" transform="translate(0 0)">
        <path id="Path_845" data-name="Path 845" d="M29.7,59.878l-5.645-5.645a.659.659,0,0,0-.933.933l5.645,5.645a.659.659,0,0,0,.933-.933Z" transform="translate(-22.929 -54.039)" fill="#fff"/>
      </g>
    </g>
    <g id="Group_45" data-name="Group 45" transform="translate(3.393 9.877)">
      <g id="Group_44" data-name="Group 44" transform="translate(0 0)">
        <path id="Path_846" data-name="Path 846" d="M52.629,36.949,46.984,31.3a.659.659,0,0,0-.933.933L51.7,37.881a.659.659,0,0,0,.933-.933Z" transform="translate(-45.858 -31.11)" fill="#fff"/>
      </g>
    </g>
    <g id="Group_47" data-name="Group 47" transform="translate(5.089 8.18)">
      <g id="Group_46" data-name="Group 46" transform="translate(0 0)">
        <path id="Path_847" data-name="Path 847" d="M81.2,21.924,79.766,20.49a1.463,1.463,0,0,0-1.486-.355l-.793-.793.208-1.455a3.073,3.073,0,0,0-.865-2.6L69.912,8.373a.659.659,0,1,0-.933.933L75.9,16.223a1.748,1.748,0,0,1,.492,1.476l-.254,1.781a.659.659,0,0,0,.187.56L77.7,21.422a.659.659,0,0,0,.932,0,.14.14,0,0,1,.2,0l1.434,1.434a.659.659,0,0,0,.932-.933Z" transform="translate(-68.786 -8.18)" fill="#fff"/>
      </g>
    </g>
    <g id="Group_49" data-name="Group 49" transform="translate(20.599 28.71)">
      <g id="Group_48" data-name="Group 48">
        <path id="Path_848" data-name="Path 848" d="M293.711,297.276,282.3,285.867a.659.659,0,1,0-.933.933l11.409,11.409a1.34,1.34,0,0,1-1.895,1.895l-11.34-11.34a.659.659,0,0,0-.933.933l11.34,11.34a2.659,2.659,0,0,0,3.76-3.76Z" transform="translate(-278.417 -285.674)" fill="#fff"/>
      </g>
    </g>
    <g id="Group_51" data-name="Group 51" transform="translate(0 13.269)">
      <g id="Group_50" data-name="Group 50" transform="translate(0)">
        <path id="Path_849" data-name="Path 849" d="M14.607,88.38l-1.365-1.365a.14.14,0,0,1,0-.2.659.659,0,0,0,0-.933L11.86,84.5a.66.66,0,0,0-.56-.187l-1.781.254a1.748,1.748,0,0,1-1.476-.492L1.126,77.16a.659.659,0,0,0-.933.933L7.111,85.01a3.073,3.073,0,0,0,2.6.865l1.455-.208.794.794a1.463,1.463,0,0,0,.355,1.486l1.365,1.365a.659.659,0,0,0,.933-.932Z" transform="translate(0 -76.967)" fill="#fff"/>
      </g>
    </g>
  </g>
</svg>
