<svg id="svgexport-6_-_2022-03-28T101033.478" data-name="svgexport-6 - 2022-03-28T101033.478" xmlns="http://www.w3.org/2000/svg" width="48.234" height="47.235" viewBox="0 0 48.234 47.235">
  <path id="Path_973" data-name="Path 973" d="M51.851,19.229,31.316,5.54a5.681,5.681,0,0,0-3.158-.96,6.039,6.039,0,0,0-3.24.96L4.384,19.229a.861.861,0,1,0,.956,1.433L25.874,6.973a3.813,3.813,0,0,1,2.249-.67,4.137,4.137,0,0,1,2.238.67L50.9,20.663a.861.861,0,1,0,.956-1.433Z" transform="translate(-4 -4.58)" fill="#019572"/>
  <path id="Path_974" data-name="Path 974" d="M48.595,21.929,29.792,9.388a1.881,1.881,0,0,0-2.1,0L8.888,21.929a.846.846,0,0,0-.388.715V47.7a4.746,4.746,0,0,0,4.737,4.737H44.245A4.746,4.746,0,0,0,48.982,47.7V22.644a.846.846,0,0,0-.388-.715ZM39.577,39.862,33.539,45.9a2.3,2.3,0,0,1-3.23,0l-9.647-9.655A2.258,2.258,0,0,1,20,34.487l.172-2.739c-2.582-1.577-3.959-5.537-2.024-7.278,1.747-1.927,5.709-.571,7.278,2.024l2.748-.172a2.258,2.258,0,0,1,1.757.663l9.647,9.647a2.293,2.293,0,0,1,0,3.23Z" transform="translate(-4.624 -5.202)" fill="#019572"/>
  <path id="Path_975" data-name="Path 975" d="M25.007,29.233l-.835.052a2.282,2.282,0,0,0-2.127,2.136l-.06.827C18.9,28.876,21.633,26.146,25.007,29.233Z" transform="translate(-6.307 -7.812)" fill="#019572"/>
  <path id="Path_976" data-name="Path 976" d="M40.49,41.693l-6.038,6.038a.567.567,0,0,1-.792,0L24,38.084a.539.539,0,0,1-.155-.431l.121-2.033a4.228,4.228,0,0,0,1.878.172l.284.612a.861.861,0,1,0,1.559-.732l-1.163-2.489a.853.853,0,0,0-1.137-.413.9.9,0,0,0-.345,1.318,3.527,3.527,0,0,1-.956-.258l.112-1.852a.558.558,0,0,1,.525-.525s5.649-.346,5.676-.362a.576.576,0,0,1,.431.164l9.655,9.655a.556.556,0,0,1,0,.784Z" transform="translate(-6.752 -8.256)" fill="#019572"/>
</svg>
