<svg id="svgexport-6_-_2022-03-28T115724.108" data-name="svgexport-6 - 2022-03-28T115724.108" xmlns="http://www.w3.org/2000/svg" width="67.703" height="67.703" viewBox="0 0 67.703 67.703">
  <g id="Group_2345" data-name="Group 2345">
    <g id="Group_2344" data-name="Group 2344" transform="translate(18.513)">
      <path id="Path_1010" data-name="Path 1010" d="M271,430h3.967v10.843H271Z" transform="translate(-253.678 -373.14)" fill="#019572"/>
      <path id="Path_1011" data-name="Path 1011" d="M211,430h3.967v10.843H211Z" transform="translate(-201.611 -373.14)" fill="#019572"/>
      <path id="Path_1012" data-name="Path 1012" d="M168.694,0H141.984A1.984,1.984,0,0,0,140,1.983V67.7h5.422V54.877a1.984,1.984,0,0,1,1.983-1.983h15.868a1.984,1.984,0,0,1,1.984,1.983V67.7h5.422V1.983A1.984,1.984,0,0,0,168.694,0ZM149.389,46.943a1.983,1.983,0,0,1-3.967,0V42.976a1.983,1.983,0,0,1,3.967,0Zm0-11.9a1.983,1.983,0,0,1-3.967,0V31.075a1.983,1.983,0,0,1,3.967,0Zm7.934,11.9a1.983,1.983,0,0,1-3.967,0V42.976a1.983,1.983,0,0,1,3.967,0Zm0-11.9a1.983,1.983,0,0,1-3.967,0V31.075a1.983,1.983,0,0,1,3.967,0Zm7.934,11.9a1.983,1.983,0,0,1-3.967,0V42.976a1.983,1.983,0,0,1,3.967,0Zm0-11.9a1.983,1.983,0,0,1-3.967,0V31.075a1.983,1.983,0,0,1,3.967,0Zm-15.868-11.9a1.983,1.983,0,0,1-3.967,0V19.174a1.983,1.983,0,0,1,3.967,0Zm7.934,0a1.983,1.983,0,0,1-3.967,0V19.174a1.983,1.983,0,0,1,3.967,0Zm7.934,0a1.983,1.983,0,0,1-3.967,0V19.174a1.983,1.983,0,0,1,3.967,0Zm-15.868-11.9a1.983,1.983,0,0,1-3.967,0V7.273a1.983,1.983,0,0,1,3.967,0Zm7.934,0a1.983,1.983,0,0,1-3.967,0V7.273a1.983,1.983,0,0,1,3.967,0Zm7.934,0a1.983,1.983,0,0,1-3.967,0V7.273a1.983,1.983,0,0,1,3.967,0Z" transform="translate(-140)" fill="#019572"/>
    </g>
    <path id="Path_1013" data-name="Path 1013" d="M414.562,200H402v41.257h12.562a1.984,1.984,0,0,0,1.983-1.983v-37.29A1.984,1.984,0,0,0,414.562,200Zm-3.306,25.785a1.983,1.983,0,1,1-3.967,0v-3.967a1.983,1.983,0,0,1,3.967,0Zm0-11.9a1.983,1.983,0,1,1-3.967,0v-3.967a1.983,1.983,0,0,1,3.967,0Z" transform="translate(-348.842 -173.553)" fill="#019572"/>
    <path id="Path_1014" data-name="Path 1014" d="M1.983,200A1.984,1.984,0,0,0,0,201.984v37.29a1.984,1.984,0,0,0,1.983,1.983H14.546V200Zm7.273,25.785a1.983,1.983,0,0,1-3.967,0v-3.967a1.983,1.983,0,0,1,3.967,0Zm0-11.9a1.983,1.983,0,1,1-3.967,0v-3.967a1.983,1.983,0,1,1,3.967,0Z" transform="translate(0 -173.553)" fill="#019572"/>
  </g>
</svg>
